M48
; DRILL file {KiCad 7.0.1-3b83917a11~172~ubuntu20.04.1} date do 20 apr 2023 11:00:40 CEST
; FORMAT={-:-/ absolute / metric / decimal}
; #@! TF.CreationDate,2023-04-20T11:00:40+02:00
; #@! TF.GenerationSoftware,Kicad,Pcbnew,7.0.1-3b83917a11~172~ubuntu20.04.1
; #@! TF.FileFunction,Plated,1,2,PTH
FMAT,2
METRIC
; #@! TA.AperFunction,Plated,PTH,ViaDrill
T1C0.300
; #@! TA.AperFunction,Plated,PTH,ComponentDrill
T2C0.762
; #@! TA.AperFunction,Plated,PTH,ComponentDrill
T3C0.800
; #@! TA.AperFunction,Plated,PTH,ComponentDrill
T4C0.950
; #@! TA.AperFunction,Plated,PTH,ComponentDrill
T5C1.000
%
G90
G05
T1
X134.62Y-60.96
T2
X124.51Y-54.385
X124.51Y-56.925
X160.07Y-54.385
X160.07Y-56.925
T3
X99.06Y-38.1
X99.06Y-40.64
X99.06Y-43.18
X99.06Y-45.72
X99.06Y-48.26
X99.06Y-50.8
X99.06Y-53.34
X99.06Y-55.88
X99.06Y-58.42
X99.06Y-60.96
X99.06Y-63.5
X99.06Y-66.04
X99.06Y-68.58
X99.06Y-71.12
X99.06Y-73.66
X99.06Y-76.2
X100.965Y-88.265
X100.965Y-95.885
X104.14Y-88.265
X104.14Y-95.885
X107.315Y-88.265
X107.315Y-95.885
X112.395Y-88.265
X112.395Y-95.885
X115.57Y-88.265
X115.57Y-95.885
X118.745Y-88.265
X118.745Y-95.885
X119.38Y-48.26
X119.38Y-50.8
X119.38Y-53.34
X119.38Y-55.88
X119.38Y-58.42
X119.38Y-60.96
X119.38Y-63.5
X119.38Y-66.04
X119.38Y-68.58
X119.38Y-71.12
X119.38Y-73.66
X119.38Y-76.2
X121.92Y-88.265
X121.92Y-95.885
X125.095Y-88.265
X125.095Y-95.885
X128.27Y-88.265
X128.27Y-95.885
X131.445Y-88.265
X131.445Y-95.885
X133.995Y-67.3
X133.995Y-74.92
X135.89Y-80.645
X135.89Y-83.82
X135.89Y-86.995
X135.89Y-90.17
X135.89Y-93.345
X136.535Y-67.3
X136.535Y-74.92
X139.075Y-67.3
X139.075Y-74.92
X141.615Y-67.3
X141.615Y-74.92
X143.51Y-80.645
X143.51Y-83.82
X143.51Y-86.995
X143.51Y-90.17
X143.51Y-93.345
X147.955Y-81.28
X147.955Y-98.425
X148.59Y-86.995
X148.59Y-94.615
X149.9Y-72.39
X150.495Y-81.28
X151.765Y-86.995
X151.765Y-94.615
X152.4Y-72.39
X153.035Y-81.28
X154.94Y-86.995
X154.94Y-94.615
X155.575Y-98.425
T4
X101.76Y-101.6
X104.26Y-101.6
X106.76Y-101.6
X115.095Y-101.6
X117.595Y-101.6
X120.095Y-101.6
X122.595Y-101.6
X125.095Y-101.6
T5
X134.66Y-101.6
X137.16Y-101.6
X160.02Y-70.485
X160.02Y-73.025
X160.02Y-75.565
T0
M30
