G04 #@! TF.GenerationSoftware,KiCad,Pcbnew,7.0.1-3b83917a11~172~ubuntu20.04.1*
G04 #@! TF.CreationDate,2023-04-20T11:00:22+02:00*
G04 #@! TF.ProjectId,aware,61776172-652e-46b6-9963-61645f706362,rev?*
G04 #@! TF.SameCoordinates,Original*
G04 #@! TF.FileFunction,Copper,L2,Bot*
G04 #@! TF.FilePolarity,Positive*
%FSLAX46Y46*%
G04 Gerber Fmt 4.6, Leading zero omitted, Abs format (unit mm)*
G04 Created by KiCad (PCBNEW 7.0.1-3b83917a11~172~ubuntu20.04.1) date 2023-04-20 11:00:22*
%MOMM*%
%LPD*%
G01*
G04 APERTURE LIST*
G04 Aperture macros list*
%AMRoundRect*
0 Rectangle with rounded corners*
0 $1 Rounding radius*
0 $2 $3 $4 $5 $6 $7 $8 $9 X,Y pos of 4 corners*
0 Add a 4 corners polygon primitive as box body*
4,1,4,$2,$3,$4,$5,$6,$7,$8,$9,$2,$3,0*
0 Add four circle primitives for the rounded corners*
1,1,$1+$1,$2,$3*
1,1,$1+$1,$4,$5*
1,1,$1+$1,$6,$7*
1,1,$1+$1,$8,$9*
0 Add four rect primitives between the rounded corners*
20,1,$1+$1,$2,$3,$4,$5,0*
20,1,$1+$1,$4,$5,$6,$7,0*
20,1,$1+$1,$6,$7,$8,$9,0*
20,1,$1+$1,$8,$9,$2,$3,0*%
G04 Aperture macros list end*
G04 #@! TA.AperFunction,ComponentPad*
%ADD10C,1.600000*%
G04 #@! TD*
G04 #@! TA.AperFunction,ComponentPad*
%ADD11O,1.600000X1.600000*%
G04 #@! TD*
G04 #@! TA.AperFunction,ComponentPad*
%ADD12R,1.600000X1.600000*%
G04 #@! TD*
G04 #@! TA.AperFunction,ComponentPad*
%ADD13R,1.700000X1.700000*%
G04 #@! TD*
G04 #@! TA.AperFunction,ComponentPad*
%ADD14O,1.700000X1.700000*%
G04 #@! TD*
G04 #@! TA.AperFunction,ComponentPad*
%ADD15C,1.524000*%
G04 #@! TD*
G04 #@! TA.AperFunction,ComponentPad*
%ADD16RoundRect,0.250000X-0.600000X-0.750000X0.600000X-0.750000X0.600000X0.750000X-0.600000X0.750000X0*%
G04 #@! TD*
G04 #@! TA.AperFunction,ComponentPad*
%ADD17O,1.700000X2.000000*%
G04 #@! TD*
G04 #@! TA.AperFunction,ComponentPad*
%ADD18R,1.500000X1.500000*%
G04 #@! TD*
G04 #@! TA.AperFunction,ComponentPad*
%ADD19C,1.500000*%
G04 #@! TD*
G04 #@! TA.AperFunction,ComponentPad*
%ADD20RoundRect,0.250000X-0.600000X-0.725000X0.600000X-0.725000X0.600000X0.725000X-0.600000X0.725000X0*%
G04 #@! TD*
G04 #@! TA.AperFunction,ComponentPad*
%ADD21O,1.700000X1.950000*%
G04 #@! TD*
G04 #@! TA.AperFunction,ViaPad*
%ADD22C,0.600000*%
G04 #@! TD*
G04 #@! TA.AperFunction,Conductor*
%ADD23C,0.200000*%
G04 #@! TD*
G04 APERTURE END LIST*
D10*
X121920000Y-95885000D03*
D11*
X121920000Y-88265000D03*
D10*
X135890000Y-93345000D03*
D11*
X143510000Y-93345000D03*
D10*
X128270000Y-95885000D03*
D11*
X128270000Y-88265000D03*
D12*
X133995000Y-74920000D03*
D11*
X136535000Y-74920000D03*
X139075000Y-74920000D03*
X141615000Y-74920000D03*
X141615000Y-67300000D03*
X139075000Y-67300000D03*
X136535000Y-67300000D03*
X133995000Y-67300000D03*
D10*
X148590000Y-94615000D03*
D11*
X148590000Y-86995000D03*
D10*
X115570000Y-95885000D03*
D11*
X115570000Y-88265000D03*
D10*
X107315000Y-95885000D03*
D11*
X107315000Y-88265000D03*
D10*
X118745000Y-95885000D03*
D11*
X118745000Y-88265000D03*
D10*
X143510000Y-90170000D03*
D11*
X135890000Y-90170000D03*
D10*
X147955000Y-98425000D03*
D11*
X155575000Y-98425000D03*
D10*
X154940000Y-94615000D03*
D11*
X154940000Y-86995000D03*
D10*
X131445000Y-88265000D03*
D11*
X131445000Y-95885000D03*
D10*
X104140000Y-95885000D03*
D11*
X104140000Y-88265000D03*
D12*
X99060000Y-38100000D03*
D10*
X99060000Y-40640000D03*
X99060000Y-43180000D03*
X99060000Y-45720000D03*
X99060000Y-48260000D03*
X99060000Y-50800000D03*
X99060000Y-53340000D03*
X99060000Y-55880000D03*
X99060000Y-58420000D03*
X99060000Y-60960000D03*
X99060000Y-63500000D03*
X99060000Y-66040000D03*
X99060000Y-68580000D03*
X99060000Y-71120000D03*
X99060000Y-73660000D03*
X99060000Y-76200000D03*
X119380000Y-76200000D03*
X119380000Y-73660000D03*
X119380000Y-71120000D03*
X119380000Y-68580000D03*
X119380000Y-66040000D03*
X119380000Y-63500000D03*
X119380000Y-60960000D03*
X119380000Y-58420000D03*
X119380000Y-55880000D03*
X119380000Y-53340000D03*
X119380000Y-50800000D03*
X119380000Y-48260000D03*
X143510000Y-83820000D03*
D11*
X135890000Y-83820000D03*
D13*
X160020000Y-70485000D03*
D14*
X160020000Y-73025000D03*
X160020000Y-75565000D03*
D15*
X124510000Y-56925000D03*
X124510000Y-54385000D03*
X160070000Y-56925000D03*
X160070000Y-54385000D03*
D12*
X151765000Y-94615000D03*
D11*
X151765000Y-86995000D03*
D16*
X134660000Y-101600000D03*
D17*
X137160000Y-101600000D03*
D12*
X149900000Y-72390000D03*
D10*
X152400000Y-72390000D03*
X135890000Y-86995000D03*
D11*
X143510000Y-86995000D03*
D10*
X112395000Y-95885000D03*
D11*
X112395000Y-88265000D03*
D10*
X125095000Y-95885000D03*
D11*
X125095000Y-88265000D03*
D18*
X153035000Y-81280000D03*
D19*
X150495000Y-81280000D03*
X147955000Y-81280000D03*
D20*
X101760000Y-101600000D03*
D21*
X104260000Y-101600000D03*
X106760000Y-101600000D03*
D20*
X115095000Y-101600000D03*
D21*
X117595000Y-101600000D03*
X120095000Y-101600000D03*
X122595000Y-101600000D03*
X125095000Y-101600000D03*
D10*
X135890000Y-80645000D03*
D11*
X143510000Y-80645000D03*
D10*
X100965000Y-95885000D03*
D11*
X100965000Y-88265000D03*
D22*
X134620000Y-60960000D03*
D23*
X161132000Y-69373000D02*
X160020000Y-70485000D01*
X160070000Y-54385000D02*
X161132000Y-55447000D01*
X161132000Y-55447000D02*
X161132000Y-69373000D01*
X107780000Y-67140000D02*
X99060000Y-58420000D01*
X119835635Y-67140000D02*
X107780000Y-67140000D01*
X128270000Y-75574365D02*
X119835635Y-67140000D01*
X128270000Y-88265000D02*
X128270000Y-75574365D01*
X99060000Y-76200000D02*
X111760000Y-76200000D01*
X111760000Y-76200000D02*
X119380000Y-68580000D01*
X160020000Y-75565000D02*
X150875000Y-75565000D01*
X123492635Y-55863000D02*
X119380000Y-59975635D01*
X119380000Y-59975635D02*
X119380000Y-60960000D01*
X142715000Y-66515000D02*
X132063000Y-55863000D01*
X142715000Y-67405000D02*
X142715000Y-66515000D01*
X132063000Y-55863000D02*
X123492635Y-55863000D01*
X150875000Y-75565000D02*
X142715000Y-67405000D01*
X147955000Y-75535635D02*
X140175000Y-67755635D01*
X140175000Y-66515000D02*
X134620000Y-60960000D01*
X147955000Y-81280000D02*
X147955000Y-75535635D01*
X140175000Y-67755635D02*
X140175000Y-66515000D01*
X159555000Y-73490000D02*
X160020000Y-73025000D01*
X151000000Y-73490000D02*
X159555000Y-73490000D01*
X149900000Y-72390000D02*
X151000000Y-73490000D01*
X125587630Y-56925000D02*
X135435000Y-66772370D01*
X134660000Y-99020000D02*
X143510000Y-90170000D01*
X142410000Y-89070000D02*
X143510000Y-90170000D01*
X135435000Y-66772370D02*
X135435000Y-78285000D01*
X135435000Y-78285000D02*
X142410000Y-85260000D01*
X142410000Y-85260000D02*
X142410000Y-89070000D01*
X124510000Y-56925000D02*
X125587630Y-56925000D01*
X134660000Y-101600000D02*
X134660000Y-99020000D01*
X153808630Y-94615000D02*
X144610000Y-85416370D01*
X144610000Y-85416370D02*
X144610000Y-83300635D01*
X136535000Y-75225635D02*
X136535000Y-74920000D01*
X154940000Y-94615000D02*
X153808630Y-94615000D01*
X144610000Y-83300635D02*
X136535000Y-75225635D01*
G04 #@! TA.AperFunction,NonConductor*
G36*
X97831011Y-39187421D02*
G01*
X97878766Y-39225903D01*
X97902454Y-39257546D01*
X98017669Y-39343796D01*
X98152517Y-39394091D01*
X98187594Y-39397862D01*
X98243513Y-39418239D01*
X98283497Y-39462327D01*
X98298332Y-39519968D01*
X98284600Y-39577881D01*
X98245464Y-39622724D01*
X98220860Y-39639952D01*
X98059953Y-39800859D01*
X97929432Y-39987264D01*
X97891882Y-40067792D01*
X97848840Y-40118188D01*
X97785989Y-40139217D01*
X97721285Y-40124872D01*
X97673211Y-40079252D01*
X97655500Y-40015387D01*
X97655500Y-39300215D01*
X97670668Y-39240788D01*
X97712460Y-39195900D01*
X97770654Y-39176531D01*
X97831011Y-39187421D01*
G37*
G04 #@! TD.AperFunction*
G04 #@! TA.AperFunction,NonConductor*
G36*
X97848840Y-41161812D02*
G01*
X97891882Y-41212208D01*
X97929432Y-41292735D01*
X98059953Y-41479140D01*
X98220859Y-41640046D01*
X98407262Y-41770565D01*
X98407266Y-41770568D01*
X98465273Y-41797617D01*
X98517449Y-41843373D01*
X98536869Y-41909997D01*
X98517451Y-41976622D01*
X98465276Y-42022380D01*
X98407266Y-42049431D01*
X98220859Y-42179953D01*
X98059953Y-42340859D01*
X97929432Y-42527264D01*
X97891882Y-42607792D01*
X97848840Y-42658188D01*
X97785989Y-42679217D01*
X97721285Y-42664872D01*
X97673211Y-42619252D01*
X97655500Y-42555387D01*
X97655500Y-41264613D01*
X97673211Y-41200748D01*
X97721285Y-41155128D01*
X97785989Y-41140783D01*
X97848840Y-41161812D01*
G37*
G04 #@! TD.AperFunction*
G04 #@! TA.AperFunction,NonConductor*
G36*
X97848840Y-43701812D02*
G01*
X97891882Y-43752208D01*
X97929432Y-43832735D01*
X98059953Y-44019140D01*
X98220859Y-44180046D01*
X98407266Y-44310568D01*
X98465273Y-44337617D01*
X98517449Y-44383373D01*
X98536869Y-44449997D01*
X98517451Y-44516622D01*
X98465276Y-44562380D01*
X98407266Y-44589431D01*
X98220859Y-44719953D01*
X98059953Y-44880859D01*
X97929432Y-45067264D01*
X97891882Y-45147792D01*
X97848840Y-45198188D01*
X97785989Y-45219217D01*
X97721285Y-45204872D01*
X97673211Y-45159252D01*
X97655500Y-45095387D01*
X97655500Y-43804613D01*
X97673211Y-43740748D01*
X97721285Y-43695128D01*
X97785989Y-43680783D01*
X97848840Y-43701812D01*
G37*
G04 #@! TD.AperFunction*
G04 #@! TA.AperFunction,NonConductor*
G36*
X97848840Y-46241812D02*
G01*
X97891882Y-46292208D01*
X97929432Y-46372735D01*
X98059953Y-46559140D01*
X98220859Y-46720046D01*
X98407265Y-46850567D01*
X98407266Y-46850568D01*
X98465273Y-46877617D01*
X98517449Y-46923373D01*
X98536869Y-46989997D01*
X98517451Y-47056622D01*
X98465276Y-47102380D01*
X98407266Y-47129431D01*
X98220859Y-47259953D01*
X98059953Y-47420859D01*
X97929432Y-47607264D01*
X97891882Y-47687792D01*
X97848840Y-47738188D01*
X97785989Y-47759217D01*
X97721285Y-47744872D01*
X97673211Y-47699252D01*
X97655500Y-47635387D01*
X97655500Y-46344613D01*
X97673211Y-46280748D01*
X97721285Y-46235128D01*
X97785989Y-46220783D01*
X97848840Y-46241812D01*
G37*
G04 #@! TD.AperFunction*
G04 #@! TA.AperFunction,NonConductor*
G36*
X97848840Y-48781812D02*
G01*
X97891882Y-48832208D01*
X97929432Y-48912735D01*
X98059953Y-49099140D01*
X98220859Y-49260046D01*
X98407262Y-49390565D01*
X98407266Y-49390568D01*
X98465273Y-49417617D01*
X98517449Y-49463373D01*
X98536869Y-49529997D01*
X98517451Y-49596622D01*
X98465276Y-49642380D01*
X98407266Y-49669431D01*
X98220859Y-49799953D01*
X98059953Y-49960859D01*
X97929432Y-50147264D01*
X97891882Y-50227792D01*
X97848840Y-50278188D01*
X97785989Y-50299217D01*
X97721285Y-50284872D01*
X97673211Y-50239252D01*
X97655500Y-50175387D01*
X97655500Y-48884613D01*
X97673211Y-48820748D01*
X97721285Y-48775128D01*
X97785989Y-48760783D01*
X97848840Y-48781812D01*
G37*
G04 #@! TD.AperFunction*
G04 #@! TA.AperFunction,NonConductor*
G36*
X97848840Y-51321812D02*
G01*
X97891882Y-51372208D01*
X97929432Y-51452735D01*
X98059953Y-51639140D01*
X98220859Y-51800046D01*
X98407263Y-51930566D01*
X98407266Y-51930568D01*
X98465275Y-51957618D01*
X98517450Y-52003375D01*
X98536869Y-52070000D01*
X98517450Y-52136625D01*
X98465275Y-52182382D01*
X98407263Y-52209433D01*
X98220859Y-52339953D01*
X98059953Y-52500859D01*
X97929432Y-52687264D01*
X97891882Y-52767792D01*
X97848840Y-52818188D01*
X97785989Y-52839217D01*
X97721285Y-52824872D01*
X97673211Y-52779252D01*
X97655500Y-52715387D01*
X97655500Y-51424613D01*
X97673211Y-51360748D01*
X97721285Y-51315128D01*
X97785989Y-51300783D01*
X97848840Y-51321812D01*
G37*
G04 #@! TD.AperFunction*
G04 #@! TA.AperFunction,NonConductor*
G36*
X97848840Y-53861812D02*
G01*
X97891882Y-53912208D01*
X97929432Y-53992735D01*
X98059953Y-54179140D01*
X98220859Y-54340046D01*
X98285061Y-54385000D01*
X98407266Y-54470568D01*
X98465273Y-54497617D01*
X98517449Y-54543373D01*
X98536869Y-54609997D01*
X98517451Y-54676622D01*
X98465276Y-54722380D01*
X98407266Y-54749431D01*
X98220859Y-54879953D01*
X98059953Y-55040859D01*
X97929432Y-55227264D01*
X97891882Y-55307792D01*
X97848840Y-55358188D01*
X97785989Y-55379217D01*
X97721285Y-55364872D01*
X97673211Y-55319252D01*
X97655500Y-55255387D01*
X97655500Y-53964613D01*
X97673211Y-53900748D01*
X97721285Y-53855128D01*
X97785989Y-53840783D01*
X97848840Y-53861812D01*
G37*
G04 #@! TD.AperFunction*
G04 #@! TA.AperFunction,NonConductor*
G36*
X97848840Y-56401812D02*
G01*
X97891882Y-56452208D01*
X97929432Y-56532735D01*
X98059953Y-56719140D01*
X98220859Y-56880046D01*
X98285061Y-56925000D01*
X98407266Y-57010568D01*
X98465273Y-57037617D01*
X98517449Y-57083373D01*
X98536869Y-57149997D01*
X98517451Y-57216622D01*
X98465276Y-57262380D01*
X98407266Y-57289431D01*
X98220859Y-57419953D01*
X98059953Y-57580859D01*
X97929432Y-57767264D01*
X97891882Y-57847792D01*
X97848840Y-57898188D01*
X97785989Y-57919217D01*
X97721285Y-57904872D01*
X97673211Y-57859252D01*
X97655500Y-57795387D01*
X97655500Y-56504613D01*
X97673211Y-56440748D01*
X97721285Y-56395128D01*
X97785989Y-56380783D01*
X97848840Y-56401812D01*
G37*
G04 #@! TD.AperFunction*
G04 #@! TA.AperFunction,NonConductor*
G36*
X97848840Y-58941812D02*
G01*
X97891882Y-58992208D01*
X97929432Y-59072735D01*
X98059953Y-59259140D01*
X98220859Y-59420046D01*
X98407263Y-59550566D01*
X98407266Y-59550568D01*
X98449560Y-59570290D01*
X98465275Y-59577618D01*
X98517450Y-59623375D01*
X98536869Y-59690000D01*
X98517450Y-59756625D01*
X98465275Y-59802382D01*
X98407263Y-59829433D01*
X98220859Y-59959953D01*
X98059953Y-60120859D01*
X97929432Y-60307264D01*
X97891882Y-60387792D01*
X97848840Y-60438188D01*
X97785989Y-60459217D01*
X97721285Y-60444872D01*
X97673211Y-60399252D01*
X97655500Y-60335387D01*
X97655500Y-59044613D01*
X97673211Y-58980748D01*
X97721285Y-58935128D01*
X97785989Y-58920783D01*
X97848840Y-58941812D01*
G37*
G04 #@! TD.AperFunction*
G04 #@! TA.AperFunction,NonConductor*
G36*
X97848840Y-61481812D02*
G01*
X97891882Y-61532208D01*
X97929432Y-61612735D01*
X98059953Y-61799140D01*
X98220859Y-61960046D01*
X98407263Y-62090566D01*
X98407266Y-62090568D01*
X98465275Y-62117618D01*
X98517450Y-62163375D01*
X98536869Y-62230000D01*
X98517450Y-62296625D01*
X98465275Y-62342382D01*
X98407263Y-62369433D01*
X98220859Y-62499953D01*
X98059953Y-62660859D01*
X97929432Y-62847264D01*
X97891882Y-62927792D01*
X97848840Y-62978188D01*
X97785989Y-62999217D01*
X97721285Y-62984872D01*
X97673211Y-62939252D01*
X97655500Y-62875387D01*
X97655500Y-61584613D01*
X97673211Y-61520748D01*
X97721285Y-61475128D01*
X97785989Y-61460783D01*
X97848840Y-61481812D01*
G37*
G04 #@! TD.AperFunction*
G04 #@! TA.AperFunction,NonConductor*
G36*
X97848840Y-64021812D02*
G01*
X97891882Y-64072208D01*
X97929432Y-64152735D01*
X98059953Y-64339140D01*
X98220859Y-64500046D01*
X98407263Y-64630566D01*
X98407266Y-64630568D01*
X98465275Y-64657618D01*
X98517450Y-64703375D01*
X98536869Y-64770000D01*
X98517450Y-64836625D01*
X98465275Y-64882382D01*
X98407263Y-64909433D01*
X98220859Y-65039953D01*
X98059953Y-65200859D01*
X97929432Y-65387264D01*
X97891882Y-65467792D01*
X97848840Y-65518188D01*
X97785989Y-65539217D01*
X97721285Y-65524872D01*
X97673211Y-65479252D01*
X97655500Y-65415387D01*
X97655500Y-64124613D01*
X97673211Y-64060748D01*
X97721285Y-64015128D01*
X97785989Y-64000783D01*
X97848840Y-64021812D01*
G37*
G04 #@! TD.AperFunction*
G04 #@! TA.AperFunction,NonConductor*
G36*
X131810356Y-56472939D02*
G01*
X131850584Y-56499819D01*
X141218159Y-65867394D01*
X141250252Y-65922978D01*
X141250255Y-65987161D01*
X141218168Y-66042748D01*
X141177261Y-66066371D01*
X141178336Y-66068676D01*
X140962264Y-66169432D01*
X140867270Y-66235948D01*
X140808749Y-66257731D01*
X140747032Y-66248232D01*
X140697771Y-66209859D01*
X140680481Y-66187326D01*
X140603282Y-66086717D01*
X140578229Y-66067494D01*
X140566034Y-66056799D01*
X135450700Y-60941465D01*
X135426661Y-60907585D01*
X135415161Y-60867666D01*
X135405368Y-60780745D01*
X135345789Y-60610478D01*
X135249816Y-60457738D01*
X135249815Y-60457737D01*
X135249814Y-60457735D01*
X135122264Y-60330185D01*
X135059867Y-60290978D01*
X134969522Y-60234211D01*
X134799255Y-60174632D01*
X134799253Y-60174631D01*
X134799251Y-60174631D01*
X134620000Y-60154434D01*
X134440748Y-60174631D01*
X134440745Y-60174631D01*
X134440745Y-60174632D01*
X134270478Y-60234211D01*
X134270476Y-60234211D01*
X134270476Y-60234212D01*
X134117735Y-60330185D01*
X133990185Y-60457735D01*
X133894212Y-60610476D01*
X133834631Y-60780748D01*
X133814434Y-60960000D01*
X133834631Y-61139251D01*
X133834631Y-61139253D01*
X133834632Y-61139255D01*
X133894211Y-61309522D01*
X133894212Y-61309523D01*
X133990185Y-61462264D01*
X134117735Y-61589814D01*
X134117737Y-61589815D01*
X134117738Y-61589816D01*
X134270478Y-61685789D01*
X134440745Y-61745368D01*
X134527666Y-61755161D01*
X134567585Y-61766661D01*
X134601465Y-61790700D01*
X138678159Y-65867394D01*
X138710252Y-65922978D01*
X138710255Y-65987161D01*
X138678168Y-66042748D01*
X138637261Y-66066371D01*
X138638336Y-66068676D01*
X138422264Y-66169432D01*
X138235859Y-66299953D01*
X138074953Y-66460859D01*
X137944433Y-66647263D01*
X137917382Y-66705275D01*
X137871625Y-66757450D01*
X137805000Y-66776869D01*
X137738375Y-66757450D01*
X137692618Y-66705275D01*
X137665568Y-66647266D01*
X137665566Y-66647263D01*
X137535046Y-66460859D01*
X137374140Y-66299953D01*
X137187735Y-66169432D01*
X136981497Y-66073261D01*
X136761689Y-66014364D01*
X136535000Y-65994531D01*
X136308310Y-66014364D01*
X136088502Y-66073261D01*
X135882267Y-66169431D01*
X135849291Y-66192520D01*
X135796139Y-66213634D01*
X135739165Y-66208649D01*
X135690489Y-66178624D01*
X126187046Y-56675181D01*
X126156796Y-56625818D01*
X126152254Y-56568102D01*
X126174409Y-56514615D01*
X126218432Y-56477015D01*
X126274727Y-56463500D01*
X131762903Y-56463500D01*
X131810356Y-56472939D01*
G37*
G04 #@! TD.AperFunction*
G04 #@! TA.AperFunction,NonConductor*
G36*
X97848840Y-66561812D02*
G01*
X97891882Y-66612208D01*
X97929432Y-66692735D01*
X98059953Y-66879140D01*
X98220859Y-67040046D01*
X98381256Y-67152356D01*
X98407266Y-67170568D01*
X98465275Y-67197618D01*
X98517450Y-67243375D01*
X98536869Y-67310000D01*
X98517450Y-67376625D01*
X98465275Y-67422382D01*
X98407263Y-67449433D01*
X98220859Y-67579953D01*
X98059953Y-67740859D01*
X97929432Y-67927264D01*
X97891882Y-68007792D01*
X97848840Y-68058188D01*
X97785989Y-68079217D01*
X97721285Y-68064872D01*
X97673211Y-68019252D01*
X97655500Y-67955387D01*
X97655500Y-66664613D01*
X97673211Y-66600748D01*
X97721285Y-66555128D01*
X97785989Y-66540783D01*
X97848840Y-66561812D01*
G37*
G04 #@! TD.AperFunction*
G04 #@! TA.AperFunction,NonConductor*
G36*
X97848840Y-69101812D02*
G01*
X97891882Y-69152208D01*
X97929432Y-69232735D01*
X98059953Y-69419140D01*
X98220859Y-69580046D01*
X98357669Y-69675840D01*
X98407266Y-69710568D01*
X98465275Y-69737618D01*
X98517450Y-69783375D01*
X98536869Y-69850000D01*
X98517450Y-69916625D01*
X98465275Y-69962382D01*
X98407263Y-69989433D01*
X98220859Y-70119953D01*
X98059953Y-70280859D01*
X97929432Y-70467264D01*
X97891882Y-70547792D01*
X97848840Y-70598188D01*
X97785989Y-70619217D01*
X97721285Y-70604872D01*
X97673211Y-70559252D01*
X97655500Y-70495387D01*
X97655500Y-69204613D01*
X97673211Y-69140748D01*
X97721285Y-69095128D01*
X97785989Y-69080783D01*
X97848840Y-69101812D01*
G37*
G04 #@! TD.AperFunction*
G04 #@! TA.AperFunction,NonConductor*
G36*
X97848840Y-71641812D02*
G01*
X97891881Y-71692207D01*
X97900592Y-71710887D01*
X97929432Y-71772735D01*
X98059953Y-71959140D01*
X98220859Y-72120046D01*
X98331045Y-72197198D01*
X98407266Y-72250568D01*
X98465275Y-72277618D01*
X98517450Y-72323375D01*
X98536869Y-72390000D01*
X98517450Y-72456625D01*
X98465275Y-72502382D01*
X98407263Y-72529433D01*
X98220859Y-72659953D01*
X98059953Y-72820859D01*
X97929432Y-73007264D01*
X97891882Y-73087792D01*
X97848840Y-73138188D01*
X97785989Y-73159217D01*
X97721285Y-73144872D01*
X97673211Y-73099252D01*
X97655500Y-73035387D01*
X97655500Y-71744613D01*
X97673211Y-71680748D01*
X97721285Y-71635128D01*
X97785989Y-71620783D01*
X97848840Y-71641812D01*
G37*
G04 #@! TD.AperFunction*
G04 #@! TA.AperFunction,NonConductor*
G36*
X150347355Y-73699938D02*
G01*
X150387583Y-73726818D01*
X150541799Y-73881034D01*
X150552494Y-73893229D01*
X150571717Y-73918282D01*
X150691343Y-74010073D01*
X150691344Y-74010074D01*
X150697159Y-74014536D01*
X150843238Y-74075044D01*
X150968698Y-74091561D01*
X150999999Y-74095682D01*
X150999999Y-74095681D01*
X151000000Y-74095682D01*
X151031302Y-74091560D01*
X151047487Y-74090500D01*
X159148069Y-74090500D01*
X159185356Y-74096239D01*
X159219192Y-74112925D01*
X159334158Y-74193425D01*
X159373024Y-74237743D01*
X159387035Y-74295000D01*
X159373024Y-74352257D01*
X159334160Y-74396574D01*
X159187681Y-74499140D01*
X159148595Y-74526508D01*
X158981505Y-74693598D01*
X158845964Y-74887171D01*
X158843290Y-74892907D01*
X158797533Y-74945081D01*
X158730909Y-74964500D01*
X151175097Y-74964500D01*
X151127644Y-74955061D01*
X151087416Y-74928181D01*
X150061415Y-73902180D01*
X150031165Y-73852817D01*
X150026623Y-73795101D01*
X150048778Y-73741614D01*
X150092801Y-73704014D01*
X150149096Y-73690499D01*
X150299902Y-73690499D01*
X150347355Y-73699938D01*
G37*
G04 #@! TD.AperFunction*
G04 #@! TA.AperFunction,NonConductor*
G36*
X100518002Y-60747763D02*
G01*
X100569429Y-60778664D01*
X107321799Y-67531034D01*
X107332494Y-67543229D01*
X107351717Y-67568282D01*
X107470711Y-67659588D01*
X107475630Y-67663902D01*
X107477157Y-67664534D01*
X107477158Y-67664535D01*
X107477159Y-67664536D01*
X107623238Y-67725044D01*
X107701619Y-67735363D01*
X107779999Y-67745682D01*
X107779999Y-67745681D01*
X107780000Y-67745682D01*
X107811302Y-67741560D01*
X107827487Y-67740500D01*
X118142005Y-67740500D01*
X118206319Y-67758483D01*
X118251979Y-67807215D01*
X118265743Y-67872562D01*
X118250553Y-67915818D01*
X118254017Y-67917434D01*
X118249433Y-67927264D01*
X118249432Y-67927266D01*
X118237556Y-67952734D01*
X118153261Y-68133502D01*
X118094364Y-68353310D01*
X118074531Y-68579999D01*
X118094364Y-68806688D01*
X118120152Y-68902930D01*
X118120152Y-68967118D01*
X118088058Y-69022705D01*
X111547584Y-75563181D01*
X111507356Y-75590061D01*
X111459903Y-75599500D01*
X100291693Y-75599500D01*
X100234436Y-75585489D01*
X100190118Y-75546623D01*
X100060046Y-75360859D01*
X99899140Y-75199953D01*
X99712732Y-75069430D01*
X99654724Y-75042380D01*
X99602549Y-74996623D01*
X99583130Y-74929997D01*
X99602550Y-74863373D01*
X99654721Y-74817619D01*
X99712734Y-74790568D01*
X99899139Y-74660047D01*
X100060047Y-74499139D01*
X100190568Y-74312734D01*
X100286739Y-74106496D01*
X100345635Y-73886692D01*
X100365468Y-73660000D01*
X100345635Y-73433308D01*
X100286739Y-73213504D01*
X100190568Y-73007266D01*
X100108108Y-72889500D01*
X100060046Y-72820859D01*
X99899140Y-72659953D01*
X99712733Y-72529431D01*
X99654725Y-72502382D01*
X99602549Y-72456625D01*
X99583129Y-72390000D01*
X99602549Y-72323375D01*
X99654725Y-72277618D01*
X99685267Y-72263376D01*
X99712734Y-72250568D01*
X99899139Y-72120047D01*
X100060047Y-71959139D01*
X100190568Y-71772734D01*
X100286739Y-71566496D01*
X100345635Y-71346692D01*
X100365468Y-71120000D01*
X100345635Y-70893308D01*
X100286739Y-70673504D01*
X100190568Y-70467266D01*
X100060047Y-70280861D01*
X100060046Y-70280859D01*
X99899140Y-70119953D01*
X99712733Y-69989431D01*
X99654725Y-69962382D01*
X99602549Y-69916625D01*
X99583129Y-69850000D01*
X99602549Y-69783375D01*
X99654725Y-69737618D01*
X99712734Y-69710568D01*
X99899139Y-69580047D01*
X100060047Y-69419139D01*
X100190568Y-69232734D01*
X100286739Y-69026496D01*
X100345635Y-68806692D01*
X100365468Y-68580000D01*
X100345635Y-68353308D01*
X100286739Y-68133504D01*
X100190568Y-67927266D01*
X100152264Y-67872562D01*
X100060046Y-67740859D01*
X99899140Y-67579953D01*
X99712733Y-67449431D01*
X99654725Y-67422382D01*
X99602549Y-67376625D01*
X99583129Y-67310000D01*
X99602549Y-67243375D01*
X99654725Y-67197618D01*
X99712734Y-67170568D01*
X99899139Y-67040047D01*
X100060047Y-66879139D01*
X100190568Y-66692734D01*
X100286739Y-66486496D01*
X100345635Y-66266692D01*
X100365468Y-66040000D01*
X100345635Y-65813308D01*
X100286739Y-65593504D01*
X100190568Y-65387266D01*
X100060047Y-65200861D01*
X100060046Y-65200859D01*
X99899140Y-65039953D01*
X99712733Y-64909431D01*
X99654725Y-64882382D01*
X99602549Y-64836625D01*
X99583129Y-64770000D01*
X99602549Y-64703375D01*
X99654725Y-64657618D01*
X99712734Y-64630568D01*
X99899139Y-64500047D01*
X100060047Y-64339139D01*
X100190568Y-64152734D01*
X100286739Y-63946496D01*
X100345635Y-63726692D01*
X100365468Y-63500000D01*
X100345635Y-63273308D01*
X100286739Y-63053504D01*
X100190568Y-62847266D01*
X100060047Y-62660861D01*
X100060046Y-62660859D01*
X99899140Y-62499953D01*
X99712733Y-62369431D01*
X99654725Y-62342382D01*
X99602549Y-62296625D01*
X99583129Y-62230000D01*
X99602549Y-62163375D01*
X99654725Y-62117618D01*
X99712734Y-62090568D01*
X99899139Y-61960047D01*
X100060047Y-61799139D01*
X100190568Y-61612734D01*
X100286739Y-61406496D01*
X100345635Y-61186692D01*
X100365468Y-60960000D01*
X100358219Y-60877153D01*
X100367605Y-60817895D01*
X100403712Y-60769979D01*
X100458088Y-60744623D01*
X100518002Y-60747763D01*
G37*
G04 #@! TD.AperFunction*
G04 #@! TA.AperFunction,NonConductor*
G36*
X97848840Y-74181812D02*
G01*
X97891881Y-74232207D01*
X97894463Y-74237743D01*
X97929432Y-74312735D01*
X98059953Y-74499140D01*
X98220859Y-74660046D01*
X98407262Y-74790565D01*
X98407266Y-74790568D01*
X98465273Y-74817617D01*
X98517449Y-74863373D01*
X98536869Y-74929997D01*
X98517451Y-74996622D01*
X98465276Y-75042380D01*
X98407266Y-75069431D01*
X98220859Y-75199953D01*
X98059953Y-75360859D01*
X97929432Y-75547264D01*
X97891882Y-75627792D01*
X97848840Y-75678188D01*
X97785989Y-75699217D01*
X97721285Y-75684872D01*
X97673211Y-75639252D01*
X97655500Y-75575387D01*
X97655500Y-74284613D01*
X97673211Y-74220748D01*
X97721285Y-74175128D01*
X97785989Y-74160783D01*
X97848840Y-74181812D01*
G37*
G04 #@! TD.AperFunction*
G04 #@! TA.AperFunction,NonConductor*
G36*
X136191593Y-76174362D02*
G01*
X136308308Y-76205635D01*
X136534998Y-76225468D01*
X136534998Y-76225467D01*
X136535000Y-76225468D01*
X136615881Y-76218391D01*
X136669097Y-76225397D01*
X136714368Y-76254238D01*
X142931385Y-82471255D01*
X142961965Y-82521648D01*
X142965820Y-82580467D01*
X142942081Y-82634421D01*
X142896111Y-82671317D01*
X142857266Y-82689431D01*
X142670859Y-82819953D01*
X142509953Y-82980859D01*
X142379432Y-83167264D01*
X142283261Y-83373502D01*
X142224364Y-83593310D01*
X142204531Y-83820000D01*
X142211779Y-83902848D01*
X142202393Y-83962105D01*
X142166286Y-84010020D01*
X142111911Y-84035376D01*
X142051997Y-84032236D01*
X142000570Y-84001335D01*
X136071819Y-78072584D01*
X136044939Y-78032356D01*
X136035500Y-77984903D01*
X136035500Y-76294137D01*
X136048288Y-76239293D01*
X136084013Y-76195761D01*
X136135309Y-76172520D01*
X136191593Y-76174362D01*
G37*
G04 #@! TD.AperFunction*
G04 #@! TA.AperFunction,NonConductor*
G36*
X143960987Y-85095761D02*
G01*
X143996712Y-85139293D01*
X144009500Y-85194137D01*
X144009500Y-85368883D01*
X144008439Y-85385069D01*
X144004317Y-85416370D01*
X144009500Y-85455730D01*
X144009500Y-85455731D01*
X144024956Y-85573132D01*
X144028194Y-85580949D01*
X144035977Y-85648600D01*
X144006861Y-85710160D01*
X143949628Y-85747062D01*
X143881540Y-85748176D01*
X143736691Y-85709364D01*
X143509999Y-85689531D01*
X143283308Y-85709364D01*
X143166593Y-85740638D01*
X143110309Y-85742480D01*
X143059013Y-85719239D01*
X143023288Y-85675707D01*
X143010500Y-85620863D01*
X143010500Y-85307487D01*
X143011561Y-85291301D01*
X143015682Y-85260000D01*
X143009053Y-85209648D01*
X143015940Y-85149785D01*
X143050233Y-85100236D01*
X143103835Y-85072703D01*
X143164083Y-85073688D01*
X143283308Y-85105635D01*
X143404901Y-85116273D01*
X143509999Y-85125468D01*
X143509999Y-85125467D01*
X143510000Y-85125468D01*
X143736692Y-85105635D01*
X143775961Y-85095112D01*
X143853407Y-85074362D01*
X143909691Y-85072520D01*
X143960987Y-85095761D01*
G37*
G04 #@! TD.AperFunction*
G04 #@! TA.AperFunction,NonConductor*
G36*
X162632500Y-31632113D02*
G01*
X162677887Y-31677500D01*
X162694500Y-31739500D01*
X162694500Y-106690500D01*
X162677887Y-106752500D01*
X162632500Y-106797887D01*
X162570500Y-106814500D01*
X97779500Y-106814500D01*
X97717500Y-106797887D01*
X97672113Y-106752500D01*
X97655500Y-106690500D01*
X97655500Y-102375008D01*
X100409500Y-102375008D01*
X100420000Y-102477796D01*
X100475186Y-102644334D01*
X100567288Y-102793657D01*
X100691342Y-102917711D01*
X100723855Y-102937765D01*
X100840666Y-103009814D01*
X100952017Y-103046712D01*
X101007202Y-103064999D01*
X101017702Y-103066071D01*
X101109991Y-103075500D01*
X102410008Y-103075499D01*
X102512797Y-103064999D01*
X102679334Y-103009814D01*
X102828656Y-102917712D01*
X102952712Y-102793656D01*
X103044814Y-102644334D01*
X103044814Y-102644331D01*
X103048178Y-102638879D01*
X103087091Y-102599395D01*
X103139321Y-102580814D01*
X103194428Y-102586849D01*
X103241398Y-102616294D01*
X103388599Y-102763495D01*
X103582170Y-102899035D01*
X103796337Y-102998903D01*
X104024592Y-103060063D01*
X104260000Y-103080659D01*
X104495408Y-103060063D01*
X104723663Y-102998903D01*
X104937829Y-102899035D01*
X105131401Y-102763495D01*
X105298495Y-102596401D01*
X105408426Y-102439401D01*
X105452743Y-102400537D01*
X105510000Y-102386526D01*
X105567257Y-102400537D01*
X105611573Y-102439401D01*
X105721505Y-102596401D01*
X105888599Y-102763495D01*
X106082170Y-102899035D01*
X106296337Y-102998903D01*
X106524592Y-103060063D01*
X106760000Y-103080659D01*
X106995408Y-103060063D01*
X107223663Y-102998903D01*
X107437829Y-102899035D01*
X107631401Y-102763495D01*
X107798495Y-102596401D01*
X107934035Y-102402829D01*
X107947008Y-102375008D01*
X113744500Y-102375008D01*
X113755000Y-102477796D01*
X113810186Y-102644334D01*
X113902288Y-102793657D01*
X114026342Y-102917711D01*
X114058855Y-102937765D01*
X114175666Y-103009814D01*
X114287017Y-103046712D01*
X114342202Y-103064999D01*
X114352702Y-103066071D01*
X114444991Y-103075500D01*
X115745008Y-103075499D01*
X115847797Y-103064999D01*
X116014334Y-103009814D01*
X116163656Y-102917712D01*
X116287712Y-102793656D01*
X116379814Y-102644334D01*
X116379814Y-102644331D01*
X116383178Y-102638879D01*
X116422091Y-102599395D01*
X116474321Y-102580814D01*
X116529428Y-102586849D01*
X116576398Y-102616294D01*
X116723599Y-102763495D01*
X116917170Y-102899035D01*
X117131337Y-102998903D01*
X117359592Y-103060063D01*
X117595000Y-103080659D01*
X117830408Y-103060063D01*
X118058663Y-102998903D01*
X118272829Y-102899035D01*
X118466401Y-102763495D01*
X118633495Y-102596401D01*
X118743426Y-102439401D01*
X118787743Y-102400537D01*
X118845000Y-102386526D01*
X118902257Y-102400537D01*
X118946573Y-102439401D01*
X119056505Y-102596401D01*
X119223599Y-102763495D01*
X119417170Y-102899035D01*
X119631337Y-102998903D01*
X119859592Y-103060063D01*
X120095000Y-103080659D01*
X120330408Y-103060063D01*
X120558663Y-102998903D01*
X120772829Y-102899035D01*
X120966401Y-102763495D01*
X121133495Y-102596401D01*
X121243426Y-102439401D01*
X121287743Y-102400537D01*
X121345000Y-102386526D01*
X121402257Y-102400537D01*
X121446573Y-102439401D01*
X121556505Y-102596401D01*
X121723599Y-102763495D01*
X121917170Y-102899035D01*
X122131337Y-102998903D01*
X122359592Y-103060063D01*
X122595000Y-103080659D01*
X122830408Y-103060063D01*
X123058663Y-102998903D01*
X123272829Y-102899035D01*
X123466401Y-102763495D01*
X123633495Y-102596401D01*
X123743426Y-102439401D01*
X123787743Y-102400537D01*
X123845000Y-102386526D01*
X123902257Y-102400537D01*
X123946573Y-102439401D01*
X124056505Y-102596401D01*
X124223599Y-102763495D01*
X124417170Y-102899035D01*
X124631337Y-102998903D01*
X124859592Y-103060063D01*
X125095000Y-103080659D01*
X125330408Y-103060063D01*
X125558663Y-102998903D01*
X125772829Y-102899035D01*
X125966401Y-102763495D01*
X126133495Y-102596401D01*
X126269035Y-102402829D01*
X126368903Y-102188663D01*
X126430063Y-101960408D01*
X126445500Y-101783966D01*
X126445500Y-101416034D01*
X126430063Y-101239592D01*
X126368903Y-101011337D01*
X126269035Y-100797171D01*
X126133495Y-100603599D01*
X125966401Y-100436505D01*
X125772830Y-100300965D01*
X125558663Y-100201097D01*
X125465361Y-100176097D01*
X125330407Y-100139936D01*
X125095000Y-100119340D01*
X124859592Y-100139936D01*
X124631336Y-100201097D01*
X124417170Y-100300965D01*
X124223598Y-100436505D01*
X124056508Y-100603595D01*
X123946574Y-100760597D01*
X123902255Y-100799463D01*
X123844998Y-100813473D01*
X123787742Y-100799462D01*
X123743426Y-100760598D01*
X123633495Y-100603599D01*
X123466401Y-100436505D01*
X123272830Y-100300965D01*
X123058663Y-100201097D01*
X122965361Y-100176097D01*
X122830407Y-100139936D01*
X122595000Y-100119340D01*
X122359592Y-100139936D01*
X122131336Y-100201097D01*
X121917170Y-100300965D01*
X121723598Y-100436505D01*
X121556508Y-100603595D01*
X121446574Y-100760597D01*
X121402255Y-100799463D01*
X121344998Y-100813473D01*
X121287742Y-100799462D01*
X121243426Y-100760598D01*
X121133495Y-100603599D01*
X120966401Y-100436505D01*
X120772830Y-100300965D01*
X120558663Y-100201097D01*
X120465361Y-100176097D01*
X120330407Y-100139936D01*
X120095000Y-100119340D01*
X119859592Y-100139936D01*
X119631336Y-100201097D01*
X119417170Y-100300965D01*
X119223598Y-100436505D01*
X119056508Y-100603595D01*
X118946574Y-100760597D01*
X118902255Y-100799463D01*
X118844998Y-100813473D01*
X118787742Y-100799462D01*
X118743426Y-100760598D01*
X118633495Y-100603599D01*
X118466401Y-100436505D01*
X118272830Y-100300965D01*
X118058663Y-100201097D01*
X117965361Y-100176097D01*
X117830407Y-100139936D01*
X117595000Y-100119340D01*
X117359592Y-100139936D01*
X117131336Y-100201097D01*
X116917170Y-100300965D01*
X116723601Y-100436503D01*
X116576398Y-100583706D01*
X116529428Y-100613151D01*
X116474321Y-100619185D01*
X116422091Y-100600604D01*
X116383178Y-100561120D01*
X116287711Y-100406342D01*
X116163657Y-100282288D01*
X116014334Y-100190186D01*
X115847797Y-100135000D01*
X115745009Y-100124500D01*
X114444991Y-100124500D01*
X114342203Y-100135000D01*
X114175665Y-100190186D01*
X114026342Y-100282288D01*
X113902288Y-100406342D01*
X113810186Y-100555665D01*
X113755000Y-100722202D01*
X113744500Y-100824990D01*
X113744500Y-102375008D01*
X107947008Y-102375008D01*
X108033903Y-102188663D01*
X108095063Y-101960408D01*
X108110500Y-101783966D01*
X108110500Y-101416034D01*
X108095063Y-101239592D01*
X108033903Y-101011337D01*
X107934035Y-100797171D01*
X107798495Y-100603599D01*
X107631401Y-100436505D01*
X107437830Y-100300965D01*
X107223663Y-100201097D01*
X107130361Y-100176097D01*
X106995407Y-100139936D01*
X106760000Y-100119340D01*
X106524592Y-100139936D01*
X106296336Y-100201097D01*
X106082170Y-100300965D01*
X105888598Y-100436505D01*
X105721508Y-100603595D01*
X105611574Y-100760597D01*
X105567255Y-100799463D01*
X105509998Y-100813473D01*
X105452742Y-100799462D01*
X105408426Y-100760598D01*
X105298495Y-100603599D01*
X105131401Y-100436505D01*
X104937830Y-100300965D01*
X104723663Y-100201097D01*
X104630361Y-100176097D01*
X104495407Y-100139936D01*
X104260000Y-100119340D01*
X104024592Y-100139936D01*
X103796336Y-100201097D01*
X103582170Y-100300965D01*
X103388601Y-100436503D01*
X103241398Y-100583706D01*
X103194428Y-100613151D01*
X103139321Y-100619185D01*
X103087091Y-100600604D01*
X103048178Y-100561120D01*
X102952711Y-100406342D01*
X102828657Y-100282288D01*
X102679334Y-100190186D01*
X102512797Y-100135000D01*
X102410009Y-100124500D01*
X101109991Y-100124500D01*
X101007203Y-100135000D01*
X100840665Y-100190186D01*
X100691342Y-100282288D01*
X100567288Y-100406342D01*
X100475186Y-100555665D01*
X100420000Y-100722202D01*
X100409500Y-100824990D01*
X100409500Y-102375008D01*
X97655500Y-102375008D01*
X97655500Y-95885000D01*
X99659531Y-95885000D01*
X99679364Y-96111689D01*
X99738261Y-96331497D01*
X99834432Y-96537735D01*
X99964953Y-96724140D01*
X100125859Y-96885046D01*
X100312264Y-97015567D01*
X100312265Y-97015567D01*
X100312266Y-97015568D01*
X100518504Y-97111739D01*
X100738308Y-97170635D01*
X100965000Y-97190468D01*
X101191692Y-97170635D01*
X101411496Y-97111739D01*
X101617734Y-97015568D01*
X101804139Y-96885047D01*
X101965047Y-96724139D01*
X102095568Y-96537734D01*
X102191739Y-96331496D01*
X102250635Y-96111692D01*
X102270468Y-95885000D01*
X102834531Y-95885000D01*
X102854364Y-96111689D01*
X102913261Y-96331497D01*
X103009432Y-96537735D01*
X103139953Y-96724140D01*
X103300859Y-96885046D01*
X103487264Y-97015567D01*
X103487265Y-97015567D01*
X103487266Y-97015568D01*
X103693504Y-97111739D01*
X103913308Y-97170635D01*
X104140000Y-97190468D01*
X104366692Y-97170635D01*
X104586496Y-97111739D01*
X104792734Y-97015568D01*
X104979139Y-96885047D01*
X105140047Y-96724139D01*
X105270568Y-96537734D01*
X105366739Y-96331496D01*
X105425635Y-96111692D01*
X105445468Y-95885000D01*
X106009531Y-95885000D01*
X106029364Y-96111689D01*
X106088261Y-96331497D01*
X106184432Y-96537735D01*
X106314953Y-96724140D01*
X106475859Y-96885046D01*
X106662264Y-97015567D01*
X106662265Y-97015567D01*
X106662266Y-97015568D01*
X106868504Y-97111739D01*
X107088308Y-97170635D01*
X107315000Y-97190468D01*
X107541692Y-97170635D01*
X107761496Y-97111739D01*
X107967734Y-97015568D01*
X108154139Y-96885047D01*
X108315047Y-96724139D01*
X108445568Y-96537734D01*
X108541739Y-96331496D01*
X108600635Y-96111692D01*
X108620468Y-95885000D01*
X111089531Y-95885000D01*
X111109364Y-96111689D01*
X111168261Y-96331497D01*
X111264432Y-96537735D01*
X111394953Y-96724140D01*
X111555859Y-96885046D01*
X111742264Y-97015567D01*
X111742265Y-97015567D01*
X111742266Y-97015568D01*
X111948504Y-97111739D01*
X112168308Y-97170635D01*
X112395000Y-97190468D01*
X112621692Y-97170635D01*
X112841496Y-97111739D01*
X113047734Y-97015568D01*
X113234139Y-96885047D01*
X113395047Y-96724139D01*
X113525568Y-96537734D01*
X113621739Y-96331496D01*
X113680635Y-96111692D01*
X113700468Y-95885000D01*
X114264531Y-95885000D01*
X114284364Y-96111689D01*
X114343261Y-96331497D01*
X114439432Y-96537735D01*
X114569953Y-96724140D01*
X114730859Y-96885046D01*
X114917264Y-97015567D01*
X114917265Y-97015567D01*
X114917266Y-97015568D01*
X115123504Y-97111739D01*
X115343308Y-97170635D01*
X115570000Y-97190468D01*
X115796692Y-97170635D01*
X116016496Y-97111739D01*
X116222734Y-97015568D01*
X116409139Y-96885047D01*
X116570047Y-96724139D01*
X116700568Y-96537734D01*
X116796739Y-96331496D01*
X116855635Y-96111692D01*
X116875468Y-95885000D01*
X117439531Y-95885000D01*
X117459364Y-96111689D01*
X117518261Y-96331497D01*
X117614432Y-96537735D01*
X117744953Y-96724140D01*
X117905859Y-96885046D01*
X118092264Y-97015567D01*
X118092265Y-97015567D01*
X118092266Y-97015568D01*
X118298504Y-97111739D01*
X118518308Y-97170635D01*
X118745000Y-97190468D01*
X118971692Y-97170635D01*
X119191496Y-97111739D01*
X119397734Y-97015568D01*
X119584139Y-96885047D01*
X119745047Y-96724139D01*
X119875568Y-96537734D01*
X119971739Y-96331496D01*
X120030635Y-96111692D01*
X120050468Y-95885000D01*
X120614531Y-95885000D01*
X120634364Y-96111689D01*
X120693261Y-96331497D01*
X120789432Y-96537735D01*
X120919953Y-96724140D01*
X121080859Y-96885046D01*
X121267264Y-97015567D01*
X121267265Y-97015567D01*
X121267266Y-97015568D01*
X121473504Y-97111739D01*
X121693308Y-97170635D01*
X121920000Y-97190468D01*
X122146692Y-97170635D01*
X122366496Y-97111739D01*
X122572734Y-97015568D01*
X122759139Y-96885047D01*
X122920047Y-96724139D01*
X123050568Y-96537734D01*
X123146739Y-96331496D01*
X123205635Y-96111692D01*
X123225468Y-95885000D01*
X123789531Y-95885000D01*
X123809364Y-96111689D01*
X123868261Y-96331497D01*
X123964432Y-96537735D01*
X124094953Y-96724140D01*
X124255859Y-96885046D01*
X124442264Y-97015567D01*
X124442265Y-97015567D01*
X124442266Y-97015568D01*
X124648504Y-97111739D01*
X124868308Y-97170635D01*
X125095000Y-97190468D01*
X125321692Y-97170635D01*
X125541496Y-97111739D01*
X125747734Y-97015568D01*
X125934139Y-96885047D01*
X126095047Y-96724139D01*
X126225568Y-96537734D01*
X126321739Y-96331496D01*
X126380635Y-96111692D01*
X126400468Y-95885000D01*
X126964531Y-95885000D01*
X126984364Y-96111689D01*
X127043261Y-96331497D01*
X127139432Y-96537735D01*
X127269953Y-96724140D01*
X127430859Y-96885046D01*
X127617264Y-97015567D01*
X127617265Y-97015567D01*
X127617266Y-97015568D01*
X127823504Y-97111739D01*
X128043308Y-97170635D01*
X128270000Y-97190468D01*
X128496692Y-97170635D01*
X128716496Y-97111739D01*
X128922734Y-97015568D01*
X129109139Y-96885047D01*
X129270047Y-96724139D01*
X129400568Y-96537734D01*
X129496739Y-96331496D01*
X129555635Y-96111692D01*
X129575468Y-95885000D01*
X130139531Y-95885000D01*
X130159364Y-96111689D01*
X130218261Y-96331497D01*
X130314432Y-96537735D01*
X130444953Y-96724140D01*
X130605859Y-96885046D01*
X130792264Y-97015567D01*
X130792265Y-97015567D01*
X130792266Y-97015568D01*
X130998504Y-97111739D01*
X131218308Y-97170635D01*
X131445000Y-97190468D01*
X131671692Y-97170635D01*
X131891496Y-97111739D01*
X132097734Y-97015568D01*
X132284139Y-96885047D01*
X132445047Y-96724139D01*
X132575568Y-96537734D01*
X132671739Y-96331496D01*
X132730635Y-96111692D01*
X132750468Y-95885000D01*
X132730635Y-95658308D01*
X132671739Y-95438504D01*
X132575568Y-95232266D01*
X132571060Y-95225828D01*
X132445046Y-95045859D01*
X132284140Y-94884953D01*
X132097735Y-94754432D01*
X131891497Y-94658261D01*
X131671689Y-94599364D01*
X131445000Y-94579531D01*
X131218310Y-94599364D01*
X130998502Y-94658261D01*
X130792264Y-94754432D01*
X130605859Y-94884953D01*
X130444953Y-95045859D01*
X130314432Y-95232264D01*
X130218261Y-95438502D01*
X130159364Y-95658310D01*
X130139531Y-95885000D01*
X129575468Y-95885000D01*
X129555635Y-95658308D01*
X129496739Y-95438504D01*
X129400568Y-95232266D01*
X129396060Y-95225828D01*
X129270046Y-95045859D01*
X129109140Y-94884953D01*
X128922735Y-94754432D01*
X128716497Y-94658261D01*
X128496689Y-94599364D01*
X128270000Y-94579531D01*
X128043310Y-94599364D01*
X127823502Y-94658261D01*
X127617264Y-94754432D01*
X127430859Y-94884953D01*
X127269953Y-95045859D01*
X127139432Y-95232264D01*
X127043261Y-95438502D01*
X126984364Y-95658310D01*
X126964531Y-95885000D01*
X126400468Y-95885000D01*
X126380635Y-95658308D01*
X126321739Y-95438504D01*
X126225568Y-95232266D01*
X126221060Y-95225828D01*
X126095046Y-95045859D01*
X125934140Y-94884953D01*
X125747735Y-94754432D01*
X125541497Y-94658261D01*
X125321689Y-94599364D01*
X125095000Y-94579531D01*
X124868310Y-94599364D01*
X124648502Y-94658261D01*
X124442264Y-94754432D01*
X124255859Y-94884953D01*
X124094953Y-95045859D01*
X123964432Y-95232264D01*
X123868261Y-95438502D01*
X123809364Y-95658310D01*
X123789531Y-95885000D01*
X123225468Y-95885000D01*
X123205635Y-95658308D01*
X123146739Y-95438504D01*
X123050568Y-95232266D01*
X123046060Y-95225828D01*
X122920046Y-95045859D01*
X122759140Y-94884953D01*
X122572735Y-94754432D01*
X122366497Y-94658261D01*
X122146689Y-94599364D01*
X121920000Y-94579531D01*
X121693310Y-94599364D01*
X121473502Y-94658261D01*
X121267264Y-94754432D01*
X121080859Y-94884953D01*
X120919953Y-95045859D01*
X120789432Y-95232264D01*
X120693261Y-95438502D01*
X120634364Y-95658310D01*
X120614531Y-95885000D01*
X120050468Y-95885000D01*
X120030635Y-95658308D01*
X119971739Y-95438504D01*
X119875568Y-95232266D01*
X119871060Y-95225828D01*
X119745046Y-95045859D01*
X119584140Y-94884953D01*
X119397735Y-94754432D01*
X119191497Y-94658261D01*
X118971689Y-94599364D01*
X118745000Y-94579531D01*
X118518310Y-94599364D01*
X118298502Y-94658261D01*
X118092264Y-94754432D01*
X117905859Y-94884953D01*
X117744953Y-95045859D01*
X117614432Y-95232264D01*
X117518261Y-95438502D01*
X117459364Y-95658310D01*
X117439531Y-95885000D01*
X116875468Y-95885000D01*
X116855635Y-95658308D01*
X116796739Y-95438504D01*
X116700568Y-95232266D01*
X116696060Y-95225828D01*
X116570046Y-95045859D01*
X116409140Y-94884953D01*
X116222735Y-94754432D01*
X116016497Y-94658261D01*
X115796689Y-94599364D01*
X115570000Y-94579531D01*
X115343310Y-94599364D01*
X115123502Y-94658261D01*
X114917264Y-94754432D01*
X114730859Y-94884953D01*
X114569953Y-95045859D01*
X114439432Y-95232264D01*
X114343261Y-95438502D01*
X114284364Y-95658310D01*
X114264531Y-95885000D01*
X113700468Y-95885000D01*
X113680635Y-95658308D01*
X113621739Y-95438504D01*
X113525568Y-95232266D01*
X113521060Y-95225828D01*
X113395046Y-95045859D01*
X113234140Y-94884953D01*
X113047735Y-94754432D01*
X112841497Y-94658261D01*
X112621689Y-94599364D01*
X112395000Y-94579531D01*
X112168310Y-94599364D01*
X111948502Y-94658261D01*
X111742264Y-94754432D01*
X111555859Y-94884953D01*
X111394953Y-95045859D01*
X111264432Y-95232264D01*
X111168261Y-95438502D01*
X111109364Y-95658310D01*
X111089531Y-95885000D01*
X108620468Y-95885000D01*
X108600635Y-95658308D01*
X108541739Y-95438504D01*
X108445568Y-95232266D01*
X108441060Y-95225828D01*
X108315046Y-95045859D01*
X108154140Y-94884953D01*
X107967735Y-94754432D01*
X107761497Y-94658261D01*
X107541689Y-94599364D01*
X107315000Y-94579531D01*
X107088310Y-94599364D01*
X106868502Y-94658261D01*
X106662264Y-94754432D01*
X106475859Y-94884953D01*
X106314953Y-95045859D01*
X106184432Y-95232264D01*
X106088261Y-95438502D01*
X106029364Y-95658310D01*
X106009531Y-95885000D01*
X105445468Y-95885000D01*
X105425635Y-95658308D01*
X105366739Y-95438504D01*
X105270568Y-95232266D01*
X105266060Y-95225828D01*
X105140046Y-95045859D01*
X104979140Y-94884953D01*
X104792735Y-94754432D01*
X104586497Y-94658261D01*
X104366689Y-94599364D01*
X104140000Y-94579531D01*
X103913310Y-94599364D01*
X103693502Y-94658261D01*
X103487264Y-94754432D01*
X103300859Y-94884953D01*
X103139953Y-95045859D01*
X103009432Y-95232264D01*
X102913261Y-95438502D01*
X102854364Y-95658310D01*
X102834531Y-95885000D01*
X102270468Y-95885000D01*
X102250635Y-95658308D01*
X102191739Y-95438504D01*
X102095568Y-95232266D01*
X102091060Y-95225828D01*
X101965046Y-95045859D01*
X101804140Y-94884953D01*
X101617735Y-94754432D01*
X101411497Y-94658261D01*
X101191689Y-94599364D01*
X100965000Y-94579531D01*
X100738310Y-94599364D01*
X100518502Y-94658261D01*
X100312264Y-94754432D01*
X100125859Y-94884953D01*
X99964953Y-95045859D01*
X99834432Y-95232264D01*
X99738261Y-95438502D01*
X99679364Y-95658310D01*
X99659531Y-95885000D01*
X97655500Y-95885000D01*
X97655500Y-93345000D01*
X134584531Y-93345000D01*
X134604364Y-93571689D01*
X134663261Y-93791497D01*
X134759432Y-93997735D01*
X134889953Y-94184140D01*
X135050859Y-94345046D01*
X135237264Y-94475567D01*
X135237265Y-94475567D01*
X135237266Y-94475568D01*
X135443504Y-94571739D01*
X135663308Y-94630635D01*
X135890000Y-94650468D01*
X136116692Y-94630635D01*
X136336496Y-94571739D01*
X136542734Y-94475568D01*
X136729139Y-94345047D01*
X136890047Y-94184139D01*
X137020568Y-93997734D01*
X137116739Y-93791496D01*
X137175635Y-93571692D01*
X137195468Y-93345000D01*
X137175635Y-93118308D01*
X137116739Y-92898504D01*
X137020568Y-92692266D01*
X136890047Y-92505861D01*
X136890046Y-92505859D01*
X136729140Y-92344953D01*
X136542735Y-92214432D01*
X136336497Y-92118261D01*
X136116689Y-92059364D01*
X135889999Y-92039531D01*
X135663310Y-92059364D01*
X135443502Y-92118261D01*
X135237264Y-92214432D01*
X135050859Y-92344953D01*
X134889953Y-92505859D01*
X134759432Y-92692264D01*
X134663261Y-92898502D01*
X134604364Y-93118310D01*
X134584531Y-93345000D01*
X97655500Y-93345000D01*
X97655500Y-90170000D01*
X134584531Y-90170000D01*
X134604364Y-90396689D01*
X134663261Y-90616497D01*
X134759432Y-90822735D01*
X134889953Y-91009140D01*
X135050859Y-91170046D01*
X135237264Y-91300567D01*
X135237265Y-91300567D01*
X135237266Y-91300568D01*
X135443504Y-91396739D01*
X135663308Y-91455635D01*
X135814435Y-91468856D01*
X135889999Y-91475468D01*
X135889999Y-91475467D01*
X135890000Y-91475468D01*
X136116692Y-91455635D01*
X136336496Y-91396739D01*
X136542734Y-91300568D01*
X136729139Y-91170047D01*
X136890047Y-91009139D01*
X137020568Y-90822734D01*
X137116739Y-90616496D01*
X137175635Y-90396692D01*
X137195468Y-90170000D01*
X137175635Y-89943308D01*
X137116739Y-89723504D01*
X137020568Y-89517266D01*
X137007275Y-89498282D01*
X136890046Y-89330859D01*
X136729140Y-89169953D01*
X136542735Y-89039432D01*
X136336497Y-88943261D01*
X136116689Y-88884364D01*
X135890000Y-88864531D01*
X135663310Y-88884364D01*
X135443502Y-88943261D01*
X135237264Y-89039432D01*
X135050859Y-89169953D01*
X134889953Y-89330859D01*
X134759432Y-89517264D01*
X134663261Y-89723502D01*
X134604364Y-89943310D01*
X134584531Y-90170000D01*
X97655500Y-90170000D01*
X97655500Y-88265000D01*
X99659531Y-88265000D01*
X99679364Y-88491689D01*
X99738261Y-88711497D01*
X99834432Y-88917735D01*
X99964953Y-89104140D01*
X100125859Y-89265046D01*
X100312264Y-89395567D01*
X100312265Y-89395567D01*
X100312266Y-89395568D01*
X100518504Y-89491739D01*
X100738308Y-89550635D01*
X100965000Y-89570468D01*
X101191692Y-89550635D01*
X101411496Y-89491739D01*
X101617734Y-89395568D01*
X101804139Y-89265047D01*
X101965047Y-89104139D01*
X102095568Y-88917734D01*
X102191739Y-88711496D01*
X102250635Y-88491692D01*
X102270468Y-88265000D01*
X102834531Y-88265000D01*
X102854364Y-88491689D01*
X102913261Y-88711497D01*
X103009432Y-88917735D01*
X103139953Y-89104140D01*
X103300859Y-89265046D01*
X103487264Y-89395567D01*
X103487265Y-89395567D01*
X103487266Y-89395568D01*
X103693504Y-89491739D01*
X103913308Y-89550635D01*
X104140000Y-89570468D01*
X104366692Y-89550635D01*
X104586496Y-89491739D01*
X104792734Y-89395568D01*
X104979139Y-89265047D01*
X105140047Y-89104139D01*
X105270568Y-88917734D01*
X105366739Y-88711496D01*
X105425635Y-88491692D01*
X105445468Y-88265000D01*
X106009531Y-88265000D01*
X106029364Y-88491689D01*
X106088261Y-88711497D01*
X106184432Y-88917735D01*
X106314953Y-89104140D01*
X106475859Y-89265046D01*
X106662264Y-89395567D01*
X106662265Y-89395567D01*
X106662266Y-89395568D01*
X106868504Y-89491739D01*
X107088308Y-89550635D01*
X107315000Y-89570468D01*
X107541692Y-89550635D01*
X107761496Y-89491739D01*
X107967734Y-89395568D01*
X108154139Y-89265047D01*
X108315047Y-89104139D01*
X108445568Y-88917734D01*
X108541739Y-88711496D01*
X108600635Y-88491692D01*
X108620468Y-88265000D01*
X111089531Y-88265000D01*
X111109364Y-88491689D01*
X111168261Y-88711497D01*
X111264432Y-88917735D01*
X111394953Y-89104140D01*
X111555859Y-89265046D01*
X111742264Y-89395567D01*
X111742265Y-89395567D01*
X111742266Y-89395568D01*
X111948504Y-89491739D01*
X112168308Y-89550635D01*
X112395000Y-89570468D01*
X112621692Y-89550635D01*
X112841496Y-89491739D01*
X113047734Y-89395568D01*
X113234139Y-89265047D01*
X113395047Y-89104139D01*
X113525568Y-88917734D01*
X113621739Y-88711496D01*
X113680635Y-88491692D01*
X113700468Y-88265000D01*
X114264531Y-88265000D01*
X114284364Y-88491689D01*
X114343261Y-88711497D01*
X114439432Y-88917735D01*
X114569953Y-89104140D01*
X114730859Y-89265046D01*
X114917264Y-89395567D01*
X114917265Y-89395567D01*
X114917266Y-89395568D01*
X115123504Y-89491739D01*
X115343308Y-89550635D01*
X115570000Y-89570468D01*
X115796692Y-89550635D01*
X116016496Y-89491739D01*
X116222734Y-89395568D01*
X116409139Y-89265047D01*
X116570047Y-89104139D01*
X116700568Y-88917734D01*
X116796739Y-88711496D01*
X116855635Y-88491692D01*
X116875468Y-88265000D01*
X117439531Y-88265000D01*
X117459364Y-88491689D01*
X117518261Y-88711497D01*
X117614432Y-88917735D01*
X117744953Y-89104140D01*
X117905859Y-89265046D01*
X118092264Y-89395567D01*
X118092265Y-89395567D01*
X118092266Y-89395568D01*
X118298504Y-89491739D01*
X118518308Y-89550635D01*
X118745000Y-89570468D01*
X118971692Y-89550635D01*
X119191496Y-89491739D01*
X119397734Y-89395568D01*
X119584139Y-89265047D01*
X119745047Y-89104139D01*
X119875568Y-88917734D01*
X119971739Y-88711496D01*
X120030635Y-88491692D01*
X120050468Y-88265000D01*
X120614531Y-88265000D01*
X120634364Y-88491689D01*
X120693261Y-88711497D01*
X120789432Y-88917735D01*
X120919953Y-89104140D01*
X121080859Y-89265046D01*
X121267264Y-89395567D01*
X121267265Y-89395567D01*
X121267266Y-89395568D01*
X121473504Y-89491739D01*
X121693308Y-89550635D01*
X121920000Y-89570468D01*
X122146692Y-89550635D01*
X122366496Y-89491739D01*
X122572734Y-89395568D01*
X122759139Y-89265047D01*
X122920047Y-89104139D01*
X123050568Y-88917734D01*
X123146739Y-88711496D01*
X123205635Y-88491692D01*
X123225468Y-88265000D01*
X123789531Y-88265000D01*
X123809364Y-88491689D01*
X123868261Y-88711497D01*
X123964432Y-88917735D01*
X124094953Y-89104140D01*
X124255859Y-89265046D01*
X124442264Y-89395567D01*
X124442265Y-89395567D01*
X124442266Y-89395568D01*
X124648504Y-89491739D01*
X124868308Y-89550635D01*
X125095000Y-89570468D01*
X125321692Y-89550635D01*
X125541496Y-89491739D01*
X125747734Y-89395568D01*
X125934139Y-89265047D01*
X126095047Y-89104139D01*
X126225568Y-88917734D01*
X126321739Y-88711496D01*
X126380635Y-88491692D01*
X126400468Y-88265000D01*
X126380635Y-88038308D01*
X126321739Y-87818504D01*
X126225568Y-87612266D01*
X126105995Y-87441497D01*
X126095046Y-87425859D01*
X125934140Y-87264953D01*
X125747735Y-87134432D01*
X125541497Y-87038261D01*
X125321689Y-86979364D01*
X125095000Y-86959531D01*
X124868310Y-86979364D01*
X124648502Y-87038261D01*
X124442264Y-87134432D01*
X124255859Y-87264953D01*
X124094953Y-87425859D01*
X123964432Y-87612264D01*
X123868261Y-87818502D01*
X123809364Y-88038310D01*
X123789531Y-88265000D01*
X123225468Y-88265000D01*
X123205635Y-88038308D01*
X123146739Y-87818504D01*
X123050568Y-87612266D01*
X122930995Y-87441497D01*
X122920046Y-87425859D01*
X122759140Y-87264953D01*
X122572735Y-87134432D01*
X122366497Y-87038261D01*
X122146689Y-86979364D01*
X121920000Y-86959531D01*
X121693310Y-86979364D01*
X121473502Y-87038261D01*
X121267264Y-87134432D01*
X121080859Y-87264953D01*
X120919953Y-87425859D01*
X120789432Y-87612264D01*
X120693261Y-87818502D01*
X120634364Y-88038310D01*
X120614531Y-88265000D01*
X120050468Y-88265000D01*
X120030635Y-88038308D01*
X119971739Y-87818504D01*
X119875568Y-87612266D01*
X119755995Y-87441497D01*
X119745046Y-87425859D01*
X119584140Y-87264953D01*
X119397735Y-87134432D01*
X119191497Y-87038261D01*
X118971689Y-86979364D01*
X118745000Y-86959531D01*
X118518310Y-86979364D01*
X118298502Y-87038261D01*
X118092264Y-87134432D01*
X117905859Y-87264953D01*
X117744953Y-87425859D01*
X117614432Y-87612264D01*
X117518261Y-87818502D01*
X117459364Y-88038310D01*
X117439531Y-88265000D01*
X116875468Y-88265000D01*
X116855635Y-88038308D01*
X116796739Y-87818504D01*
X116700568Y-87612266D01*
X116580995Y-87441497D01*
X116570046Y-87425859D01*
X116409140Y-87264953D01*
X116222735Y-87134432D01*
X116016497Y-87038261D01*
X115796689Y-86979364D01*
X115570000Y-86959531D01*
X115343310Y-86979364D01*
X115123502Y-87038261D01*
X114917264Y-87134432D01*
X114730859Y-87264953D01*
X114569953Y-87425859D01*
X114439432Y-87612264D01*
X114343261Y-87818502D01*
X114284364Y-88038310D01*
X114264531Y-88265000D01*
X113700468Y-88265000D01*
X113680635Y-88038308D01*
X113621739Y-87818504D01*
X113525568Y-87612266D01*
X113405995Y-87441497D01*
X113395046Y-87425859D01*
X113234140Y-87264953D01*
X113047735Y-87134432D01*
X112841497Y-87038261D01*
X112621689Y-86979364D01*
X112395000Y-86959531D01*
X112168310Y-86979364D01*
X111948502Y-87038261D01*
X111742264Y-87134432D01*
X111555859Y-87264953D01*
X111394953Y-87425859D01*
X111264432Y-87612264D01*
X111168261Y-87818502D01*
X111109364Y-88038310D01*
X111089531Y-88265000D01*
X108620468Y-88265000D01*
X108600635Y-88038308D01*
X108541739Y-87818504D01*
X108445568Y-87612266D01*
X108325995Y-87441497D01*
X108315046Y-87425859D01*
X108154140Y-87264953D01*
X107967735Y-87134432D01*
X107761497Y-87038261D01*
X107541689Y-86979364D01*
X107315000Y-86959531D01*
X107088310Y-86979364D01*
X106868502Y-87038261D01*
X106662264Y-87134432D01*
X106475859Y-87264953D01*
X106314953Y-87425859D01*
X106184432Y-87612264D01*
X106088261Y-87818502D01*
X106029364Y-88038310D01*
X106009531Y-88265000D01*
X105445468Y-88265000D01*
X105425635Y-88038308D01*
X105366739Y-87818504D01*
X105270568Y-87612266D01*
X105150995Y-87441497D01*
X105140046Y-87425859D01*
X104979140Y-87264953D01*
X104792735Y-87134432D01*
X104586497Y-87038261D01*
X104366689Y-86979364D01*
X104140000Y-86959531D01*
X103913310Y-86979364D01*
X103693502Y-87038261D01*
X103487264Y-87134432D01*
X103300859Y-87264953D01*
X103139953Y-87425859D01*
X103009432Y-87612264D01*
X102913261Y-87818502D01*
X102854364Y-88038310D01*
X102834531Y-88265000D01*
X102270468Y-88265000D01*
X102250635Y-88038308D01*
X102191739Y-87818504D01*
X102095568Y-87612266D01*
X101975995Y-87441497D01*
X101965046Y-87425859D01*
X101804140Y-87264953D01*
X101617735Y-87134432D01*
X101411497Y-87038261D01*
X101191689Y-86979364D01*
X100965000Y-86959531D01*
X100738310Y-86979364D01*
X100518502Y-87038261D01*
X100312264Y-87134432D01*
X100125859Y-87264953D01*
X99964953Y-87425859D01*
X99834432Y-87612264D01*
X99738261Y-87818502D01*
X99679364Y-88038310D01*
X99659531Y-88265000D01*
X97655500Y-88265000D01*
X97655500Y-82617764D01*
X99745787Y-82617764D01*
X99775413Y-82887016D01*
X99809998Y-83019304D01*
X99843928Y-83149088D01*
X99939294Y-83373502D01*
X99949871Y-83398392D01*
X100090982Y-83629611D01*
X100180253Y-83736881D01*
X100264255Y-83837820D01*
X100465998Y-84018582D01*
X100691910Y-84168044D01*
X100798211Y-84217876D01*
X100937177Y-84283021D01*
X101196562Y-84361058D01*
X101196569Y-84361060D01*
X101464561Y-84400500D01*
X101667631Y-84400500D01*
X101667634Y-84400500D01*
X101870156Y-84385677D01*
X101870155Y-84385677D01*
X102134553Y-84326780D01*
X102387558Y-84230014D01*
X102623777Y-84097441D01*
X102838177Y-83931888D01*
X103026186Y-83736881D01*
X103183799Y-83516579D01*
X103307656Y-83275675D01*
X103395118Y-83019305D01*
X103444319Y-82752933D01*
X103454212Y-82482235D01*
X103424586Y-82212982D01*
X103356072Y-81950912D01*
X103250130Y-81701610D01*
X103125854Y-81497977D01*
X103109017Y-81470388D01*
X102935746Y-81262181D01*
X102830758Y-81168112D01*
X102734002Y-81081418D01*
X102508090Y-80931956D01*
X102508086Y-80931954D01*
X102262822Y-80816978D01*
X102003437Y-80738941D01*
X102003431Y-80738940D01*
X101735439Y-80699500D01*
X101532369Y-80699500D01*
X101532366Y-80699500D01*
X101329843Y-80714322D01*
X101065449Y-80773219D01*
X100812441Y-80869986D01*
X100576223Y-81002559D01*
X100361825Y-81168109D01*
X100173813Y-81363120D01*
X100016201Y-81583420D01*
X99892342Y-81824329D01*
X99804881Y-82080695D01*
X99755680Y-82347066D01*
X99745787Y-82617764D01*
X97655500Y-82617764D01*
X97655500Y-76824613D01*
X97673211Y-76760748D01*
X97721285Y-76715128D01*
X97785989Y-76700783D01*
X97848840Y-76721812D01*
X97891882Y-76772208D01*
X97929432Y-76852735D01*
X98059953Y-77039140D01*
X98220859Y-77200046D01*
X98407264Y-77330567D01*
X98407265Y-77330567D01*
X98407266Y-77330568D01*
X98613504Y-77426739D01*
X98833308Y-77485635D01*
X98984436Y-77498857D01*
X99059999Y-77505468D01*
X99059999Y-77505467D01*
X99060000Y-77505468D01*
X99286692Y-77485635D01*
X99506496Y-77426739D01*
X99712734Y-77330568D01*
X99899139Y-77200047D01*
X100060047Y-77039139D01*
X100190117Y-76853377D01*
X100234436Y-76814511D01*
X100291693Y-76800500D01*
X111712513Y-76800500D01*
X111728697Y-76801560D01*
X111760000Y-76805682D01*
X111916762Y-76785044D01*
X112031219Y-76737633D01*
X112100888Y-76708777D01*
X112124013Y-76677596D01*
X112188282Y-76628282D01*
X112207509Y-76603223D01*
X112218190Y-76591043D01*
X117870572Y-70938661D01*
X117921997Y-70907762D01*
X117981911Y-70904622D01*
X118036286Y-70929977D01*
X118072393Y-70977893D01*
X118081779Y-71037150D01*
X118074531Y-71119998D01*
X118094364Y-71346689D01*
X118153261Y-71566497D01*
X118249432Y-71772735D01*
X118379953Y-71959140D01*
X118540859Y-72120046D01*
X118651045Y-72197198D01*
X118727266Y-72250568D01*
X118785275Y-72277618D01*
X118837450Y-72323375D01*
X118856869Y-72390000D01*
X118837450Y-72456625D01*
X118785275Y-72502382D01*
X118727263Y-72529433D01*
X118540859Y-72659953D01*
X118379953Y-72820859D01*
X118249432Y-73007264D01*
X118153261Y-73213502D01*
X118094364Y-73433310D01*
X118074531Y-73660000D01*
X118094364Y-73886689D01*
X118153261Y-74106497D01*
X118249432Y-74312735D01*
X118379953Y-74499140D01*
X118540859Y-74660046D01*
X118727262Y-74790565D01*
X118727266Y-74790568D01*
X118785273Y-74817617D01*
X118837449Y-74863373D01*
X118856869Y-74929997D01*
X118837451Y-74996622D01*
X118785276Y-75042380D01*
X118727266Y-75069431D01*
X118540859Y-75199953D01*
X118379953Y-75360859D01*
X118249432Y-75547264D01*
X118153261Y-75753502D01*
X118094364Y-75973310D01*
X118074531Y-76200000D01*
X118094364Y-76426689D01*
X118153261Y-76646497D01*
X118249432Y-76852735D01*
X118379953Y-77039140D01*
X118540859Y-77200046D01*
X118727264Y-77330567D01*
X118727265Y-77330567D01*
X118727266Y-77330568D01*
X118933504Y-77426739D01*
X119153308Y-77485635D01*
X119304436Y-77498857D01*
X119379999Y-77505468D01*
X119379999Y-77505467D01*
X119380000Y-77505468D01*
X119606692Y-77485635D01*
X119826496Y-77426739D01*
X120032734Y-77330568D01*
X120219139Y-77200047D01*
X120380047Y-77039139D01*
X120510568Y-76852734D01*
X120606739Y-76646496D01*
X120665635Y-76426692D01*
X120685468Y-76200000D01*
X120665635Y-75973308D01*
X120606739Y-75753504D01*
X120510568Y-75547266D01*
X120502423Y-75535634D01*
X120380046Y-75360859D01*
X120219140Y-75199953D01*
X120032732Y-75069430D01*
X119974724Y-75042380D01*
X119922549Y-74996623D01*
X119903130Y-74929997D01*
X119922550Y-74863373D01*
X119974721Y-74817619D01*
X120032734Y-74790568D01*
X120219139Y-74660047D01*
X120380047Y-74499139D01*
X120510568Y-74312734D01*
X120606739Y-74106496D01*
X120665635Y-73886692D01*
X120685468Y-73660000D01*
X120665635Y-73433308D01*
X120606739Y-73213504D01*
X120510568Y-73007266D01*
X120428108Y-72889500D01*
X120380046Y-72820859D01*
X120219140Y-72659953D01*
X120032733Y-72529431D01*
X119974725Y-72502382D01*
X119922549Y-72456625D01*
X119903129Y-72390000D01*
X119922549Y-72323375D01*
X119974725Y-72277618D01*
X120005267Y-72263376D01*
X120032734Y-72250568D01*
X120219139Y-72120047D01*
X120380047Y-71959139D01*
X120510568Y-71772734D01*
X120606739Y-71566496D01*
X120665635Y-71346692D01*
X120685468Y-71120000D01*
X120665635Y-70893308D01*
X120606739Y-70673504D01*
X120510568Y-70467266D01*
X120380047Y-70280861D01*
X120380046Y-70280859D01*
X120219140Y-70119953D01*
X120032733Y-69989431D01*
X119974725Y-69962382D01*
X119922549Y-69916625D01*
X119903129Y-69850000D01*
X119922549Y-69783375D01*
X119974725Y-69737618D01*
X120032734Y-69710568D01*
X120219139Y-69580047D01*
X120380047Y-69419139D01*
X120510568Y-69232734D01*
X120606739Y-69026496D01*
X120607396Y-69024043D01*
X120609926Y-69019660D01*
X120611324Y-69016663D01*
X120611586Y-69016785D01*
X120639485Y-68968456D01*
X120695073Y-68936359D01*
X120759263Y-68936358D01*
X120814852Y-68968452D01*
X127633181Y-75786781D01*
X127660061Y-75827009D01*
X127669500Y-75874462D01*
X127669500Y-87033307D01*
X127655489Y-87090564D01*
X127616623Y-87134882D01*
X127430859Y-87264953D01*
X127269953Y-87425859D01*
X127139432Y-87612264D01*
X127043261Y-87818502D01*
X126984364Y-88038310D01*
X126964531Y-88265000D01*
X126984364Y-88491689D01*
X127043261Y-88711497D01*
X127139432Y-88917735D01*
X127269953Y-89104140D01*
X127430859Y-89265046D01*
X127617264Y-89395567D01*
X127617265Y-89395567D01*
X127617266Y-89395568D01*
X127823504Y-89491739D01*
X128043308Y-89550635D01*
X128270000Y-89570468D01*
X128496692Y-89550635D01*
X128716496Y-89491739D01*
X128922734Y-89395568D01*
X129109139Y-89265047D01*
X129270047Y-89104139D01*
X129400568Y-88917734D01*
X129496739Y-88711496D01*
X129555635Y-88491692D01*
X129575468Y-88265000D01*
X130139531Y-88265000D01*
X130159364Y-88491689D01*
X130218261Y-88711497D01*
X130314432Y-88917735D01*
X130444953Y-89104140D01*
X130605859Y-89265046D01*
X130792264Y-89395567D01*
X130792265Y-89395567D01*
X130792266Y-89395568D01*
X130998504Y-89491739D01*
X131218308Y-89550635D01*
X131445000Y-89570468D01*
X131671692Y-89550635D01*
X131891496Y-89491739D01*
X132097734Y-89395568D01*
X132284139Y-89265047D01*
X132445047Y-89104139D01*
X132575568Y-88917734D01*
X132671739Y-88711496D01*
X132730635Y-88491692D01*
X132750468Y-88265000D01*
X132730635Y-88038308D01*
X132671739Y-87818504D01*
X132575568Y-87612266D01*
X132455995Y-87441497D01*
X132445046Y-87425859D01*
X132284140Y-87264953D01*
X132097735Y-87134432D01*
X131891497Y-87038261D01*
X131730044Y-86995000D01*
X134584531Y-86995000D01*
X134604364Y-87221689D01*
X134663261Y-87441497D01*
X134759432Y-87647735D01*
X134889953Y-87834140D01*
X135050859Y-87995046D01*
X135237264Y-88125567D01*
X135237265Y-88125567D01*
X135237266Y-88125568D01*
X135443504Y-88221739D01*
X135663308Y-88280635D01*
X135890000Y-88300468D01*
X136116692Y-88280635D01*
X136336496Y-88221739D01*
X136542734Y-88125568D01*
X136729139Y-87995047D01*
X136890047Y-87834139D01*
X137020568Y-87647734D01*
X137116739Y-87441496D01*
X137175635Y-87221692D01*
X137195468Y-86995000D01*
X137175635Y-86768308D01*
X137116739Y-86548504D01*
X137020568Y-86342266D01*
X136912914Y-86188519D01*
X136890046Y-86155859D01*
X136729140Y-85994953D01*
X136542735Y-85864432D01*
X136336497Y-85768261D01*
X136116689Y-85709364D01*
X135889999Y-85689531D01*
X135663310Y-85709364D01*
X135443502Y-85768261D01*
X135237264Y-85864432D01*
X135050859Y-85994953D01*
X134889953Y-86155859D01*
X134759432Y-86342264D01*
X134663261Y-86548502D01*
X134604364Y-86768310D01*
X134584531Y-86995000D01*
X131730044Y-86995000D01*
X131671689Y-86979364D01*
X131445000Y-86959531D01*
X131218310Y-86979364D01*
X130998502Y-87038261D01*
X130792264Y-87134432D01*
X130605859Y-87264953D01*
X130444953Y-87425859D01*
X130314432Y-87612264D01*
X130218261Y-87818502D01*
X130159364Y-88038310D01*
X130139531Y-88265000D01*
X129575468Y-88265000D01*
X129555635Y-88038308D01*
X129496739Y-87818504D01*
X129400568Y-87612266D01*
X129280995Y-87441497D01*
X129270046Y-87425859D01*
X129109140Y-87264953D01*
X128923377Y-87134882D01*
X128884511Y-87090564D01*
X128870500Y-87033307D01*
X128870500Y-83820000D01*
X134584531Y-83820000D01*
X134604364Y-84046689D01*
X134663261Y-84266497D01*
X134759432Y-84472735D01*
X134889953Y-84659140D01*
X135050859Y-84820046D01*
X135237264Y-84950567D01*
X135237265Y-84950567D01*
X135237266Y-84950568D01*
X135443504Y-85046739D01*
X135663308Y-85105635D01*
X135784901Y-85116273D01*
X135889999Y-85125468D01*
X135889999Y-85125467D01*
X135890000Y-85125468D01*
X136116692Y-85105635D01*
X136336496Y-85046739D01*
X136542734Y-84950568D01*
X136729139Y-84820047D01*
X136890047Y-84659139D01*
X137020568Y-84472734D01*
X137116739Y-84266496D01*
X137175635Y-84046692D01*
X137195468Y-83820000D01*
X137175635Y-83593308D01*
X137116739Y-83373504D01*
X137020568Y-83167266D01*
X137004188Y-83143873D01*
X136890046Y-82980859D01*
X136729140Y-82819953D01*
X136542735Y-82689432D01*
X136336497Y-82593261D01*
X136116689Y-82534364D01*
X135890000Y-82514531D01*
X135663310Y-82534364D01*
X135443502Y-82593261D01*
X135237264Y-82689432D01*
X135050859Y-82819953D01*
X134889953Y-82980859D01*
X134759432Y-83167264D01*
X134663261Y-83373502D01*
X134604364Y-83593310D01*
X134584531Y-83820000D01*
X128870500Y-83820000D01*
X128870500Y-75621852D01*
X128871561Y-75605666D01*
X128872373Y-75599500D01*
X128875682Y-75574365D01*
X128875467Y-75572735D01*
X128860961Y-75462549D01*
X128855044Y-75417603D01*
X128794536Y-75271524D01*
X128787350Y-75262159D01*
X128739618Y-75199953D01*
X128698282Y-75146082D01*
X128673229Y-75126859D01*
X128661034Y-75116164D01*
X120471724Y-66926854D01*
X120441699Y-66878176D01*
X120436714Y-66821201D01*
X120457829Y-66768053D01*
X120510568Y-66692734D01*
X120606739Y-66486496D01*
X120665635Y-66266692D01*
X120685468Y-66040000D01*
X120665635Y-65813308D01*
X120606739Y-65593504D01*
X120510568Y-65387266D01*
X120380047Y-65200861D01*
X120380046Y-65200859D01*
X120219140Y-65039953D01*
X120032733Y-64909431D01*
X119974725Y-64882382D01*
X119922549Y-64836625D01*
X119903129Y-64770000D01*
X119922549Y-64703375D01*
X119974725Y-64657618D01*
X120032734Y-64630568D01*
X120219139Y-64500047D01*
X120380047Y-64339139D01*
X120510568Y-64152734D01*
X120606739Y-63946496D01*
X120665635Y-63726692D01*
X120685468Y-63500000D01*
X120665635Y-63273308D01*
X120606739Y-63053504D01*
X120510568Y-62847266D01*
X120380047Y-62660861D01*
X120380046Y-62660859D01*
X120219140Y-62499953D01*
X120032733Y-62369431D01*
X119974725Y-62342382D01*
X119922549Y-62296625D01*
X119903129Y-62230000D01*
X119922549Y-62163375D01*
X119974725Y-62117618D01*
X120032734Y-62090568D01*
X120219139Y-61960047D01*
X120380047Y-61799139D01*
X120510568Y-61612734D01*
X120606739Y-61406496D01*
X120665635Y-61186692D01*
X120685468Y-60960000D01*
X120665635Y-60733308D01*
X120606739Y-60513504D01*
X120510568Y-60307266D01*
X120380047Y-60120861D01*
X120380046Y-60120859D01*
X120319709Y-60060522D01*
X120287615Y-60004935D01*
X120287615Y-59940747D01*
X120319707Y-59885162D01*
X123067348Y-57137520D01*
X123122933Y-57105428D01*
X123187120Y-57105428D01*
X123242708Y-57137521D01*
X123274802Y-57193109D01*
X123319106Y-57358450D01*
X123412466Y-57558662D01*
X123539174Y-57739620D01*
X123695380Y-57895826D01*
X123876338Y-58022534D01*
X124076550Y-58115894D01*
X124289932Y-58173070D01*
X124510000Y-58192323D01*
X124730068Y-58173070D01*
X124943450Y-58115894D01*
X125143662Y-58022534D01*
X125324620Y-57895826D01*
X125429242Y-57791203D01*
X125484826Y-57759112D01*
X125549013Y-57759112D01*
X125604601Y-57791206D01*
X133663327Y-65849932D01*
X133695421Y-65905519D01*
X133695421Y-65969706D01*
X133663328Y-66025293D01*
X133607741Y-66057387D01*
X133548506Y-66073259D01*
X133342264Y-66169432D01*
X133155859Y-66299953D01*
X132994953Y-66460859D01*
X132864432Y-66647264D01*
X132768261Y-66853502D01*
X132709364Y-67073310D01*
X132689531Y-67299999D01*
X132709364Y-67526689D01*
X132768261Y-67746497D01*
X132864432Y-67952735D01*
X132994953Y-68139140D01*
X133155859Y-68300046D01*
X133342264Y-68430567D01*
X133342265Y-68430567D01*
X133342266Y-68430568D01*
X133548504Y-68526739D01*
X133768308Y-68585635D01*
X133919436Y-68598857D01*
X133994999Y-68605468D01*
X133994999Y-68605467D01*
X133995000Y-68605468D01*
X134221692Y-68585635D01*
X134441496Y-68526739D01*
X134647734Y-68430568D01*
X134647735Y-68430567D01*
X134657566Y-68425983D01*
X134659181Y-68429446D01*
X134702438Y-68414257D01*
X134767785Y-68428021D01*
X134816517Y-68473681D01*
X134834500Y-68537995D01*
X134834500Y-73495500D01*
X134817887Y-73557500D01*
X134772500Y-73602887D01*
X134710500Y-73619500D01*
X133147130Y-73619500D01*
X133087515Y-73625909D01*
X132952669Y-73676204D01*
X132837454Y-73762454D01*
X132751204Y-73877668D01*
X132701819Y-74010075D01*
X132700909Y-74012517D01*
X132695429Y-74063493D01*
X132694500Y-74072130D01*
X132694500Y-75767869D01*
X132700909Y-75827484D01*
X132718431Y-75874462D01*
X132751204Y-75962331D01*
X132837454Y-76077546D01*
X132952669Y-76163796D01*
X133087517Y-76214091D01*
X133147127Y-76220500D01*
X134710500Y-76220499D01*
X134772500Y-76237112D01*
X134817887Y-76282499D01*
X134834500Y-76344499D01*
X134834500Y-78237513D01*
X134833439Y-78253699D01*
X134829317Y-78285000D01*
X134834500Y-78324360D01*
X134834500Y-78324361D01*
X134849956Y-78441762D01*
X134910463Y-78587840D01*
X135006716Y-78713281D01*
X135031768Y-78732503D01*
X135043964Y-78743199D01*
X135508932Y-79208167D01*
X135541025Y-79263753D01*
X135541027Y-79327938D01*
X135508936Y-79383525D01*
X135453352Y-79415621D01*
X135443506Y-79418259D01*
X135237264Y-79514432D01*
X135050859Y-79644953D01*
X134889953Y-79805859D01*
X134759432Y-79992264D01*
X134663261Y-80198502D01*
X134604364Y-80418310D01*
X134584531Y-80645000D01*
X134604364Y-80871689D01*
X134663261Y-81091497D01*
X134759432Y-81297735D01*
X134889953Y-81484140D01*
X135050859Y-81645046D01*
X135237264Y-81775567D01*
X135237265Y-81775567D01*
X135237266Y-81775568D01*
X135443504Y-81871739D01*
X135663308Y-81930635D01*
X135890000Y-81950468D01*
X136116692Y-81930635D01*
X136336496Y-81871739D01*
X136542734Y-81775568D01*
X136729139Y-81645047D01*
X136890047Y-81484139D01*
X137020568Y-81297734D01*
X137116739Y-81091496D01*
X137119375Y-81081656D01*
X137151466Y-81026069D01*
X137207054Y-80993973D01*
X137271242Y-80993972D01*
X137326831Y-81026066D01*
X141773181Y-85472416D01*
X141800061Y-85512644D01*
X141809500Y-85560097D01*
X141809500Y-89022513D01*
X141808439Y-89038699D01*
X141804317Y-89070000D01*
X141809500Y-89109360D01*
X141809500Y-89109361D01*
X141824956Y-89226762D01*
X141885463Y-89372840D01*
X141981716Y-89498281D01*
X141997207Y-89510167D01*
X142006456Y-89517264D01*
X142006768Y-89517503D01*
X142018964Y-89528199D01*
X142218058Y-89727293D01*
X142250152Y-89782880D01*
X142250152Y-89847067D01*
X142224364Y-89943309D01*
X142204531Y-90169999D01*
X142224364Y-90396688D01*
X142250152Y-90492930D01*
X142250152Y-90557118D01*
X142218058Y-90612705D01*
X134268965Y-98561798D01*
X134256774Y-98572490D01*
X134231721Y-98591715D01*
X134231719Y-98591716D01*
X134231718Y-98591718D01*
X134144945Y-98704803D01*
X134144944Y-98704804D01*
X134135463Y-98717159D01*
X134074956Y-98863237D01*
X134054317Y-99019999D01*
X134058439Y-99051301D01*
X134059500Y-99067487D01*
X134059500Y-99982465D01*
X134044929Y-100040786D01*
X134004640Y-100085400D01*
X133948101Y-100105823D01*
X133907203Y-100110000D01*
X133740665Y-100165186D01*
X133591342Y-100257288D01*
X133467288Y-100381342D01*
X133375186Y-100530665D01*
X133320000Y-100697202D01*
X133309500Y-100799990D01*
X133309500Y-102400008D01*
X133320000Y-102502796D01*
X133375186Y-102669334D01*
X133467288Y-102818657D01*
X133591342Y-102942711D01*
X133591344Y-102942712D01*
X133740666Y-103034814D01*
X133831758Y-103064999D01*
X133907202Y-103089999D01*
X133917703Y-103091071D01*
X134009991Y-103100500D01*
X135310008Y-103100499D01*
X135412797Y-103089999D01*
X135579334Y-103034814D01*
X135728656Y-102942712D01*
X135852712Y-102818656D01*
X135944814Y-102669334D01*
X135944814Y-102669331D01*
X135948178Y-102663879D01*
X135987091Y-102624395D01*
X136039321Y-102605814D01*
X136094428Y-102611849D01*
X136141398Y-102641294D01*
X136288599Y-102788495D01*
X136482170Y-102924035D01*
X136696337Y-103023903D01*
X136924592Y-103085063D01*
X137160000Y-103105659D01*
X137395408Y-103085063D01*
X137623663Y-103023903D01*
X137808387Y-102937764D01*
X156895787Y-102937764D01*
X156925413Y-103207016D01*
X156993928Y-103469087D01*
X157099871Y-103718392D01*
X157240982Y-103949611D01*
X157330253Y-104056881D01*
X157414255Y-104157820D01*
X157615998Y-104338582D01*
X157841910Y-104488044D01*
X157948211Y-104537876D01*
X158087177Y-104603021D01*
X158346562Y-104681058D01*
X158346569Y-104681060D01*
X158614561Y-104720500D01*
X158817631Y-104720500D01*
X158817634Y-104720500D01*
X159020156Y-104705677D01*
X159020156Y-104705676D01*
X159284553Y-104646780D01*
X159537558Y-104550014D01*
X159773777Y-104417441D01*
X159988177Y-104251888D01*
X160176186Y-104056881D01*
X160333799Y-103836579D01*
X160457656Y-103595675D01*
X160545118Y-103339305D01*
X160594319Y-103072933D01*
X160604212Y-102802235D01*
X160574586Y-102532982D01*
X160506072Y-102270912D01*
X160400130Y-102021610D01*
X160259018Y-101790390D01*
X160259017Y-101790388D01*
X160085746Y-101582181D01*
X159980758Y-101488112D01*
X159884002Y-101401418D01*
X159658090Y-101251956D01*
X159658086Y-101251954D01*
X159412822Y-101136978D01*
X159153437Y-101058941D01*
X159153431Y-101058940D01*
X158885439Y-101019500D01*
X158682369Y-101019500D01*
X158682366Y-101019500D01*
X158479843Y-101034322D01*
X158215449Y-101093219D01*
X157962441Y-101189986D01*
X157726223Y-101322559D01*
X157511825Y-101488109D01*
X157323813Y-101683120D01*
X157166201Y-101903420D01*
X157042342Y-102144329D01*
X156954881Y-102400695D01*
X156905680Y-102667066D01*
X156895787Y-102937764D01*
X137808387Y-102937764D01*
X137837829Y-102924035D01*
X138031401Y-102788495D01*
X138198495Y-102621401D01*
X138334035Y-102427829D01*
X138433903Y-102213663D01*
X138495063Y-101985408D01*
X138510500Y-101808966D01*
X138510500Y-101391034D01*
X138495063Y-101214592D01*
X138433903Y-100986337D01*
X138334035Y-100772171D01*
X138198495Y-100578599D01*
X138031401Y-100411505D01*
X137837830Y-100275965D01*
X137623663Y-100176097D01*
X137562501Y-100159709D01*
X137395407Y-100114936D01*
X137160000Y-100094340D01*
X136924592Y-100114936D01*
X136696336Y-100176097D01*
X136482170Y-100275965D01*
X136288601Y-100411503D01*
X136141398Y-100558706D01*
X136094428Y-100588151D01*
X136039321Y-100594185D01*
X135987091Y-100575604D01*
X135948178Y-100536120D01*
X135852711Y-100381342D01*
X135728657Y-100257288D01*
X135579334Y-100165186D01*
X135412797Y-100110000D01*
X135379010Y-100106549D01*
X135371898Y-100105822D01*
X135315361Y-100085401D01*
X135275071Y-100040786D01*
X135260500Y-99982465D01*
X135260500Y-99320097D01*
X135269939Y-99272644D01*
X135296819Y-99232416D01*
X136104235Y-98425000D01*
X146649531Y-98425000D01*
X146669364Y-98651689D01*
X146728261Y-98871497D01*
X146824432Y-99077735D01*
X146954953Y-99264140D01*
X147115859Y-99425046D01*
X147302264Y-99555567D01*
X147302265Y-99555567D01*
X147302266Y-99555568D01*
X147508504Y-99651739D01*
X147728308Y-99710635D01*
X147955000Y-99730468D01*
X148181692Y-99710635D01*
X148401496Y-99651739D01*
X148607734Y-99555568D01*
X148794139Y-99425047D01*
X148955047Y-99264139D01*
X149085568Y-99077734D01*
X149181739Y-98871496D01*
X149240635Y-98651692D01*
X149260468Y-98425000D01*
X154269531Y-98425000D01*
X154289364Y-98651689D01*
X154348261Y-98871497D01*
X154444432Y-99077735D01*
X154574953Y-99264140D01*
X154735859Y-99425046D01*
X154922264Y-99555567D01*
X154922265Y-99555567D01*
X154922266Y-99555568D01*
X155128504Y-99651739D01*
X155348308Y-99710635D01*
X155575000Y-99730468D01*
X155801692Y-99710635D01*
X156021496Y-99651739D01*
X156227734Y-99555568D01*
X156414139Y-99425047D01*
X156575047Y-99264139D01*
X156705568Y-99077734D01*
X156801739Y-98871496D01*
X156860635Y-98651692D01*
X156880468Y-98425000D01*
X156860635Y-98198308D01*
X156801739Y-97978504D01*
X156705568Y-97772266D01*
X156575047Y-97585861D01*
X156575046Y-97585859D01*
X156414140Y-97424953D01*
X156227735Y-97294432D01*
X156021497Y-97198261D01*
X155801689Y-97139364D01*
X155575000Y-97119531D01*
X155348310Y-97139364D01*
X155128502Y-97198261D01*
X154922264Y-97294432D01*
X154735859Y-97424953D01*
X154574953Y-97585859D01*
X154444432Y-97772264D01*
X154348261Y-97978502D01*
X154289364Y-98198310D01*
X154269531Y-98425000D01*
X149260468Y-98425000D01*
X149240635Y-98198308D01*
X149181739Y-97978504D01*
X149085568Y-97772266D01*
X148955047Y-97585861D01*
X148955046Y-97585859D01*
X148794140Y-97424953D01*
X148607735Y-97294432D01*
X148401497Y-97198261D01*
X148181689Y-97139364D01*
X147955000Y-97119531D01*
X147728310Y-97139364D01*
X147508502Y-97198261D01*
X147302264Y-97294432D01*
X147115859Y-97424953D01*
X146954953Y-97585859D01*
X146824432Y-97772264D01*
X146728261Y-97978502D01*
X146669364Y-98198310D01*
X146649531Y-98425000D01*
X136104235Y-98425000D01*
X137234803Y-97294432D01*
X141184234Y-93345000D01*
X142204531Y-93345000D01*
X142224364Y-93571689D01*
X142283261Y-93791497D01*
X142379432Y-93997735D01*
X142509953Y-94184140D01*
X142670859Y-94345046D01*
X142857264Y-94475567D01*
X142857265Y-94475567D01*
X142857266Y-94475568D01*
X143063504Y-94571739D01*
X143283308Y-94630635D01*
X143510000Y-94650468D01*
X143736692Y-94630635D01*
X143795043Y-94615000D01*
X147284531Y-94615000D01*
X147304364Y-94841689D01*
X147363261Y-95061497D01*
X147459432Y-95267735D01*
X147589953Y-95454140D01*
X147750859Y-95615046D01*
X147937264Y-95745567D01*
X147937265Y-95745567D01*
X147937266Y-95745568D01*
X148143504Y-95841739D01*
X148363308Y-95900635D01*
X148590000Y-95920468D01*
X148816692Y-95900635D01*
X149036496Y-95841739D01*
X149242734Y-95745568D01*
X149429139Y-95615047D01*
X149590047Y-95454139D01*
X149720568Y-95267734D01*
X149816739Y-95061496D01*
X149875635Y-94841692D01*
X149895468Y-94615000D01*
X149875635Y-94388308D01*
X149816739Y-94168504D01*
X149720568Y-93962266D01*
X149600995Y-93791497D01*
X149590046Y-93775859D01*
X149429140Y-93614953D01*
X149242735Y-93484432D01*
X149036497Y-93388261D01*
X148816689Y-93329364D01*
X148589999Y-93309531D01*
X148363310Y-93329364D01*
X148143502Y-93388261D01*
X147937264Y-93484432D01*
X147750859Y-93614953D01*
X147589953Y-93775859D01*
X147459432Y-93962264D01*
X147363261Y-94168502D01*
X147304364Y-94388310D01*
X147284531Y-94615000D01*
X143795043Y-94615000D01*
X143956496Y-94571739D01*
X144162734Y-94475568D01*
X144349139Y-94345047D01*
X144510047Y-94184139D01*
X144640568Y-93997734D01*
X144736739Y-93791496D01*
X144795635Y-93571692D01*
X144815468Y-93345000D01*
X144795635Y-93118308D01*
X144736739Y-92898504D01*
X144640568Y-92692266D01*
X144510047Y-92505861D01*
X144510046Y-92505859D01*
X144349140Y-92344953D01*
X144162735Y-92214432D01*
X143956497Y-92118261D01*
X143736689Y-92059364D01*
X143509999Y-92039531D01*
X143283310Y-92059364D01*
X143063502Y-92118261D01*
X142857264Y-92214432D01*
X142670859Y-92344953D01*
X142509953Y-92505859D01*
X142379432Y-92692264D01*
X142283261Y-92898502D01*
X142224364Y-93118310D01*
X142204531Y-93345000D01*
X141184234Y-93345000D01*
X143067294Y-91461939D01*
X143122880Y-91429847D01*
X143187067Y-91429847D01*
X143283308Y-91455635D01*
X143434435Y-91468856D01*
X143509999Y-91475468D01*
X143509999Y-91475467D01*
X143510000Y-91475468D01*
X143736692Y-91455635D01*
X143956496Y-91396739D01*
X144162734Y-91300568D01*
X144349139Y-91170047D01*
X144510047Y-91009139D01*
X144640568Y-90822734D01*
X144736739Y-90616496D01*
X144795635Y-90396692D01*
X144815468Y-90170000D01*
X144795635Y-89943308D01*
X144736739Y-89723504D01*
X144640568Y-89517266D01*
X144627275Y-89498282D01*
X144510046Y-89330859D01*
X144349140Y-89169953D01*
X144162735Y-89039432D01*
X143956497Y-88943261D01*
X143736689Y-88884364D01*
X143510000Y-88864531D01*
X143283309Y-88884364D01*
X143187067Y-88910152D01*
X143122880Y-88910152D01*
X143067293Y-88878058D01*
X143046819Y-88857584D01*
X143019939Y-88817356D01*
X143010500Y-88769903D01*
X143010500Y-88369137D01*
X143023288Y-88314293D01*
X143059013Y-88270761D01*
X143110309Y-88247520D01*
X143166593Y-88249362D01*
X143283307Y-88280634D01*
X143283308Y-88280635D01*
X143510000Y-88300468D01*
X143736692Y-88280635D01*
X143956496Y-88221739D01*
X144162734Y-88125568D01*
X144349139Y-87995047D01*
X144510047Y-87834139D01*
X144640568Y-87647734D01*
X144736739Y-87441496D01*
X144795635Y-87221692D01*
X144815468Y-86995000D01*
X144795635Y-86768308D01*
X144795634Y-86768306D01*
X144794928Y-86760231D01*
X144804313Y-86700973D01*
X144840420Y-86653057D01*
X144894796Y-86627701D01*
X144954710Y-86630841D01*
X145006137Y-86661742D01*
X151447214Y-93102819D01*
X151477464Y-93152182D01*
X151482006Y-93209898D01*
X151459851Y-93263385D01*
X151415828Y-93300985D01*
X151359533Y-93314500D01*
X150917130Y-93314500D01*
X150857515Y-93320909D01*
X150722669Y-93371204D01*
X150607454Y-93457454D01*
X150521204Y-93572668D01*
X150470909Y-93707516D01*
X150464500Y-93767130D01*
X150464500Y-95462869D01*
X150470909Y-95522483D01*
X150521204Y-95657331D01*
X150607454Y-95772546D01*
X150722669Y-95858796D01*
X150857517Y-95909091D01*
X150917127Y-95915500D01*
X152612872Y-95915499D01*
X152672483Y-95909091D01*
X152807331Y-95858796D01*
X152922546Y-95772546D01*
X153008796Y-95657331D01*
X153059091Y-95522483D01*
X153065500Y-95462873D01*
X153065499Y-95020464D01*
X153079014Y-94964171D01*
X153116613Y-94920148D01*
X153170101Y-94897993D01*
X153227817Y-94902535D01*
X153277180Y-94932785D01*
X153350429Y-95006034D01*
X153361124Y-95018229D01*
X153380347Y-95043282D01*
X153404086Y-95061497D01*
X153505789Y-95139536D01*
X153651868Y-95200044D01*
X153719129Y-95208899D01*
X153767270Y-95225828D01*
X153804517Y-95260714D01*
X153939953Y-95454140D01*
X154100859Y-95615046D01*
X154287264Y-95745567D01*
X154287265Y-95745567D01*
X154287266Y-95745568D01*
X154493504Y-95841739D01*
X154713308Y-95900635D01*
X154940000Y-95920468D01*
X155166692Y-95900635D01*
X155386496Y-95841739D01*
X155592734Y-95745568D01*
X155779139Y-95615047D01*
X155940047Y-95454139D01*
X156070568Y-95267734D01*
X156166739Y-95061496D01*
X156225635Y-94841692D01*
X156245468Y-94615000D01*
X156225635Y-94388308D01*
X156166739Y-94168504D01*
X156070568Y-93962266D01*
X155950995Y-93791497D01*
X155940046Y-93775859D01*
X155779140Y-93614953D01*
X155592735Y-93484432D01*
X155386497Y-93388261D01*
X155166689Y-93329364D01*
X154939999Y-93309531D01*
X154713310Y-93329364D01*
X154493502Y-93388261D01*
X154287264Y-93484432D01*
X154100859Y-93614953D01*
X153967020Y-93748793D01*
X153911433Y-93780887D01*
X153847245Y-93780887D01*
X153791658Y-93748793D01*
X148551210Y-88508345D01*
X148517830Y-88447502D01*
X148522369Y-88378253D01*
X148563405Y-88322288D01*
X148628083Y-88297136D01*
X148816692Y-88280635D01*
X149036496Y-88221739D01*
X149242734Y-88125568D01*
X149429139Y-87995047D01*
X149590047Y-87834139D01*
X149720568Y-87647734D01*
X149816739Y-87441496D01*
X149875635Y-87221692D01*
X149895468Y-86995000D01*
X150459531Y-86995000D01*
X150479364Y-87221689D01*
X150538261Y-87441497D01*
X150634432Y-87647735D01*
X150764953Y-87834140D01*
X150925859Y-87995046D01*
X151112264Y-88125567D01*
X151112265Y-88125567D01*
X151112266Y-88125568D01*
X151318504Y-88221739D01*
X151538308Y-88280635D01*
X151765000Y-88300468D01*
X151991692Y-88280635D01*
X152211496Y-88221739D01*
X152417734Y-88125568D01*
X152604139Y-87995047D01*
X152765047Y-87834139D01*
X152895568Y-87647734D01*
X152991739Y-87441496D01*
X153050635Y-87221692D01*
X153070468Y-86995000D01*
X153634531Y-86995000D01*
X153654364Y-87221689D01*
X153713261Y-87441497D01*
X153809432Y-87647735D01*
X153939953Y-87834140D01*
X154100859Y-87995046D01*
X154287264Y-88125567D01*
X154287265Y-88125567D01*
X154287266Y-88125568D01*
X154493504Y-88221739D01*
X154713308Y-88280635D01*
X154940000Y-88300468D01*
X155166692Y-88280635D01*
X155386496Y-88221739D01*
X155592734Y-88125568D01*
X155779139Y-87995047D01*
X155940047Y-87834139D01*
X156070568Y-87647734D01*
X156166739Y-87441496D01*
X156225635Y-87221692D01*
X156245468Y-86995000D01*
X156225635Y-86768308D01*
X156166739Y-86548504D01*
X156070568Y-86342266D01*
X155962914Y-86188519D01*
X155940046Y-86155859D01*
X155779140Y-85994953D01*
X155592735Y-85864432D01*
X155386497Y-85768261D01*
X155166689Y-85709364D01*
X154939999Y-85689531D01*
X154713310Y-85709364D01*
X154493502Y-85768261D01*
X154287264Y-85864432D01*
X154100859Y-85994953D01*
X153939953Y-86155859D01*
X153809432Y-86342264D01*
X153713261Y-86548502D01*
X153654364Y-86768310D01*
X153634531Y-86995000D01*
X153070468Y-86995000D01*
X153050635Y-86768308D01*
X152991739Y-86548504D01*
X152895568Y-86342266D01*
X152787914Y-86188519D01*
X152765046Y-86155859D01*
X152604140Y-85994953D01*
X152417735Y-85864432D01*
X152211497Y-85768261D01*
X151991689Y-85709364D01*
X151764999Y-85689531D01*
X151538310Y-85709364D01*
X151318502Y-85768261D01*
X151112264Y-85864432D01*
X150925859Y-85994953D01*
X150764953Y-86155859D01*
X150634432Y-86342264D01*
X150538261Y-86548502D01*
X150479364Y-86768310D01*
X150459531Y-86995000D01*
X149895468Y-86995000D01*
X149875635Y-86768308D01*
X149816739Y-86548504D01*
X149720568Y-86342266D01*
X149612914Y-86188519D01*
X149590046Y-86155859D01*
X149429140Y-85994953D01*
X149242735Y-85864432D01*
X149036497Y-85768261D01*
X148816689Y-85709364D01*
X148589999Y-85689531D01*
X148363310Y-85709364D01*
X148143502Y-85768261D01*
X147937264Y-85864432D01*
X147750859Y-85994953D01*
X147589953Y-86155859D01*
X147459432Y-86342264D01*
X147363261Y-86548502D01*
X147304364Y-86768309D01*
X147287863Y-86956916D01*
X147262711Y-87021595D01*
X147206745Y-87062630D01*
X147137496Y-87067169D01*
X147076654Y-87033789D01*
X145246819Y-85203954D01*
X145219939Y-85163726D01*
X145210500Y-85116273D01*
X145210500Y-83348129D01*
X145211561Y-83331943D01*
X145215683Y-83300635D01*
X145195044Y-83143873D01*
X145134536Y-82997794D01*
X145120118Y-82979005D01*
X145062454Y-82903854D01*
X145062452Y-82903852D01*
X145062450Y-82903850D01*
X145038282Y-82872353D01*
X145013229Y-82853129D01*
X145001035Y-82842435D01*
X144132077Y-81973477D01*
X144101497Y-81923082D01*
X144097643Y-81864260D01*
X144121386Y-81810305D01*
X144154951Y-81783368D01*
X144153847Y-81781791D01*
X144349140Y-81645046D01*
X144510046Y-81484140D01*
X144594784Y-81363120D01*
X144640568Y-81297734D01*
X144736739Y-81091496D01*
X144795635Y-80871692D01*
X144815468Y-80645000D01*
X144795635Y-80418308D01*
X144736739Y-80198504D01*
X144640568Y-79992266D01*
X144510047Y-79805861D01*
X144510046Y-79805859D01*
X144349140Y-79644953D01*
X144162735Y-79514432D01*
X143956497Y-79418261D01*
X143736689Y-79359364D01*
X143510000Y-79339531D01*
X143283310Y-79359364D01*
X143063502Y-79418261D01*
X142857264Y-79514432D01*
X142670859Y-79644953D01*
X142509953Y-79805859D01*
X142373210Y-80001152D01*
X142371633Y-80000048D01*
X142344689Y-80033619D01*
X142290735Y-80057358D01*
X142231916Y-80053503D01*
X142181523Y-80022923D01*
X138514283Y-76355683D01*
X138482189Y-76300096D01*
X138482189Y-76235908D01*
X138514283Y-76180321D01*
X138569870Y-76148227D01*
X138634057Y-76148227D01*
X138848308Y-76205635D01*
X138994110Y-76218391D01*
X139074999Y-76225468D01*
X139074999Y-76225467D01*
X139075000Y-76225468D01*
X139301692Y-76205635D01*
X139521496Y-76146739D01*
X139727734Y-76050568D01*
X139914139Y-75920047D01*
X140075047Y-75759139D01*
X140205568Y-75572734D01*
X140232618Y-75514724D01*
X140278375Y-75462549D01*
X140345000Y-75443129D01*
X140411625Y-75462549D01*
X140457382Y-75514725D01*
X140484431Y-75572733D01*
X140614953Y-75759140D01*
X140775859Y-75920046D01*
X140962264Y-76050567D01*
X140962265Y-76050567D01*
X140962266Y-76050568D01*
X141168504Y-76146739D01*
X141388308Y-76205635D01*
X141534110Y-76218391D01*
X141614999Y-76225468D01*
X141614999Y-76225467D01*
X141615000Y-76225468D01*
X141841692Y-76205635D01*
X142061496Y-76146739D01*
X142267734Y-76050568D01*
X142454139Y-75920047D01*
X142615047Y-75759139D01*
X142745568Y-75572734D01*
X142841739Y-75366496D01*
X142900635Y-75146692D01*
X142920468Y-74920000D01*
X142900635Y-74693308D01*
X142841739Y-74473504D01*
X142745568Y-74267266D01*
X142724895Y-74237742D01*
X142615046Y-74080859D01*
X142454140Y-73919953D01*
X142267735Y-73789432D01*
X142061497Y-73693261D01*
X141841689Y-73634364D01*
X141615000Y-73614531D01*
X141388310Y-73634364D01*
X141168502Y-73693261D01*
X140962264Y-73789432D01*
X140775859Y-73919953D01*
X140614953Y-74080859D01*
X140484433Y-74267263D01*
X140457382Y-74325275D01*
X140411625Y-74377450D01*
X140345000Y-74396869D01*
X140278375Y-74377450D01*
X140232618Y-74325275D01*
X140205568Y-74267266D01*
X140184895Y-74237742D01*
X140075046Y-74080859D01*
X139914140Y-73919953D01*
X139727735Y-73789432D01*
X139521497Y-73693261D01*
X139301689Y-73634364D01*
X139075000Y-73614531D01*
X138848310Y-73634364D01*
X138628502Y-73693261D01*
X138422264Y-73789432D01*
X138235859Y-73919953D01*
X138074953Y-74080859D01*
X137944433Y-74267263D01*
X137917382Y-74325275D01*
X137871625Y-74377450D01*
X137805000Y-74396869D01*
X137738375Y-74377450D01*
X137692618Y-74325275D01*
X137665568Y-74267266D01*
X137644895Y-74237742D01*
X137535046Y-74080859D01*
X137374140Y-73919953D01*
X137187735Y-73789432D01*
X136981497Y-73693261D01*
X136761689Y-73634364D01*
X136535000Y-73614531D01*
X136308308Y-73634364D01*
X136191593Y-73665638D01*
X136135309Y-73667480D01*
X136084013Y-73644239D01*
X136048288Y-73600707D01*
X136035500Y-73545863D01*
X136035500Y-68674137D01*
X136048288Y-68619293D01*
X136084013Y-68575761D01*
X136135309Y-68552520D01*
X136191593Y-68554362D01*
X136308308Y-68585635D01*
X136534999Y-68605468D01*
X136534999Y-68605467D01*
X136535000Y-68605468D01*
X136761692Y-68585635D01*
X136981496Y-68526739D01*
X137187734Y-68430568D01*
X137374139Y-68300047D01*
X137535047Y-68139139D01*
X137665568Y-67952734D01*
X137692618Y-67894724D01*
X137738375Y-67842549D01*
X137805000Y-67823129D01*
X137871625Y-67842549D01*
X137917382Y-67894725D01*
X137944431Y-67952733D01*
X138074953Y-68139140D01*
X138235859Y-68300046D01*
X138422264Y-68430567D01*
X138422265Y-68430567D01*
X138422266Y-68430568D01*
X138628504Y-68526739D01*
X138848308Y-68585635D01*
X138999436Y-68598857D01*
X139074999Y-68605468D01*
X139074999Y-68605467D01*
X139075000Y-68605468D01*
X139301692Y-68585635D01*
X139521496Y-68526739D01*
X139727734Y-68430568D01*
X139803053Y-68377829D01*
X139856201Y-68356714D01*
X139913176Y-68361699D01*
X139961854Y-68391724D01*
X147318181Y-75748051D01*
X147345061Y-75788279D01*
X147354500Y-75835732D01*
X147354500Y-80109346D01*
X147340489Y-80166603D01*
X147301623Y-80210919D01*
X147243236Y-80251802D01*
X147148122Y-80318402D01*
X146993402Y-80473122D01*
X146867898Y-80652361D01*
X146775425Y-80850668D01*
X146718792Y-81062025D01*
X146699722Y-81279999D01*
X146718792Y-81497974D01*
X146773355Y-81701607D01*
X146775425Y-81709330D01*
X146867898Y-81907639D01*
X146993402Y-82086877D01*
X147148123Y-82241598D01*
X147327361Y-82367102D01*
X147525670Y-82459575D01*
X147737023Y-82516207D01*
X147955000Y-82535277D01*
X148172977Y-82516207D01*
X148384330Y-82459575D01*
X148582639Y-82367102D01*
X148761877Y-82241598D01*
X148916598Y-82086877D01*
X149042102Y-81907639D01*
X149112617Y-81756417D01*
X149158375Y-81704241D01*
X149225000Y-81684822D01*
X149291625Y-81704241D01*
X149337382Y-81756417D01*
X149407898Y-81907639D01*
X149533402Y-82086877D01*
X149688123Y-82241598D01*
X149867361Y-82367102D01*
X150065670Y-82459575D01*
X150277023Y-82516207D01*
X150495000Y-82535277D01*
X150712977Y-82516207D01*
X150924330Y-82459575D01*
X151122639Y-82367102D01*
X151301877Y-82241598D01*
X151456598Y-82086877D01*
X151558928Y-81940733D01*
X151606141Y-81900410D01*
X151666989Y-81888030D01*
X151726209Y-81906701D01*
X151768952Y-81951742D01*
X151784500Y-82011858D01*
X151784500Y-82077869D01*
X151785469Y-82086878D01*
X151790909Y-82137483D01*
X151841204Y-82272331D01*
X151927454Y-82387546D01*
X152042669Y-82473796D01*
X152177517Y-82524091D01*
X152237127Y-82530500D01*
X153832872Y-82530499D01*
X153892483Y-82524091D01*
X154027331Y-82473796D01*
X154142546Y-82387546D01*
X154228796Y-82272331D01*
X154279091Y-82137483D01*
X154285500Y-82077873D01*
X154285499Y-80482128D01*
X154279091Y-80422517D01*
X154228796Y-80287669D01*
X154142546Y-80172454D01*
X154027331Y-80086204D01*
X153892483Y-80035909D01*
X153832873Y-80029500D01*
X153832869Y-80029500D01*
X152237130Y-80029500D01*
X152177515Y-80035909D01*
X152042669Y-80086204D01*
X151927454Y-80172454D01*
X151841204Y-80287668D01*
X151790909Y-80422515D01*
X151790909Y-80422517D01*
X151785469Y-80473122D01*
X151784500Y-80482131D01*
X151784500Y-80548138D01*
X151768953Y-80608254D01*
X151726210Y-80653296D01*
X151666990Y-80671968D01*
X151606142Y-80659589D01*
X151558925Y-80619262D01*
X151551217Y-80608254D01*
X151456598Y-80473123D01*
X151301877Y-80318402D01*
X151122639Y-80192898D01*
X151026664Y-80148144D01*
X150924331Y-80100425D01*
X150712974Y-80043792D01*
X150495000Y-80024722D01*
X150277025Y-80043792D01*
X150065668Y-80100425D01*
X149867361Y-80192898D01*
X149688122Y-80318402D01*
X149533402Y-80473122D01*
X149407898Y-80652361D01*
X149337382Y-80803583D01*
X149291625Y-80855759D01*
X149225000Y-80875178D01*
X149158375Y-80855759D01*
X149112618Y-80803583D01*
X149070995Y-80714323D01*
X149042102Y-80652362D01*
X148916598Y-80473123D01*
X148761877Y-80318402D01*
X148608374Y-80210918D01*
X148569511Y-80166602D01*
X148555500Y-80109345D01*
X148555500Y-75583129D01*
X148556561Y-75566943D01*
X148557056Y-75563181D01*
X148560683Y-75535635D01*
X148540044Y-75378873D01*
X148479536Y-75232794D01*
X148429983Y-75168215D01*
X148413000Y-75146082D01*
X148383282Y-75107352D01*
X148358229Y-75088129D01*
X148346034Y-75077434D01*
X142003452Y-68734852D01*
X141971358Y-68679263D01*
X141971359Y-68615073D01*
X142003456Y-68559485D01*
X142051785Y-68531586D01*
X142051663Y-68531324D01*
X142054660Y-68529926D01*
X142059043Y-68527396D01*
X142061496Y-68526739D01*
X142267734Y-68430568D01*
X142454139Y-68300047D01*
X142519796Y-68234388D01*
X142575381Y-68202297D01*
X142639568Y-68202297D01*
X142695156Y-68234391D01*
X150416799Y-75956034D01*
X150427494Y-75968229D01*
X150446715Y-75993279D01*
X150446716Y-75993280D01*
X150446718Y-75993282D01*
X150492828Y-76028663D01*
X150492829Y-76028664D01*
X150492831Y-76028666D01*
X150556532Y-76077545D01*
X150572159Y-76089536D01*
X150718238Y-76150044D01*
X150843698Y-76166561D01*
X150874999Y-76170682D01*
X150874999Y-76170681D01*
X150875000Y-76170682D01*
X150906302Y-76166560D01*
X150922487Y-76165500D01*
X158730909Y-76165500D01*
X158797534Y-76184919D01*
X158843290Y-76237094D01*
X158845965Y-76242830D01*
X158981505Y-76436401D01*
X159148599Y-76603495D01*
X159342170Y-76739035D01*
X159556337Y-76838903D01*
X159784592Y-76900063D01*
X160020000Y-76920659D01*
X160255408Y-76900063D01*
X160483663Y-76838903D01*
X160697830Y-76739035D01*
X160891401Y-76603495D01*
X161058495Y-76436401D01*
X161194035Y-76242830D01*
X161293903Y-76028663D01*
X161355063Y-75800408D01*
X161375659Y-75565000D01*
X161374107Y-75547266D01*
X161355063Y-75329592D01*
X161336995Y-75262160D01*
X161293903Y-75101337D01*
X161194035Y-74887171D01*
X161058495Y-74693599D01*
X160891401Y-74526505D01*
X160705839Y-74396573D01*
X160666974Y-74352255D01*
X160652964Y-74294999D01*
X160666975Y-74237742D01*
X160705837Y-74193428D01*
X160891401Y-74063495D01*
X161058495Y-73896401D01*
X161194035Y-73702830D01*
X161293903Y-73488663D01*
X161355063Y-73260408D01*
X161375659Y-73025000D01*
X161355063Y-72789592D01*
X161293903Y-72561337D01*
X161194035Y-72347171D01*
X161058495Y-72153599D01*
X160936569Y-72031673D01*
X160905273Y-71978927D01*
X160903084Y-71917634D01*
X160930537Y-71862789D01*
X160980916Y-71827810D01*
X161112331Y-71778796D01*
X161227546Y-71692546D01*
X161313796Y-71577331D01*
X161364091Y-71442483D01*
X161370500Y-71382873D01*
X161370499Y-70035096D01*
X161379938Y-69987644D01*
X161406815Y-69947419D01*
X161523044Y-69831190D01*
X161535234Y-69820501D01*
X161560282Y-69801282D01*
X161656536Y-69675841D01*
X161717044Y-69529762D01*
X161732500Y-69412361D01*
X161737682Y-69373000D01*
X161733560Y-69341697D01*
X161732500Y-69325513D01*
X161732500Y-55494487D01*
X161733561Y-55478301D01*
X161737682Y-55446999D01*
X161728758Y-55379217D01*
X161717044Y-55290238D01*
X161656536Y-55144159D01*
X161606881Y-55079447D01*
X161584454Y-55050219D01*
X161584452Y-55050217D01*
X161584450Y-55050215D01*
X161560282Y-55018718D01*
X161535229Y-54999494D01*
X161523035Y-54988800D01*
X161330914Y-54796679D01*
X161298820Y-54741090D01*
X161298821Y-54676902D01*
X161298896Y-54676625D01*
X161318070Y-54605068D01*
X161337323Y-54385000D01*
X161318070Y-54164932D01*
X161260894Y-53951550D01*
X161167534Y-53751339D01*
X161040826Y-53570380D01*
X160884620Y-53414174D01*
X160703662Y-53287466D01*
X160503451Y-53194106D01*
X160290065Y-53136929D01*
X160070000Y-53117676D01*
X159849934Y-53136929D01*
X159636548Y-53194106D01*
X159436338Y-53287466D01*
X159255379Y-53414174D01*
X159099174Y-53570379D01*
X158972466Y-53751338D01*
X158879106Y-53951548D01*
X158821929Y-54164934D01*
X158802676Y-54384999D01*
X158821929Y-54605065D01*
X158879106Y-54818451D01*
X158963528Y-54999494D01*
X158972466Y-55018662D01*
X159099174Y-55199620D01*
X159255380Y-55355826D01*
X159436338Y-55482534D01*
X159555748Y-55538215D01*
X159565189Y-55542618D01*
X159617365Y-55588375D01*
X159636784Y-55655000D01*
X159617365Y-55721625D01*
X159565189Y-55767382D01*
X159436338Y-55827466D01*
X159255379Y-55954174D01*
X159099174Y-56110379D01*
X158972466Y-56291338D01*
X158879106Y-56491548D01*
X158821929Y-56704934D01*
X158802676Y-56925000D01*
X158821929Y-57145065D01*
X158860612Y-57289432D01*
X158879106Y-57358450D01*
X158972466Y-57558662D01*
X159099174Y-57739620D01*
X159255380Y-57895826D01*
X159436338Y-58022534D01*
X159636550Y-58115894D01*
X159849932Y-58173070D01*
X160070000Y-58192323D01*
X160290068Y-58173070D01*
X160313635Y-58166754D01*
X160375407Y-58150204D01*
X160431691Y-58148362D01*
X160482986Y-58171603D01*
X160518712Y-58215135D01*
X160531500Y-58269979D01*
X160531500Y-69010500D01*
X160514887Y-69072500D01*
X160469500Y-69117887D01*
X160407500Y-69134500D01*
X159122130Y-69134500D01*
X159062515Y-69140909D01*
X158927669Y-69191204D01*
X158812454Y-69277454D01*
X158726204Y-69392668D01*
X158718859Y-69412360D01*
X158675909Y-69527517D01*
X158670262Y-69580046D01*
X158669500Y-69587130D01*
X158669500Y-71382869D01*
X158675909Y-71442484D01*
X158701056Y-71509907D01*
X158726204Y-71577331D01*
X158812454Y-71692546D01*
X158927669Y-71778796D01*
X159039907Y-71820658D01*
X159059082Y-71827810D01*
X159109462Y-71862789D01*
X159136915Y-71917634D01*
X159134726Y-71978926D01*
X159103431Y-72031673D01*
X158981503Y-72153601D01*
X158845965Y-72347170D01*
X158746097Y-72561336D01*
X158682793Y-72797593D01*
X158658008Y-72845205D01*
X158615423Y-72877882D01*
X158563018Y-72889500D01*
X153774137Y-72889500D01*
X153719293Y-72876712D01*
X153675761Y-72840987D01*
X153652520Y-72789691D01*
X153654362Y-72733407D01*
X153685635Y-72616691D01*
X153705468Y-72390000D01*
X153693269Y-72250566D01*
X153685635Y-72163308D01*
X153626739Y-71943504D01*
X153530568Y-71737266D01*
X153499254Y-71692545D01*
X153400046Y-71550859D01*
X153239140Y-71389953D01*
X153052735Y-71259432D01*
X152846497Y-71163261D01*
X152626689Y-71104364D01*
X152400000Y-71084531D01*
X152173310Y-71104364D01*
X151953502Y-71163261D01*
X151747264Y-71259432D01*
X151560863Y-71389950D01*
X151403975Y-71546838D01*
X151343730Y-71580083D01*
X151275038Y-71576092D01*
X151219049Y-71536093D01*
X151202634Y-71495953D01*
X151199534Y-71497110D01*
X151191494Y-71475554D01*
X151143796Y-71347669D01*
X151057546Y-71232454D01*
X150942331Y-71146204D01*
X150807483Y-71095909D01*
X150747873Y-71089500D01*
X150747869Y-71089500D01*
X149052130Y-71089500D01*
X148992515Y-71095909D01*
X148857669Y-71146204D01*
X148742454Y-71232454D01*
X148656204Y-71347668D01*
X148605909Y-71482516D01*
X148599500Y-71542131D01*
X148599500Y-72140903D01*
X148585985Y-72197198D01*
X148548385Y-72241221D01*
X148494898Y-72263376D01*
X148437182Y-72258834D01*
X148387819Y-72228584D01*
X143351819Y-67192584D01*
X143324939Y-67152356D01*
X143315500Y-67104903D01*
X143315500Y-66562487D01*
X143316561Y-66546301D01*
X143320682Y-66515000D01*
X143300044Y-66358238D01*
X143239536Y-66212159D01*
X143236843Y-66208649D01*
X143220482Y-66187327D01*
X143220481Y-66187326D01*
X143143282Y-66086717D01*
X143118229Y-66067494D01*
X143106034Y-66056799D01*
X132521199Y-55471964D01*
X132510503Y-55459768D01*
X132491281Y-55434716D01*
X132365841Y-55338464D01*
X132249413Y-55290238D01*
X132219762Y-55277956D01*
X132190693Y-55274129D01*
X132185976Y-55273508D01*
X132063000Y-55257317D01*
X132035163Y-55260982D01*
X132031697Y-55261439D01*
X132015513Y-55262500D01*
X125674998Y-55262500D01*
X125610670Y-55244509D01*
X125565009Y-55195757D01*
X125551264Y-55130390D01*
X125573421Y-55067379D01*
X125607534Y-55018662D01*
X125700894Y-54818450D01*
X125758070Y-54605068D01*
X125777323Y-54385000D01*
X125758070Y-54164932D01*
X125700894Y-53951550D01*
X125607534Y-53751339D01*
X125480826Y-53570380D01*
X125324620Y-53414174D01*
X125143662Y-53287466D01*
X124943451Y-53194106D01*
X124730065Y-53136929D01*
X124510000Y-53117676D01*
X124289934Y-53136929D01*
X124076548Y-53194106D01*
X123876338Y-53287466D01*
X123695379Y-53414174D01*
X123539174Y-53570379D01*
X123412466Y-53751338D01*
X123319106Y-53951548D01*
X123261929Y-54164934D01*
X123242676Y-54384999D01*
X123261929Y-54605065D01*
X123300612Y-54749432D01*
X123319106Y-54818450D01*
X123412466Y-55018662D01*
X123455030Y-55079449D01*
X123476856Y-55138413D01*
X123466956Y-55200504D01*
X123427873Y-55249757D01*
X123369655Y-55273508D01*
X123365748Y-55274022D01*
X123364941Y-55274129D01*
X123364942Y-55274129D01*
X123335873Y-55277956D01*
X123189795Y-55338463D01*
X123189793Y-55338464D01*
X123189794Y-55338464D01*
X123064353Y-55434718D01*
X123064351Y-55434719D01*
X123064350Y-55434721D01*
X123045125Y-55459774D01*
X123034433Y-55471965D01*
X120708476Y-57797922D01*
X120658081Y-57828502D01*
X120599259Y-57832356D01*
X120545304Y-57808613D01*
X120518367Y-57775047D01*
X120516790Y-57776152D01*
X120380046Y-57580859D01*
X120219140Y-57419953D01*
X120032733Y-57289431D01*
X119974725Y-57262382D01*
X119922549Y-57216625D01*
X119903129Y-57150000D01*
X119922549Y-57083375D01*
X119974725Y-57037618D01*
X120032734Y-57010568D01*
X120219139Y-56880047D01*
X120380047Y-56719139D01*
X120510568Y-56532734D01*
X120606739Y-56326496D01*
X120665635Y-56106692D01*
X120685468Y-55880000D01*
X120665635Y-55653308D01*
X120606739Y-55433504D01*
X120510568Y-55227266D01*
X120491829Y-55200504D01*
X120380046Y-55040859D01*
X120219140Y-54879953D01*
X120032733Y-54749431D01*
X119974725Y-54722382D01*
X119922549Y-54676625D01*
X119903129Y-54610000D01*
X119922549Y-54543375D01*
X119974725Y-54497618D01*
X120032734Y-54470568D01*
X120219139Y-54340047D01*
X120380047Y-54179139D01*
X120510568Y-53992734D01*
X120606739Y-53786496D01*
X120665635Y-53566692D01*
X120685468Y-53340000D01*
X120665635Y-53113308D01*
X120606739Y-52893504D01*
X120510568Y-52687266D01*
X120380047Y-52500861D01*
X120380046Y-52500859D01*
X120219140Y-52339953D01*
X120032733Y-52209431D01*
X119974725Y-52182382D01*
X119922549Y-52136625D01*
X119903129Y-52070000D01*
X119922549Y-52003375D01*
X119974725Y-51957618D01*
X120032734Y-51930568D01*
X120219139Y-51800047D01*
X120380047Y-51639139D01*
X120510568Y-51452734D01*
X120606739Y-51246496D01*
X120665635Y-51026692D01*
X120685468Y-50800000D01*
X120665635Y-50573308D01*
X120606739Y-50353504D01*
X120510568Y-50147266D01*
X120380047Y-49960861D01*
X120380046Y-49960859D01*
X120219140Y-49799953D01*
X120032732Y-49669430D01*
X119974724Y-49642380D01*
X119922549Y-49596623D01*
X119903130Y-49529997D01*
X119922550Y-49463373D01*
X119974721Y-49417619D01*
X120032734Y-49390568D01*
X120219139Y-49260047D01*
X120380047Y-49099139D01*
X120510568Y-48912734D01*
X120606739Y-48706496D01*
X120665635Y-48486692D01*
X120685468Y-48260000D01*
X120665635Y-48033308D01*
X120606739Y-47813504D01*
X120510568Y-47607266D01*
X120380047Y-47420861D01*
X120380046Y-47420859D01*
X120219140Y-47259953D01*
X120032735Y-47129432D01*
X119826497Y-47033261D01*
X119606689Y-46974364D01*
X119380000Y-46954531D01*
X119153310Y-46974364D01*
X118933502Y-47033261D01*
X118727264Y-47129432D01*
X118540859Y-47259953D01*
X118379953Y-47420859D01*
X118249432Y-47607264D01*
X118153261Y-47813502D01*
X118094364Y-48033310D01*
X118074531Y-48259999D01*
X118094364Y-48486689D01*
X118153261Y-48706497D01*
X118249432Y-48912735D01*
X118379953Y-49099140D01*
X118540859Y-49260046D01*
X118727262Y-49390565D01*
X118727266Y-49390568D01*
X118785273Y-49417617D01*
X118837449Y-49463373D01*
X118856869Y-49529997D01*
X118837451Y-49596622D01*
X118785276Y-49642380D01*
X118727266Y-49669431D01*
X118540859Y-49799953D01*
X118379953Y-49960859D01*
X118249432Y-50147264D01*
X118153261Y-50353502D01*
X118094364Y-50573310D01*
X118074531Y-50799999D01*
X118094364Y-51026689D01*
X118153261Y-51246497D01*
X118249432Y-51452735D01*
X118379953Y-51639140D01*
X118540859Y-51800046D01*
X118727263Y-51930566D01*
X118727266Y-51930568D01*
X118785275Y-51957618D01*
X118837450Y-52003375D01*
X118856869Y-52070000D01*
X118837450Y-52136625D01*
X118785275Y-52182382D01*
X118727263Y-52209433D01*
X118540859Y-52339953D01*
X118379953Y-52500859D01*
X118249432Y-52687264D01*
X118153261Y-52893502D01*
X118094364Y-53113310D01*
X118074531Y-53339999D01*
X118094364Y-53566689D01*
X118153261Y-53786497D01*
X118249432Y-53992735D01*
X118379953Y-54179140D01*
X118540859Y-54340046D01*
X118605061Y-54385000D01*
X118727266Y-54470568D01*
X118785273Y-54497617D01*
X118837449Y-54543373D01*
X118856869Y-54609997D01*
X118837451Y-54676622D01*
X118785276Y-54722380D01*
X118727266Y-54749431D01*
X118540859Y-54879953D01*
X118379953Y-55040859D01*
X118249432Y-55227264D01*
X118153261Y-55433502D01*
X118094364Y-55653310D01*
X118074531Y-55879999D01*
X118094364Y-56106689D01*
X118153261Y-56326497D01*
X118249432Y-56532735D01*
X118379953Y-56719140D01*
X118540859Y-56880046D01*
X118605061Y-56925000D01*
X118727266Y-57010568D01*
X118785273Y-57037617D01*
X118837449Y-57083373D01*
X118856869Y-57149997D01*
X118837451Y-57216622D01*
X118785276Y-57262380D01*
X118727266Y-57289431D01*
X118540859Y-57419953D01*
X118379953Y-57580859D01*
X118249432Y-57767264D01*
X118153261Y-57973502D01*
X118094364Y-58193310D01*
X118074531Y-58419999D01*
X118094364Y-58646689D01*
X118153261Y-58866497D01*
X118249432Y-59072735D01*
X118379953Y-59259140D01*
X118540860Y-59420047D01*
X118727266Y-59550569D01*
X118769558Y-59570290D01*
X118817684Y-59610079D01*
X118840316Y-59668277D01*
X118831715Y-59730126D01*
X118824191Y-59748290D01*
X118799204Y-59786583D01*
X118762037Y-59813217D01*
X118727266Y-59829431D01*
X118540859Y-59959953D01*
X118379953Y-60120859D01*
X118249432Y-60307264D01*
X118153261Y-60513502D01*
X118094364Y-60733310D01*
X118074531Y-60959999D01*
X118094364Y-61186689D01*
X118153261Y-61406497D01*
X118249432Y-61612735D01*
X118379953Y-61799140D01*
X118540859Y-61960046D01*
X118727263Y-62090566D01*
X118727266Y-62090568D01*
X118785275Y-62117618D01*
X118837450Y-62163375D01*
X118856869Y-62230000D01*
X118837450Y-62296625D01*
X118785275Y-62342382D01*
X118727263Y-62369433D01*
X118540859Y-62499953D01*
X118379953Y-62660859D01*
X118249432Y-62847264D01*
X118153261Y-63053502D01*
X118094364Y-63273310D01*
X118074531Y-63499999D01*
X118094364Y-63726689D01*
X118153261Y-63946497D01*
X118249432Y-64152735D01*
X118379953Y-64339140D01*
X118540859Y-64500046D01*
X118727263Y-64630566D01*
X118727266Y-64630568D01*
X118785275Y-64657618D01*
X118837450Y-64703375D01*
X118856869Y-64770000D01*
X118837450Y-64836625D01*
X118785275Y-64882382D01*
X118727263Y-64909433D01*
X118540859Y-65039953D01*
X118379953Y-65200859D01*
X118249432Y-65387264D01*
X118153261Y-65593502D01*
X118094364Y-65813310D01*
X118074531Y-66040000D01*
X118094364Y-66266691D01*
X118125638Y-66383407D01*
X118127480Y-66439691D01*
X118104239Y-66490987D01*
X118060707Y-66526712D01*
X118005863Y-66539500D01*
X108080097Y-66539500D01*
X108032644Y-66530061D01*
X107992416Y-66503181D01*
X100351941Y-58862706D01*
X100319847Y-58807118D01*
X100319847Y-58742933D01*
X100345635Y-58646692D01*
X100365468Y-58420000D01*
X100345635Y-58193308D01*
X100286739Y-57973504D01*
X100190568Y-57767266D01*
X100171210Y-57739620D01*
X100060046Y-57580859D01*
X99899140Y-57419953D01*
X99712733Y-57289431D01*
X99654725Y-57262382D01*
X99602549Y-57216625D01*
X99583129Y-57150000D01*
X99602549Y-57083375D01*
X99654725Y-57037618D01*
X99712734Y-57010568D01*
X99899139Y-56880047D01*
X100060047Y-56719139D01*
X100190568Y-56532734D01*
X100286739Y-56326496D01*
X100345635Y-56106692D01*
X100365468Y-55880000D01*
X100345635Y-55653308D01*
X100286739Y-55433504D01*
X100190568Y-55227266D01*
X100171829Y-55200504D01*
X100060046Y-55040859D01*
X99899140Y-54879953D01*
X99712733Y-54749431D01*
X99654725Y-54722382D01*
X99602549Y-54676625D01*
X99583129Y-54610000D01*
X99602549Y-54543375D01*
X99654725Y-54497618D01*
X99712734Y-54470568D01*
X99899139Y-54340047D01*
X100060047Y-54179139D01*
X100190568Y-53992734D01*
X100286739Y-53786496D01*
X100345635Y-53566692D01*
X100365468Y-53340000D01*
X100345635Y-53113308D01*
X100286739Y-52893504D01*
X100190568Y-52687266D01*
X100060047Y-52500861D01*
X100060046Y-52500859D01*
X99899140Y-52339953D01*
X99712733Y-52209431D01*
X99654725Y-52182382D01*
X99602549Y-52136625D01*
X99583129Y-52070000D01*
X99602549Y-52003375D01*
X99654725Y-51957618D01*
X99712734Y-51930568D01*
X99899139Y-51800047D01*
X100060047Y-51639139D01*
X100190568Y-51452734D01*
X100286739Y-51246496D01*
X100345635Y-51026692D01*
X100365468Y-50800000D01*
X100345635Y-50573308D01*
X100286739Y-50353504D01*
X100190568Y-50147266D01*
X100060047Y-49960861D01*
X100060046Y-49960859D01*
X99899140Y-49799953D01*
X99712732Y-49669430D01*
X99654724Y-49642380D01*
X99602549Y-49596623D01*
X99583130Y-49529997D01*
X99602550Y-49463373D01*
X99654721Y-49417619D01*
X99712734Y-49390568D01*
X99899139Y-49260047D01*
X100060047Y-49099139D01*
X100190568Y-48912734D01*
X100286739Y-48706496D01*
X100345635Y-48486692D01*
X100365468Y-48260000D01*
X100345635Y-48033308D01*
X100286739Y-47813504D01*
X100190568Y-47607266D01*
X100060047Y-47420861D01*
X100060046Y-47420859D01*
X99899140Y-47259953D01*
X99712733Y-47129431D01*
X99654725Y-47102382D01*
X99602549Y-47056625D01*
X99583129Y-46990000D01*
X99602549Y-46923375D01*
X99654725Y-46877618D01*
X99712734Y-46850568D01*
X99899139Y-46720047D01*
X100060047Y-46559139D01*
X100190568Y-46372734D01*
X100286739Y-46166496D01*
X100345635Y-45946692D01*
X100365468Y-45720000D01*
X100345635Y-45493308D01*
X100286739Y-45273504D01*
X100190568Y-45067266D01*
X100060047Y-44880861D01*
X100060046Y-44880859D01*
X99899140Y-44719953D01*
X99712733Y-44589431D01*
X99654725Y-44562382D01*
X99602549Y-44516625D01*
X99583129Y-44450000D01*
X99602549Y-44383375D01*
X99654725Y-44337618D01*
X99712734Y-44310568D01*
X99899139Y-44180047D01*
X100060047Y-44019139D01*
X100190568Y-43832734D01*
X100286739Y-43626496D01*
X100345635Y-43406692D01*
X100365468Y-43180000D01*
X100345635Y-42953308D01*
X100286739Y-42733504D01*
X100190568Y-42527266D01*
X100060047Y-42340861D01*
X100060046Y-42340859D01*
X99899140Y-42179953D01*
X99712732Y-42049430D01*
X99654724Y-42022380D01*
X99602549Y-41976623D01*
X99583130Y-41909997D01*
X99602550Y-41843373D01*
X99654721Y-41797619D01*
X99712734Y-41770568D01*
X99899139Y-41640047D01*
X100060047Y-41479139D01*
X100190568Y-41292734D01*
X100286739Y-41086496D01*
X100345635Y-40866692D01*
X100365468Y-40640000D01*
X100345635Y-40413308D01*
X100286739Y-40193504D01*
X100190568Y-39987266D01*
X100060047Y-39800861D01*
X100060046Y-39800859D01*
X99899140Y-39639953D01*
X99874537Y-39622726D01*
X99835399Y-39577884D01*
X99821666Y-39519970D01*
X99836500Y-39462328D01*
X99876485Y-39418239D01*
X99932406Y-39397861D01*
X99967483Y-39394091D01*
X100102331Y-39343796D01*
X100217546Y-39257546D01*
X100303796Y-39142331D01*
X100354091Y-39007483D01*
X100360500Y-38947873D01*
X100360499Y-37252128D01*
X100354091Y-37192517D01*
X100303796Y-37057669D01*
X100217546Y-36942454D01*
X100102331Y-36856204D01*
X99967483Y-36805909D01*
X99907873Y-36799500D01*
X99907869Y-36799500D01*
X98212130Y-36799500D01*
X98152515Y-36805909D01*
X98017669Y-36856204D01*
X97902454Y-36942454D01*
X97878767Y-36974096D01*
X97831011Y-37012579D01*
X97770654Y-37023469D01*
X97712460Y-37004100D01*
X97670668Y-36959212D01*
X97655500Y-36899785D01*
X97655500Y-35627764D01*
X102285787Y-35627764D01*
X102315413Y-35897016D01*
X102383928Y-36159087D01*
X102489871Y-36408392D01*
X102630982Y-36639611D01*
X102804253Y-36847818D01*
X102804255Y-36847820D01*
X103005998Y-37028582D01*
X103231910Y-37178044D01*
X103262784Y-37192517D01*
X103477177Y-37293021D01*
X103736562Y-37371058D01*
X103736569Y-37371060D01*
X104004561Y-37410500D01*
X104207631Y-37410500D01*
X104207634Y-37410500D01*
X104410156Y-37395677D01*
X104410155Y-37395677D01*
X104674553Y-37336780D01*
X104927558Y-37240014D01*
X105163777Y-37107441D01*
X105378177Y-36941888D01*
X105566186Y-36746881D01*
X105723799Y-36526579D01*
X105847656Y-36285675D01*
X105935118Y-36029305D01*
X105984319Y-35762933D01*
X105989259Y-35627764D01*
X156895787Y-35627764D01*
X156925413Y-35897016D01*
X156993928Y-36159087D01*
X157099871Y-36408392D01*
X157240982Y-36639611D01*
X157414253Y-36847818D01*
X157414255Y-36847820D01*
X157615998Y-37028582D01*
X157841910Y-37178044D01*
X157872784Y-37192517D01*
X158087177Y-37293021D01*
X158346562Y-37371058D01*
X158346569Y-37371060D01*
X158614561Y-37410500D01*
X158817631Y-37410500D01*
X158817634Y-37410500D01*
X159020156Y-37395677D01*
X159020155Y-37395677D01*
X159284553Y-37336780D01*
X159537558Y-37240014D01*
X159773777Y-37107441D01*
X159988177Y-36941888D01*
X160176186Y-36746881D01*
X160333799Y-36526579D01*
X160457656Y-36285675D01*
X160545118Y-36029305D01*
X160594319Y-35762933D01*
X160604212Y-35492235D01*
X160574586Y-35222982D01*
X160506072Y-34960912D01*
X160400130Y-34711610D01*
X160259018Y-34480390D01*
X160259017Y-34480388D01*
X160085746Y-34272181D01*
X159980758Y-34178112D01*
X159884002Y-34091418D01*
X159658090Y-33941956D01*
X159658086Y-33941954D01*
X159412822Y-33826978D01*
X159153437Y-33748941D01*
X159153431Y-33748940D01*
X158885439Y-33709500D01*
X158682369Y-33709500D01*
X158682366Y-33709500D01*
X158479843Y-33724322D01*
X158215449Y-33783219D01*
X157962441Y-33879986D01*
X157726223Y-34012559D01*
X157511825Y-34178109D01*
X157323813Y-34373120D01*
X157166201Y-34593420D01*
X157042342Y-34834329D01*
X156954881Y-35090695D01*
X156905680Y-35357066D01*
X156895787Y-35627764D01*
X105989259Y-35627764D01*
X105994212Y-35492235D01*
X105964586Y-35222982D01*
X105896072Y-34960912D01*
X105790130Y-34711610D01*
X105649018Y-34480390D01*
X105649017Y-34480388D01*
X105475746Y-34272181D01*
X105370758Y-34178112D01*
X105274002Y-34091418D01*
X105048090Y-33941956D01*
X105048086Y-33941954D01*
X104802822Y-33826978D01*
X104543437Y-33748941D01*
X104543431Y-33748940D01*
X104275439Y-33709500D01*
X104072369Y-33709500D01*
X104072366Y-33709500D01*
X103869843Y-33724322D01*
X103605449Y-33783219D01*
X103352441Y-33879986D01*
X103116223Y-34012559D01*
X102901825Y-34178109D01*
X102713813Y-34373120D01*
X102556201Y-34593420D01*
X102432342Y-34834329D01*
X102344881Y-35090695D01*
X102295680Y-35357066D01*
X102285787Y-35627764D01*
X97655500Y-35627764D01*
X97655500Y-31739500D01*
X97672113Y-31677500D01*
X97717500Y-31632113D01*
X97779500Y-31615500D01*
X162570500Y-31615500D01*
X162632500Y-31632113D01*
G37*
G04 #@! TD.AperFunction*
M02*
