G04 #@! TF.GenerationSoftware,KiCad,Pcbnew,7.0.1-3b83917a11~172~ubuntu20.04.1*
G04 #@! TF.CreationDate,2023-04-20T11:00:22+02:00*
G04 #@! TF.ProjectId,aware,61776172-652e-46b6-9963-61645f706362,rev?*
G04 #@! TF.SameCoordinates,Original*
G04 #@! TF.FileFunction,Soldermask,Top*
G04 #@! TF.FilePolarity,Negative*
%FSLAX46Y46*%
G04 Gerber Fmt 4.6, Leading zero omitted, Abs format (unit mm)*
G04 Created by KiCad (PCBNEW 7.0.1-3b83917a11~172~ubuntu20.04.1) date 2023-04-20 11:00:22*
%MOMM*%
%LPD*%
G01*
G04 APERTURE LIST*
G04 Aperture macros list*
%AMRoundRect*
0 Rectangle with rounded corners*
0 $1 Rounding radius*
0 $2 $3 $4 $5 $6 $7 $8 $9 X,Y pos of 4 corners*
0 Add a 4 corners polygon primitive as box body*
4,1,4,$2,$3,$4,$5,$6,$7,$8,$9,$2,$3,0*
0 Add four circle primitives for the rounded corners*
1,1,$1+$1,$2,$3*
1,1,$1+$1,$4,$5*
1,1,$1+$1,$6,$7*
1,1,$1+$1,$8,$9*
0 Add four rect primitives between the rounded corners*
20,1,$1+$1,$2,$3,$4,$5,0*
20,1,$1+$1,$4,$5,$6,$7,0*
20,1,$1+$1,$6,$7,$8,$9,0*
20,1,$1+$1,$8,$9,$2,$3,0*%
G04 Aperture macros list end*
%ADD10C,1.600000*%
%ADD11O,1.600000X1.600000*%
%ADD12R,1.600000X1.600000*%
%ADD13C,3.200000*%
%ADD14R,1.700000X1.700000*%
%ADD15O,1.700000X1.700000*%
%ADD16C,1.524000*%
%ADD17RoundRect,0.250000X-0.600000X-0.750000X0.600000X-0.750000X0.600000X0.750000X-0.600000X0.750000X0*%
%ADD18O,1.700000X2.000000*%
%ADD19R,1.500000X1.500000*%
%ADD20C,1.500000*%
%ADD21RoundRect,0.250000X-0.600000X-0.725000X0.600000X-0.725000X0.600000X0.725000X-0.600000X0.725000X0*%
%ADD22O,1.700000X1.950000*%
G04 APERTURE END LIST*
D10*
X121920000Y-95885000D03*
D11*
X121920000Y-88265000D03*
D10*
X135890000Y-93345000D03*
D11*
X143510000Y-93345000D03*
D10*
X128270000Y-95885000D03*
D11*
X128270000Y-88265000D03*
D12*
X133995000Y-74920000D03*
D11*
X136535000Y-74920000D03*
X139075000Y-74920000D03*
X141615000Y-74920000D03*
X141615000Y-67300000D03*
X139075000Y-67300000D03*
X136535000Y-67300000D03*
X133995000Y-67300000D03*
D10*
X148590000Y-94615000D03*
D11*
X148590000Y-86995000D03*
D10*
X115570000Y-95885000D03*
D11*
X115570000Y-88265000D03*
D10*
X107315000Y-95885000D03*
D11*
X107315000Y-88265000D03*
D10*
X118745000Y-95885000D03*
D11*
X118745000Y-88265000D03*
D13*
X158750000Y-35560000D03*
D10*
X143510000Y-90170000D03*
D11*
X135890000Y-90170000D03*
D13*
X101600000Y-82550000D03*
D10*
X147955000Y-98425000D03*
D11*
X155575000Y-98425000D03*
D10*
X154940000Y-94615000D03*
D11*
X154940000Y-86995000D03*
D13*
X158750000Y-102870000D03*
D10*
X131445000Y-88265000D03*
D11*
X131445000Y-95885000D03*
D10*
X104140000Y-95885000D03*
D11*
X104140000Y-88265000D03*
D12*
X99060000Y-38100000D03*
D10*
X99060000Y-40640000D03*
X99060000Y-43180000D03*
X99060000Y-45720000D03*
X99060000Y-48260000D03*
X99060000Y-50800000D03*
X99060000Y-53340000D03*
X99060000Y-55880000D03*
X99060000Y-58420000D03*
X99060000Y-60960000D03*
X99060000Y-63500000D03*
X99060000Y-66040000D03*
X99060000Y-68580000D03*
X99060000Y-71120000D03*
X99060000Y-73660000D03*
X99060000Y-76200000D03*
X119380000Y-76200000D03*
X119380000Y-73660000D03*
X119380000Y-71120000D03*
X119380000Y-68580000D03*
X119380000Y-66040000D03*
X119380000Y-63500000D03*
X119380000Y-60960000D03*
X119380000Y-58420000D03*
X119380000Y-55880000D03*
X119380000Y-53340000D03*
X119380000Y-50800000D03*
X119380000Y-48260000D03*
X143510000Y-83820000D03*
D11*
X135890000Y-83820000D03*
D14*
X160020000Y-70485000D03*
D15*
X160020000Y-73025000D03*
X160020000Y-75565000D03*
D13*
X104140000Y-35560000D03*
D16*
X124510000Y-56925000D03*
X124510000Y-54385000D03*
X160070000Y-56925000D03*
X160070000Y-54385000D03*
D12*
X151765000Y-94615000D03*
D11*
X151765000Y-86995000D03*
D17*
X134660000Y-101600000D03*
D18*
X137160000Y-101600000D03*
D12*
X149900000Y-72390000D03*
D10*
X152400000Y-72390000D03*
X135890000Y-86995000D03*
D11*
X143510000Y-86995000D03*
D10*
X112395000Y-95885000D03*
D11*
X112395000Y-88265000D03*
D10*
X125095000Y-95885000D03*
D11*
X125095000Y-88265000D03*
D19*
X153035000Y-81280000D03*
D20*
X150495000Y-81280000D03*
X147955000Y-81280000D03*
D21*
X101760000Y-101600000D03*
D22*
X104260000Y-101600000D03*
X106760000Y-101600000D03*
D21*
X115095000Y-101600000D03*
D22*
X117595000Y-101600000D03*
X120095000Y-101600000D03*
X122595000Y-101600000D03*
X125095000Y-101600000D03*
D10*
X135890000Y-80645000D03*
D11*
X143510000Y-80645000D03*
D10*
X100965000Y-95885000D03*
D11*
X100965000Y-88265000D03*
M02*
