G04 #@! TF.GenerationSoftware,KiCad,Pcbnew,7.0.1-3b83917a11~172~ubuntu20.04.1*
G04 #@! TF.CreationDate,2023-04-20T11:00:22+02:00*
G04 #@! TF.ProjectId,aware,61776172-652e-46b6-9963-61645f706362,rev?*
G04 #@! TF.SameCoordinates,Original*
G04 #@! TF.FileFunction,Copper,L1,Top*
G04 #@! TF.FilePolarity,Positive*
%FSLAX46Y46*%
G04 Gerber Fmt 4.6, Leading zero omitted, Abs format (unit mm)*
G04 Created by KiCad (PCBNEW 7.0.1-3b83917a11~172~ubuntu20.04.1) date 2023-04-20 11:00:22*
%MOMM*%
%LPD*%
G01*
G04 APERTURE LIST*
G04 Aperture macros list*
%AMRoundRect*
0 Rectangle with rounded corners*
0 $1 Rounding radius*
0 $2 $3 $4 $5 $6 $7 $8 $9 X,Y pos of 4 corners*
0 Add a 4 corners polygon primitive as box body*
4,1,4,$2,$3,$4,$5,$6,$7,$8,$9,$2,$3,0*
0 Add four circle primitives for the rounded corners*
1,1,$1+$1,$2,$3*
1,1,$1+$1,$4,$5*
1,1,$1+$1,$6,$7*
1,1,$1+$1,$8,$9*
0 Add four rect primitives between the rounded corners*
20,1,$1+$1,$2,$3,$4,$5,0*
20,1,$1+$1,$4,$5,$6,$7,0*
20,1,$1+$1,$6,$7,$8,$9,0*
20,1,$1+$1,$8,$9,$2,$3,0*%
G04 Aperture macros list end*
G04 #@! TA.AperFunction,ComponentPad*
%ADD10C,1.600000*%
G04 #@! TD*
G04 #@! TA.AperFunction,ComponentPad*
%ADD11O,1.600000X1.600000*%
G04 #@! TD*
G04 #@! TA.AperFunction,ComponentPad*
%ADD12R,1.600000X1.600000*%
G04 #@! TD*
G04 #@! TA.AperFunction,ComponentPad*
%ADD13R,1.700000X1.700000*%
G04 #@! TD*
G04 #@! TA.AperFunction,ComponentPad*
%ADD14O,1.700000X1.700000*%
G04 #@! TD*
G04 #@! TA.AperFunction,ComponentPad*
%ADD15C,1.524000*%
G04 #@! TD*
G04 #@! TA.AperFunction,ComponentPad*
%ADD16RoundRect,0.250000X-0.600000X-0.750000X0.600000X-0.750000X0.600000X0.750000X-0.600000X0.750000X0*%
G04 #@! TD*
G04 #@! TA.AperFunction,ComponentPad*
%ADD17O,1.700000X2.000000*%
G04 #@! TD*
G04 #@! TA.AperFunction,ComponentPad*
%ADD18R,1.500000X1.500000*%
G04 #@! TD*
G04 #@! TA.AperFunction,ComponentPad*
%ADD19C,1.500000*%
G04 #@! TD*
G04 #@! TA.AperFunction,ComponentPad*
%ADD20RoundRect,0.250000X-0.600000X-0.725000X0.600000X-0.725000X0.600000X0.725000X-0.600000X0.725000X0*%
G04 #@! TD*
G04 #@! TA.AperFunction,ComponentPad*
%ADD21O,1.700000X1.950000*%
G04 #@! TD*
G04 #@! TA.AperFunction,ViaPad*
%ADD22C,0.600000*%
G04 #@! TD*
G04 #@! TA.AperFunction,Conductor*
%ADD23C,0.200000*%
G04 #@! TD*
G04 APERTURE END LIST*
D10*
X121920000Y-95885000D03*
D11*
X121920000Y-88265000D03*
D10*
X135890000Y-93345000D03*
D11*
X143510000Y-93345000D03*
D10*
X128270000Y-95885000D03*
D11*
X128270000Y-88265000D03*
D12*
X133995000Y-74920000D03*
D11*
X136535000Y-74920000D03*
X139075000Y-74920000D03*
X141615000Y-74920000D03*
X141615000Y-67300000D03*
X139075000Y-67300000D03*
X136535000Y-67300000D03*
X133995000Y-67300000D03*
D10*
X148590000Y-94615000D03*
D11*
X148590000Y-86995000D03*
D10*
X115570000Y-95885000D03*
D11*
X115570000Y-88265000D03*
D10*
X107315000Y-95885000D03*
D11*
X107315000Y-88265000D03*
D10*
X118745000Y-95885000D03*
D11*
X118745000Y-88265000D03*
D10*
X143510000Y-90170000D03*
D11*
X135890000Y-90170000D03*
D10*
X147955000Y-98425000D03*
D11*
X155575000Y-98425000D03*
D10*
X154940000Y-94615000D03*
D11*
X154940000Y-86995000D03*
D10*
X131445000Y-88265000D03*
D11*
X131445000Y-95885000D03*
D10*
X104140000Y-95885000D03*
D11*
X104140000Y-88265000D03*
D12*
X99060000Y-38100000D03*
D10*
X99060000Y-40640000D03*
X99060000Y-43180000D03*
X99060000Y-45720000D03*
X99060000Y-48260000D03*
X99060000Y-50800000D03*
X99060000Y-53340000D03*
X99060000Y-55880000D03*
X99060000Y-58420000D03*
X99060000Y-60960000D03*
X99060000Y-63500000D03*
X99060000Y-66040000D03*
X99060000Y-68580000D03*
X99060000Y-71120000D03*
X99060000Y-73660000D03*
X99060000Y-76200000D03*
X119380000Y-76200000D03*
X119380000Y-73660000D03*
X119380000Y-71120000D03*
X119380000Y-68580000D03*
X119380000Y-66040000D03*
X119380000Y-63500000D03*
X119380000Y-60960000D03*
X119380000Y-58420000D03*
X119380000Y-55880000D03*
X119380000Y-53340000D03*
X119380000Y-50800000D03*
X119380000Y-48260000D03*
X143510000Y-83820000D03*
D11*
X135890000Y-83820000D03*
D13*
X160020000Y-70485000D03*
D14*
X160020000Y-73025000D03*
X160020000Y-75565000D03*
D15*
X124510000Y-56925000D03*
X124510000Y-54385000D03*
X160070000Y-56925000D03*
X160070000Y-54385000D03*
D12*
X151765000Y-94615000D03*
D11*
X151765000Y-86995000D03*
D16*
X134660000Y-101600000D03*
D17*
X137160000Y-101600000D03*
D12*
X149900000Y-72390000D03*
D10*
X152400000Y-72390000D03*
X135890000Y-86995000D03*
D11*
X143510000Y-86995000D03*
D10*
X112395000Y-95885000D03*
D11*
X112395000Y-88265000D03*
D10*
X125095000Y-95885000D03*
D11*
X125095000Y-88265000D03*
D18*
X153035000Y-81280000D03*
D19*
X150495000Y-81280000D03*
X147955000Y-81280000D03*
D20*
X101760000Y-101600000D03*
D21*
X104260000Y-101600000D03*
X106760000Y-101600000D03*
D20*
X115095000Y-101600000D03*
D21*
X117595000Y-101600000D03*
X120095000Y-101600000D03*
X122595000Y-101600000D03*
X125095000Y-101600000D03*
D10*
X135890000Y-80645000D03*
D11*
X143510000Y-80645000D03*
D10*
X100965000Y-95885000D03*
D11*
X100965000Y-88265000D03*
D22*
X134620000Y-60960000D03*
D23*
X124510000Y-54385000D02*
X124455000Y-54440000D01*
X152400000Y-80645000D02*
X153035000Y-81280000D01*
X143510000Y-93345000D02*
X145415000Y-93345000D01*
X149870000Y-74920000D02*
X152400000Y-72390000D01*
X145415000Y-93345000D02*
X151765000Y-86995000D01*
X104775000Y-45720000D02*
X99060000Y-45720000D01*
X153035000Y-81280000D02*
X153035000Y-85725000D01*
X124455000Y-54440000D02*
X113495000Y-54440000D01*
X160020000Y-70485000D02*
X154305000Y-70485000D01*
X151765000Y-86995000D02*
X154940000Y-86995000D01*
X138590000Y-73820000D02*
X125572000Y-60802000D01*
X152400000Y-72390000D02*
X152400000Y-80645000D01*
X125572000Y-60802000D02*
X125572000Y-55447000D01*
X113495000Y-54440000D02*
X104775000Y-45720000D01*
X141615000Y-74920000D02*
X140515000Y-73820000D01*
X154305000Y-70485000D02*
X152400000Y-72390000D01*
X140515000Y-73820000D02*
X138590000Y-73820000D01*
X153035000Y-85725000D02*
X151765000Y-86995000D01*
X141615000Y-74920000D02*
X149870000Y-74920000D01*
X137160000Y-99695000D02*
X143510000Y-93345000D01*
X131445000Y-95885000D02*
X137160000Y-101600000D01*
X137160000Y-101600000D02*
X137160000Y-99695000D01*
X125572000Y-55447000D02*
X124510000Y-54385000D01*
X100965000Y-88265000D02*
X97960000Y-85260000D01*
X97960000Y-54440000D02*
X99060000Y-53340000D01*
X97960000Y-85260000D02*
X97960000Y-54440000D01*
X104140000Y-55880000D02*
X99060000Y-50800000D01*
X104140000Y-88265000D02*
X104140000Y-55880000D01*
X107315000Y-56515000D02*
X99060000Y-48260000D01*
X107315000Y-88265000D02*
X107315000Y-56515000D01*
X131445000Y-88265000D02*
X128270000Y-88265000D01*
X112395000Y-78105000D02*
X119380000Y-71120000D01*
X112395000Y-88265000D02*
X112395000Y-78105000D01*
X120480000Y-83355000D02*
X120480000Y-67140000D01*
X115570000Y-88265000D02*
X120480000Y-83355000D01*
X120480000Y-67140000D02*
X119380000Y-66040000D01*
X120879501Y-64999501D02*
X119380000Y-63500000D01*
X118745000Y-88265000D02*
X120879501Y-86130499D01*
X120879501Y-86130499D02*
X120879501Y-64999501D01*
X121920000Y-88265000D02*
X121920000Y-60960000D01*
X121920000Y-60960000D02*
X119380000Y-58420000D01*
X125095000Y-61595000D02*
X119380000Y-55880000D01*
X125095000Y-88265000D02*
X125095000Y-61595000D01*
X134620000Y-60960000D02*
X124460000Y-50800000D01*
X124460000Y-50800000D02*
X119380000Y-50800000D01*
X161289501Y-58144501D02*
X160070000Y-56925000D01*
X160020000Y-73025000D02*
X161289501Y-71755499D01*
X135705000Y-48260000D02*
X119380000Y-48260000D01*
X161289501Y-71755499D02*
X161289501Y-58144501D01*
X160070000Y-56925000D02*
X144370000Y-56925000D01*
X144370000Y-56925000D02*
X133995000Y-67300000D01*
X144370000Y-56925000D02*
X135705000Y-48260000D01*
X147955000Y-98425000D02*
X147955000Y-95250000D01*
X148590000Y-94615000D02*
X151765000Y-94615000D01*
X147955000Y-95250000D02*
X148590000Y-94615000D01*
X143510000Y-80645000D02*
X146685000Y-83820000D01*
X147955000Y-83820000D02*
X150495000Y-81280000D01*
X146685000Y-83820000D02*
X147955000Y-83820000D01*
X145415000Y-90170000D02*
X148590000Y-86995000D01*
X128270000Y-95885000D02*
X133985000Y-101600000D01*
X133985000Y-101600000D02*
X134660000Y-101600000D01*
X143510000Y-90170000D02*
X145415000Y-90170000D01*
X143510000Y-83820000D02*
X139075000Y-79385000D01*
X143510000Y-83820000D02*
X143510000Y-86995000D01*
X139075000Y-79385000D02*
X139075000Y-74920000D01*
X135890000Y-80645000D02*
X135890000Y-83820000D01*
X135890000Y-80645000D02*
X135890000Y-76815000D01*
X135890000Y-76815000D02*
X133995000Y-74920000D01*
X155575000Y-98425000D02*
X155575000Y-95250000D01*
X155575000Y-95250000D02*
X154940000Y-94615000D01*
X135890000Y-90170000D02*
X135890000Y-86995000D01*
X135890000Y-90170000D02*
X135890000Y-93345000D01*
X115570000Y-99575000D02*
X117595000Y-101600000D01*
X115570000Y-95885000D02*
X115570000Y-99575000D01*
X118745000Y-95885000D02*
X118745000Y-100250000D01*
X118745000Y-100250000D02*
X120095000Y-101600000D01*
X121920000Y-95885000D02*
X121920000Y-100925000D01*
X121920000Y-100925000D02*
X122595000Y-101600000D01*
X125095000Y-95885000D02*
X125095000Y-101600000D01*
X104140000Y-101480000D02*
X104260000Y-101600000D01*
X104140000Y-95885000D02*
X104140000Y-101480000D01*
X107315000Y-101045000D02*
X106760000Y-101600000D01*
X107315000Y-95885000D02*
X107315000Y-101045000D01*
X112395000Y-98900000D02*
X115095000Y-101600000D01*
X112395000Y-95885000D02*
X112395000Y-98900000D01*
X100965000Y-95885000D02*
X100965000Y-100805000D01*
X100965000Y-100805000D02*
X101760000Y-101600000D01*
G04 #@! TA.AperFunction,Conductor*
G36*
X162632500Y-31632113D02*
G01*
X162677887Y-31677500D01*
X162694500Y-31739500D01*
X162694500Y-106690500D01*
X162677887Y-106752500D01*
X162632500Y-106797887D01*
X162570500Y-106814500D01*
X97779500Y-106814500D01*
X97717500Y-106797887D01*
X97672113Y-106752500D01*
X97655500Y-106690500D01*
X97655500Y-95885000D01*
X99659531Y-95885000D01*
X99679364Y-96111689D01*
X99738261Y-96331497D01*
X99834432Y-96537735D01*
X99964953Y-96724140D01*
X100125859Y-96885046D01*
X100311623Y-97015118D01*
X100350489Y-97059436D01*
X100364500Y-97116693D01*
X100364500Y-100757513D01*
X100363439Y-100773699D01*
X100359317Y-100805000D01*
X100364500Y-100844360D01*
X100364500Y-100844361D01*
X100379956Y-100961761D01*
X100400061Y-101010299D01*
X100409500Y-101057752D01*
X100409500Y-102375008D01*
X100420000Y-102477796D01*
X100475186Y-102644334D01*
X100567288Y-102793657D01*
X100691342Y-102917711D01*
X100723855Y-102937765D01*
X100840666Y-103009814D01*
X100952017Y-103046712D01*
X101007202Y-103064999D01*
X101017702Y-103066071D01*
X101109991Y-103075500D01*
X102410008Y-103075499D01*
X102512797Y-103064999D01*
X102679334Y-103009814D01*
X102828656Y-102917712D01*
X102952712Y-102793656D01*
X103044814Y-102644334D01*
X103044814Y-102644331D01*
X103048178Y-102638879D01*
X103087091Y-102599395D01*
X103139321Y-102580814D01*
X103194428Y-102586849D01*
X103241398Y-102616294D01*
X103388599Y-102763495D01*
X103582170Y-102899035D01*
X103796337Y-102998903D01*
X104024592Y-103060063D01*
X104260000Y-103080659D01*
X104495408Y-103060063D01*
X104723663Y-102998903D01*
X104937829Y-102899035D01*
X105131401Y-102763495D01*
X105298495Y-102596401D01*
X105408426Y-102439401D01*
X105452743Y-102400537D01*
X105510000Y-102386526D01*
X105567257Y-102400537D01*
X105611573Y-102439401D01*
X105721505Y-102596401D01*
X105888599Y-102763495D01*
X106082170Y-102899035D01*
X106296337Y-102998903D01*
X106524592Y-103060063D01*
X106760000Y-103080659D01*
X106995408Y-103060063D01*
X107223663Y-102998903D01*
X107437829Y-102899035D01*
X107631401Y-102763495D01*
X107798495Y-102596401D01*
X107934035Y-102402829D01*
X108033903Y-102188663D01*
X108095063Y-101960408D01*
X108104723Y-101850000D01*
X108110500Y-101783968D01*
X108110500Y-101416032D01*
X108095063Y-101239592D01*
X108071083Y-101150097D01*
X108033903Y-101011337D01*
X107934035Y-100797171D01*
X107934034Y-100797169D01*
X107929450Y-100787339D01*
X107930171Y-100787002D01*
X107921240Y-100768895D01*
X107915500Y-100731604D01*
X107915500Y-97116693D01*
X107929511Y-97059436D01*
X107968377Y-97015118D01*
X108154140Y-96885046D01*
X108315046Y-96724140D01*
X108445567Y-96537735D01*
X108445568Y-96537734D01*
X108541739Y-96331496D01*
X108600635Y-96111692D01*
X108620468Y-95885000D01*
X111089531Y-95885000D01*
X111109364Y-96111689D01*
X111168261Y-96331497D01*
X111264432Y-96537735D01*
X111394953Y-96724140D01*
X111555859Y-96885046D01*
X111741623Y-97015118D01*
X111780489Y-97059436D01*
X111794500Y-97116693D01*
X111794500Y-98852513D01*
X111793439Y-98868699D01*
X111789317Y-98900000D01*
X111806523Y-99030682D01*
X111806524Y-99030686D01*
X111809956Y-99056763D01*
X111870464Y-99202841D01*
X111966716Y-99328281D01*
X111991768Y-99347503D01*
X112003964Y-99358199D01*
X113708181Y-101062416D01*
X113735061Y-101102644D01*
X113744500Y-101150097D01*
X113744500Y-102375008D01*
X113755000Y-102477796D01*
X113810186Y-102644334D01*
X113902288Y-102793657D01*
X114026342Y-102917711D01*
X114058855Y-102937765D01*
X114175666Y-103009814D01*
X114287017Y-103046712D01*
X114342202Y-103064999D01*
X114352702Y-103066071D01*
X114444991Y-103075500D01*
X115745008Y-103075499D01*
X115847797Y-103064999D01*
X116014334Y-103009814D01*
X116163656Y-102917712D01*
X116287712Y-102793656D01*
X116379814Y-102644334D01*
X116379814Y-102644331D01*
X116383178Y-102638879D01*
X116422091Y-102599395D01*
X116474321Y-102580814D01*
X116529428Y-102586849D01*
X116576398Y-102616294D01*
X116723599Y-102763495D01*
X116917170Y-102899035D01*
X117131337Y-102998903D01*
X117359592Y-103060063D01*
X117595000Y-103080659D01*
X117830408Y-103060063D01*
X118058663Y-102998903D01*
X118272829Y-102899035D01*
X118466401Y-102763495D01*
X118633495Y-102596401D01*
X118743426Y-102439401D01*
X118787743Y-102400537D01*
X118845000Y-102386526D01*
X118902257Y-102400537D01*
X118946573Y-102439401D01*
X119056505Y-102596401D01*
X119223599Y-102763495D01*
X119417170Y-102899035D01*
X119631337Y-102998903D01*
X119859592Y-103060063D01*
X120095000Y-103080659D01*
X120330408Y-103060063D01*
X120558663Y-102998903D01*
X120772829Y-102899035D01*
X120966401Y-102763495D01*
X121133495Y-102596401D01*
X121243426Y-102439401D01*
X121287743Y-102400537D01*
X121345000Y-102386526D01*
X121402257Y-102400537D01*
X121446573Y-102439401D01*
X121556505Y-102596401D01*
X121723599Y-102763495D01*
X121917170Y-102899035D01*
X122131337Y-102998903D01*
X122359592Y-103060063D01*
X122595000Y-103080659D01*
X122830408Y-103060063D01*
X123058663Y-102998903D01*
X123272829Y-102899035D01*
X123466401Y-102763495D01*
X123633495Y-102596401D01*
X123743426Y-102439401D01*
X123787743Y-102400537D01*
X123845000Y-102386526D01*
X123902257Y-102400537D01*
X123946573Y-102439401D01*
X124056505Y-102596401D01*
X124223599Y-102763495D01*
X124417170Y-102899035D01*
X124631337Y-102998903D01*
X124859592Y-103060063D01*
X125095000Y-103080659D01*
X125330408Y-103060063D01*
X125558663Y-102998903D01*
X125772829Y-102899035D01*
X125966401Y-102763495D01*
X126133495Y-102596401D01*
X126269035Y-102402829D01*
X126368903Y-102188663D01*
X126430063Y-101960408D01*
X126439723Y-101850000D01*
X126445500Y-101783968D01*
X126445500Y-101416032D01*
X126430063Y-101239592D01*
X126406083Y-101150097D01*
X126368903Y-101011337D01*
X126269035Y-100797171D01*
X126133495Y-100603599D01*
X125966401Y-100436505D01*
X125772830Y-100300965D01*
X125767094Y-100298290D01*
X125714919Y-100252534D01*
X125695500Y-100185909D01*
X125695500Y-97116693D01*
X125709511Y-97059436D01*
X125748377Y-97015118D01*
X125934140Y-96885046D01*
X126095046Y-96724140D01*
X126225567Y-96537735D01*
X126225568Y-96537734D01*
X126321739Y-96331496D01*
X126380635Y-96111692D01*
X126400468Y-95885000D01*
X126964531Y-95885000D01*
X126984364Y-96111689D01*
X127043261Y-96331497D01*
X127139432Y-96537735D01*
X127269953Y-96724140D01*
X127430859Y-96885046D01*
X127617264Y-97015567D01*
X127617265Y-97015567D01*
X127617266Y-97015568D01*
X127823504Y-97111739D01*
X128043308Y-97170635D01*
X128270000Y-97190468D01*
X128496692Y-97170635D01*
X128592933Y-97144847D01*
X128657118Y-97144847D01*
X128712706Y-97176941D01*
X133273181Y-101737416D01*
X133300061Y-101777644D01*
X133309500Y-101825097D01*
X133309500Y-102400008D01*
X133320000Y-102502796D01*
X133375186Y-102669334D01*
X133467288Y-102818657D01*
X133591342Y-102942711D01*
X133591344Y-102942712D01*
X133740666Y-103034814D01*
X133831758Y-103064999D01*
X133907202Y-103089999D01*
X133917703Y-103091071D01*
X134009991Y-103100500D01*
X135310008Y-103100499D01*
X135412797Y-103089999D01*
X135579334Y-103034814D01*
X135728656Y-102942712D01*
X135852712Y-102818656D01*
X135944814Y-102669334D01*
X135944814Y-102669331D01*
X135948448Y-102663441D01*
X135987361Y-102623957D01*
X136039591Y-102605376D01*
X136094698Y-102611411D01*
X136141668Y-102640856D01*
X136288918Y-102788106D01*
X136482423Y-102923600D01*
X136696507Y-103023430D01*
X136909999Y-103080635D01*
X136910000Y-103080636D01*
X136910000Y-101850000D01*
X137410000Y-101850000D01*
X137410000Y-103080635D01*
X137623492Y-103023430D01*
X137807201Y-102937764D01*
X156895787Y-102937764D01*
X156925413Y-103207016D01*
X156993928Y-103469087D01*
X157099871Y-103718392D01*
X157240982Y-103949611D01*
X157330253Y-104056881D01*
X157414255Y-104157820D01*
X157615998Y-104338582D01*
X157841910Y-104488044D01*
X157948211Y-104537876D01*
X158087177Y-104603021D01*
X158346562Y-104681058D01*
X158346569Y-104681060D01*
X158614561Y-104720500D01*
X158817631Y-104720500D01*
X158817634Y-104720500D01*
X159020156Y-104705677D01*
X159020156Y-104705676D01*
X159284553Y-104646780D01*
X159537558Y-104550014D01*
X159773777Y-104417441D01*
X159988177Y-104251888D01*
X160176186Y-104056881D01*
X160333799Y-103836579D01*
X160457656Y-103595675D01*
X160545118Y-103339305D01*
X160594319Y-103072933D01*
X160604212Y-102802235D01*
X160574586Y-102532982D01*
X160506072Y-102270912D01*
X160400130Y-102021610D01*
X160295398Y-101850000D01*
X160259017Y-101790388D01*
X160085746Y-101582181D01*
X159980758Y-101488112D01*
X159884002Y-101401418D01*
X159658090Y-101251956D01*
X159658086Y-101251954D01*
X159412822Y-101136978D01*
X159153437Y-101058941D01*
X159153431Y-101058940D01*
X158885439Y-101019500D01*
X158682369Y-101019500D01*
X158682366Y-101019500D01*
X158479843Y-101034322D01*
X158215449Y-101093219D01*
X157962441Y-101189986D01*
X157726223Y-101322559D01*
X157511825Y-101488109D01*
X157323813Y-101683120D01*
X157166201Y-101903420D01*
X157042342Y-102144329D01*
X156954881Y-102400695D01*
X156905680Y-102667066D01*
X156895787Y-102937764D01*
X137807201Y-102937764D01*
X137837578Y-102923599D01*
X138031078Y-102788109D01*
X138198109Y-102621078D01*
X138333599Y-102427578D01*
X138433430Y-102213492D01*
X138494569Y-101985318D01*
X138506407Y-101850000D01*
X137410000Y-101850000D01*
X136910000Y-101850000D01*
X136910000Y-100119364D01*
X137410000Y-100119364D01*
X137410000Y-101350000D01*
X138506407Y-101350000D01*
X138506407Y-101349999D01*
X138494569Y-101214681D01*
X138433430Y-100986507D01*
X138333599Y-100772421D01*
X138198109Y-100578921D01*
X138031081Y-100411893D01*
X137837576Y-100276399D01*
X137623492Y-100176569D01*
X137410000Y-100119364D01*
X136910000Y-100119364D01*
X136909999Y-100119364D01*
X136696507Y-100176569D01*
X136482421Y-100276400D01*
X136288924Y-100411888D01*
X136141668Y-100559144D01*
X136094698Y-100588589D01*
X136039591Y-100594623D01*
X135987361Y-100576042D01*
X135948448Y-100536558D01*
X135852711Y-100381342D01*
X135728657Y-100257288D01*
X135579334Y-100165186D01*
X135412797Y-100110000D01*
X135310009Y-100099500D01*
X134009991Y-100099500D01*
X133907203Y-100110000D01*
X133740665Y-100165186D01*
X133613052Y-100243898D01*
X133561156Y-100261654D01*
X133506677Y-100255286D01*
X133460275Y-100226040D01*
X131659235Y-98425000D01*
X146649531Y-98425000D01*
X146669364Y-98651689D01*
X146728261Y-98871497D01*
X146824432Y-99077735D01*
X146954953Y-99264140D01*
X147115859Y-99425046D01*
X147302264Y-99555567D01*
X147302265Y-99555567D01*
X147302266Y-99555568D01*
X147508504Y-99651739D01*
X147728308Y-99710635D01*
X147955000Y-99730468D01*
X148181692Y-99710635D01*
X148401496Y-99651739D01*
X148607734Y-99555568D01*
X148794139Y-99425047D01*
X148955047Y-99264139D01*
X149085568Y-99077734D01*
X149181739Y-98871496D01*
X149240635Y-98651692D01*
X149260468Y-98425000D01*
X149240635Y-98198308D01*
X149181739Y-97978504D01*
X149085568Y-97772266D01*
X148955047Y-97585861D01*
X148955046Y-97585859D01*
X148794140Y-97424953D01*
X148608377Y-97294882D01*
X148569511Y-97250564D01*
X148555500Y-97193307D01*
X148555500Y-96037112D01*
X148570355Y-95978262D01*
X148611361Y-95933512D01*
X148668693Y-95913584D01*
X148778410Y-95903984D01*
X148816692Y-95900635D01*
X149036496Y-95841739D01*
X149242734Y-95745568D01*
X149429139Y-95615047D01*
X149590047Y-95454139D01*
X149705425Y-95289361D01*
X149720118Y-95268377D01*
X149764436Y-95229511D01*
X149821693Y-95215500D01*
X150340501Y-95215500D01*
X150402501Y-95232113D01*
X150447888Y-95277500D01*
X150464501Y-95339500D01*
X150464501Y-95462872D01*
X150470909Y-95522483D01*
X150521204Y-95657331D01*
X150607454Y-95772546D01*
X150722669Y-95858796D01*
X150857517Y-95909091D01*
X150917127Y-95915500D01*
X152612872Y-95915499D01*
X152672483Y-95909091D01*
X152807331Y-95858796D01*
X152922546Y-95772546D01*
X153008796Y-95657331D01*
X153059091Y-95522483D01*
X153065500Y-95462873D01*
X153065499Y-94615000D01*
X153634531Y-94615000D01*
X153654364Y-94841689D01*
X153713261Y-95061497D01*
X153809432Y-95267735D01*
X153939953Y-95454140D01*
X154100859Y-95615046D01*
X154287264Y-95745567D01*
X154287265Y-95745567D01*
X154287266Y-95745568D01*
X154493504Y-95841739D01*
X154713308Y-95900635D01*
X154741236Y-95903078D01*
X154861307Y-95913584D01*
X154918639Y-95933512D01*
X154959645Y-95978262D01*
X154974500Y-96037112D01*
X154974500Y-97193307D01*
X154960489Y-97250564D01*
X154921623Y-97294882D01*
X154735859Y-97424953D01*
X154574953Y-97585859D01*
X154444432Y-97772264D01*
X154348261Y-97978502D01*
X154289364Y-98198310D01*
X154269531Y-98425000D01*
X154289364Y-98651689D01*
X154348261Y-98871497D01*
X154444432Y-99077735D01*
X154574953Y-99264140D01*
X154735859Y-99425046D01*
X154922264Y-99555567D01*
X154922265Y-99555567D01*
X154922266Y-99555568D01*
X155128504Y-99651739D01*
X155348308Y-99710635D01*
X155575000Y-99730468D01*
X155801692Y-99710635D01*
X156021496Y-99651739D01*
X156227734Y-99555568D01*
X156414139Y-99425047D01*
X156575047Y-99264139D01*
X156705568Y-99077734D01*
X156801739Y-98871496D01*
X156860635Y-98651692D01*
X156880468Y-98425000D01*
X156860635Y-98198308D01*
X156801739Y-97978504D01*
X156705568Y-97772266D01*
X156575047Y-97585861D01*
X156575046Y-97585859D01*
X156414140Y-97424953D01*
X156228377Y-97294882D01*
X156189511Y-97250564D01*
X156175500Y-97193307D01*
X156175500Y-95297487D01*
X156176561Y-95281301D01*
X156180682Y-95250000D01*
X156162667Y-95113160D01*
X156165831Y-95064884D01*
X156214043Y-94884953D01*
X156225635Y-94841692D01*
X156245468Y-94615000D01*
X156225635Y-94388308D01*
X156166739Y-94168504D01*
X156070568Y-93962266D01*
X156020317Y-93890500D01*
X155940046Y-93775859D01*
X155779140Y-93614953D01*
X155592735Y-93484432D01*
X155386497Y-93388261D01*
X155166689Y-93329364D01*
X154939999Y-93309531D01*
X154713310Y-93329364D01*
X154493502Y-93388261D01*
X154287264Y-93484432D01*
X154100859Y-93614953D01*
X153939953Y-93775859D01*
X153809432Y-93962264D01*
X153713261Y-94168502D01*
X153654364Y-94388310D01*
X153634531Y-94615000D01*
X153065499Y-94615000D01*
X153065499Y-93767128D01*
X153059091Y-93707517D01*
X153008796Y-93572669D01*
X152922546Y-93457454D01*
X152807331Y-93371204D01*
X152672483Y-93320909D01*
X152612873Y-93314500D01*
X152612869Y-93314500D01*
X150917130Y-93314500D01*
X150857515Y-93320909D01*
X150722669Y-93371204D01*
X150607454Y-93457454D01*
X150521204Y-93572668D01*
X150470909Y-93707516D01*
X150464500Y-93767131D01*
X150464500Y-93890500D01*
X150447887Y-93952500D01*
X150402500Y-93997887D01*
X150340500Y-94014500D01*
X149821693Y-94014500D01*
X149764436Y-94000489D01*
X149720118Y-93961623D01*
X149590046Y-93775859D01*
X149429140Y-93614953D01*
X149242735Y-93484432D01*
X149036497Y-93388261D01*
X148816689Y-93329364D01*
X148589999Y-93309531D01*
X148363310Y-93329364D01*
X148143502Y-93388261D01*
X147937264Y-93484432D01*
X147750859Y-93614953D01*
X147589953Y-93775859D01*
X147459432Y-93962264D01*
X147363261Y-94168502D01*
X147304364Y-94388310D01*
X147284531Y-94615000D01*
X147304364Y-94841691D01*
X147364168Y-95064883D01*
X147367332Y-95113160D01*
X147349317Y-95249998D01*
X147353439Y-95281301D01*
X147354500Y-95297487D01*
X147354500Y-97193307D01*
X147340489Y-97250564D01*
X147301623Y-97294882D01*
X147115859Y-97424953D01*
X146954953Y-97585859D01*
X146824432Y-97772264D01*
X146728261Y-97978502D01*
X146669364Y-98198310D01*
X146649531Y-98425000D01*
X131659235Y-98425000D01*
X129561941Y-96327706D01*
X129529847Y-96272118D01*
X129529847Y-96207933D01*
X129549390Y-96135000D01*
X130166128Y-96135000D01*
X130218733Y-96331326D01*
X130314865Y-96537480D01*
X130445341Y-96723819D01*
X130606180Y-96884658D01*
X130792519Y-97015134D01*
X130998673Y-97111266D01*
X131194999Y-97163871D01*
X131195000Y-97163872D01*
X131195000Y-96135000D01*
X131695000Y-96135000D01*
X131695000Y-97163871D01*
X131891326Y-97111266D01*
X132097480Y-97015134D01*
X132283819Y-96884658D01*
X132444658Y-96723819D01*
X132575134Y-96537480D01*
X132671266Y-96331326D01*
X132723872Y-96135000D01*
X131695000Y-96135000D01*
X131195000Y-96135000D01*
X130166128Y-96135000D01*
X129549390Y-96135000D01*
X129555635Y-96111692D01*
X129575468Y-95885000D01*
X129555635Y-95658308D01*
X129549390Y-95635000D01*
X130166128Y-95635000D01*
X131195000Y-95635000D01*
X131195000Y-94606128D01*
X131695000Y-94606128D01*
X131695000Y-95635000D01*
X132723872Y-95635000D01*
X132723871Y-95634999D01*
X132671266Y-95438673D01*
X132575134Y-95232519D01*
X132444658Y-95046180D01*
X132283819Y-94885341D01*
X132097480Y-94754865D01*
X131891326Y-94658733D01*
X131695000Y-94606128D01*
X131195000Y-94606128D01*
X131194999Y-94606128D01*
X130998673Y-94658733D01*
X130792519Y-94754865D01*
X130606180Y-94885341D01*
X130445341Y-95046180D01*
X130314865Y-95232519D01*
X130218733Y-95438673D01*
X130166128Y-95634999D01*
X130166128Y-95635000D01*
X129549390Y-95635000D01*
X129496739Y-95438504D01*
X129400568Y-95232266D01*
X129388828Y-95215500D01*
X129270046Y-95045859D01*
X129109140Y-94884953D01*
X128922735Y-94754432D01*
X128716497Y-94658261D01*
X128496689Y-94599364D01*
X128270000Y-94579531D01*
X128043310Y-94599364D01*
X127823502Y-94658261D01*
X127617264Y-94754432D01*
X127430859Y-94884953D01*
X127269953Y-95045859D01*
X127139432Y-95232264D01*
X127043261Y-95438502D01*
X126984364Y-95658310D01*
X126964531Y-95885000D01*
X126400468Y-95885000D01*
X126380635Y-95658308D01*
X126321739Y-95438504D01*
X126225568Y-95232266D01*
X126213828Y-95215500D01*
X126095046Y-95045859D01*
X125934140Y-94884953D01*
X125747735Y-94754432D01*
X125541497Y-94658261D01*
X125321689Y-94599364D01*
X125095000Y-94579531D01*
X124868310Y-94599364D01*
X124648502Y-94658261D01*
X124442264Y-94754432D01*
X124255859Y-94884953D01*
X124094953Y-95045859D01*
X123964432Y-95232264D01*
X123868261Y-95438502D01*
X123809364Y-95658310D01*
X123789531Y-95885000D01*
X123809364Y-96111689D01*
X123868261Y-96331497D01*
X123964432Y-96537735D01*
X124094953Y-96724140D01*
X124255859Y-96885046D01*
X124441623Y-97015118D01*
X124480489Y-97059436D01*
X124494500Y-97116693D01*
X124494500Y-100185909D01*
X124475081Y-100252533D01*
X124422907Y-100298290D01*
X124417171Y-100300964D01*
X124223598Y-100436505D01*
X124056508Y-100603595D01*
X123946574Y-100760597D01*
X123902255Y-100799463D01*
X123844998Y-100813473D01*
X123787742Y-100799462D01*
X123743426Y-100760598D01*
X123633495Y-100603599D01*
X123466401Y-100436505D01*
X123272830Y-100300965D01*
X123058663Y-100201097D01*
X122988406Y-100182272D01*
X122830407Y-100139936D01*
X122633693Y-100122726D01*
X122576361Y-100102798D01*
X122535355Y-100058048D01*
X122520500Y-99999198D01*
X122520500Y-97116693D01*
X122534511Y-97059436D01*
X122573377Y-97015118D01*
X122759140Y-96885046D01*
X122920046Y-96724140D01*
X123050567Y-96537735D01*
X123050568Y-96537734D01*
X123146739Y-96331496D01*
X123205635Y-96111692D01*
X123225468Y-95885000D01*
X123205635Y-95658308D01*
X123146739Y-95438504D01*
X123050568Y-95232266D01*
X123038828Y-95215500D01*
X122920046Y-95045859D01*
X122759140Y-94884953D01*
X122572735Y-94754432D01*
X122366497Y-94658261D01*
X122146689Y-94599364D01*
X121920000Y-94579531D01*
X121693310Y-94599364D01*
X121473502Y-94658261D01*
X121267264Y-94754432D01*
X121080859Y-94884953D01*
X120919953Y-95045859D01*
X120789432Y-95232264D01*
X120693261Y-95438502D01*
X120634364Y-95658310D01*
X120614531Y-95885000D01*
X120634364Y-96111689D01*
X120693261Y-96331497D01*
X120789432Y-96537735D01*
X120919953Y-96724140D01*
X121080859Y-96885046D01*
X121266623Y-97015118D01*
X121305489Y-97059436D01*
X121319500Y-97116693D01*
X121319500Y-100490242D01*
X121305985Y-100546537D01*
X121268385Y-100590560D01*
X121214898Y-100612715D01*
X121157182Y-100608173D01*
X121107819Y-100577923D01*
X120966404Y-100436508D01*
X120966403Y-100436507D01*
X120966401Y-100436505D01*
X120772830Y-100300965D01*
X120558663Y-100201097D01*
X120488406Y-100182272D01*
X120330407Y-100139936D01*
X120095000Y-100119340D01*
X119859592Y-100139936D01*
X119632658Y-100200743D01*
X119568471Y-100200743D01*
X119512884Y-100168649D01*
X119381819Y-100037584D01*
X119354939Y-99997356D01*
X119345500Y-99949903D01*
X119345500Y-97116693D01*
X119359511Y-97059436D01*
X119398377Y-97015118D01*
X119584140Y-96885046D01*
X119745046Y-96724140D01*
X119875567Y-96537735D01*
X119875568Y-96537734D01*
X119971739Y-96331496D01*
X120030635Y-96111692D01*
X120050468Y-95885000D01*
X120030635Y-95658308D01*
X119971739Y-95438504D01*
X119875568Y-95232266D01*
X119863828Y-95215500D01*
X119745046Y-95045859D01*
X119584140Y-94884953D01*
X119397735Y-94754432D01*
X119191497Y-94658261D01*
X118971689Y-94599364D01*
X118745000Y-94579531D01*
X118518310Y-94599364D01*
X118298502Y-94658261D01*
X118092264Y-94754432D01*
X117905859Y-94884953D01*
X117744953Y-95045859D01*
X117614432Y-95232264D01*
X117518261Y-95438502D01*
X117459364Y-95658310D01*
X117439531Y-95885000D01*
X117459364Y-96111689D01*
X117518261Y-96331497D01*
X117614432Y-96537735D01*
X117744953Y-96724140D01*
X117905859Y-96885046D01*
X118091623Y-97015118D01*
X118130489Y-97059436D01*
X118144500Y-97116693D01*
X118144500Y-100062497D01*
X118131712Y-100117341D01*
X118095986Y-100160873D01*
X118044691Y-100184114D01*
X117988407Y-100182272D01*
X117830407Y-100139936D01*
X117595000Y-100119340D01*
X117359592Y-100139936D01*
X117132658Y-100200742D01*
X117068471Y-100200742D01*
X117012884Y-100168648D01*
X116206819Y-99362584D01*
X116179939Y-99322356D01*
X116170500Y-99274903D01*
X116170500Y-97116693D01*
X116184511Y-97059436D01*
X116223377Y-97015118D01*
X116409140Y-96885046D01*
X116570046Y-96724140D01*
X116700567Y-96537735D01*
X116700568Y-96537734D01*
X116796739Y-96331496D01*
X116855635Y-96111692D01*
X116875468Y-95885000D01*
X116855635Y-95658308D01*
X116796739Y-95438504D01*
X116700568Y-95232266D01*
X116688828Y-95215500D01*
X116570046Y-95045859D01*
X116409140Y-94884953D01*
X116222735Y-94754432D01*
X116016497Y-94658261D01*
X115796689Y-94599364D01*
X115570000Y-94579531D01*
X115343310Y-94599364D01*
X115123502Y-94658261D01*
X114917264Y-94754432D01*
X114730859Y-94884953D01*
X114569953Y-95045859D01*
X114439432Y-95232264D01*
X114343261Y-95438502D01*
X114284364Y-95658310D01*
X114264531Y-95885000D01*
X114284364Y-96111689D01*
X114343261Y-96331497D01*
X114439432Y-96537735D01*
X114569953Y-96724140D01*
X114730859Y-96885046D01*
X114916623Y-97015118D01*
X114955489Y-97059436D01*
X114969500Y-97116693D01*
X114969500Y-99527513D01*
X114968439Y-99543699D01*
X114964317Y-99575000D01*
X114969500Y-99614360D01*
X114969500Y-99614361D01*
X114984956Y-99731762D01*
X115045462Y-99877838D01*
X115045463Y-99877840D01*
X115045464Y-99877841D01*
X115081661Y-99925015D01*
X115106688Y-99988346D01*
X115094497Y-100055344D01*
X115048765Y-100105801D01*
X114983285Y-100124500D01*
X114520097Y-100124500D01*
X114472644Y-100115061D01*
X114432416Y-100088181D01*
X113031819Y-98687584D01*
X113004939Y-98647356D01*
X112995500Y-98599903D01*
X112995500Y-97116693D01*
X113009511Y-97059436D01*
X113048377Y-97015118D01*
X113234140Y-96885046D01*
X113395046Y-96724140D01*
X113525567Y-96537735D01*
X113525568Y-96537734D01*
X113621739Y-96331496D01*
X113680635Y-96111692D01*
X113700468Y-95885000D01*
X113680635Y-95658308D01*
X113621739Y-95438504D01*
X113525568Y-95232266D01*
X113513828Y-95215500D01*
X113395046Y-95045859D01*
X113234140Y-94884953D01*
X113047735Y-94754432D01*
X112841497Y-94658261D01*
X112621689Y-94599364D01*
X112395000Y-94579531D01*
X112168310Y-94599364D01*
X111948502Y-94658261D01*
X111742264Y-94754432D01*
X111555859Y-94884953D01*
X111394953Y-95045859D01*
X111264432Y-95232264D01*
X111168261Y-95438502D01*
X111109364Y-95658310D01*
X111089531Y-95885000D01*
X108620468Y-95885000D01*
X108600635Y-95658308D01*
X108541739Y-95438504D01*
X108445568Y-95232266D01*
X108433828Y-95215500D01*
X108315046Y-95045859D01*
X108154140Y-94884953D01*
X107967735Y-94754432D01*
X107761497Y-94658261D01*
X107541689Y-94599364D01*
X107315000Y-94579531D01*
X107088310Y-94599364D01*
X106868502Y-94658261D01*
X106662264Y-94754432D01*
X106475859Y-94884953D01*
X106314953Y-95045859D01*
X106184432Y-95232264D01*
X106088261Y-95438502D01*
X106029364Y-95658310D01*
X106009531Y-95885000D01*
X106029364Y-96111689D01*
X106088261Y-96331497D01*
X106184432Y-96537735D01*
X106314953Y-96724140D01*
X106475859Y-96885046D01*
X106661623Y-97015118D01*
X106700489Y-97059436D01*
X106714500Y-97116693D01*
X106714500Y-100009697D01*
X106699645Y-100068548D01*
X106658639Y-100113298D01*
X106601307Y-100133225D01*
X106524593Y-100139936D01*
X106296336Y-100201097D01*
X106082170Y-100300965D01*
X105888598Y-100436505D01*
X105721508Y-100603595D01*
X105611574Y-100760597D01*
X105567255Y-100799463D01*
X105509998Y-100813473D01*
X105452742Y-100799462D01*
X105408426Y-100760598D01*
X105298495Y-100603599D01*
X105131401Y-100436505D01*
X104937830Y-100300965D01*
X104812093Y-100242332D01*
X104759919Y-100196577D01*
X104740500Y-100129952D01*
X104740500Y-97116693D01*
X104754511Y-97059436D01*
X104793377Y-97015118D01*
X104979140Y-96885046D01*
X105140046Y-96724140D01*
X105270567Y-96537735D01*
X105270568Y-96537734D01*
X105366739Y-96331496D01*
X105425635Y-96111692D01*
X105445468Y-95885000D01*
X105425635Y-95658308D01*
X105366739Y-95438504D01*
X105270568Y-95232266D01*
X105258828Y-95215500D01*
X105140046Y-95045859D01*
X104979140Y-94884953D01*
X104792735Y-94754432D01*
X104586497Y-94658261D01*
X104366689Y-94599364D01*
X104140000Y-94579531D01*
X103913310Y-94599364D01*
X103693502Y-94658261D01*
X103487264Y-94754432D01*
X103300859Y-94884953D01*
X103139953Y-95045859D01*
X103009432Y-95232264D01*
X102913261Y-95438502D01*
X102854364Y-95658310D01*
X102834531Y-95885000D01*
X102854364Y-96111689D01*
X102913261Y-96331497D01*
X103009432Y-96537735D01*
X103139953Y-96724140D01*
X103300859Y-96885046D01*
X103486623Y-97015118D01*
X103525489Y-97059436D01*
X103539500Y-97116693D01*
X103539500Y-100266293D01*
X103525489Y-100323550D01*
X103486625Y-100367865D01*
X103423756Y-100411888D01*
X103388599Y-100436505D01*
X103241398Y-100583706D01*
X103194428Y-100613151D01*
X103139321Y-100619185D01*
X103087091Y-100600604D01*
X103048178Y-100561120D01*
X102952711Y-100406342D01*
X102828657Y-100282288D01*
X102679334Y-100190186D01*
X102512797Y-100135000D01*
X102410009Y-100124500D01*
X101689499Y-100124500D01*
X101627500Y-100107888D01*
X101582113Y-100062501D01*
X101565500Y-100000501D01*
X101565500Y-97116693D01*
X101579511Y-97059436D01*
X101618377Y-97015118D01*
X101804140Y-96885046D01*
X101965046Y-96724140D01*
X102095567Y-96537735D01*
X102095568Y-96537734D01*
X102191739Y-96331496D01*
X102250635Y-96111692D01*
X102270468Y-95885000D01*
X102250635Y-95658308D01*
X102191739Y-95438504D01*
X102095568Y-95232266D01*
X102083828Y-95215500D01*
X101965046Y-95045859D01*
X101804140Y-94884953D01*
X101617735Y-94754432D01*
X101411497Y-94658261D01*
X101191689Y-94599364D01*
X100965000Y-94579531D01*
X100738310Y-94599364D01*
X100518502Y-94658261D01*
X100312264Y-94754432D01*
X100125859Y-94884953D01*
X99964953Y-95045859D01*
X99834432Y-95232264D01*
X99738261Y-95438502D01*
X99679364Y-95658310D01*
X99659531Y-95885000D01*
X97655500Y-95885000D01*
X97655500Y-93345000D01*
X134584531Y-93345000D01*
X134604364Y-93571689D01*
X134663261Y-93791497D01*
X134759432Y-93997735D01*
X134889953Y-94184140D01*
X135050859Y-94345046D01*
X135237264Y-94475567D01*
X135237265Y-94475567D01*
X135237266Y-94475568D01*
X135443504Y-94571739D01*
X135663308Y-94630635D01*
X135890000Y-94650468D01*
X136116692Y-94630635D01*
X136336496Y-94571739D01*
X136542734Y-94475568D01*
X136729139Y-94345047D01*
X136890047Y-94184139D01*
X137020568Y-93997734D01*
X137116739Y-93791496D01*
X137169390Y-93595000D01*
X142231128Y-93595000D01*
X142283733Y-93791326D01*
X142379865Y-93997480D01*
X142510341Y-94183819D01*
X142671180Y-94344658D01*
X142857519Y-94475134D01*
X143063673Y-94571266D01*
X143259999Y-94623871D01*
X143260000Y-94623872D01*
X143260000Y-93595000D01*
X143760000Y-93595000D01*
X143760000Y-94623871D01*
X143956326Y-94571266D01*
X144162480Y-94475134D01*
X144348819Y-94344658D01*
X144509658Y-94183819D01*
X144640134Y-93997480D01*
X144736266Y-93791326D01*
X144788872Y-93595000D01*
X143760000Y-93595000D01*
X143260000Y-93595000D01*
X142231128Y-93595000D01*
X137169390Y-93595000D01*
X137175635Y-93571692D01*
X137195468Y-93345000D01*
X137175635Y-93118308D01*
X137169390Y-93095000D01*
X142231128Y-93095000D01*
X143260000Y-93095000D01*
X143260000Y-92066128D01*
X143760000Y-92066128D01*
X143760000Y-93095000D01*
X144788872Y-93095000D01*
X144788871Y-93094999D01*
X144736266Y-92898673D01*
X144640134Y-92692519D01*
X144509658Y-92506180D01*
X144348819Y-92345341D01*
X144162480Y-92214865D01*
X143956326Y-92118733D01*
X143760000Y-92066128D01*
X143260000Y-92066128D01*
X143259999Y-92066128D01*
X143063673Y-92118733D01*
X142857519Y-92214865D01*
X142671180Y-92345341D01*
X142510341Y-92506180D01*
X142379865Y-92692519D01*
X142283733Y-92898673D01*
X142231128Y-93094999D01*
X142231128Y-93095000D01*
X137169390Y-93095000D01*
X137116739Y-92898504D01*
X137020568Y-92692266D01*
X136890270Y-92506180D01*
X136890046Y-92505859D01*
X136729140Y-92344953D01*
X136543377Y-92214882D01*
X136504511Y-92170564D01*
X136490500Y-92113307D01*
X136490500Y-91401693D01*
X136504511Y-91344436D01*
X136543377Y-91300118D01*
X136729140Y-91170046D01*
X136890046Y-91009140D01*
X137020117Y-90823377D01*
X137020568Y-90822734D01*
X137116739Y-90616496D01*
X137175635Y-90396692D01*
X137195468Y-90170000D01*
X142204531Y-90170000D01*
X142224364Y-90396689D01*
X142283261Y-90616497D01*
X142379432Y-90822735D01*
X142509953Y-91009140D01*
X142670859Y-91170046D01*
X142857264Y-91300567D01*
X142857265Y-91300567D01*
X142857266Y-91300568D01*
X143063504Y-91396739D01*
X143283308Y-91455635D01*
X143434435Y-91468856D01*
X143509999Y-91475468D01*
X143509999Y-91475467D01*
X143510000Y-91475468D01*
X143736692Y-91455635D01*
X143956496Y-91396739D01*
X144162734Y-91300568D01*
X144349139Y-91170047D01*
X144510047Y-91009139D01*
X144640117Y-90823377D01*
X144684436Y-90784511D01*
X144741693Y-90770500D01*
X145367513Y-90770500D01*
X145383697Y-90771560D01*
X145415000Y-90775682D01*
X145571762Y-90755044D01*
X145717841Y-90694536D01*
X145717841Y-90694535D01*
X145717841Y-90694534D01*
X145725305Y-90691443D01*
X145734082Y-90682072D01*
X145843282Y-90598282D01*
X145862509Y-90573223D01*
X145873190Y-90561043D01*
X148147294Y-88286939D01*
X148202880Y-88254847D01*
X148267067Y-88254847D01*
X148363308Y-88280635D01*
X148590000Y-88300468D01*
X148816692Y-88280635D01*
X149036496Y-88221739D01*
X149242734Y-88125568D01*
X149429139Y-87995047D01*
X149590047Y-87834139D01*
X149720568Y-87647734D01*
X149816739Y-87441496D01*
X149869390Y-87245000D01*
X150486128Y-87245000D01*
X150538733Y-87441326D01*
X150634865Y-87647480D01*
X150765341Y-87833819D01*
X150926180Y-87994658D01*
X151112519Y-88125134D01*
X151318673Y-88221266D01*
X151514999Y-88273871D01*
X151515000Y-88273872D01*
X151515000Y-87245000D01*
X152015000Y-87245000D01*
X152015000Y-88273871D01*
X152211326Y-88221266D01*
X152417480Y-88125134D01*
X152603819Y-87994658D01*
X152764658Y-87833819D01*
X152895134Y-87647480D01*
X152991266Y-87441326D01*
X153043872Y-87245000D01*
X153661128Y-87245000D01*
X153713733Y-87441326D01*
X153809865Y-87647480D01*
X153940341Y-87833819D01*
X154101180Y-87994658D01*
X154287519Y-88125134D01*
X154493673Y-88221266D01*
X154689999Y-88273871D01*
X154690000Y-88273872D01*
X154690000Y-87245000D01*
X155190000Y-87245000D01*
X155190000Y-88273871D01*
X155386326Y-88221266D01*
X155592480Y-88125134D01*
X155778819Y-87994658D01*
X155939658Y-87833819D01*
X156070134Y-87647480D01*
X156166266Y-87441326D01*
X156218872Y-87245000D01*
X155190000Y-87245000D01*
X154690000Y-87245000D01*
X153661128Y-87245000D01*
X153043872Y-87245000D01*
X152015000Y-87245000D01*
X151515000Y-87245000D01*
X150486128Y-87245000D01*
X149869390Y-87245000D01*
X149875635Y-87221692D01*
X149895468Y-86995000D01*
X149875635Y-86768308D01*
X149869390Y-86745000D01*
X150486128Y-86745000D01*
X151515000Y-86745000D01*
X151515000Y-85716128D01*
X152015000Y-85716128D01*
X152015000Y-86745000D01*
X153043872Y-86745000D01*
X153661128Y-86745000D01*
X154690000Y-86745000D01*
X154690000Y-85716128D01*
X155190000Y-85716128D01*
X155190000Y-86745000D01*
X156218872Y-86745000D01*
X156218871Y-86744999D01*
X156166266Y-86548673D01*
X156070134Y-86342519D01*
X155939658Y-86156180D01*
X155778819Y-85995341D01*
X155592480Y-85864865D01*
X155386326Y-85768733D01*
X155190000Y-85716128D01*
X154690000Y-85716128D01*
X154689999Y-85716128D01*
X154493673Y-85768733D01*
X154287519Y-85864865D01*
X154101180Y-85995341D01*
X153940341Y-86156180D01*
X153809865Y-86342519D01*
X153713733Y-86548673D01*
X153661128Y-86744999D01*
X153661128Y-86745000D01*
X153043872Y-86745000D01*
X153043871Y-86744999D01*
X152991266Y-86548673D01*
X152895134Y-86342519D01*
X152764658Y-86156180D01*
X152603819Y-85995341D01*
X152417480Y-85864865D01*
X152211326Y-85768733D01*
X152015000Y-85716128D01*
X151515000Y-85716128D01*
X151514999Y-85716128D01*
X151318673Y-85768733D01*
X151112519Y-85864865D01*
X150926180Y-85995341D01*
X150765341Y-86156180D01*
X150634865Y-86342519D01*
X150538733Y-86548673D01*
X150486128Y-86744999D01*
X150486128Y-86745000D01*
X149869390Y-86745000D01*
X149816739Y-86548504D01*
X149720568Y-86342266D01*
X149590270Y-86156180D01*
X149590046Y-86155859D01*
X149429140Y-85994953D01*
X149242735Y-85864432D01*
X149036497Y-85768261D01*
X148816689Y-85709364D01*
X148589999Y-85689531D01*
X148363310Y-85709364D01*
X148143502Y-85768261D01*
X147937264Y-85864432D01*
X147750859Y-85994953D01*
X147589953Y-86155859D01*
X147459432Y-86342264D01*
X147363261Y-86548502D01*
X147304364Y-86768310D01*
X147284531Y-86994999D01*
X147304364Y-87221688D01*
X147330152Y-87317930D01*
X147330152Y-87382118D01*
X147298058Y-87437705D01*
X145202584Y-89533181D01*
X145162356Y-89560061D01*
X145114903Y-89569500D01*
X144741693Y-89569500D01*
X144684436Y-89555489D01*
X144640118Y-89516623D01*
X144510046Y-89330859D01*
X144349140Y-89169953D01*
X144162735Y-89039432D01*
X143956497Y-88943261D01*
X143736689Y-88884364D01*
X143510000Y-88864531D01*
X143283310Y-88884364D01*
X143063502Y-88943261D01*
X142857264Y-89039432D01*
X142670859Y-89169953D01*
X142509953Y-89330859D01*
X142379432Y-89517264D01*
X142283261Y-89723502D01*
X142224364Y-89943310D01*
X142204531Y-90170000D01*
X137195468Y-90170000D01*
X137175635Y-89943308D01*
X137116739Y-89723504D01*
X137020568Y-89517266D01*
X137002693Y-89491738D01*
X136890046Y-89330859D01*
X136729140Y-89169953D01*
X136543377Y-89039882D01*
X136504511Y-88995564D01*
X136490500Y-88938307D01*
X136490500Y-88226693D01*
X136504511Y-88169436D01*
X136543377Y-88125118D01*
X136729140Y-87995046D01*
X136890046Y-87834140D01*
X136898341Y-87822293D01*
X137020568Y-87647734D01*
X137116739Y-87441496D01*
X137175635Y-87221692D01*
X137195468Y-86995000D01*
X137175635Y-86768308D01*
X137116739Y-86548504D01*
X137020568Y-86342266D01*
X136890270Y-86156180D01*
X136890046Y-86155859D01*
X136729140Y-85994953D01*
X136542735Y-85864432D01*
X136336497Y-85768261D01*
X136116689Y-85709364D01*
X135889999Y-85689531D01*
X135663310Y-85709364D01*
X135443502Y-85768261D01*
X135237264Y-85864432D01*
X135050859Y-85994953D01*
X134889953Y-86155859D01*
X134759432Y-86342264D01*
X134663261Y-86548502D01*
X134604364Y-86768310D01*
X134584531Y-86995000D01*
X134604364Y-87221689D01*
X134663261Y-87441497D01*
X134759432Y-87647735D01*
X134889953Y-87834140D01*
X135050859Y-87995046D01*
X135236623Y-88125118D01*
X135275489Y-88169436D01*
X135289500Y-88226693D01*
X135289500Y-88938307D01*
X135275489Y-88995564D01*
X135236623Y-89039882D01*
X135050859Y-89169953D01*
X134889953Y-89330859D01*
X134759432Y-89517264D01*
X134663261Y-89723502D01*
X134604364Y-89943310D01*
X134584531Y-90170000D01*
X134604364Y-90396689D01*
X134663261Y-90616497D01*
X134759432Y-90822735D01*
X134889953Y-91009140D01*
X135050859Y-91170046D01*
X135236623Y-91300118D01*
X135275489Y-91344436D01*
X135289500Y-91401693D01*
X135289500Y-92113307D01*
X135275489Y-92170564D01*
X135236623Y-92214882D01*
X135050859Y-92344953D01*
X134889953Y-92505859D01*
X134759432Y-92692264D01*
X134663261Y-92898502D01*
X134604364Y-93118310D01*
X134584531Y-93345000D01*
X97655500Y-93345000D01*
X97655500Y-86104097D01*
X97669015Y-86047802D01*
X97706615Y-86003779D01*
X97760102Y-85981624D01*
X97817818Y-85986166D01*
X97867181Y-86016416D01*
X99673058Y-87822293D01*
X99705152Y-87877880D01*
X99705152Y-87942067D01*
X99679364Y-88038309D01*
X99659531Y-88265000D01*
X99679364Y-88491689D01*
X99738261Y-88711497D01*
X99834432Y-88917735D01*
X99964953Y-89104140D01*
X100125859Y-89265046D01*
X100312264Y-89395567D01*
X100312265Y-89395567D01*
X100312266Y-89395568D01*
X100518504Y-89491739D01*
X100738308Y-89550635D01*
X100965000Y-89570468D01*
X101191692Y-89550635D01*
X101411496Y-89491739D01*
X101617734Y-89395568D01*
X101804139Y-89265047D01*
X101965047Y-89104139D01*
X102095568Y-88917734D01*
X102191739Y-88711496D01*
X102250635Y-88491692D01*
X102270468Y-88265000D01*
X102250635Y-88038308D01*
X102191739Y-87818504D01*
X102095568Y-87612266D01*
X101975995Y-87441497D01*
X101965046Y-87425859D01*
X101804140Y-87264953D01*
X101617735Y-87134432D01*
X101411497Y-87038261D01*
X101191689Y-86979364D01*
X100965000Y-86959531D01*
X100738309Y-86979364D01*
X100642067Y-87005152D01*
X100577880Y-87005152D01*
X100522293Y-86973058D01*
X98596819Y-85047584D01*
X98569939Y-85007356D01*
X98560500Y-84959903D01*
X98560500Y-77574137D01*
X98573288Y-77519293D01*
X98609013Y-77475761D01*
X98660309Y-77452520D01*
X98716593Y-77454362D01*
X98833308Y-77485635D01*
X99059999Y-77505468D01*
X99059999Y-77505467D01*
X99060000Y-77505468D01*
X99286692Y-77485635D01*
X99506496Y-77426739D01*
X99712734Y-77330568D01*
X99899139Y-77200047D01*
X100060047Y-77039139D01*
X100190568Y-76852734D01*
X100286739Y-76646496D01*
X100345635Y-76426692D01*
X100365468Y-76200000D01*
X100345635Y-75973308D01*
X100286739Y-75753504D01*
X100190568Y-75547266D01*
X100167368Y-75514133D01*
X100060046Y-75360859D01*
X99899140Y-75199953D01*
X99712732Y-75069430D01*
X99654724Y-75042380D01*
X99602549Y-74996623D01*
X99583130Y-74929997D01*
X99602550Y-74863373D01*
X99654721Y-74817619D01*
X99712734Y-74790568D01*
X99899139Y-74660047D01*
X100060047Y-74499139D01*
X100190568Y-74312734D01*
X100286739Y-74106496D01*
X100345635Y-73886692D01*
X100365468Y-73660000D01*
X100345635Y-73433308D01*
X100286739Y-73213504D01*
X100190568Y-73007266D01*
X100060047Y-72820861D01*
X100060046Y-72820859D01*
X99899140Y-72659953D01*
X99712733Y-72529431D01*
X99654725Y-72502382D01*
X99602549Y-72456625D01*
X99583129Y-72390000D01*
X99602549Y-72323375D01*
X99654725Y-72277618D01*
X99712734Y-72250568D01*
X99899139Y-72120047D01*
X100060047Y-71959139D01*
X100190568Y-71772734D01*
X100286739Y-71566496D01*
X100345635Y-71346692D01*
X100365468Y-71120000D01*
X100345635Y-70893308D01*
X100286739Y-70673504D01*
X100190568Y-70467266D01*
X100060047Y-70280861D01*
X100060046Y-70280859D01*
X99899140Y-70119953D01*
X99712733Y-69989431D01*
X99654725Y-69962382D01*
X99602549Y-69916625D01*
X99583129Y-69850000D01*
X99602549Y-69783375D01*
X99654725Y-69737618D01*
X99712734Y-69710568D01*
X99899139Y-69580047D01*
X100060047Y-69419139D01*
X100190568Y-69232734D01*
X100286739Y-69026496D01*
X100345635Y-68806692D01*
X100365468Y-68580000D01*
X100345635Y-68353308D01*
X100286739Y-68133504D01*
X100190568Y-67927266D01*
X100117651Y-67823129D01*
X100060046Y-67740859D01*
X99899140Y-67579953D01*
X99712733Y-67449431D01*
X99654725Y-67422382D01*
X99602549Y-67376625D01*
X99583129Y-67310000D01*
X99602549Y-67243375D01*
X99654725Y-67197618D01*
X99712734Y-67170568D01*
X99899139Y-67040047D01*
X100060047Y-66879139D01*
X100190568Y-66692734D01*
X100286739Y-66486496D01*
X100345635Y-66266692D01*
X100365468Y-66040000D01*
X100345635Y-65813308D01*
X100286739Y-65593504D01*
X100190568Y-65387266D01*
X100060047Y-65200861D01*
X100060046Y-65200859D01*
X99899140Y-65039953D01*
X99712733Y-64909431D01*
X99654725Y-64882382D01*
X99602549Y-64836625D01*
X99583129Y-64770000D01*
X99602549Y-64703375D01*
X99654725Y-64657618D01*
X99712734Y-64630568D01*
X99899139Y-64500047D01*
X100060047Y-64339139D01*
X100190568Y-64152734D01*
X100286739Y-63946496D01*
X100345635Y-63726692D01*
X100365468Y-63500000D01*
X100345635Y-63273308D01*
X100286739Y-63053504D01*
X100190568Y-62847266D01*
X100060047Y-62660861D01*
X100060046Y-62660859D01*
X99899140Y-62499953D01*
X99712733Y-62369431D01*
X99654725Y-62342382D01*
X99602549Y-62296625D01*
X99583129Y-62230000D01*
X99602549Y-62163375D01*
X99654725Y-62117618D01*
X99712734Y-62090568D01*
X99899139Y-61960047D01*
X100060047Y-61799139D01*
X100190568Y-61612734D01*
X100286739Y-61406496D01*
X100345635Y-61186692D01*
X100365468Y-60960000D01*
X100345635Y-60733308D01*
X100286739Y-60513504D01*
X100190568Y-60307266D01*
X100087438Y-60159980D01*
X100060046Y-60120859D01*
X99899140Y-59959953D01*
X99712733Y-59829431D01*
X99654725Y-59802382D01*
X99602549Y-59756625D01*
X99583129Y-59690000D01*
X99602549Y-59623375D01*
X99654725Y-59577618D01*
X99712734Y-59550568D01*
X99899139Y-59420047D01*
X100060047Y-59259139D01*
X100190568Y-59072734D01*
X100286739Y-58866496D01*
X100345635Y-58646692D01*
X100365468Y-58420000D01*
X100363468Y-58397145D01*
X100348843Y-58229979D01*
X100345635Y-58193308D01*
X100286739Y-57973504D01*
X100190568Y-57767266D01*
X100171210Y-57739620D01*
X100060046Y-57580859D01*
X99899140Y-57419953D01*
X99712733Y-57289431D01*
X99654725Y-57262382D01*
X99602549Y-57216625D01*
X99583129Y-57150000D01*
X99602549Y-57083375D01*
X99654725Y-57037618D01*
X99712734Y-57010568D01*
X99899139Y-56880047D01*
X100060047Y-56719139D01*
X100190568Y-56532734D01*
X100286739Y-56326496D01*
X100345635Y-56106692D01*
X100365468Y-55880000D01*
X100345635Y-55653308D01*
X100286739Y-55433504D01*
X100190568Y-55227266D01*
X100060047Y-55040861D01*
X100060046Y-55040859D01*
X99899140Y-54879953D01*
X99712733Y-54749431D01*
X99654725Y-54722382D01*
X99602549Y-54676625D01*
X99583129Y-54610000D01*
X99602549Y-54543375D01*
X99654725Y-54497618D01*
X99712734Y-54470568D01*
X99899139Y-54340047D01*
X100060047Y-54179139D01*
X100190568Y-53992734D01*
X100286739Y-53786496D01*
X100345635Y-53566692D01*
X100365468Y-53340000D01*
X100358219Y-53257153D01*
X100367605Y-53197895D01*
X100403712Y-53149979D01*
X100458088Y-53124623D01*
X100518002Y-53127763D01*
X100569429Y-53158664D01*
X103503181Y-56092416D01*
X103530061Y-56132644D01*
X103539500Y-56180097D01*
X103539500Y-81773708D01*
X103521346Y-81838305D01*
X103472198Y-81883986D01*
X103406449Y-81897377D01*
X103343350Y-81874556D01*
X103301377Y-81822205D01*
X103250130Y-81701610D01*
X103125854Y-81497977D01*
X103109017Y-81470388D01*
X102935746Y-81262181D01*
X102830758Y-81168112D01*
X102734002Y-81081418D01*
X102508090Y-80931956D01*
X102508086Y-80931954D01*
X102262822Y-80816978D01*
X102003437Y-80738941D01*
X102003431Y-80738940D01*
X101735439Y-80699500D01*
X101532369Y-80699500D01*
X101532366Y-80699500D01*
X101329843Y-80714322D01*
X101065449Y-80773219D01*
X100812441Y-80869986D01*
X100576223Y-81002559D01*
X100361825Y-81168109D01*
X100173813Y-81363120D01*
X100016201Y-81583420D01*
X99892342Y-81824329D01*
X99804881Y-82080695D01*
X99755680Y-82347066D01*
X99745787Y-82617764D01*
X99775413Y-82887016D01*
X99775414Y-82887018D01*
X99843928Y-83149088D01*
X99897038Y-83274065D01*
X99949871Y-83398392D01*
X100090982Y-83629611D01*
X100180253Y-83736881D01*
X100264255Y-83837820D01*
X100465998Y-84018582D01*
X100691910Y-84168044D01*
X100783616Y-84211034D01*
X100937177Y-84283021D01*
X101196562Y-84361058D01*
X101196569Y-84361060D01*
X101464561Y-84400500D01*
X101667631Y-84400500D01*
X101667634Y-84400500D01*
X101870156Y-84385677D01*
X101870155Y-84385677D01*
X102134553Y-84326780D01*
X102387558Y-84230014D01*
X102623777Y-84097441D01*
X102838177Y-83931888D01*
X103026186Y-83736881D01*
X103183799Y-83516579D01*
X103305222Y-83280408D01*
X103349364Y-83232218D01*
X103411877Y-83213161D01*
X103475396Y-83228533D01*
X103522278Y-83274065D01*
X103539500Y-83337108D01*
X103539500Y-87033307D01*
X103525489Y-87090564D01*
X103486623Y-87134882D01*
X103300859Y-87264953D01*
X103139953Y-87425859D01*
X103009432Y-87612264D01*
X102913261Y-87818502D01*
X102854364Y-88038310D01*
X102834531Y-88265000D01*
X102854364Y-88491689D01*
X102913261Y-88711497D01*
X103009432Y-88917735D01*
X103139953Y-89104140D01*
X103300859Y-89265046D01*
X103487264Y-89395567D01*
X103487265Y-89395567D01*
X103487266Y-89395568D01*
X103693504Y-89491739D01*
X103913308Y-89550635D01*
X104140000Y-89570468D01*
X104366692Y-89550635D01*
X104586496Y-89491739D01*
X104792734Y-89395568D01*
X104979139Y-89265047D01*
X105140047Y-89104139D01*
X105270568Y-88917734D01*
X105366739Y-88711496D01*
X105425635Y-88491692D01*
X105445468Y-88265000D01*
X105425635Y-88038308D01*
X105366739Y-87818504D01*
X105270568Y-87612266D01*
X105150995Y-87441497D01*
X105140046Y-87425859D01*
X104979140Y-87264953D01*
X104793377Y-87134882D01*
X104754511Y-87090564D01*
X104740500Y-87033307D01*
X104740500Y-55927487D01*
X104741561Y-55911301D01*
X104745682Y-55879999D01*
X104730819Y-55767105D01*
X104725044Y-55723238D01*
X104664536Y-55577159D01*
X104637819Y-55542341D01*
X104592454Y-55483219D01*
X104592452Y-55483217D01*
X104592450Y-55483215D01*
X104568282Y-55451718D01*
X104544545Y-55433504D01*
X104543229Y-55432494D01*
X104531035Y-55421800D01*
X100351941Y-51242706D01*
X100319847Y-51187118D01*
X100319847Y-51122933D01*
X100345635Y-51026692D01*
X100365468Y-50800000D01*
X100358219Y-50717153D01*
X100367605Y-50657895D01*
X100403712Y-50609979D01*
X100458088Y-50584623D01*
X100518002Y-50587763D01*
X100569429Y-50618664D01*
X106678181Y-56727416D01*
X106705061Y-56767644D01*
X106714500Y-56815097D01*
X106714500Y-87033307D01*
X106700489Y-87090564D01*
X106661623Y-87134882D01*
X106475859Y-87264953D01*
X106314953Y-87425859D01*
X106184432Y-87612264D01*
X106088261Y-87818502D01*
X106029364Y-88038310D01*
X106009531Y-88265000D01*
X106029364Y-88491689D01*
X106088261Y-88711497D01*
X106184432Y-88917735D01*
X106314953Y-89104140D01*
X106475859Y-89265046D01*
X106662264Y-89395567D01*
X106662265Y-89395567D01*
X106662266Y-89395568D01*
X106868504Y-89491739D01*
X107088308Y-89550635D01*
X107315000Y-89570468D01*
X107541692Y-89550635D01*
X107761496Y-89491739D01*
X107967734Y-89395568D01*
X108154139Y-89265047D01*
X108315047Y-89104139D01*
X108445568Y-88917734D01*
X108541739Y-88711496D01*
X108600635Y-88491692D01*
X108620468Y-88265000D01*
X111089531Y-88265000D01*
X111109364Y-88491689D01*
X111168261Y-88711497D01*
X111264432Y-88917735D01*
X111394953Y-89104140D01*
X111555859Y-89265046D01*
X111742264Y-89395567D01*
X111742265Y-89395567D01*
X111742266Y-89395568D01*
X111948504Y-89491739D01*
X112168308Y-89550635D01*
X112395000Y-89570468D01*
X112621692Y-89550635D01*
X112841496Y-89491739D01*
X113047734Y-89395568D01*
X113234139Y-89265047D01*
X113395047Y-89104139D01*
X113525568Y-88917734D01*
X113621739Y-88711496D01*
X113680635Y-88491692D01*
X113700468Y-88265000D01*
X113680635Y-88038308D01*
X113621739Y-87818504D01*
X113525568Y-87612266D01*
X113405995Y-87441497D01*
X113395046Y-87425859D01*
X113234140Y-87264953D01*
X113048377Y-87134882D01*
X113009511Y-87090564D01*
X112995500Y-87033307D01*
X112995500Y-78405097D01*
X113004939Y-78357644D01*
X113031819Y-78317416D01*
X114234138Y-77115097D01*
X117870572Y-73478661D01*
X117921997Y-73447762D01*
X117981911Y-73444622D01*
X118036286Y-73469977D01*
X118072393Y-73517893D01*
X118081779Y-73577150D01*
X118074531Y-73659998D01*
X118094364Y-73886689D01*
X118153261Y-74106497D01*
X118249432Y-74312735D01*
X118379953Y-74499140D01*
X118540859Y-74660046D01*
X118727262Y-74790565D01*
X118727266Y-74790568D01*
X118785273Y-74817617D01*
X118837449Y-74863373D01*
X118856869Y-74929997D01*
X118837451Y-74996622D01*
X118785276Y-75042380D01*
X118727266Y-75069431D01*
X118540859Y-75199953D01*
X118379953Y-75360859D01*
X118249432Y-75547264D01*
X118153261Y-75753502D01*
X118094364Y-75973310D01*
X118074531Y-76200000D01*
X118094364Y-76426689D01*
X118153261Y-76646497D01*
X118249432Y-76852735D01*
X118379953Y-77039140D01*
X118540859Y-77200046D01*
X118727264Y-77330567D01*
X118727265Y-77330567D01*
X118727266Y-77330568D01*
X118933504Y-77426739D01*
X119153308Y-77485635D01*
X119304436Y-77498857D01*
X119379999Y-77505468D01*
X119379999Y-77505467D01*
X119380000Y-77505468D01*
X119606692Y-77485635D01*
X119645961Y-77475112D01*
X119723407Y-77454362D01*
X119779691Y-77452520D01*
X119830987Y-77475761D01*
X119866712Y-77519293D01*
X119879500Y-77574137D01*
X119879500Y-83054903D01*
X119870061Y-83102356D01*
X119843181Y-83142584D01*
X116012705Y-86973058D01*
X115957118Y-87005152D01*
X115892931Y-87005152D01*
X115796692Y-86979365D01*
X115796691Y-86979364D01*
X115796688Y-86979364D01*
X115569999Y-86959531D01*
X115343310Y-86979364D01*
X115123502Y-87038261D01*
X114917264Y-87134432D01*
X114730859Y-87264953D01*
X114569953Y-87425859D01*
X114439432Y-87612264D01*
X114343261Y-87818502D01*
X114284364Y-88038310D01*
X114264531Y-88265000D01*
X114284364Y-88491689D01*
X114343261Y-88711497D01*
X114439432Y-88917735D01*
X114569953Y-89104140D01*
X114730859Y-89265046D01*
X114917264Y-89395567D01*
X114917265Y-89395567D01*
X114917266Y-89395568D01*
X115123504Y-89491739D01*
X115343308Y-89550635D01*
X115570000Y-89570468D01*
X115796692Y-89550635D01*
X116016496Y-89491739D01*
X116222734Y-89395568D01*
X116409139Y-89265047D01*
X116570047Y-89104139D01*
X116700568Y-88917734D01*
X116796739Y-88711496D01*
X116855635Y-88491692D01*
X116875468Y-88265000D01*
X116855635Y-88038308D01*
X116829847Y-87942067D01*
X116829847Y-87877880D01*
X116861939Y-87822294D01*
X120067319Y-84616915D01*
X120116683Y-84586665D01*
X120174399Y-84582123D01*
X120227886Y-84604278D01*
X120265486Y-84648301D01*
X120279001Y-84704596D01*
X120279001Y-85830402D01*
X120269562Y-85877855D01*
X120242682Y-85918083D01*
X119187705Y-86973058D01*
X119132118Y-87005152D01*
X119067931Y-87005152D01*
X118971692Y-86979365D01*
X118971691Y-86979364D01*
X118971688Y-86979364D01*
X118744999Y-86959531D01*
X118518310Y-86979364D01*
X118298502Y-87038261D01*
X118092264Y-87134432D01*
X117905859Y-87264953D01*
X117744953Y-87425859D01*
X117614432Y-87612264D01*
X117518261Y-87818502D01*
X117459364Y-88038310D01*
X117439531Y-88265000D01*
X117459364Y-88491689D01*
X117518261Y-88711497D01*
X117614432Y-88917735D01*
X117744953Y-89104140D01*
X117905859Y-89265046D01*
X118092264Y-89395567D01*
X118092265Y-89395567D01*
X118092266Y-89395568D01*
X118298504Y-89491739D01*
X118518308Y-89550635D01*
X118745000Y-89570468D01*
X118971692Y-89550635D01*
X119191496Y-89491739D01*
X119397734Y-89395568D01*
X119584139Y-89265047D01*
X119745047Y-89104139D01*
X119875568Y-88917734D01*
X119971739Y-88711496D01*
X120030635Y-88491692D01*
X120050468Y-88265000D01*
X120030635Y-88038308D01*
X120004847Y-87942067D01*
X120004847Y-87877880D01*
X120036939Y-87822294D01*
X121107818Y-86751415D01*
X121157182Y-86721165D01*
X121214898Y-86716623D01*
X121268385Y-86738778D01*
X121305985Y-86782801D01*
X121319500Y-86839096D01*
X121319500Y-87033307D01*
X121305489Y-87090564D01*
X121266623Y-87134882D01*
X121080859Y-87264953D01*
X120919953Y-87425859D01*
X120789432Y-87612264D01*
X120693261Y-87818502D01*
X120634364Y-88038310D01*
X120614531Y-88265000D01*
X120634364Y-88491689D01*
X120693261Y-88711497D01*
X120789432Y-88917735D01*
X120919953Y-89104140D01*
X121080859Y-89265046D01*
X121267264Y-89395567D01*
X121267265Y-89395567D01*
X121267266Y-89395568D01*
X121473504Y-89491739D01*
X121693308Y-89550635D01*
X121920000Y-89570468D01*
X122146692Y-89550635D01*
X122366496Y-89491739D01*
X122572734Y-89395568D01*
X122759139Y-89265047D01*
X122920047Y-89104139D01*
X123050568Y-88917734D01*
X123146739Y-88711496D01*
X123205635Y-88491692D01*
X123225468Y-88265000D01*
X123205635Y-88038308D01*
X123146739Y-87818504D01*
X123050568Y-87612266D01*
X122930995Y-87441497D01*
X122920046Y-87425859D01*
X122759140Y-87264953D01*
X122573377Y-87134882D01*
X122534511Y-87090564D01*
X122520500Y-87033307D01*
X122520500Y-61007487D01*
X122521561Y-60991301D01*
X122525682Y-60959999D01*
X122514775Y-60877154D01*
X122505044Y-60803238D01*
X122444536Y-60657159D01*
X122372450Y-60563214D01*
X122372448Y-60563212D01*
X122348282Y-60531718D01*
X122324542Y-60513502D01*
X122323233Y-60512497D01*
X122311038Y-60501802D01*
X121499236Y-59690000D01*
X120671940Y-58862705D01*
X120639847Y-58807118D01*
X120639847Y-58742933D01*
X120665635Y-58646692D01*
X120685468Y-58420000D01*
X120683468Y-58397145D01*
X120678220Y-58337153D01*
X120687605Y-58277895D01*
X120723712Y-58229979D01*
X120778088Y-58204623D01*
X120838002Y-58207763D01*
X120889429Y-58238664D01*
X124458181Y-61807416D01*
X124485061Y-61847644D01*
X124494500Y-61895097D01*
X124494500Y-87033307D01*
X124480489Y-87090564D01*
X124441623Y-87134882D01*
X124255859Y-87264953D01*
X124094953Y-87425859D01*
X123964432Y-87612264D01*
X123868261Y-87818502D01*
X123809364Y-88038310D01*
X123789531Y-88265000D01*
X123809364Y-88491689D01*
X123868261Y-88711497D01*
X123964432Y-88917735D01*
X124094953Y-89104140D01*
X124255859Y-89265046D01*
X124442264Y-89395567D01*
X124442265Y-89395567D01*
X124442266Y-89395568D01*
X124648504Y-89491739D01*
X124868308Y-89550635D01*
X125095000Y-89570468D01*
X125321692Y-89550635D01*
X125541496Y-89491739D01*
X125747734Y-89395568D01*
X125934139Y-89265047D01*
X126095047Y-89104139D01*
X126225568Y-88917734D01*
X126321739Y-88711496D01*
X126380635Y-88491692D01*
X126400468Y-88265000D01*
X126964531Y-88265000D01*
X126984364Y-88491689D01*
X127043261Y-88711497D01*
X127139432Y-88917735D01*
X127269953Y-89104140D01*
X127430859Y-89265046D01*
X127617264Y-89395567D01*
X127617265Y-89395567D01*
X127617266Y-89395568D01*
X127823504Y-89491739D01*
X128043308Y-89550635D01*
X128270000Y-89570468D01*
X128496692Y-89550635D01*
X128716496Y-89491739D01*
X128922734Y-89395568D01*
X129109139Y-89265047D01*
X129270047Y-89104139D01*
X129400117Y-88918377D01*
X129444436Y-88879511D01*
X129501693Y-88865500D01*
X130213307Y-88865500D01*
X130270564Y-88879511D01*
X130314882Y-88918377D01*
X130444953Y-89104140D01*
X130605859Y-89265046D01*
X130792264Y-89395567D01*
X130792265Y-89395567D01*
X130792266Y-89395568D01*
X130998504Y-89491739D01*
X131218308Y-89550635D01*
X131445000Y-89570468D01*
X131671692Y-89550635D01*
X131891496Y-89491739D01*
X132097734Y-89395568D01*
X132284139Y-89265047D01*
X132445047Y-89104139D01*
X132575568Y-88917734D01*
X132671739Y-88711496D01*
X132730635Y-88491692D01*
X132750468Y-88265000D01*
X132730635Y-88038308D01*
X132671739Y-87818504D01*
X132575568Y-87612266D01*
X132455995Y-87441497D01*
X132445046Y-87425859D01*
X132284140Y-87264953D01*
X132097735Y-87134432D01*
X131891497Y-87038261D01*
X131671689Y-86979364D01*
X131445000Y-86959531D01*
X131218310Y-86979364D01*
X130998502Y-87038261D01*
X130792264Y-87134432D01*
X130605859Y-87264953D01*
X130444953Y-87425859D01*
X130314882Y-87611623D01*
X130270564Y-87650489D01*
X130213307Y-87664500D01*
X129501693Y-87664500D01*
X129444436Y-87650489D01*
X129400118Y-87611623D01*
X129270046Y-87425859D01*
X129109140Y-87264953D01*
X128922735Y-87134432D01*
X128716497Y-87038261D01*
X128496689Y-86979364D01*
X128270000Y-86959531D01*
X128043310Y-86979364D01*
X127823502Y-87038261D01*
X127617264Y-87134432D01*
X127430859Y-87264953D01*
X127269953Y-87425859D01*
X127139432Y-87612264D01*
X127043261Y-87818502D01*
X126984364Y-88038310D01*
X126964531Y-88265000D01*
X126400468Y-88265000D01*
X126380635Y-88038308D01*
X126321739Y-87818504D01*
X126225568Y-87612266D01*
X126105995Y-87441497D01*
X126095046Y-87425859D01*
X125934140Y-87264953D01*
X125748377Y-87134882D01*
X125709511Y-87090564D01*
X125695500Y-87033307D01*
X125695500Y-75767869D01*
X132694500Y-75767869D01*
X132700909Y-75827483D01*
X132751204Y-75962331D01*
X132837454Y-76077546D01*
X132952669Y-76163796D01*
X133087517Y-76214091D01*
X133147127Y-76220500D01*
X134394902Y-76220499D01*
X134442355Y-76229938D01*
X134482583Y-76256818D01*
X135253181Y-77027416D01*
X135280061Y-77067644D01*
X135289500Y-77115097D01*
X135289500Y-79413307D01*
X135275489Y-79470564D01*
X135236623Y-79514882D01*
X135050859Y-79644953D01*
X134889953Y-79805859D01*
X134759432Y-79992264D01*
X134663261Y-80198502D01*
X134604364Y-80418310D01*
X134584531Y-80645000D01*
X134604364Y-80871689D01*
X134663261Y-81091497D01*
X134759432Y-81297735D01*
X134889953Y-81484140D01*
X135050859Y-81645046D01*
X135236623Y-81775118D01*
X135275489Y-81819436D01*
X135289500Y-81876693D01*
X135289500Y-82588307D01*
X135275489Y-82645564D01*
X135236623Y-82689882D01*
X135050859Y-82819953D01*
X134889953Y-82980859D01*
X134759432Y-83167264D01*
X134663261Y-83373502D01*
X134604364Y-83593310D01*
X134584531Y-83820000D01*
X134604364Y-84046689D01*
X134663261Y-84266497D01*
X134759432Y-84472735D01*
X134889953Y-84659140D01*
X135050859Y-84820046D01*
X135237264Y-84950567D01*
X135237265Y-84950567D01*
X135237266Y-84950568D01*
X135443504Y-85046739D01*
X135663308Y-85105635D01*
X135814435Y-85118856D01*
X135889999Y-85125468D01*
X135889999Y-85125467D01*
X135890000Y-85125468D01*
X136116692Y-85105635D01*
X136336496Y-85046739D01*
X136542734Y-84950568D01*
X136729139Y-84820047D01*
X136890047Y-84659139D01*
X137020568Y-84472734D01*
X137116739Y-84266496D01*
X137175635Y-84046692D01*
X137195468Y-83820000D01*
X137175635Y-83593308D01*
X137116739Y-83373504D01*
X137020568Y-83167266D01*
X136941891Y-83054903D01*
X136890046Y-82980859D01*
X136729140Y-82819953D01*
X136543377Y-82689882D01*
X136504511Y-82645564D01*
X136490500Y-82588307D01*
X136490500Y-81876693D01*
X136504511Y-81819436D01*
X136543377Y-81775118D01*
X136637331Y-81709331D01*
X136729139Y-81645047D01*
X136890047Y-81484139D01*
X137020568Y-81297734D01*
X137116739Y-81091496D01*
X137175635Y-80871692D01*
X137195468Y-80645000D01*
X137175635Y-80418308D01*
X137116739Y-80198504D01*
X137020568Y-79992266D01*
X136916191Y-79843199D01*
X136890046Y-79805859D01*
X136729140Y-79644953D01*
X136543377Y-79514882D01*
X136504511Y-79470564D01*
X136490500Y-79413307D01*
X136490500Y-76862487D01*
X136491561Y-76846301D01*
X136495682Y-76814999D01*
X136485681Y-76739035D01*
X136475044Y-76658238D01*
X136414536Y-76512159D01*
X136341604Y-76417112D01*
X136318260Y-76365290D01*
X136320492Y-76308492D01*
X136347832Y-76258657D01*
X136394536Y-76226257D01*
X136450789Y-76218101D01*
X136535000Y-76225468D01*
X136761692Y-76205635D01*
X136981496Y-76146739D01*
X137187734Y-76050568D01*
X137374139Y-75920047D01*
X137535047Y-75759139D01*
X137665568Y-75572734D01*
X137692618Y-75514724D01*
X137738375Y-75462549D01*
X137805000Y-75443129D01*
X137871625Y-75462549D01*
X137917382Y-75514725D01*
X137944431Y-75572733D01*
X138074953Y-75759140D01*
X138235859Y-75920046D01*
X138421623Y-76050118D01*
X138460489Y-76094436D01*
X138474500Y-76151693D01*
X138474500Y-79337513D01*
X138473439Y-79353699D01*
X138469317Y-79385000D01*
X138474500Y-79424360D01*
X138474500Y-79424361D01*
X138489956Y-79541762D01*
X138550463Y-79687840D01*
X138646716Y-79813281D01*
X138671768Y-79832503D01*
X138683964Y-79843199D01*
X142218058Y-83377293D01*
X142250152Y-83432880D01*
X142250152Y-83497067D01*
X142224364Y-83593309D01*
X142204531Y-83820000D01*
X142224364Y-84046689D01*
X142283261Y-84266497D01*
X142379432Y-84472735D01*
X142509953Y-84659140D01*
X142670859Y-84820046D01*
X142856623Y-84950118D01*
X142895489Y-84994436D01*
X142909500Y-85051693D01*
X142909500Y-85763307D01*
X142895489Y-85820564D01*
X142856623Y-85864882D01*
X142670859Y-85994953D01*
X142509953Y-86155859D01*
X142379432Y-86342264D01*
X142283261Y-86548502D01*
X142224364Y-86768310D01*
X142204531Y-86995000D01*
X142224364Y-87221689D01*
X142283261Y-87441497D01*
X142379432Y-87647735D01*
X142509953Y-87834140D01*
X142670859Y-87995046D01*
X142857264Y-88125567D01*
X142857265Y-88125567D01*
X142857266Y-88125568D01*
X143063504Y-88221739D01*
X143283308Y-88280635D01*
X143510000Y-88300468D01*
X143736692Y-88280635D01*
X143956496Y-88221739D01*
X144162734Y-88125568D01*
X144349139Y-87995047D01*
X144510047Y-87834139D01*
X144640568Y-87647734D01*
X144736739Y-87441496D01*
X144795635Y-87221692D01*
X144815468Y-86995000D01*
X144795635Y-86768308D01*
X144736739Y-86548504D01*
X144640568Y-86342266D01*
X144510270Y-86156180D01*
X144510046Y-86155859D01*
X144349140Y-85994953D01*
X144163377Y-85864882D01*
X144124511Y-85820564D01*
X144110500Y-85763307D01*
X144110500Y-85051693D01*
X144124511Y-84994436D01*
X144163377Y-84950118D01*
X144349140Y-84820046D01*
X144510046Y-84659140D01*
X144517635Y-84648301D01*
X144640568Y-84472734D01*
X144736739Y-84266496D01*
X144795635Y-84046692D01*
X144815468Y-83820000D01*
X144795635Y-83593308D01*
X144736739Y-83373504D01*
X144640568Y-83167266D01*
X144561891Y-83054903D01*
X144510046Y-82980859D01*
X144349140Y-82819953D01*
X144162735Y-82689432D01*
X143956497Y-82593261D01*
X143736689Y-82534364D01*
X143510000Y-82514531D01*
X143283309Y-82534364D01*
X143187067Y-82560152D01*
X143122880Y-82560152D01*
X143067293Y-82528058D01*
X141184235Y-80645000D01*
X142204531Y-80645000D01*
X142224364Y-80871689D01*
X142283261Y-81091497D01*
X142379432Y-81297735D01*
X142509953Y-81484140D01*
X142670859Y-81645046D01*
X142857264Y-81775567D01*
X142857265Y-81775567D01*
X142857266Y-81775568D01*
X143063504Y-81871739D01*
X143283308Y-81930635D01*
X143510000Y-81950468D01*
X143736692Y-81930635D01*
X143832933Y-81904847D01*
X143897118Y-81904847D01*
X143952706Y-81936941D01*
X146226799Y-84211034D01*
X146237494Y-84223229D01*
X146256715Y-84248279D01*
X146256716Y-84248280D01*
X146256718Y-84248282D01*
X146301990Y-84283020D01*
X146301991Y-84283021D01*
X146301993Y-84283023D01*
X146359019Y-84326780D01*
X146382159Y-84344536D01*
X146528238Y-84405044D01*
X146653698Y-84421561D01*
X146684999Y-84425682D01*
X146684999Y-84425681D01*
X146685000Y-84425682D01*
X146716302Y-84421560D01*
X146732487Y-84420500D01*
X147907513Y-84420500D01*
X147923697Y-84421560D01*
X147955000Y-84425682D01*
X148111762Y-84405044D01*
X148257841Y-84344536D01*
X148338010Y-84283020D01*
X148383282Y-84248282D01*
X148402509Y-84223223D01*
X148413190Y-84211043D01*
X150093119Y-82531115D01*
X150148705Y-82499023D01*
X150212892Y-82499023D01*
X150277023Y-82516207D01*
X150495000Y-82535277D01*
X150712977Y-82516207D01*
X150924330Y-82459575D01*
X151122639Y-82367102D01*
X151301877Y-82241598D01*
X151456598Y-82086877D01*
X151559426Y-81940022D01*
X151606642Y-81899697D01*
X151667490Y-81887318D01*
X151726710Y-81905990D01*
X151769453Y-81951032D01*
X151785000Y-82011148D01*
X151785000Y-82077824D01*
X151791402Y-82137375D01*
X151841647Y-82272089D01*
X151927811Y-82387188D01*
X152042910Y-82473352D01*
X152177624Y-82523597D01*
X152237176Y-82530000D01*
X152785000Y-82530000D01*
X152785000Y-81530000D01*
X153285000Y-81530000D01*
X153285000Y-82530000D01*
X153832824Y-82530000D01*
X153892375Y-82523597D01*
X154027089Y-82473352D01*
X154142188Y-82387188D01*
X154228352Y-82272089D01*
X154278597Y-82137375D01*
X154285000Y-82077824D01*
X154285000Y-81530000D01*
X153285000Y-81530000D01*
X152785000Y-81530000D01*
X152785000Y-80030000D01*
X153285000Y-80030000D01*
X153285000Y-81030000D01*
X154285000Y-81030000D01*
X154285000Y-80482176D01*
X154278597Y-80422624D01*
X154228352Y-80287910D01*
X154142188Y-80172811D01*
X154027089Y-80086647D01*
X153892375Y-80036402D01*
X153832824Y-80030000D01*
X153285000Y-80030000D01*
X152785000Y-80030000D01*
X152237176Y-80030000D01*
X152177624Y-80036402D01*
X152042910Y-80086647D01*
X151927811Y-80172811D01*
X151841647Y-80287910D01*
X151791402Y-80422624D01*
X151785000Y-80482176D01*
X151785000Y-80548853D01*
X151769453Y-80608969D01*
X151726710Y-80654011D01*
X151667490Y-80672683D01*
X151606642Y-80660303D01*
X151559425Y-80619976D01*
X151551718Y-80608969D01*
X151456598Y-80473123D01*
X151301877Y-80318402D01*
X151122639Y-80192898D01*
X151031205Y-80150261D01*
X150924331Y-80100425D01*
X150712974Y-80043792D01*
X150495000Y-80024722D01*
X150277025Y-80043792D01*
X150065668Y-80100425D01*
X149867361Y-80192898D01*
X149688122Y-80318402D01*
X149533402Y-80473122D01*
X149407898Y-80652361D01*
X149337382Y-80803583D01*
X149291625Y-80855759D01*
X149225000Y-80875178D01*
X149158375Y-80855759D01*
X149112618Y-80803583D01*
X149070995Y-80714323D01*
X149042102Y-80652362D01*
X148916598Y-80473123D01*
X148761877Y-80318402D01*
X148582639Y-80192898D01*
X148491205Y-80150261D01*
X148384331Y-80100425D01*
X148172974Y-80043792D01*
X147955000Y-80024722D01*
X147737025Y-80043792D01*
X147525668Y-80100425D01*
X147327361Y-80192898D01*
X147148122Y-80318402D01*
X146993402Y-80473122D01*
X146867898Y-80652361D01*
X146775425Y-80850668D01*
X146718792Y-81062025D01*
X146699722Y-81279999D01*
X146718792Y-81497974D01*
X146773355Y-81701607D01*
X146775425Y-81709330D01*
X146867898Y-81907639D01*
X146993402Y-82086877D01*
X147148123Y-82241598D01*
X147327361Y-82367102D01*
X147525670Y-82459575D01*
X147737023Y-82516207D01*
X147872484Y-82528058D01*
X147954999Y-82535277D01*
X147954999Y-82535276D01*
X147955000Y-82535277D01*
X148092848Y-82523217D01*
X148152106Y-82532602D01*
X148200022Y-82568709D01*
X148225378Y-82623084D01*
X148222238Y-82682999D01*
X148191337Y-82734426D01*
X147742584Y-83183181D01*
X147702356Y-83210061D01*
X147654903Y-83219500D01*
X146985097Y-83219500D01*
X146937644Y-83210061D01*
X146897416Y-83183181D01*
X144801941Y-81087706D01*
X144769847Y-81032118D01*
X144769847Y-80967933D01*
X144795635Y-80871692D01*
X144815468Y-80645000D01*
X144795635Y-80418308D01*
X144736739Y-80198504D01*
X144640568Y-79992266D01*
X144536191Y-79843199D01*
X144510046Y-79805859D01*
X144349140Y-79644953D01*
X144162735Y-79514432D01*
X143956497Y-79418261D01*
X143736689Y-79359364D01*
X143510000Y-79339531D01*
X143283310Y-79359364D01*
X143063502Y-79418261D01*
X142857264Y-79514432D01*
X142670859Y-79644953D01*
X142509953Y-79805859D01*
X142379432Y-79992264D01*
X142283261Y-80198502D01*
X142224364Y-80418310D01*
X142204531Y-80645000D01*
X141184235Y-80645000D01*
X139711819Y-79172584D01*
X139684939Y-79132356D01*
X139675500Y-79084903D01*
X139675500Y-76151693D01*
X139689511Y-76094436D01*
X139728377Y-76050118D01*
X139838074Y-75973308D01*
X139914139Y-75920047D01*
X140075047Y-75759139D01*
X140205568Y-75572734D01*
X140232893Y-75514134D01*
X140278649Y-75461959D01*
X140345274Y-75442539D01*
X140411899Y-75461958D01*
X140457657Y-75514133D01*
X140484866Y-75572482D01*
X140615341Y-75758819D01*
X140776180Y-75919658D01*
X140962519Y-76050134D01*
X141168673Y-76146266D01*
X141364999Y-76198871D01*
X141365000Y-76198872D01*
X141365000Y-75170000D01*
X141865000Y-75170000D01*
X141865000Y-76198871D01*
X142061326Y-76146266D01*
X142267480Y-76050134D01*
X142453819Y-75919658D01*
X142614658Y-75758819D01*
X142745134Y-75572480D01*
X142841266Y-75366326D01*
X142893872Y-75170000D01*
X141865000Y-75170000D01*
X141365000Y-75170000D01*
X141365000Y-73641128D01*
X141865000Y-73641128D01*
X141865000Y-74670000D01*
X142893872Y-74670000D01*
X142893871Y-74669999D01*
X142841266Y-74473673D01*
X142745134Y-74267519D01*
X142614658Y-74081180D01*
X142453819Y-73920341D01*
X142267480Y-73789865D01*
X142061326Y-73693733D01*
X141865000Y-73641128D01*
X141365000Y-73641128D01*
X141364999Y-73641128D01*
X141168673Y-73693733D01*
X140962519Y-73789865D01*
X140776180Y-73920341D01*
X140615341Y-74081180D01*
X140484863Y-74267522D01*
X140457656Y-74325866D01*
X140411899Y-74378041D01*
X140345274Y-74397460D01*
X140278650Y-74378040D01*
X140232893Y-74325865D01*
X140226770Y-74312735D01*
X140205568Y-74267266D01*
X140184895Y-74237742D01*
X140075046Y-74080859D01*
X139914140Y-73919953D01*
X139727735Y-73789432D01*
X139521497Y-73693261D01*
X139301689Y-73634364D01*
X139075000Y-73614531D01*
X138848310Y-73634364D01*
X138628502Y-73693261D01*
X138422264Y-73789432D01*
X138235859Y-73919953D01*
X138074953Y-74080859D01*
X137944433Y-74267263D01*
X137917382Y-74325275D01*
X137871625Y-74377450D01*
X137805000Y-74396869D01*
X137738375Y-74377450D01*
X137692618Y-74325275D01*
X137665568Y-74267266D01*
X137617793Y-74199035D01*
X137535046Y-74080859D01*
X137374140Y-73919953D01*
X137187735Y-73789432D01*
X136981497Y-73693261D01*
X136761689Y-73634364D01*
X136535000Y-73614531D01*
X136308310Y-73634364D01*
X136088502Y-73693261D01*
X135882264Y-73789432D01*
X135695859Y-73919953D01*
X135534951Y-74080861D01*
X135517725Y-74105463D01*
X135472882Y-74144600D01*
X135414969Y-74158333D01*
X135357328Y-74143499D01*
X135313239Y-74103514D01*
X135292861Y-74047592D01*
X135289091Y-74012517D01*
X135238796Y-73877669D01*
X135152546Y-73762454D01*
X135037331Y-73676204D01*
X134902483Y-73625909D01*
X134842873Y-73619500D01*
X134842869Y-73619500D01*
X133147130Y-73619500D01*
X133087515Y-73625909D01*
X132952669Y-73676204D01*
X132837454Y-73762454D01*
X132751204Y-73877668D01*
X132700909Y-74012515D01*
X132700909Y-74012517D01*
X132695429Y-74063493D01*
X132694500Y-74072130D01*
X132694500Y-75767869D01*
X125695500Y-75767869D01*
X125695500Y-73237869D01*
X148599500Y-73237869D01*
X148605909Y-73297483D01*
X148656204Y-73432331D01*
X148742454Y-73547546D01*
X148857669Y-73633796D01*
X148992517Y-73684091D01*
X149052127Y-73690500D01*
X150747872Y-73690499D01*
X150807483Y-73684091D01*
X150942331Y-73633796D01*
X151057546Y-73547546D01*
X151116326Y-73469026D01*
X151674526Y-73469026D01*
X151747515Y-73520133D01*
X151953673Y-73616266D01*
X152173397Y-73675141D01*
X152399999Y-73694966D01*
X152626602Y-73675141D01*
X152846326Y-73616266D01*
X153052480Y-73520134D01*
X153125472Y-73469025D01*
X152400001Y-72743553D01*
X152400000Y-72743553D01*
X151674526Y-73469025D01*
X151674526Y-73469026D01*
X151116326Y-73469026D01*
X151143796Y-73432331D01*
X151194091Y-73297483D01*
X151200500Y-73237873D01*
X151200499Y-73237868D01*
X151201210Y-73231265D01*
X151203000Y-73231457D01*
X151218951Y-73175173D01*
X151268840Y-73129448D01*
X151316030Y-73120415D01*
X152046446Y-72390001D01*
X152046446Y-72390000D01*
X152753553Y-72390000D01*
X153479025Y-73115472D01*
X153530134Y-73042480D01*
X153626266Y-72836326D01*
X153685141Y-72616602D01*
X153704966Y-72389999D01*
X153685141Y-72163397D01*
X153626266Y-71943673D01*
X153530133Y-71737515D01*
X153479025Y-71664526D01*
X152753553Y-72389998D01*
X152753553Y-72390000D01*
X152046446Y-72390000D01*
X151316031Y-71659584D01*
X151268849Y-71650556D01*
X151218961Y-71604842D01*
X151202994Y-71548543D01*
X151201209Y-71548735D01*
X151197269Y-71512083D01*
X151194091Y-71482517D01*
X151143796Y-71347669D01*
X151116325Y-71310973D01*
X151674526Y-71310973D01*
X152400000Y-72036446D01*
X152400001Y-72036446D01*
X153125472Y-71310974D01*
X153125471Y-71310972D01*
X153052484Y-71259866D01*
X152846326Y-71163733D01*
X152626602Y-71104858D01*
X152400000Y-71085033D01*
X152173397Y-71104858D01*
X151953672Y-71163733D01*
X151747516Y-71259865D01*
X151674527Y-71310973D01*
X151674526Y-71310973D01*
X151116325Y-71310973D01*
X151057546Y-71232454D01*
X150942331Y-71146204D01*
X150807483Y-71095909D01*
X150747873Y-71089500D01*
X150747869Y-71089500D01*
X149052130Y-71089500D01*
X148992515Y-71095909D01*
X148857669Y-71146204D01*
X148742454Y-71232454D01*
X148656204Y-71347668D01*
X148605909Y-71482516D01*
X148599500Y-71542130D01*
X148599500Y-73237869D01*
X125695500Y-73237869D01*
X125695500Y-70235000D01*
X158670000Y-70235000D01*
X159770000Y-70235000D01*
X159770000Y-69135000D01*
X159122176Y-69135000D01*
X159062624Y-69141402D01*
X158927910Y-69191647D01*
X158812811Y-69277811D01*
X158726647Y-69392910D01*
X158676402Y-69527624D01*
X158670000Y-69587176D01*
X158670000Y-70235000D01*
X125695500Y-70235000D01*
X125695500Y-61642494D01*
X125696561Y-61626308D01*
X125698348Y-61612734D01*
X125700683Y-61595000D01*
X125680044Y-61438238D01*
X125619536Y-61292159D01*
X125598330Y-61264523D01*
X125558523Y-61212645D01*
X125523282Y-61166717D01*
X125498229Y-61147494D01*
X125486034Y-61136799D01*
X121274235Y-56925000D01*
X123242676Y-56925000D01*
X123261929Y-57145065D01*
X123300612Y-57289432D01*
X123319106Y-57358450D01*
X123412466Y-57558662D01*
X123539174Y-57739620D01*
X123695380Y-57895826D01*
X123876338Y-58022534D01*
X124076550Y-58115894D01*
X124289932Y-58173070D01*
X124510000Y-58192323D01*
X124730068Y-58173070D01*
X124943450Y-58115894D01*
X125143662Y-58022534D01*
X125324620Y-57895826D01*
X125480826Y-57739620D01*
X125607534Y-57558662D01*
X125700894Y-57358450D01*
X125758070Y-57145068D01*
X125777323Y-56925000D01*
X125758070Y-56704932D01*
X125700894Y-56491550D01*
X125607534Y-56291339D01*
X125480826Y-56110380D01*
X125324620Y-55954174D01*
X125143662Y-55827466D01*
X125143661Y-55827465D01*
X125014218Y-55767105D01*
X124962042Y-55721348D01*
X124942623Y-55654722D01*
X124962043Y-55588097D01*
X125014220Y-55542340D01*
X125143411Y-55482098D01*
X125208187Y-55436740D01*
X124510001Y-54738553D01*
X124510000Y-54738553D01*
X123811812Y-55436740D01*
X123876592Y-55482100D01*
X124005780Y-55542341D01*
X124057956Y-55588097D01*
X124077376Y-55654722D01*
X124057957Y-55721347D01*
X124005782Y-55767105D01*
X123876336Y-55827467D01*
X123695379Y-55954174D01*
X123539174Y-56110379D01*
X123412466Y-56291338D01*
X123319106Y-56491548D01*
X123261929Y-56704934D01*
X123242676Y-56925000D01*
X121274235Y-56925000D01*
X120671941Y-56322706D01*
X120639847Y-56267118D01*
X120639847Y-56202933D01*
X120665635Y-56106692D01*
X120685468Y-55880000D01*
X120665635Y-55653308D01*
X120606739Y-55433504D01*
X120510568Y-55227266D01*
X120380047Y-55040861D01*
X120380046Y-55040859D01*
X120219140Y-54879953D01*
X120032733Y-54749431D01*
X119974725Y-54722382D01*
X119922549Y-54676625D01*
X119903129Y-54610000D01*
X119922549Y-54543375D01*
X119974725Y-54497618D01*
X120032734Y-54470568D01*
X120154939Y-54385000D01*
X123243178Y-54385000D01*
X123262424Y-54604978D01*
X123319579Y-54818281D01*
X123412898Y-55018406D01*
X123458258Y-55083187D01*
X124156446Y-54385000D01*
X124156446Y-54384999D01*
X124863553Y-54384999D01*
X125561740Y-55083186D01*
X125607100Y-55018408D01*
X125700420Y-54818281D01*
X125757575Y-54604978D01*
X125776821Y-54385000D01*
X125757575Y-54165021D01*
X125700421Y-53951720D01*
X125607098Y-53751589D01*
X125561740Y-53686811D01*
X124863553Y-54384998D01*
X124863553Y-54384999D01*
X124156446Y-54384999D01*
X124156446Y-54384998D01*
X123458258Y-53686812D01*
X123412900Y-53751589D01*
X123319578Y-53951719D01*
X123262424Y-54165021D01*
X123243178Y-54385000D01*
X120154939Y-54385000D01*
X120219139Y-54340047D01*
X120380047Y-54179139D01*
X120510568Y-53992734D01*
X120606739Y-53786496D01*
X120665635Y-53566692D01*
X120685468Y-53340000D01*
X120684878Y-53333258D01*
X123811811Y-53333258D01*
X124510000Y-54031446D01*
X124510001Y-54031446D01*
X125208187Y-53333258D01*
X125143406Y-53287898D01*
X124943281Y-53194579D01*
X124729978Y-53137424D01*
X124510000Y-53118178D01*
X124290021Y-53137424D01*
X124076719Y-53194578D01*
X123876589Y-53287900D01*
X123811812Y-53333258D01*
X123811811Y-53333258D01*
X120684878Y-53333258D01*
X120665635Y-53113308D01*
X120606739Y-52893504D01*
X120510568Y-52687266D01*
X120380047Y-52500861D01*
X120380046Y-52500859D01*
X120219140Y-52339953D01*
X120032733Y-52209431D01*
X119974725Y-52182382D01*
X119922549Y-52136625D01*
X119903129Y-52070000D01*
X119922549Y-52003375D01*
X119974725Y-51957618D01*
X120032734Y-51930568D01*
X120219139Y-51800047D01*
X120380047Y-51639139D01*
X120510117Y-51453377D01*
X120554436Y-51414511D01*
X120611693Y-51400500D01*
X124159903Y-51400500D01*
X124207356Y-51409939D01*
X124247584Y-51436819D01*
X133789298Y-60978533D01*
X133813337Y-61012412D01*
X133824837Y-61052330D01*
X133834631Y-61139250D01*
X133834631Y-61139251D01*
X133834632Y-61139255D01*
X133894211Y-61309522D01*
X133894212Y-61309523D01*
X133990185Y-61462264D01*
X134117735Y-61589814D01*
X134117737Y-61589815D01*
X134117738Y-61589816D01*
X134270478Y-61685789D01*
X134440745Y-61745368D01*
X134620000Y-61765565D01*
X134799255Y-61745368D01*
X134969522Y-61685789D01*
X135122262Y-61589816D01*
X135249816Y-61462262D01*
X135345789Y-61309522D01*
X135405368Y-61139255D01*
X135425565Y-60960000D01*
X135405368Y-60780745D01*
X135345789Y-60610478D01*
X135249816Y-60457738D01*
X135249815Y-60457737D01*
X135249814Y-60457735D01*
X135122264Y-60330185D01*
X135059867Y-60290978D01*
X134969522Y-60234211D01*
X134799255Y-60174632D01*
X134799251Y-60174631D01*
X134799250Y-60174631D01*
X134712330Y-60164837D01*
X134672412Y-60153337D01*
X134638533Y-60129298D01*
X124918199Y-50408964D01*
X124907503Y-50396768D01*
X124888281Y-50371716D01*
X124762840Y-50275463D01*
X124616762Y-50214956D01*
X124499361Y-50199500D01*
X124494780Y-50198897D01*
X124460000Y-50194317D01*
X124432163Y-50197982D01*
X124428697Y-50198439D01*
X124412513Y-50199500D01*
X120611693Y-50199500D01*
X120554436Y-50185489D01*
X120510118Y-50146623D01*
X120380046Y-49960859D01*
X120219140Y-49799953D01*
X120032732Y-49669430D01*
X119974724Y-49642380D01*
X119922549Y-49596623D01*
X119903130Y-49529997D01*
X119922550Y-49463373D01*
X119974721Y-49417619D01*
X120032734Y-49390568D01*
X120219139Y-49260047D01*
X120380047Y-49099139D01*
X120510117Y-48913377D01*
X120554436Y-48874511D01*
X120611693Y-48860500D01*
X135404903Y-48860500D01*
X135452356Y-48869939D01*
X135492584Y-48896819D01*
X143433083Y-56837318D01*
X143465177Y-56892905D01*
X143465177Y-56957093D01*
X143433083Y-57012680D01*
X134437705Y-66008058D01*
X134382118Y-66040152D01*
X134317931Y-66040152D01*
X134221692Y-66014365D01*
X134221691Y-66014364D01*
X134221688Y-66014364D01*
X133994999Y-65994531D01*
X133768310Y-66014364D01*
X133548502Y-66073261D01*
X133342264Y-66169432D01*
X133155859Y-66299953D01*
X132994953Y-66460859D01*
X132864432Y-66647264D01*
X132768261Y-66853502D01*
X132709364Y-67073310D01*
X132689531Y-67299999D01*
X132709364Y-67526689D01*
X132768261Y-67746497D01*
X132864432Y-67952735D01*
X132994953Y-68139140D01*
X133155859Y-68300046D01*
X133342264Y-68430567D01*
X133342265Y-68430567D01*
X133342266Y-68430568D01*
X133548504Y-68526739D01*
X133768308Y-68585635D01*
X133919436Y-68598857D01*
X133994999Y-68605468D01*
X133994999Y-68605467D01*
X133995000Y-68605468D01*
X134221692Y-68585635D01*
X134441496Y-68526739D01*
X134647734Y-68430568D01*
X134834139Y-68300047D01*
X134995047Y-68139139D01*
X135125568Y-67952734D01*
X135152618Y-67894724D01*
X135198375Y-67842549D01*
X135265000Y-67823129D01*
X135331625Y-67842549D01*
X135377382Y-67894725D01*
X135404431Y-67952733D01*
X135534953Y-68139140D01*
X135695859Y-68300046D01*
X135882264Y-68430567D01*
X135882265Y-68430567D01*
X135882266Y-68430568D01*
X136088504Y-68526739D01*
X136308308Y-68585635D01*
X136459436Y-68598857D01*
X136534999Y-68605468D01*
X136534999Y-68605467D01*
X136535000Y-68605468D01*
X136761692Y-68585635D01*
X136981496Y-68526739D01*
X137187734Y-68430568D01*
X137374139Y-68300047D01*
X137535047Y-68139139D01*
X137665568Y-67952734D01*
X137692618Y-67894724D01*
X137738375Y-67842549D01*
X137805000Y-67823129D01*
X137871625Y-67842549D01*
X137917382Y-67894725D01*
X137944431Y-67952733D01*
X138074953Y-68139140D01*
X138235859Y-68300046D01*
X138422264Y-68430567D01*
X138422265Y-68430567D01*
X138422266Y-68430568D01*
X138628504Y-68526739D01*
X138848308Y-68585635D01*
X138999436Y-68598857D01*
X139074999Y-68605468D01*
X139074999Y-68605467D01*
X139075000Y-68605468D01*
X139301692Y-68585635D01*
X139521496Y-68526739D01*
X139727734Y-68430568D01*
X139914139Y-68300047D01*
X140075047Y-68139139D01*
X140205568Y-67952734D01*
X140232618Y-67894724D01*
X140278375Y-67842549D01*
X140345000Y-67823129D01*
X140411625Y-67842549D01*
X140457382Y-67894725D01*
X140484431Y-67952733D01*
X140614953Y-68139140D01*
X140775859Y-68300046D01*
X140962264Y-68430567D01*
X140962265Y-68430567D01*
X140962266Y-68430568D01*
X141168504Y-68526739D01*
X141388308Y-68585635D01*
X141539436Y-68598857D01*
X141614999Y-68605468D01*
X141614999Y-68605467D01*
X141615000Y-68605468D01*
X141841692Y-68585635D01*
X142061496Y-68526739D01*
X142267734Y-68430568D01*
X142454139Y-68300047D01*
X142615047Y-68139139D01*
X142745568Y-67952734D01*
X142841739Y-67746496D01*
X142900635Y-67526692D01*
X142920468Y-67300000D01*
X142900635Y-67073308D01*
X142841739Y-66853504D01*
X142745568Y-66647266D01*
X142632997Y-66486497D01*
X142615046Y-66460859D01*
X142454140Y-66299953D01*
X142267735Y-66169432D01*
X142061497Y-66073261D01*
X141841689Y-66014364D01*
X141615000Y-65994531D01*
X141388310Y-66014364D01*
X141168502Y-66073261D01*
X140962264Y-66169432D01*
X140775859Y-66299953D01*
X140614953Y-66460859D01*
X140484433Y-66647263D01*
X140457382Y-66705275D01*
X140411625Y-66757450D01*
X140345000Y-66776869D01*
X140278375Y-66757450D01*
X140232618Y-66705275D01*
X140205568Y-66647266D01*
X140205566Y-66647263D01*
X140075046Y-66460859D01*
X139914140Y-66299953D01*
X139727735Y-66169432D01*
X139521497Y-66073261D01*
X139301689Y-66014364D01*
X139075000Y-65994531D01*
X138848310Y-66014364D01*
X138628502Y-66073261D01*
X138422264Y-66169432D01*
X138235859Y-66299953D01*
X138074953Y-66460859D01*
X137944433Y-66647263D01*
X137917382Y-66705275D01*
X137871625Y-66757450D01*
X137805000Y-66776869D01*
X137738375Y-66757450D01*
X137692618Y-66705275D01*
X137665568Y-66647266D01*
X137665566Y-66647263D01*
X137535046Y-66460859D01*
X137374140Y-66299953D01*
X137187735Y-66169432D01*
X136981497Y-66073261D01*
X136761689Y-66014364D01*
X136534998Y-65994531D01*
X136452150Y-66001779D01*
X136392893Y-65992393D01*
X136344977Y-65956286D01*
X136319622Y-65901911D01*
X136322762Y-65841997D01*
X136353661Y-65790572D01*
X144582415Y-57561819D01*
X144622644Y-57534939D01*
X144670097Y-57525500D01*
X158884696Y-57525500D01*
X158941953Y-57539511D01*
X158986269Y-57578376D01*
X159099174Y-57739620D01*
X159255380Y-57895826D01*
X159436338Y-58022534D01*
X159636550Y-58115894D01*
X159849932Y-58173070D01*
X160070000Y-58192323D01*
X160290068Y-58173070D01*
X160361903Y-58153820D01*
X160426090Y-58153820D01*
X160481679Y-58185914D01*
X160652682Y-58356917D01*
X160679562Y-58397145D01*
X160689001Y-58444598D01*
X160689001Y-69011000D01*
X160672388Y-69073000D01*
X160627001Y-69118387D01*
X160565001Y-69135000D01*
X160270000Y-69135000D01*
X160270000Y-70611000D01*
X160253387Y-70673000D01*
X160208000Y-70718387D01*
X160146000Y-70735000D01*
X158670000Y-70735000D01*
X158670000Y-71382824D01*
X158676402Y-71442375D01*
X158726647Y-71577089D01*
X158812811Y-71692188D01*
X158927911Y-71778352D01*
X159059471Y-71827422D01*
X159109850Y-71862401D01*
X159137303Y-71917246D01*
X159135114Y-71978539D01*
X159103819Y-72031285D01*
X158981503Y-72153601D01*
X158845965Y-72347170D01*
X158746097Y-72561336D01*
X158684936Y-72789592D01*
X158664340Y-73025000D01*
X158684936Y-73260407D01*
X158694871Y-73297483D01*
X158746097Y-73488663D01*
X158845965Y-73702830D01*
X158981505Y-73896401D01*
X159148599Y-74063495D01*
X159334160Y-74193426D01*
X159373024Y-74237743D01*
X159387035Y-74295000D01*
X159373024Y-74352257D01*
X159334160Y-74396574D01*
X159187681Y-74499140D01*
X159148595Y-74526508D01*
X158981505Y-74693598D01*
X158845965Y-74887170D01*
X158746097Y-75101336D01*
X158684936Y-75329592D01*
X158664340Y-75564999D01*
X158684936Y-75800407D01*
X158716994Y-75920047D01*
X158746097Y-76028663D01*
X158845965Y-76242830D01*
X158981505Y-76436401D01*
X159148599Y-76603495D01*
X159342170Y-76739035D01*
X159556337Y-76838903D01*
X159784592Y-76900063D01*
X160020000Y-76920659D01*
X160255408Y-76900063D01*
X160483663Y-76838903D01*
X160697830Y-76739035D01*
X160891401Y-76603495D01*
X161058495Y-76436401D01*
X161194035Y-76242830D01*
X161293903Y-76028663D01*
X161355063Y-75800408D01*
X161375659Y-75565000D01*
X161374107Y-75547266D01*
X161355063Y-75329592D01*
X161321690Y-75205042D01*
X161293903Y-75101337D01*
X161194035Y-74887171D01*
X161058495Y-74693599D01*
X160891401Y-74526505D01*
X160705839Y-74396573D01*
X160666974Y-74352255D01*
X160652964Y-74294999D01*
X160666975Y-74237742D01*
X160705837Y-74193428D01*
X160891401Y-74063495D01*
X161058495Y-73896401D01*
X161194035Y-73702830D01*
X161293903Y-73488663D01*
X161355063Y-73260408D01*
X161375659Y-73025000D01*
X161355063Y-72789592D01*
X161320672Y-72661241D01*
X161320672Y-72597054D01*
X161352764Y-72541469D01*
X161680544Y-72213689D01*
X161692724Y-72203008D01*
X161717783Y-72183781D01*
X161814037Y-72058340D01*
X161874545Y-71912261D01*
X161874545Y-71912260D01*
X161874545Y-71912258D01*
X161875177Y-71910733D01*
X161875606Y-71904201D01*
X161882615Y-71850965D01*
X161895184Y-71755499D01*
X161891061Y-71724190D01*
X161890001Y-71708005D01*
X161890001Y-58191988D01*
X161891062Y-58175802D01*
X161895183Y-58144500D01*
X161891417Y-58115893D01*
X161874545Y-57987739D01*
X161814037Y-57841660D01*
X161775139Y-57790967D01*
X161756951Y-57767264D01*
X161717783Y-57716218D01*
X161692730Y-57696995D01*
X161680535Y-57686300D01*
X161330914Y-57336679D01*
X161298820Y-57281090D01*
X161298821Y-57216902D01*
X161298896Y-57216625D01*
X161318070Y-57145068D01*
X161337323Y-56925000D01*
X161318070Y-56704932D01*
X161260894Y-56491550D01*
X161167534Y-56291339D01*
X161040826Y-56110380D01*
X160884620Y-55954174D01*
X160703662Y-55827466D01*
X160703661Y-55827465D01*
X160574218Y-55767105D01*
X160522042Y-55721348D01*
X160502623Y-55654722D01*
X160522043Y-55588097D01*
X160574220Y-55542340D01*
X160703411Y-55482098D01*
X160768187Y-55436740D01*
X160070001Y-54738553D01*
X160070000Y-54738553D01*
X159371812Y-55436740D01*
X159436592Y-55482100D01*
X159565780Y-55542341D01*
X159617956Y-55588097D01*
X159637376Y-55654722D01*
X159617957Y-55721347D01*
X159565782Y-55767105D01*
X159436336Y-55827467D01*
X159255379Y-55954174D01*
X159099174Y-56110379D01*
X158986271Y-56271623D01*
X158941953Y-56310489D01*
X158884696Y-56324500D01*
X144670097Y-56324500D01*
X144622644Y-56315061D01*
X144582416Y-56288181D01*
X142679235Y-54385000D01*
X158803178Y-54385000D01*
X158822424Y-54604978D01*
X158879579Y-54818281D01*
X158972898Y-55018406D01*
X159018258Y-55083187D01*
X159716446Y-54385000D01*
X159716446Y-54384999D01*
X160423553Y-54384999D01*
X161121740Y-55083186D01*
X161167100Y-55018408D01*
X161260420Y-54818281D01*
X161317575Y-54604978D01*
X161336821Y-54385000D01*
X161317575Y-54165021D01*
X161260421Y-53951720D01*
X161167098Y-53751589D01*
X161121740Y-53686811D01*
X160423553Y-54384998D01*
X160423553Y-54384999D01*
X159716446Y-54384999D01*
X159716446Y-54384998D01*
X159018258Y-53686812D01*
X158972900Y-53751589D01*
X158879578Y-53951719D01*
X158822424Y-54165021D01*
X158803178Y-54385000D01*
X142679235Y-54385000D01*
X141627493Y-53333258D01*
X159371811Y-53333258D01*
X160070000Y-54031446D01*
X160070001Y-54031446D01*
X160768187Y-53333258D01*
X160703406Y-53287898D01*
X160503281Y-53194579D01*
X160289978Y-53137424D01*
X160070000Y-53118178D01*
X159850021Y-53137424D01*
X159636719Y-53194578D01*
X159436589Y-53287900D01*
X159371812Y-53333258D01*
X159371811Y-53333258D01*
X141627493Y-53333258D01*
X136163199Y-47868964D01*
X136152503Y-47856768D01*
X136133281Y-47831716D01*
X136007840Y-47735463D01*
X135861762Y-47674956D01*
X135744361Y-47659500D01*
X135739780Y-47658897D01*
X135705000Y-47654317D01*
X135677163Y-47657982D01*
X135673697Y-47658439D01*
X135657513Y-47659500D01*
X120611693Y-47659500D01*
X120554436Y-47645489D01*
X120510118Y-47606623D01*
X120380046Y-47420859D01*
X120219140Y-47259953D01*
X120032735Y-47129432D01*
X119826497Y-47033261D01*
X119606689Y-46974364D01*
X119380000Y-46954531D01*
X119153310Y-46974364D01*
X118933502Y-47033261D01*
X118727264Y-47129432D01*
X118540859Y-47259953D01*
X118379953Y-47420859D01*
X118249432Y-47607264D01*
X118153261Y-47813502D01*
X118094364Y-48033310D01*
X118074531Y-48259999D01*
X118094364Y-48486689D01*
X118153261Y-48706497D01*
X118249432Y-48912735D01*
X118379953Y-49099140D01*
X118540859Y-49260046D01*
X118727262Y-49390565D01*
X118727266Y-49390568D01*
X118785273Y-49417617D01*
X118837449Y-49463373D01*
X118856869Y-49529997D01*
X118837451Y-49596622D01*
X118785276Y-49642380D01*
X118727266Y-49669431D01*
X118540859Y-49799953D01*
X118379953Y-49960859D01*
X118249432Y-50147264D01*
X118153261Y-50353502D01*
X118094364Y-50573310D01*
X118074531Y-50799999D01*
X118094364Y-51026689D01*
X118153261Y-51246497D01*
X118249432Y-51452735D01*
X118379953Y-51639140D01*
X118540859Y-51800046D01*
X118727263Y-51930566D01*
X118727266Y-51930568D01*
X118785275Y-51957618D01*
X118837450Y-52003375D01*
X118856869Y-52070000D01*
X118837450Y-52136625D01*
X118785275Y-52182382D01*
X118727263Y-52209433D01*
X118540859Y-52339953D01*
X118379953Y-52500859D01*
X118249432Y-52687264D01*
X118153261Y-52893502D01*
X118094364Y-53113310D01*
X118074531Y-53339999D01*
X118094364Y-53566689D01*
X118153261Y-53786497D01*
X118249432Y-53992735D01*
X118379953Y-54179140D01*
X118540859Y-54340046D01*
X118605061Y-54385000D01*
X118727266Y-54470568D01*
X118785273Y-54497617D01*
X118837449Y-54543373D01*
X118856869Y-54609997D01*
X118837451Y-54676622D01*
X118785276Y-54722380D01*
X118727266Y-54749431D01*
X118540859Y-54879953D01*
X118379953Y-55040859D01*
X118249432Y-55227264D01*
X118153261Y-55433502D01*
X118094364Y-55653310D01*
X118074531Y-55879999D01*
X118094364Y-56106689D01*
X118153261Y-56326497D01*
X118249432Y-56532735D01*
X118379953Y-56719140D01*
X118540859Y-56880046D01*
X118559224Y-56892905D01*
X118727266Y-57010568D01*
X118785273Y-57037617D01*
X118837449Y-57083373D01*
X118856869Y-57149997D01*
X118837451Y-57216622D01*
X118785276Y-57262380D01*
X118727266Y-57289431D01*
X118540859Y-57419953D01*
X118379953Y-57580859D01*
X118249432Y-57767264D01*
X118153261Y-57973502D01*
X118094364Y-58193310D01*
X118074531Y-58419999D01*
X118094364Y-58646689D01*
X118153261Y-58866497D01*
X118249432Y-59072735D01*
X118379953Y-59259140D01*
X118540859Y-59420046D01*
X118727263Y-59550566D01*
X118727266Y-59550568D01*
X118785275Y-59577618D01*
X118837450Y-59623375D01*
X118856869Y-59690000D01*
X118837450Y-59756625D01*
X118785275Y-59802382D01*
X118727263Y-59829433D01*
X118540859Y-59959953D01*
X118379953Y-60120859D01*
X118249432Y-60307264D01*
X118153261Y-60513502D01*
X118094364Y-60733310D01*
X118074531Y-60959999D01*
X118094364Y-61186689D01*
X118153261Y-61406497D01*
X118249432Y-61612735D01*
X118379953Y-61799140D01*
X118540859Y-61960046D01*
X118727263Y-62090566D01*
X118727266Y-62090568D01*
X118785275Y-62117618D01*
X118837450Y-62163375D01*
X118856869Y-62230000D01*
X118837450Y-62296625D01*
X118785275Y-62342382D01*
X118727263Y-62369433D01*
X118540859Y-62499953D01*
X118379953Y-62660859D01*
X118249432Y-62847264D01*
X118153261Y-63053502D01*
X118094364Y-63273310D01*
X118074531Y-63499999D01*
X118094364Y-63726689D01*
X118153261Y-63946497D01*
X118249432Y-64152735D01*
X118379953Y-64339140D01*
X118540859Y-64500046D01*
X118607987Y-64547049D01*
X118727266Y-64630568D01*
X118785275Y-64657618D01*
X118837450Y-64703375D01*
X118856869Y-64770000D01*
X118837450Y-64836625D01*
X118785275Y-64882382D01*
X118727263Y-64909433D01*
X118540859Y-65039953D01*
X118379953Y-65200859D01*
X118249432Y-65387264D01*
X118153261Y-65593502D01*
X118094364Y-65813310D01*
X118074531Y-66040000D01*
X118094364Y-66266689D01*
X118153261Y-66486497D01*
X118249432Y-66692735D01*
X118379953Y-66879140D01*
X118540859Y-67040046D01*
X118727263Y-67170566D01*
X118727266Y-67170568D01*
X118785275Y-67197618D01*
X118837450Y-67243375D01*
X118856869Y-67310000D01*
X118837450Y-67376625D01*
X118785275Y-67422382D01*
X118727263Y-67449433D01*
X118540859Y-67579953D01*
X118379953Y-67740859D01*
X118249432Y-67927264D01*
X118153261Y-68133502D01*
X118094364Y-68353310D01*
X118074531Y-68580000D01*
X118094364Y-68806689D01*
X118153261Y-69026497D01*
X118249432Y-69232735D01*
X118379953Y-69419140D01*
X118540859Y-69580046D01*
X118551042Y-69587176D01*
X118727266Y-69710568D01*
X118785275Y-69737618D01*
X118837450Y-69783375D01*
X118856869Y-69850000D01*
X118837450Y-69916625D01*
X118785275Y-69962382D01*
X118727263Y-69989433D01*
X118540859Y-70119953D01*
X118379953Y-70280859D01*
X118249432Y-70467264D01*
X118153261Y-70673502D01*
X118094364Y-70893310D01*
X118074531Y-71119999D01*
X118094364Y-71346688D01*
X118094364Y-71346691D01*
X118094365Y-71346692D01*
X118104046Y-71382824D01*
X118120152Y-71442930D01*
X118120152Y-71507118D01*
X118088058Y-71562705D01*
X112003965Y-77646798D01*
X111991773Y-77657491D01*
X111966718Y-77676717D01*
X111942550Y-77708215D01*
X111942548Y-77708216D01*
X111870463Y-77802159D01*
X111809956Y-77948237D01*
X111789317Y-78104999D01*
X111793439Y-78136301D01*
X111794500Y-78152487D01*
X111794500Y-87033307D01*
X111780489Y-87090564D01*
X111741623Y-87134882D01*
X111555859Y-87264953D01*
X111394953Y-87425859D01*
X111264432Y-87612264D01*
X111168261Y-87818502D01*
X111109364Y-88038310D01*
X111089531Y-88265000D01*
X108620468Y-88265000D01*
X108600635Y-88038308D01*
X108541739Y-87818504D01*
X108445568Y-87612266D01*
X108325995Y-87441497D01*
X108315046Y-87425859D01*
X108154140Y-87264953D01*
X107968377Y-87134882D01*
X107929511Y-87090564D01*
X107915500Y-87033307D01*
X107915500Y-56562487D01*
X107916561Y-56546301D01*
X107920682Y-56514999D01*
X107900044Y-56358239D01*
X107882159Y-56315061D01*
X107839536Y-56212159D01*
X107839535Y-56212158D01*
X107839534Y-56212157D01*
X107838902Y-56210630D01*
X107834588Y-56205711D01*
X107743282Y-56086717D01*
X107718229Y-56067494D01*
X107706034Y-56056799D01*
X100351941Y-48702706D01*
X100319847Y-48647118D01*
X100319847Y-48582933D01*
X100345635Y-48486692D01*
X100365468Y-48260000D01*
X100345635Y-48033308D01*
X100286739Y-47813504D01*
X100190568Y-47607266D01*
X100060047Y-47420861D01*
X100060046Y-47420859D01*
X99899140Y-47259953D01*
X99712736Y-47129433D01*
X99712730Y-47129430D01*
X99654132Y-47102105D01*
X99601958Y-47056348D01*
X99582539Y-46989723D01*
X99601959Y-46923098D01*
X99654135Y-46877342D01*
X99712479Y-46850136D01*
X99785472Y-46799025D01*
X99060001Y-46073553D01*
X99060000Y-46073553D01*
X98334526Y-46799025D01*
X98334526Y-46799026D01*
X98407515Y-46850133D01*
X98465865Y-46877342D01*
X98518040Y-46923099D01*
X98537460Y-46989723D01*
X98518041Y-47056348D01*
X98465866Y-47102105D01*
X98407267Y-47129430D01*
X98220859Y-47259953D01*
X98059953Y-47420859D01*
X97929432Y-47607264D01*
X97891882Y-47687792D01*
X97848840Y-47738188D01*
X97785989Y-47759217D01*
X97721285Y-47744872D01*
X97673211Y-47699252D01*
X97655500Y-47635387D01*
X97655500Y-46343431D01*
X97673211Y-46279566D01*
X97721285Y-46233946D01*
X97785989Y-46219601D01*
X97848840Y-46240630D01*
X97891882Y-46291026D01*
X97929866Y-46372484D01*
X97980972Y-46445471D01*
X97980974Y-46445472D01*
X98706446Y-45720001D01*
X99413553Y-45720001D01*
X100139025Y-46445472D01*
X100190134Y-46372480D01*
X100286266Y-46166326D01*
X100345141Y-45946602D01*
X100364966Y-45720000D01*
X100345141Y-45493397D01*
X100286266Y-45273673D01*
X100190133Y-45067515D01*
X100139025Y-44994526D01*
X99413553Y-45720000D01*
X99413553Y-45720001D01*
X98706446Y-45720001D01*
X98706446Y-45720000D01*
X97980973Y-44994526D01*
X97980973Y-44994527D01*
X97929865Y-45067516D01*
X97891882Y-45148973D01*
X97848840Y-45199369D01*
X97785990Y-45220398D01*
X97721285Y-45206053D01*
X97673211Y-45160433D01*
X97655500Y-45096568D01*
X97655500Y-43804613D01*
X97673211Y-43740748D01*
X97721285Y-43695128D01*
X97785989Y-43680783D01*
X97848840Y-43701812D01*
X97891882Y-43752208D01*
X97929432Y-43832735D01*
X98059953Y-44019140D01*
X98220859Y-44180046D01*
X98407264Y-44310567D01*
X98407265Y-44310567D01*
X98407266Y-44310568D01*
X98465865Y-44337893D01*
X98518040Y-44383650D01*
X98537460Y-44450275D01*
X98518041Y-44516900D01*
X98465865Y-44562657D01*
X98407517Y-44589865D01*
X98334527Y-44640973D01*
X98334526Y-44640973D01*
X99060000Y-45366446D01*
X99060001Y-45366446D01*
X99785472Y-44640974D01*
X99785471Y-44640972D01*
X99712485Y-44589867D01*
X99654133Y-44562657D01*
X99601958Y-44516899D01*
X99582539Y-44450274D01*
X99601959Y-44383649D01*
X99654134Y-44337893D01*
X99712734Y-44310568D01*
X99899139Y-44180047D01*
X100060047Y-44019139D01*
X100190568Y-43832734D01*
X100286739Y-43626496D01*
X100345635Y-43406692D01*
X100365468Y-43180000D01*
X100345635Y-42953308D01*
X100286739Y-42733504D01*
X100190568Y-42527266D01*
X100060047Y-42340861D01*
X100060046Y-42340859D01*
X99899140Y-42179953D01*
X99712732Y-42049430D01*
X99654724Y-42022380D01*
X99602549Y-41976623D01*
X99583130Y-41909997D01*
X99602550Y-41843373D01*
X99654721Y-41797619D01*
X99712734Y-41770568D01*
X99899139Y-41640047D01*
X100060047Y-41479139D01*
X100190568Y-41292734D01*
X100286739Y-41086496D01*
X100345635Y-40866692D01*
X100365468Y-40640000D01*
X100345635Y-40413308D01*
X100286739Y-40193504D01*
X100190568Y-39987266D01*
X100060047Y-39800861D01*
X100060046Y-39800859D01*
X99899140Y-39639953D01*
X99874537Y-39622726D01*
X99835399Y-39577884D01*
X99821666Y-39519970D01*
X99836500Y-39462328D01*
X99876485Y-39418239D01*
X99932406Y-39397861D01*
X99967483Y-39394091D01*
X100102331Y-39343796D01*
X100217546Y-39257546D01*
X100303796Y-39142331D01*
X100354091Y-39007483D01*
X100360500Y-38947873D01*
X100360499Y-37252128D01*
X100354091Y-37192517D01*
X100303796Y-37057669D01*
X100217546Y-36942454D01*
X100102331Y-36856204D01*
X99967483Y-36805909D01*
X99907873Y-36799500D01*
X99907869Y-36799500D01*
X98212130Y-36799500D01*
X98152515Y-36805909D01*
X98017669Y-36856204D01*
X97902454Y-36942454D01*
X97878767Y-36974096D01*
X97831011Y-37012579D01*
X97770654Y-37023469D01*
X97712460Y-37004100D01*
X97670668Y-36959212D01*
X97655500Y-36899785D01*
X97655500Y-35627764D01*
X102285787Y-35627764D01*
X102315413Y-35897016D01*
X102383928Y-36159087D01*
X102489871Y-36408392D01*
X102630982Y-36639611D01*
X102804253Y-36847818D01*
X102804255Y-36847820D01*
X103005998Y-37028582D01*
X103231910Y-37178044D01*
X103262784Y-37192517D01*
X103477177Y-37293021D01*
X103736562Y-37371058D01*
X103736569Y-37371060D01*
X104004561Y-37410500D01*
X104207631Y-37410500D01*
X104207634Y-37410500D01*
X104410156Y-37395677D01*
X104410155Y-37395677D01*
X104674553Y-37336780D01*
X104927558Y-37240014D01*
X105163777Y-37107441D01*
X105378177Y-36941888D01*
X105566186Y-36746881D01*
X105723799Y-36526579D01*
X105847656Y-36285675D01*
X105935118Y-36029305D01*
X105984319Y-35762933D01*
X105989259Y-35627764D01*
X156895787Y-35627764D01*
X156925413Y-35897016D01*
X156993928Y-36159087D01*
X157099871Y-36408392D01*
X157240982Y-36639611D01*
X157414253Y-36847818D01*
X157414255Y-36847820D01*
X157615998Y-37028582D01*
X157841910Y-37178044D01*
X157872784Y-37192517D01*
X158087177Y-37293021D01*
X158346562Y-37371058D01*
X158346569Y-37371060D01*
X158614561Y-37410500D01*
X158817631Y-37410500D01*
X158817634Y-37410500D01*
X159020156Y-37395677D01*
X159020155Y-37395677D01*
X159284553Y-37336780D01*
X159537558Y-37240014D01*
X159773777Y-37107441D01*
X159988177Y-36941888D01*
X160176186Y-36746881D01*
X160333799Y-36526579D01*
X160457656Y-36285675D01*
X160545118Y-36029305D01*
X160594319Y-35762933D01*
X160604212Y-35492235D01*
X160574586Y-35222982D01*
X160506072Y-34960912D01*
X160400130Y-34711610D01*
X160259018Y-34480390D01*
X160259017Y-34480388D01*
X160085746Y-34272181D01*
X159980758Y-34178112D01*
X159884002Y-34091418D01*
X159658090Y-33941956D01*
X159658086Y-33941954D01*
X159412822Y-33826978D01*
X159153437Y-33748941D01*
X159153431Y-33748940D01*
X158885439Y-33709500D01*
X158682369Y-33709500D01*
X158682366Y-33709500D01*
X158479843Y-33724322D01*
X158215449Y-33783219D01*
X157962441Y-33879986D01*
X157726223Y-34012559D01*
X157511825Y-34178109D01*
X157323813Y-34373120D01*
X157166201Y-34593420D01*
X157042342Y-34834329D01*
X156954881Y-35090695D01*
X156905680Y-35357066D01*
X156895787Y-35627764D01*
X105989259Y-35627764D01*
X105994212Y-35492235D01*
X105964586Y-35222982D01*
X105896072Y-34960912D01*
X105790130Y-34711610D01*
X105649018Y-34480390D01*
X105649017Y-34480388D01*
X105475746Y-34272181D01*
X105370758Y-34178112D01*
X105274002Y-34091418D01*
X105048090Y-33941956D01*
X105048086Y-33941954D01*
X104802822Y-33826978D01*
X104543437Y-33748941D01*
X104543431Y-33748940D01*
X104275439Y-33709500D01*
X104072369Y-33709500D01*
X104072366Y-33709500D01*
X103869843Y-33724322D01*
X103605449Y-33783219D01*
X103352441Y-33879986D01*
X103116223Y-34012559D01*
X102901825Y-34178109D01*
X102713813Y-34373120D01*
X102556201Y-34593420D01*
X102432342Y-34834329D01*
X102344881Y-35090695D01*
X102295680Y-35357066D01*
X102285787Y-35627764D01*
X97655500Y-35627764D01*
X97655500Y-31739500D01*
X97672113Y-31677500D01*
X97717500Y-31632113D01*
X97779500Y-31615500D01*
X162570500Y-31615500D01*
X162632500Y-31632113D01*
G37*
G04 #@! TD.AperFunction*
M02*
