%TF.GenerationSoftware,KiCad,Pcbnew,7.0.1-3b83917a11~172~ubuntu20.04.1*%
%TF.CreationDate,2023-04-20T11:00:41+02:00*%
%TF.ProjectId,aware,61776172-652e-46b6-9963-61645f706362,rev?*%
%TF.SameCoordinates,Original*%
%TF.FileFunction,Drillmap*%
%TF.FilePolarity,Positive*%
%FSLAX45Y45*%
G04 Gerber Fmt 4.5, Leading zero omitted, Abs format (unit mm)*
G04 Created by KiCad (PCBNEW 7.0.1-3b83917a11~172~ubuntu20.04.1) date 2023-04-20 11:00:41*
%MOMM*%
%LPD*%
G01*
G04 APERTURE LIST*
%ADD10C,0.100000*%
%ADD11C,0.200000*%
%ADD12C,0.320000*%
G04 APERTURE END LIST*
D10*
X9715500Y-3111500D02*
X16319500Y-3111500D01*
X16319500Y-10731500D01*
X9715500Y-10731500D01*
X9715500Y-3111500D01*
D11*
D12*
X10000000Y-8095000D02*
X10320000Y-8415000D01*
X10320000Y-8095000D02*
X10000000Y-8415000D01*
X10254000Y-3396000D02*
X10574000Y-3716000D01*
X10574000Y-3396000D02*
X10254000Y-3716000D01*
X15715000Y-3396000D02*
X16035000Y-3716000D01*
X16035000Y-3396000D02*
X15715000Y-3716000D01*
X15715000Y-10127000D02*
X16035000Y-10447000D01*
X16035000Y-10127000D02*
X15715000Y-10447000D01*
D11*
X9958119Y-11049024D02*
X9958119Y-10849024D01*
X9958119Y-10849024D02*
X10005738Y-10849024D01*
X10005738Y-10849024D02*
X10034310Y-10858548D01*
X10034310Y-10858548D02*
X10053357Y-10877595D01*
X10053357Y-10877595D02*
X10062881Y-10896643D01*
X10062881Y-10896643D02*
X10072405Y-10934738D01*
X10072405Y-10934738D02*
X10072405Y-10963310D01*
X10072405Y-10963310D02*
X10062881Y-11001405D01*
X10062881Y-11001405D02*
X10053357Y-11020452D01*
X10053357Y-11020452D02*
X10034310Y-11039500D01*
X10034310Y-11039500D02*
X10005738Y-11049024D01*
X10005738Y-11049024D02*
X9958119Y-11049024D01*
X10158119Y-11049024D02*
X10158119Y-10915690D01*
X10158119Y-10953786D02*
X10167643Y-10934738D01*
X10167643Y-10934738D02*
X10177167Y-10925214D01*
X10177167Y-10925214D02*
X10196214Y-10915690D01*
X10196214Y-10915690D02*
X10215262Y-10915690D01*
X10281929Y-11049024D02*
X10281929Y-10915690D01*
X10281929Y-10849024D02*
X10272405Y-10858548D01*
X10272405Y-10858548D02*
X10281929Y-10868071D01*
X10281929Y-10868071D02*
X10291452Y-10858548D01*
X10291452Y-10858548D02*
X10281929Y-10849024D01*
X10281929Y-10849024D02*
X10281929Y-10868071D01*
X10405738Y-11049024D02*
X10386690Y-11039500D01*
X10386690Y-11039500D02*
X10377167Y-11020452D01*
X10377167Y-11020452D02*
X10377167Y-10849024D01*
X10510500Y-11049024D02*
X10491452Y-11039500D01*
X10491452Y-11039500D02*
X10481929Y-11020452D01*
X10481929Y-11020452D02*
X10481929Y-10849024D01*
X10739071Y-11049024D02*
X10739071Y-10849024D01*
X10739071Y-10849024D02*
X10805738Y-10991881D01*
X10805738Y-10991881D02*
X10872405Y-10849024D01*
X10872405Y-10849024D02*
X10872405Y-11049024D01*
X11053357Y-11049024D02*
X11053357Y-10944262D01*
X11053357Y-10944262D02*
X11043833Y-10925214D01*
X11043833Y-10925214D02*
X11024786Y-10915690D01*
X11024786Y-10915690D02*
X10986690Y-10915690D01*
X10986690Y-10915690D02*
X10967643Y-10925214D01*
X11053357Y-11039500D02*
X11034310Y-11049024D01*
X11034310Y-11049024D02*
X10986690Y-11049024D01*
X10986690Y-11049024D02*
X10967643Y-11039500D01*
X10967643Y-11039500D02*
X10958119Y-11020452D01*
X10958119Y-11020452D02*
X10958119Y-11001405D01*
X10958119Y-11001405D02*
X10967643Y-10982357D01*
X10967643Y-10982357D02*
X10986690Y-10972833D01*
X10986690Y-10972833D02*
X11034310Y-10972833D01*
X11034310Y-10972833D02*
X11053357Y-10963310D01*
X11148595Y-10915690D02*
X11148595Y-11115690D01*
X11148595Y-10925214D02*
X11167643Y-10915690D01*
X11167643Y-10915690D02*
X11205738Y-10915690D01*
X11205738Y-10915690D02*
X11224786Y-10925214D01*
X11224786Y-10925214D02*
X11234309Y-10934738D01*
X11234309Y-10934738D02*
X11243833Y-10953786D01*
X11243833Y-10953786D02*
X11243833Y-11010929D01*
X11243833Y-11010929D02*
X11234309Y-11029976D01*
X11234309Y-11029976D02*
X11224786Y-11039500D01*
X11224786Y-11039500D02*
X11205738Y-11049024D01*
X11205738Y-11049024D02*
X11167643Y-11049024D01*
X11167643Y-11049024D02*
X11148595Y-11039500D01*
X11329548Y-11029976D02*
X11339071Y-11039500D01*
X11339071Y-11039500D02*
X11329548Y-11049024D01*
X11329548Y-11049024D02*
X11320024Y-11039500D01*
X11320024Y-11039500D02*
X11329548Y-11029976D01*
X11329548Y-11029976D02*
X11329548Y-11049024D01*
X11329548Y-10925214D02*
X11339071Y-10934738D01*
X11339071Y-10934738D02*
X11329548Y-10944262D01*
X11329548Y-10944262D02*
X11320024Y-10934738D01*
X11320024Y-10934738D02*
X11329548Y-10925214D01*
X11329548Y-10925214D02*
X11329548Y-10944262D01*
X9510500Y-11276500D02*
X9710500Y-11476500D01*
X9710500Y-11276500D02*
X9510500Y-11476500D01*
X9939071Y-11269024D02*
X10062881Y-11269024D01*
X10062881Y-11269024D02*
X9996214Y-11345214D01*
X9996214Y-11345214D02*
X10024786Y-11345214D01*
X10024786Y-11345214D02*
X10043833Y-11354738D01*
X10043833Y-11354738D02*
X10053357Y-11364262D01*
X10053357Y-11364262D02*
X10062881Y-11383309D01*
X10062881Y-11383309D02*
X10062881Y-11430928D01*
X10062881Y-11430928D02*
X10053357Y-11449976D01*
X10053357Y-11449976D02*
X10043833Y-11459500D01*
X10043833Y-11459500D02*
X10024786Y-11469024D01*
X10024786Y-11469024D02*
X9967643Y-11469024D01*
X9967643Y-11469024D02*
X9948595Y-11459500D01*
X9948595Y-11459500D02*
X9939071Y-11449976D01*
X10148595Y-11449976D02*
X10158119Y-11459500D01*
X10158119Y-11459500D02*
X10148595Y-11469024D01*
X10148595Y-11469024D02*
X10139071Y-11459500D01*
X10139071Y-11459500D02*
X10148595Y-11449976D01*
X10148595Y-11449976D02*
X10148595Y-11469024D01*
X10234310Y-11288071D02*
X10243833Y-11278548D01*
X10243833Y-11278548D02*
X10262881Y-11269024D01*
X10262881Y-11269024D02*
X10310500Y-11269024D01*
X10310500Y-11269024D02*
X10329548Y-11278548D01*
X10329548Y-11278548D02*
X10339071Y-11288071D01*
X10339071Y-11288071D02*
X10348595Y-11307119D01*
X10348595Y-11307119D02*
X10348595Y-11326167D01*
X10348595Y-11326167D02*
X10339071Y-11354738D01*
X10339071Y-11354738D02*
X10224786Y-11469024D01*
X10224786Y-11469024D02*
X10348595Y-11469024D01*
X10472405Y-11269024D02*
X10491452Y-11269024D01*
X10491452Y-11269024D02*
X10510500Y-11278548D01*
X10510500Y-11278548D02*
X10520024Y-11288071D01*
X10520024Y-11288071D02*
X10529548Y-11307119D01*
X10529548Y-11307119D02*
X10539071Y-11345214D01*
X10539071Y-11345214D02*
X10539071Y-11392833D01*
X10539071Y-11392833D02*
X10529548Y-11430928D01*
X10529548Y-11430928D02*
X10520024Y-11449976D01*
X10520024Y-11449976D02*
X10510500Y-11459500D01*
X10510500Y-11459500D02*
X10491452Y-11469024D01*
X10491452Y-11469024D02*
X10472405Y-11469024D01*
X10472405Y-11469024D02*
X10453357Y-11459500D01*
X10453357Y-11459500D02*
X10443833Y-11449976D01*
X10443833Y-11449976D02*
X10434310Y-11430928D01*
X10434310Y-11430928D02*
X10424786Y-11392833D01*
X10424786Y-11392833D02*
X10424786Y-11345214D01*
X10424786Y-11345214D02*
X10434310Y-11307119D01*
X10434310Y-11307119D02*
X10443833Y-11288071D01*
X10443833Y-11288071D02*
X10453357Y-11278548D01*
X10453357Y-11278548D02*
X10472405Y-11269024D01*
X10662881Y-11269024D02*
X10681929Y-11269024D01*
X10681929Y-11269024D02*
X10700976Y-11278548D01*
X10700976Y-11278548D02*
X10710500Y-11288071D01*
X10710500Y-11288071D02*
X10720024Y-11307119D01*
X10720024Y-11307119D02*
X10729548Y-11345214D01*
X10729548Y-11345214D02*
X10729548Y-11392833D01*
X10729548Y-11392833D02*
X10720024Y-11430928D01*
X10720024Y-11430928D02*
X10710500Y-11449976D01*
X10710500Y-11449976D02*
X10700976Y-11459500D01*
X10700976Y-11459500D02*
X10681929Y-11469024D01*
X10681929Y-11469024D02*
X10662881Y-11469024D01*
X10662881Y-11469024D02*
X10643833Y-11459500D01*
X10643833Y-11459500D02*
X10634310Y-11449976D01*
X10634310Y-11449976D02*
X10624786Y-11430928D01*
X10624786Y-11430928D02*
X10615262Y-11392833D01*
X10615262Y-11392833D02*
X10615262Y-11345214D01*
X10615262Y-11345214D02*
X10624786Y-11307119D01*
X10624786Y-11307119D02*
X10634310Y-11288071D01*
X10634310Y-11288071D02*
X10643833Y-11278548D01*
X10643833Y-11278548D02*
X10662881Y-11269024D01*
X10815262Y-11469024D02*
X10815262Y-11335690D01*
X10815262Y-11354738D02*
X10824786Y-11345214D01*
X10824786Y-11345214D02*
X10843833Y-11335690D01*
X10843833Y-11335690D02*
X10872405Y-11335690D01*
X10872405Y-11335690D02*
X10891452Y-11345214D01*
X10891452Y-11345214D02*
X10900976Y-11364262D01*
X10900976Y-11364262D02*
X10900976Y-11469024D01*
X10900976Y-11364262D02*
X10910500Y-11345214D01*
X10910500Y-11345214D02*
X10929548Y-11335690D01*
X10929548Y-11335690D02*
X10958119Y-11335690D01*
X10958119Y-11335690D02*
X10977167Y-11345214D01*
X10977167Y-11345214D02*
X10986691Y-11364262D01*
X10986691Y-11364262D02*
X10986691Y-11469024D01*
X11081929Y-11469024D02*
X11081929Y-11335690D01*
X11081929Y-11354738D02*
X11091452Y-11345214D01*
X11091452Y-11345214D02*
X11110500Y-11335690D01*
X11110500Y-11335690D02*
X11139072Y-11335690D01*
X11139072Y-11335690D02*
X11158119Y-11345214D01*
X11158119Y-11345214D02*
X11167643Y-11364262D01*
X11167643Y-11364262D02*
X11167643Y-11469024D01*
X11167643Y-11364262D02*
X11177167Y-11345214D01*
X11177167Y-11345214D02*
X11196214Y-11335690D01*
X11196214Y-11335690D02*
X11224786Y-11335690D01*
X11224786Y-11335690D02*
X11243833Y-11345214D01*
X11243833Y-11345214D02*
X11253357Y-11364262D01*
X11253357Y-11364262D02*
X11253357Y-11469024D01*
X11643833Y-11259500D02*
X11472405Y-11516643D01*
X11900976Y-11269024D02*
X11920024Y-11269024D01*
X11920024Y-11269024D02*
X11939072Y-11278548D01*
X11939072Y-11278548D02*
X11948595Y-11288071D01*
X11948595Y-11288071D02*
X11958119Y-11307119D01*
X11958119Y-11307119D02*
X11967643Y-11345214D01*
X11967643Y-11345214D02*
X11967643Y-11392833D01*
X11967643Y-11392833D02*
X11958119Y-11430928D01*
X11958119Y-11430928D02*
X11948595Y-11449976D01*
X11948595Y-11449976D02*
X11939072Y-11459500D01*
X11939072Y-11459500D02*
X11920024Y-11469024D01*
X11920024Y-11469024D02*
X11900976Y-11469024D01*
X11900976Y-11469024D02*
X11881929Y-11459500D01*
X11881929Y-11459500D02*
X11872405Y-11449976D01*
X11872405Y-11449976D02*
X11862881Y-11430928D01*
X11862881Y-11430928D02*
X11853357Y-11392833D01*
X11853357Y-11392833D02*
X11853357Y-11345214D01*
X11853357Y-11345214D02*
X11862881Y-11307119D01*
X11862881Y-11307119D02*
X11872405Y-11288071D01*
X11872405Y-11288071D02*
X11881929Y-11278548D01*
X11881929Y-11278548D02*
X11900976Y-11269024D01*
X12053357Y-11449976D02*
X12062881Y-11459500D01*
X12062881Y-11459500D02*
X12053357Y-11469024D01*
X12053357Y-11469024D02*
X12043833Y-11459500D01*
X12043833Y-11459500D02*
X12053357Y-11449976D01*
X12053357Y-11449976D02*
X12053357Y-11469024D01*
X12253357Y-11469024D02*
X12139072Y-11469024D01*
X12196214Y-11469024D02*
X12196214Y-11269024D01*
X12196214Y-11269024D02*
X12177167Y-11297595D01*
X12177167Y-11297595D02*
X12158119Y-11316643D01*
X12158119Y-11316643D02*
X12139072Y-11326167D01*
X12329548Y-11288071D02*
X12339072Y-11278548D01*
X12339072Y-11278548D02*
X12358119Y-11269024D01*
X12358119Y-11269024D02*
X12405738Y-11269024D01*
X12405738Y-11269024D02*
X12424786Y-11278548D01*
X12424786Y-11278548D02*
X12434310Y-11288071D01*
X12434310Y-11288071D02*
X12443833Y-11307119D01*
X12443833Y-11307119D02*
X12443833Y-11326167D01*
X12443833Y-11326167D02*
X12434310Y-11354738D01*
X12434310Y-11354738D02*
X12320024Y-11469024D01*
X12320024Y-11469024D02*
X12443833Y-11469024D01*
X12615262Y-11269024D02*
X12577167Y-11269024D01*
X12577167Y-11269024D02*
X12558119Y-11278548D01*
X12558119Y-11278548D02*
X12548595Y-11288071D01*
X12548595Y-11288071D02*
X12529548Y-11316643D01*
X12529548Y-11316643D02*
X12520024Y-11354738D01*
X12520024Y-11354738D02*
X12520024Y-11430928D01*
X12520024Y-11430928D02*
X12529548Y-11449976D01*
X12529548Y-11449976D02*
X12539072Y-11459500D01*
X12539072Y-11459500D02*
X12558119Y-11469024D01*
X12558119Y-11469024D02*
X12596214Y-11469024D01*
X12596214Y-11469024D02*
X12615262Y-11459500D01*
X12615262Y-11459500D02*
X12624786Y-11449976D01*
X12624786Y-11449976D02*
X12634310Y-11430928D01*
X12634310Y-11430928D02*
X12634310Y-11383309D01*
X12634310Y-11383309D02*
X12624786Y-11364262D01*
X12624786Y-11364262D02*
X12615262Y-11354738D01*
X12615262Y-11354738D02*
X12596214Y-11345214D01*
X12596214Y-11345214D02*
X12558119Y-11345214D01*
X12558119Y-11345214D02*
X12539072Y-11354738D01*
X12539072Y-11354738D02*
X12529548Y-11364262D01*
X12529548Y-11364262D02*
X12520024Y-11383309D01*
X12758119Y-11269024D02*
X12777167Y-11269024D01*
X12777167Y-11269024D02*
X12796214Y-11278548D01*
X12796214Y-11278548D02*
X12805738Y-11288071D01*
X12805738Y-11288071D02*
X12815262Y-11307119D01*
X12815262Y-11307119D02*
X12824786Y-11345214D01*
X12824786Y-11345214D02*
X12824786Y-11392833D01*
X12824786Y-11392833D02*
X12815262Y-11430928D01*
X12815262Y-11430928D02*
X12805738Y-11449976D01*
X12805738Y-11449976D02*
X12796214Y-11459500D01*
X12796214Y-11459500D02*
X12777167Y-11469024D01*
X12777167Y-11469024D02*
X12758119Y-11469024D01*
X12758119Y-11469024D02*
X12739072Y-11459500D01*
X12739072Y-11459500D02*
X12729548Y-11449976D01*
X12729548Y-11449976D02*
X12720024Y-11430928D01*
X12720024Y-11430928D02*
X12710500Y-11392833D01*
X12710500Y-11392833D02*
X12710500Y-11345214D01*
X12710500Y-11345214D02*
X12720024Y-11307119D01*
X12720024Y-11307119D02*
X12729548Y-11288071D01*
X12729548Y-11288071D02*
X12739072Y-11278548D01*
X12739072Y-11278548D02*
X12758119Y-11269024D01*
X12900976Y-11269024D02*
X12900976Y-11307119D01*
X12977167Y-11269024D02*
X12977167Y-11307119D01*
X13272405Y-11545214D02*
X13262881Y-11535690D01*
X13262881Y-11535690D02*
X13243834Y-11507119D01*
X13243834Y-11507119D02*
X13234310Y-11488071D01*
X13234310Y-11488071D02*
X13224786Y-11459500D01*
X13224786Y-11459500D02*
X13215262Y-11411881D01*
X13215262Y-11411881D02*
X13215262Y-11373786D01*
X13215262Y-11373786D02*
X13224786Y-11326167D01*
X13224786Y-11326167D02*
X13234310Y-11297595D01*
X13234310Y-11297595D02*
X13243834Y-11278548D01*
X13243834Y-11278548D02*
X13262881Y-11249976D01*
X13262881Y-11249976D02*
X13272405Y-11240452D01*
X13434310Y-11335690D02*
X13434310Y-11469024D01*
X13386691Y-11259500D02*
X13339072Y-11402357D01*
X13339072Y-11402357D02*
X13462881Y-11402357D01*
X13691453Y-11469024D02*
X13691453Y-11269024D01*
X13777167Y-11469024D02*
X13777167Y-11364262D01*
X13777167Y-11364262D02*
X13767643Y-11345214D01*
X13767643Y-11345214D02*
X13748596Y-11335690D01*
X13748596Y-11335690D02*
X13720024Y-11335690D01*
X13720024Y-11335690D02*
X13700976Y-11345214D01*
X13700976Y-11345214D02*
X13691453Y-11354738D01*
X13900976Y-11469024D02*
X13881929Y-11459500D01*
X13881929Y-11459500D02*
X13872405Y-11449976D01*
X13872405Y-11449976D02*
X13862881Y-11430928D01*
X13862881Y-11430928D02*
X13862881Y-11373786D01*
X13862881Y-11373786D02*
X13872405Y-11354738D01*
X13872405Y-11354738D02*
X13881929Y-11345214D01*
X13881929Y-11345214D02*
X13900976Y-11335690D01*
X13900976Y-11335690D02*
X13929548Y-11335690D01*
X13929548Y-11335690D02*
X13948596Y-11345214D01*
X13948596Y-11345214D02*
X13958119Y-11354738D01*
X13958119Y-11354738D02*
X13967643Y-11373786D01*
X13967643Y-11373786D02*
X13967643Y-11430928D01*
X13967643Y-11430928D02*
X13958119Y-11449976D01*
X13958119Y-11449976D02*
X13948596Y-11459500D01*
X13948596Y-11459500D02*
X13929548Y-11469024D01*
X13929548Y-11469024D02*
X13900976Y-11469024D01*
X14081929Y-11469024D02*
X14062881Y-11459500D01*
X14062881Y-11459500D02*
X14053357Y-11440452D01*
X14053357Y-11440452D02*
X14053357Y-11269024D01*
X14234310Y-11459500D02*
X14215262Y-11469024D01*
X14215262Y-11469024D02*
X14177167Y-11469024D01*
X14177167Y-11469024D02*
X14158119Y-11459500D01*
X14158119Y-11459500D02*
X14148596Y-11440452D01*
X14148596Y-11440452D02*
X14148596Y-11364262D01*
X14148596Y-11364262D02*
X14158119Y-11345214D01*
X14158119Y-11345214D02*
X14177167Y-11335690D01*
X14177167Y-11335690D02*
X14215262Y-11335690D01*
X14215262Y-11335690D02*
X14234310Y-11345214D01*
X14234310Y-11345214D02*
X14243834Y-11364262D01*
X14243834Y-11364262D02*
X14243834Y-11383309D01*
X14243834Y-11383309D02*
X14148596Y-11402357D01*
X14320024Y-11459500D02*
X14339072Y-11469024D01*
X14339072Y-11469024D02*
X14377167Y-11469024D01*
X14377167Y-11469024D02*
X14396215Y-11459500D01*
X14396215Y-11459500D02*
X14405738Y-11440452D01*
X14405738Y-11440452D02*
X14405738Y-11430928D01*
X14405738Y-11430928D02*
X14396215Y-11411881D01*
X14396215Y-11411881D02*
X14377167Y-11402357D01*
X14377167Y-11402357D02*
X14348596Y-11402357D01*
X14348596Y-11402357D02*
X14329548Y-11392833D01*
X14329548Y-11392833D02*
X14320024Y-11373786D01*
X14320024Y-11373786D02*
X14320024Y-11364262D01*
X14320024Y-11364262D02*
X14329548Y-11345214D01*
X14329548Y-11345214D02*
X14348596Y-11335690D01*
X14348596Y-11335690D02*
X14377167Y-11335690D01*
X14377167Y-11335690D02*
X14396215Y-11345214D01*
X14472405Y-11545214D02*
X14481929Y-11535690D01*
X14481929Y-11535690D02*
X14500977Y-11507119D01*
X14500977Y-11507119D02*
X14510500Y-11488071D01*
X14510500Y-11488071D02*
X14520024Y-11459500D01*
X14520024Y-11459500D02*
X14529548Y-11411881D01*
X14529548Y-11411881D02*
X14529548Y-11373786D01*
X14529548Y-11373786D02*
X14520024Y-11326167D01*
X14520024Y-11326167D02*
X14510500Y-11297595D01*
X14510500Y-11297595D02*
X14500977Y-11278548D01*
X14500977Y-11278548D02*
X14481929Y-11249976D01*
X14481929Y-11249976D02*
X14472405Y-11240452D01*
X14834310Y-11545214D02*
X14824786Y-11535690D01*
X14824786Y-11535690D02*
X14805738Y-11507119D01*
X14805738Y-11507119D02*
X14796215Y-11488071D01*
X14796215Y-11488071D02*
X14786691Y-11459500D01*
X14786691Y-11459500D02*
X14777167Y-11411881D01*
X14777167Y-11411881D02*
X14777167Y-11373786D01*
X14777167Y-11373786D02*
X14786691Y-11326167D01*
X14786691Y-11326167D02*
X14796215Y-11297595D01*
X14796215Y-11297595D02*
X14805738Y-11278548D01*
X14805738Y-11278548D02*
X14824786Y-11249976D01*
X14824786Y-11249976D02*
X14834310Y-11240452D01*
X14910500Y-11335690D02*
X14910500Y-11469024D01*
X14910500Y-11354738D02*
X14920024Y-11345214D01*
X14920024Y-11345214D02*
X14939072Y-11335690D01*
X14939072Y-11335690D02*
X14967643Y-11335690D01*
X14967643Y-11335690D02*
X14986691Y-11345214D01*
X14986691Y-11345214D02*
X14996215Y-11364262D01*
X14996215Y-11364262D02*
X14996215Y-11469024D01*
X15120024Y-11469024D02*
X15100977Y-11459500D01*
X15100977Y-11459500D02*
X15091453Y-11449976D01*
X15091453Y-11449976D02*
X15081929Y-11430928D01*
X15081929Y-11430928D02*
X15081929Y-11373786D01*
X15081929Y-11373786D02*
X15091453Y-11354738D01*
X15091453Y-11354738D02*
X15100977Y-11345214D01*
X15100977Y-11345214D02*
X15120024Y-11335690D01*
X15120024Y-11335690D02*
X15148596Y-11335690D01*
X15148596Y-11335690D02*
X15167643Y-11345214D01*
X15167643Y-11345214D02*
X15177167Y-11354738D01*
X15177167Y-11354738D02*
X15186691Y-11373786D01*
X15186691Y-11373786D02*
X15186691Y-11430928D01*
X15186691Y-11430928D02*
X15177167Y-11449976D01*
X15177167Y-11449976D02*
X15167643Y-11459500D01*
X15167643Y-11459500D02*
X15148596Y-11469024D01*
X15148596Y-11469024D02*
X15120024Y-11469024D01*
X15243834Y-11335690D02*
X15320024Y-11335690D01*
X15272405Y-11269024D02*
X15272405Y-11440452D01*
X15272405Y-11440452D02*
X15281929Y-11459500D01*
X15281929Y-11459500D02*
X15300977Y-11469024D01*
X15300977Y-11469024D02*
X15320024Y-11469024D01*
X15539072Y-11335690D02*
X15539072Y-11535690D01*
X15539072Y-11345214D02*
X15558119Y-11335690D01*
X15558119Y-11335690D02*
X15596215Y-11335690D01*
X15596215Y-11335690D02*
X15615262Y-11345214D01*
X15615262Y-11345214D02*
X15624786Y-11354738D01*
X15624786Y-11354738D02*
X15634310Y-11373786D01*
X15634310Y-11373786D02*
X15634310Y-11430928D01*
X15634310Y-11430928D02*
X15624786Y-11449976D01*
X15624786Y-11449976D02*
X15615262Y-11459500D01*
X15615262Y-11459500D02*
X15596215Y-11469024D01*
X15596215Y-11469024D02*
X15558119Y-11469024D01*
X15558119Y-11469024D02*
X15539072Y-11459500D01*
X15748596Y-11469024D02*
X15729548Y-11459500D01*
X15729548Y-11459500D02*
X15720024Y-11440452D01*
X15720024Y-11440452D02*
X15720024Y-11269024D01*
X15910500Y-11469024D02*
X15910500Y-11364262D01*
X15910500Y-11364262D02*
X15900977Y-11345214D01*
X15900977Y-11345214D02*
X15881929Y-11335690D01*
X15881929Y-11335690D02*
X15843834Y-11335690D01*
X15843834Y-11335690D02*
X15824786Y-11345214D01*
X15910500Y-11459500D02*
X15891453Y-11469024D01*
X15891453Y-11469024D02*
X15843834Y-11469024D01*
X15843834Y-11469024D02*
X15824786Y-11459500D01*
X15824786Y-11459500D02*
X15815262Y-11440452D01*
X15815262Y-11440452D02*
X15815262Y-11421405D01*
X15815262Y-11421405D02*
X15824786Y-11402357D01*
X15824786Y-11402357D02*
X15843834Y-11392833D01*
X15843834Y-11392833D02*
X15891453Y-11392833D01*
X15891453Y-11392833D02*
X15910500Y-11383309D01*
X15977167Y-11335690D02*
X16053358Y-11335690D01*
X16005739Y-11269024D02*
X16005739Y-11440452D01*
X16005739Y-11440452D02*
X16015262Y-11459500D01*
X16015262Y-11459500D02*
X16034310Y-11469024D01*
X16034310Y-11469024D02*
X16053358Y-11469024D01*
X16196215Y-11459500D02*
X16177167Y-11469024D01*
X16177167Y-11469024D02*
X16139072Y-11469024D01*
X16139072Y-11469024D02*
X16120024Y-11459500D01*
X16120024Y-11459500D02*
X16110500Y-11440452D01*
X16110500Y-11440452D02*
X16110500Y-11364262D01*
X16110500Y-11364262D02*
X16120024Y-11345214D01*
X16120024Y-11345214D02*
X16139072Y-11335690D01*
X16139072Y-11335690D02*
X16177167Y-11335690D01*
X16177167Y-11335690D02*
X16196215Y-11345214D01*
X16196215Y-11345214D02*
X16205739Y-11364262D01*
X16205739Y-11364262D02*
X16205739Y-11383309D01*
X16205739Y-11383309D02*
X16110500Y-11402357D01*
X16377167Y-11469024D02*
X16377167Y-11269024D01*
X16377167Y-11459500D02*
X16358120Y-11469024D01*
X16358120Y-11469024D02*
X16320024Y-11469024D01*
X16320024Y-11469024D02*
X16300977Y-11459500D01*
X16300977Y-11459500D02*
X16291453Y-11449976D01*
X16291453Y-11449976D02*
X16281929Y-11430928D01*
X16281929Y-11430928D02*
X16281929Y-11373786D01*
X16281929Y-11373786D02*
X16291453Y-11354738D01*
X16291453Y-11354738D02*
X16300977Y-11345214D01*
X16300977Y-11345214D02*
X16320024Y-11335690D01*
X16320024Y-11335690D02*
X16358120Y-11335690D01*
X16358120Y-11335690D02*
X16377167Y-11345214D01*
X16453358Y-11545214D02*
X16462881Y-11535690D01*
X16462881Y-11535690D02*
X16481929Y-11507119D01*
X16481929Y-11507119D02*
X16491453Y-11488071D01*
X16491453Y-11488071D02*
X16500977Y-11459500D01*
X16500977Y-11459500D02*
X16510500Y-11411881D01*
X16510500Y-11411881D02*
X16510500Y-11373786D01*
X16510500Y-11373786D02*
X16500977Y-11326167D01*
X16500977Y-11326167D02*
X16491453Y-11297595D01*
X16491453Y-11297595D02*
X16481929Y-11278548D01*
X16481929Y-11278548D02*
X16462881Y-11249976D01*
X16462881Y-11249976D02*
X16453358Y-11240452D01*
M02*
