G04 #@! TF.GenerationSoftware,KiCad,Pcbnew,7.0.1-3b83917a11~172~ubuntu20.04.1*
G04 #@! TF.CreationDate,2023-04-20T11:00:22+02:00*
G04 #@! TF.ProjectId,aware,61776172-652e-46b6-9963-61645f706362,rev?*
G04 #@! TF.SameCoordinates,Original*
G04 #@! TF.FileFunction,Legend,Top*
G04 #@! TF.FilePolarity,Positive*
%FSLAX46Y46*%
G04 Gerber Fmt 4.6, Leading zero omitted, Abs format (unit mm)*
G04 Created by KiCad (PCBNEW 7.0.1-3b83917a11~172~ubuntu20.04.1) date 2023-04-20 11:00:22*
%MOMM*%
%LPD*%
G01*
G04 APERTURE LIST*
G04 Aperture macros list*
%AMRoundRect*
0 Rectangle with rounded corners*
0 $1 Rounding radius*
0 $2 $3 $4 $5 $6 $7 $8 $9 X,Y pos of 4 corners*
0 Add a 4 corners polygon primitive as box body*
4,1,4,$2,$3,$4,$5,$6,$7,$8,$9,$2,$3,0*
0 Add four circle primitives for the rounded corners*
1,1,$1+$1,$2,$3*
1,1,$1+$1,$4,$5*
1,1,$1+$1,$6,$7*
1,1,$1+$1,$8,$9*
0 Add four rect primitives between the rounded corners*
20,1,$1+$1,$2,$3,$4,$5,0*
20,1,$1+$1,$4,$5,$6,$7,0*
20,1,$1+$1,$6,$7,$8,$9,0*
20,1,$1+$1,$8,$9,$2,$3,0*%
G04 Aperture macros list end*
%ADD10C,0.300000*%
%ADD11C,0.150000*%
%ADD12C,0.100000*%
%ADD13C,0.120000*%
%ADD14C,1.600000*%
%ADD15O,1.600000X1.600000*%
%ADD16R,1.600000X1.600000*%
%ADD17C,3.200000*%
%ADD18R,1.700000X1.700000*%
%ADD19O,1.700000X1.700000*%
%ADD20C,1.524000*%
%ADD21RoundRect,0.250000X-0.600000X-0.750000X0.600000X-0.750000X0.600000X0.750000X-0.600000X0.750000X0*%
%ADD22O,1.700000X2.000000*%
%ADD23R,1.500000X1.500000*%
%ADD24C,1.500000*%
%ADD25RoundRect,0.250000X-0.600000X-0.725000X0.600000X-0.725000X0.600000X0.725000X-0.600000X0.725000X0*%
%ADD26O,1.700000X1.950000*%
G04 APERTURE END LIST*
D10*
X134215142Y-107004428D02*
X134215142Y-105504428D01*
X134215142Y-106075857D02*
X134358000Y-106004428D01*
X134358000Y-106004428D02*
X134643714Y-106004428D01*
X134643714Y-106004428D02*
X134786571Y-106075857D01*
X134786571Y-106075857D02*
X134858000Y-106147285D01*
X134858000Y-106147285D02*
X134929428Y-106290142D01*
X134929428Y-106290142D02*
X134929428Y-106718714D01*
X134929428Y-106718714D02*
X134858000Y-106861571D01*
X134858000Y-106861571D02*
X134786571Y-106933000D01*
X134786571Y-106933000D02*
X134643714Y-107004428D01*
X134643714Y-107004428D02*
X134358000Y-107004428D01*
X134358000Y-107004428D02*
X134215142Y-106933000D01*
X136215143Y-107004428D02*
X136215143Y-106218714D01*
X136215143Y-106218714D02*
X136143714Y-106075857D01*
X136143714Y-106075857D02*
X136000857Y-106004428D01*
X136000857Y-106004428D02*
X135715143Y-106004428D01*
X135715143Y-106004428D02*
X135572285Y-106075857D01*
X136215143Y-106933000D02*
X136072285Y-107004428D01*
X136072285Y-107004428D02*
X135715143Y-107004428D01*
X135715143Y-107004428D02*
X135572285Y-106933000D01*
X135572285Y-106933000D02*
X135500857Y-106790142D01*
X135500857Y-106790142D02*
X135500857Y-106647285D01*
X135500857Y-106647285D02*
X135572285Y-106504428D01*
X135572285Y-106504428D02*
X135715143Y-106433000D01*
X135715143Y-106433000D02*
X136072285Y-106433000D01*
X136072285Y-106433000D02*
X136215143Y-106361571D01*
X136715143Y-106004428D02*
X137286571Y-106004428D01*
X136929428Y-105504428D02*
X136929428Y-106790142D01*
X136929428Y-106790142D02*
X137000857Y-106933000D01*
X137000857Y-106933000D02*
X137143714Y-107004428D01*
X137143714Y-107004428D02*
X137286571Y-107004428D01*
X137572286Y-106004428D02*
X138143714Y-106004428D01*
X137786571Y-105504428D02*
X137786571Y-106790142D01*
X137786571Y-106790142D02*
X137858000Y-106933000D01*
X137858000Y-106933000D02*
X138000857Y-107004428D01*
X138000857Y-107004428D02*
X138143714Y-107004428D01*
X157987000Y-75660285D02*
X158058428Y-75517428D01*
X158058428Y-75517428D02*
X158058428Y-75231714D01*
X158058428Y-75231714D02*
X157987000Y-75088857D01*
X157987000Y-75088857D02*
X157844142Y-75017428D01*
X157844142Y-75017428D02*
X157772714Y-75017428D01*
X157772714Y-75017428D02*
X157629857Y-75088857D01*
X157629857Y-75088857D02*
X157558428Y-75231714D01*
X157558428Y-75231714D02*
X157558428Y-75446000D01*
X157558428Y-75446000D02*
X157487000Y-75588857D01*
X157487000Y-75588857D02*
X157344142Y-75660285D01*
X157344142Y-75660285D02*
X157272714Y-75660285D01*
X157272714Y-75660285D02*
X157129857Y-75588857D01*
X157129857Y-75588857D02*
X157058428Y-75446000D01*
X157058428Y-75446000D02*
X157058428Y-75231714D01*
X157058428Y-75231714D02*
X157129857Y-75088857D01*
X157987000Y-73803142D02*
X158058428Y-73945999D01*
X158058428Y-73945999D02*
X158058428Y-74231714D01*
X158058428Y-74231714D02*
X157987000Y-74374571D01*
X157987000Y-74374571D02*
X157844142Y-74445999D01*
X157844142Y-74445999D02*
X157272714Y-74445999D01*
X157272714Y-74445999D02*
X157129857Y-74374571D01*
X157129857Y-74374571D02*
X157058428Y-74231714D01*
X157058428Y-74231714D02*
X157058428Y-73945999D01*
X157058428Y-73945999D02*
X157129857Y-73803142D01*
X157129857Y-73803142D02*
X157272714Y-73731714D01*
X157272714Y-73731714D02*
X157415571Y-73731714D01*
X157415571Y-73731714D02*
X157558428Y-74445999D01*
X158058428Y-73088857D02*
X157058428Y-73088857D01*
X157344142Y-73088857D02*
X157201285Y-73017428D01*
X157201285Y-73017428D02*
X157129857Y-72946000D01*
X157129857Y-72946000D02*
X157058428Y-72803142D01*
X157058428Y-72803142D02*
X157058428Y-72660285D01*
X157058428Y-72303143D02*
X158058428Y-71946000D01*
X158058428Y-71946000D02*
X157058428Y-71588857D01*
X158058428Y-70803143D02*
X157987000Y-70946000D01*
X157987000Y-70946000D02*
X157915571Y-71017429D01*
X157915571Y-71017429D02*
X157772714Y-71088857D01*
X157772714Y-71088857D02*
X157344142Y-71088857D01*
X157344142Y-71088857D02*
X157201285Y-71017429D01*
X157201285Y-71017429D02*
X157129857Y-70946000D01*
X157129857Y-70946000D02*
X157058428Y-70803143D01*
X157058428Y-70803143D02*
X157058428Y-70588857D01*
X157058428Y-70588857D02*
X157129857Y-70446000D01*
X157129857Y-70446000D02*
X157201285Y-70374572D01*
X157201285Y-70374572D02*
X157344142Y-70303143D01*
X157344142Y-70303143D02*
X157772714Y-70303143D01*
X157772714Y-70303143D02*
X157915571Y-70374572D01*
X157915571Y-70374572D02*
X157987000Y-70446000D01*
X157987000Y-70446000D02*
X158058428Y-70588857D01*
X158058428Y-70588857D02*
X158058428Y-70803143D01*
D11*
X161516904Y-96964523D02*
X161516904Y-96488333D01*
X161802619Y-97059761D02*
X160802619Y-96726428D01*
X160802619Y-96726428D02*
X161802619Y-96393095D01*
X160802619Y-96154999D02*
X161802619Y-95916904D01*
X161802619Y-95916904D02*
X161088333Y-95726428D01*
X161088333Y-95726428D02*
X161802619Y-95535952D01*
X161802619Y-95535952D02*
X160802619Y-95297857D01*
X161516904Y-94964523D02*
X161516904Y-94488333D01*
X161802619Y-95059761D02*
X160802619Y-94726428D01*
X160802619Y-94726428D02*
X161802619Y-94393095D01*
X161802619Y-93488333D02*
X161326428Y-93821666D01*
X161802619Y-94059761D02*
X160802619Y-94059761D01*
X160802619Y-94059761D02*
X160802619Y-93678809D01*
X160802619Y-93678809D02*
X160850238Y-93583571D01*
X160850238Y-93583571D02*
X160897857Y-93535952D01*
X160897857Y-93535952D02*
X160993095Y-93488333D01*
X160993095Y-93488333D02*
X161135952Y-93488333D01*
X161135952Y-93488333D02*
X161231190Y-93535952D01*
X161231190Y-93535952D02*
X161278809Y-93583571D01*
X161278809Y-93583571D02*
X161326428Y-93678809D01*
X161326428Y-93678809D02*
X161326428Y-94059761D01*
X161278809Y-93059761D02*
X161278809Y-92726428D01*
X161802619Y-92583571D02*
X161802619Y-93059761D01*
X161802619Y-93059761D02*
X160802619Y-93059761D01*
X160802619Y-93059761D02*
X160802619Y-92583571D01*
X161897857Y-92393095D02*
X161897857Y-91631190D01*
X161802619Y-91393094D02*
X160802619Y-91393094D01*
X160802619Y-91393094D02*
X161516904Y-91059761D01*
X161516904Y-91059761D02*
X160802619Y-90726428D01*
X160802619Y-90726428D02*
X161802619Y-90726428D01*
X161516904Y-90297856D02*
X161516904Y-89821666D01*
X161802619Y-90393094D02*
X160802619Y-90059761D01*
X160802619Y-90059761D02*
X161802619Y-89726428D01*
X161802619Y-89393094D02*
X160802619Y-89393094D01*
X161802619Y-88916904D02*
X160802619Y-88916904D01*
X160802619Y-88916904D02*
X161802619Y-88345476D01*
X161802619Y-88345476D02*
X160802619Y-88345476D01*
X161278809Y-87535952D02*
X161326428Y-87393095D01*
X161326428Y-87393095D02*
X161374047Y-87345476D01*
X161374047Y-87345476D02*
X161469285Y-87297857D01*
X161469285Y-87297857D02*
X161612142Y-87297857D01*
X161612142Y-87297857D02*
X161707380Y-87345476D01*
X161707380Y-87345476D02*
X161755000Y-87393095D01*
X161755000Y-87393095D02*
X161802619Y-87488333D01*
X161802619Y-87488333D02*
X161802619Y-87869285D01*
X161802619Y-87869285D02*
X160802619Y-87869285D01*
X160802619Y-87869285D02*
X160802619Y-87535952D01*
X160802619Y-87535952D02*
X160850238Y-87440714D01*
X160850238Y-87440714D02*
X160897857Y-87393095D01*
X160897857Y-87393095D02*
X160993095Y-87345476D01*
X160993095Y-87345476D02*
X161088333Y-87345476D01*
X161088333Y-87345476D02*
X161183571Y-87393095D01*
X161183571Y-87393095D02*
X161231190Y-87440714D01*
X161231190Y-87440714D02*
X161278809Y-87535952D01*
X161278809Y-87535952D02*
X161278809Y-87869285D01*
X160802619Y-86678809D02*
X160802619Y-86488333D01*
X160802619Y-86488333D02*
X160850238Y-86393095D01*
X160850238Y-86393095D02*
X160945476Y-86297857D01*
X160945476Y-86297857D02*
X161135952Y-86250238D01*
X161135952Y-86250238D02*
X161469285Y-86250238D01*
X161469285Y-86250238D02*
X161659761Y-86297857D01*
X161659761Y-86297857D02*
X161755000Y-86393095D01*
X161755000Y-86393095D02*
X161802619Y-86488333D01*
X161802619Y-86488333D02*
X161802619Y-86678809D01*
X161802619Y-86678809D02*
X161755000Y-86774047D01*
X161755000Y-86774047D02*
X161659761Y-86869285D01*
X161659761Y-86869285D02*
X161469285Y-86916904D01*
X161469285Y-86916904D02*
X161135952Y-86916904D01*
X161135952Y-86916904D02*
X160945476Y-86869285D01*
X160945476Y-86869285D02*
X160850238Y-86774047D01*
X160850238Y-86774047D02*
X160802619Y-86678809D01*
X161516904Y-85869285D02*
X161516904Y-85393095D01*
X161802619Y-85964523D02*
X160802619Y-85631190D01*
X160802619Y-85631190D02*
X161802619Y-85297857D01*
X161802619Y-84393095D02*
X161326428Y-84726428D01*
X161802619Y-84964523D02*
X160802619Y-84964523D01*
X160802619Y-84964523D02*
X160802619Y-84583571D01*
X160802619Y-84583571D02*
X160850238Y-84488333D01*
X160850238Y-84488333D02*
X160897857Y-84440714D01*
X160897857Y-84440714D02*
X160993095Y-84393095D01*
X160993095Y-84393095D02*
X161135952Y-84393095D01*
X161135952Y-84393095D02*
X161231190Y-84440714D01*
X161231190Y-84440714D02*
X161278809Y-84488333D01*
X161278809Y-84488333D02*
X161326428Y-84583571D01*
X161326428Y-84583571D02*
X161326428Y-84964523D01*
X161802619Y-83964523D02*
X160802619Y-83964523D01*
X160802619Y-83964523D02*
X160802619Y-83726428D01*
X160802619Y-83726428D02*
X160850238Y-83583571D01*
X160850238Y-83583571D02*
X160945476Y-83488333D01*
X160945476Y-83488333D02*
X161040714Y-83440714D01*
X161040714Y-83440714D02*
X161231190Y-83393095D01*
X161231190Y-83393095D02*
X161374047Y-83393095D01*
X161374047Y-83393095D02*
X161564523Y-83440714D01*
X161564523Y-83440714D02*
X161659761Y-83488333D01*
X161659761Y-83488333D02*
X161755000Y-83583571D01*
X161755000Y-83583571D02*
X161802619Y-83726428D01*
X161802619Y-83726428D02*
X161802619Y-83964523D01*
X160802619Y-82345475D02*
X161802619Y-82012142D01*
X161802619Y-82012142D02*
X160802619Y-81678809D01*
X160802619Y-81154999D02*
X160802619Y-81059761D01*
X160802619Y-81059761D02*
X160850238Y-80964523D01*
X160850238Y-80964523D02*
X160897857Y-80916904D01*
X160897857Y-80916904D02*
X160993095Y-80869285D01*
X160993095Y-80869285D02*
X161183571Y-80821666D01*
X161183571Y-80821666D02*
X161421666Y-80821666D01*
X161421666Y-80821666D02*
X161612142Y-80869285D01*
X161612142Y-80869285D02*
X161707380Y-80916904D01*
X161707380Y-80916904D02*
X161755000Y-80964523D01*
X161755000Y-80964523D02*
X161802619Y-81059761D01*
X161802619Y-81059761D02*
X161802619Y-81154999D01*
X161802619Y-81154999D02*
X161755000Y-81250237D01*
X161755000Y-81250237D02*
X161707380Y-81297856D01*
X161707380Y-81297856D02*
X161612142Y-81345475D01*
X161612142Y-81345475D02*
X161421666Y-81393094D01*
X161421666Y-81393094D02*
X161183571Y-81393094D01*
X161183571Y-81393094D02*
X160993095Y-81345475D01*
X160993095Y-81345475D02*
X160897857Y-81297856D01*
X160897857Y-81297856D02*
X160850238Y-81250237D01*
X160850238Y-81250237D02*
X160802619Y-81154999D01*
X161707380Y-80393094D02*
X161755000Y-80345475D01*
X161755000Y-80345475D02*
X161802619Y-80393094D01*
X161802619Y-80393094D02*
X161755000Y-80440713D01*
X161755000Y-80440713D02*
X161707380Y-80393094D01*
X161707380Y-80393094D02*
X161802619Y-80393094D01*
X160897857Y-79964523D02*
X160850238Y-79916904D01*
X160850238Y-79916904D02*
X160802619Y-79821666D01*
X160802619Y-79821666D02*
X160802619Y-79583571D01*
X160802619Y-79583571D02*
X160850238Y-79488333D01*
X160850238Y-79488333D02*
X160897857Y-79440714D01*
X160897857Y-79440714D02*
X160993095Y-79393095D01*
X160993095Y-79393095D02*
X161088333Y-79393095D01*
X161088333Y-79393095D02*
X161231190Y-79440714D01*
X161231190Y-79440714D02*
X161802619Y-80012142D01*
X161802619Y-80012142D02*
X161802619Y-79393095D01*
D10*
X115927142Y-106004428D02*
X115927142Y-107004428D01*
X115927142Y-106147285D02*
X115998571Y-106075857D01*
X115998571Y-106075857D02*
X116141428Y-106004428D01*
X116141428Y-106004428D02*
X116355714Y-106004428D01*
X116355714Y-106004428D02*
X116498571Y-106075857D01*
X116498571Y-106075857D02*
X116570000Y-106218714D01*
X116570000Y-106218714D02*
X116570000Y-107004428D01*
X117498571Y-107004428D02*
X117355714Y-106933000D01*
X117355714Y-106933000D02*
X117284285Y-106861571D01*
X117284285Y-106861571D02*
X117212857Y-106718714D01*
X117212857Y-106718714D02*
X117212857Y-106290142D01*
X117212857Y-106290142D02*
X117284285Y-106147285D01*
X117284285Y-106147285D02*
X117355714Y-106075857D01*
X117355714Y-106075857D02*
X117498571Y-106004428D01*
X117498571Y-106004428D02*
X117712857Y-106004428D01*
X117712857Y-106004428D02*
X117855714Y-106075857D01*
X117855714Y-106075857D02*
X117927143Y-106147285D01*
X117927143Y-106147285D02*
X117998571Y-106290142D01*
X117998571Y-106290142D02*
X117998571Y-106718714D01*
X117998571Y-106718714D02*
X117927143Y-106861571D01*
X117927143Y-106861571D02*
X117855714Y-106933000D01*
X117855714Y-106933000D02*
X117712857Y-107004428D01*
X117712857Y-107004428D02*
X117498571Y-107004428D01*
X118498571Y-106004428D02*
X118784286Y-107004428D01*
X118784286Y-107004428D02*
X119070000Y-106290142D01*
X119070000Y-106290142D02*
X119355714Y-107004428D01*
X119355714Y-107004428D02*
X119641428Y-106004428D01*
X120855715Y-106933000D02*
X120712857Y-107004428D01*
X120712857Y-107004428D02*
X120427143Y-107004428D01*
X120427143Y-107004428D02*
X120284286Y-106933000D01*
X120284286Y-106933000D02*
X120212857Y-106861571D01*
X120212857Y-106861571D02*
X120141429Y-106718714D01*
X120141429Y-106718714D02*
X120141429Y-106290142D01*
X120141429Y-106290142D02*
X120212857Y-106147285D01*
X120212857Y-106147285D02*
X120284286Y-106075857D01*
X120284286Y-106075857D02*
X120427143Y-106004428D01*
X120427143Y-106004428D02*
X120712857Y-106004428D01*
X120712857Y-106004428D02*
X120855715Y-106075857D01*
X122141429Y-107004428D02*
X122141429Y-106218714D01*
X122141429Y-106218714D02*
X122070000Y-106075857D01*
X122070000Y-106075857D02*
X121927143Y-106004428D01*
X121927143Y-106004428D02*
X121641429Y-106004428D01*
X121641429Y-106004428D02*
X121498571Y-106075857D01*
X122141429Y-106933000D02*
X121998571Y-107004428D01*
X121998571Y-107004428D02*
X121641429Y-107004428D01*
X121641429Y-107004428D02*
X121498571Y-106933000D01*
X121498571Y-106933000D02*
X121427143Y-106790142D01*
X121427143Y-106790142D02*
X121427143Y-106647285D01*
X121427143Y-106647285D02*
X121498571Y-106504428D01*
X121498571Y-106504428D02*
X121641429Y-106433000D01*
X121641429Y-106433000D02*
X121998571Y-106433000D01*
X121998571Y-106433000D02*
X122141429Y-106361571D01*
X122784286Y-106933000D02*
X122927143Y-107004428D01*
X122927143Y-107004428D02*
X123212857Y-107004428D01*
X123212857Y-107004428D02*
X123355714Y-106933000D01*
X123355714Y-106933000D02*
X123427143Y-106790142D01*
X123427143Y-106790142D02*
X123427143Y-106718714D01*
X123427143Y-106718714D02*
X123355714Y-106575857D01*
X123355714Y-106575857D02*
X123212857Y-106504428D01*
X123212857Y-106504428D02*
X122998572Y-106504428D01*
X122998572Y-106504428D02*
X122855714Y-106433000D01*
X122855714Y-106433000D02*
X122784286Y-106290142D01*
X122784286Y-106290142D02*
X122784286Y-106218714D01*
X122784286Y-106218714D02*
X122855714Y-106075857D01*
X122855714Y-106075857D02*
X122998572Y-106004428D01*
X122998572Y-106004428D02*
X123212857Y-106004428D01*
X123212857Y-106004428D02*
X123355714Y-106075857D01*
X123855715Y-106004428D02*
X124427143Y-106004428D01*
X124070000Y-105504428D02*
X124070000Y-106790142D01*
X124070000Y-106790142D02*
X124141429Y-106933000D01*
X124141429Y-106933000D02*
X124284286Y-107004428D01*
X124284286Y-107004428D02*
X124427143Y-107004428D01*
X100472857Y-106004428D02*
X101044285Y-106004428D01*
X100687142Y-107004428D02*
X100687142Y-105718714D01*
X100687142Y-105718714D02*
X100758571Y-105575857D01*
X100758571Y-105575857D02*
X100901428Y-105504428D01*
X100901428Y-105504428D02*
X101044285Y-105504428D01*
X101758571Y-107004428D02*
X101615714Y-106933000D01*
X101615714Y-106933000D02*
X101544285Y-106861571D01*
X101544285Y-106861571D02*
X101472857Y-106718714D01*
X101472857Y-106718714D02*
X101472857Y-106290142D01*
X101472857Y-106290142D02*
X101544285Y-106147285D01*
X101544285Y-106147285D02*
X101615714Y-106075857D01*
X101615714Y-106075857D02*
X101758571Y-106004428D01*
X101758571Y-106004428D02*
X101972857Y-106004428D01*
X101972857Y-106004428D02*
X102115714Y-106075857D01*
X102115714Y-106075857D02*
X102187143Y-106147285D01*
X102187143Y-106147285D02*
X102258571Y-106290142D01*
X102258571Y-106290142D02*
X102258571Y-106718714D01*
X102258571Y-106718714D02*
X102187143Y-106861571D01*
X102187143Y-106861571D02*
X102115714Y-106933000D01*
X102115714Y-106933000D02*
X101972857Y-107004428D01*
X101972857Y-107004428D02*
X101758571Y-107004428D01*
X102901428Y-107004428D02*
X102901428Y-106004428D01*
X102901428Y-106290142D02*
X102972857Y-106147285D01*
X102972857Y-106147285D02*
X103044286Y-106075857D01*
X103044286Y-106075857D02*
X103187143Y-106004428D01*
X103187143Y-106004428D02*
X103330000Y-106004428D01*
X104472857Y-106933000D02*
X104329999Y-107004428D01*
X104329999Y-107004428D02*
X104044285Y-107004428D01*
X104044285Y-107004428D02*
X103901428Y-106933000D01*
X103901428Y-106933000D02*
X103829999Y-106861571D01*
X103829999Y-106861571D02*
X103758571Y-106718714D01*
X103758571Y-106718714D02*
X103758571Y-106290142D01*
X103758571Y-106290142D02*
X103829999Y-106147285D01*
X103829999Y-106147285D02*
X103901428Y-106075857D01*
X103901428Y-106075857D02*
X104044285Y-106004428D01*
X104044285Y-106004428D02*
X104329999Y-106004428D01*
X104329999Y-106004428D02*
X104472857Y-106075857D01*
X105758571Y-107004428D02*
X105758571Y-106218714D01*
X105758571Y-106218714D02*
X105687142Y-106075857D01*
X105687142Y-106075857D02*
X105544285Y-106004428D01*
X105544285Y-106004428D02*
X105258571Y-106004428D01*
X105258571Y-106004428D02*
X105115713Y-106075857D01*
X105758571Y-106933000D02*
X105615713Y-107004428D01*
X105615713Y-107004428D02*
X105258571Y-107004428D01*
X105258571Y-107004428D02*
X105115713Y-106933000D01*
X105115713Y-106933000D02*
X105044285Y-106790142D01*
X105044285Y-106790142D02*
X105044285Y-106647285D01*
X105044285Y-106647285D02*
X105115713Y-106504428D01*
X105115713Y-106504428D02*
X105258571Y-106433000D01*
X105258571Y-106433000D02*
X105615713Y-106433000D01*
X105615713Y-106433000D02*
X105758571Y-106361571D01*
X106401428Y-106933000D02*
X106544285Y-107004428D01*
X106544285Y-107004428D02*
X106829999Y-107004428D01*
X106829999Y-107004428D02*
X106972856Y-106933000D01*
X106972856Y-106933000D02*
X107044285Y-106790142D01*
X107044285Y-106790142D02*
X107044285Y-106718714D01*
X107044285Y-106718714D02*
X106972856Y-106575857D01*
X106972856Y-106575857D02*
X106829999Y-106504428D01*
X106829999Y-106504428D02*
X106615714Y-106504428D01*
X106615714Y-106504428D02*
X106472856Y-106433000D01*
X106472856Y-106433000D02*
X106401428Y-106290142D01*
X106401428Y-106290142D02*
X106401428Y-106218714D01*
X106401428Y-106218714D02*
X106472856Y-106075857D01*
X106472856Y-106075857D02*
X106615714Y-106004428D01*
X106615714Y-106004428D02*
X106829999Y-106004428D01*
X106829999Y-106004428D02*
X106972856Y-106075857D01*
X107472857Y-106004428D02*
X108044285Y-106004428D01*
X107687142Y-105504428D02*
X107687142Y-106790142D01*
X107687142Y-106790142D02*
X107758571Y-106933000D01*
X107758571Y-106933000D02*
X107901428Y-107004428D01*
X107901428Y-107004428D02*
X108044285Y-107004428D01*
D11*
X122382619Y-92717857D02*
X121906428Y-93051190D01*
X122382619Y-93289285D02*
X121382619Y-93289285D01*
X121382619Y-93289285D02*
X121382619Y-92908333D01*
X121382619Y-92908333D02*
X121430238Y-92813095D01*
X121430238Y-92813095D02*
X121477857Y-92765476D01*
X121477857Y-92765476D02*
X121573095Y-92717857D01*
X121573095Y-92717857D02*
X121715952Y-92717857D01*
X121715952Y-92717857D02*
X121811190Y-92765476D01*
X121811190Y-92765476D02*
X121858809Y-92813095D01*
X121858809Y-92813095D02*
X121906428Y-92908333D01*
X121906428Y-92908333D02*
X121906428Y-93289285D01*
X122382619Y-91765476D02*
X122382619Y-92336904D01*
X122382619Y-92051190D02*
X121382619Y-92051190D01*
X121382619Y-92051190D02*
X121525476Y-92146428D01*
X121525476Y-92146428D02*
X121620714Y-92241666D01*
X121620714Y-92241666D02*
X121668333Y-92336904D01*
X121715952Y-90908333D02*
X122382619Y-90908333D01*
X121335000Y-91146428D02*
X122049285Y-91384523D01*
X122049285Y-91384523D02*
X122049285Y-90765476D01*
X139533333Y-93807619D02*
X139200000Y-93331428D01*
X138961905Y-93807619D02*
X138961905Y-92807619D01*
X138961905Y-92807619D02*
X139342857Y-92807619D01*
X139342857Y-92807619D02*
X139438095Y-92855238D01*
X139438095Y-92855238D02*
X139485714Y-92902857D01*
X139485714Y-92902857D02*
X139533333Y-92998095D01*
X139533333Y-92998095D02*
X139533333Y-93140952D01*
X139533333Y-93140952D02*
X139485714Y-93236190D01*
X139485714Y-93236190D02*
X139438095Y-93283809D01*
X139438095Y-93283809D02*
X139342857Y-93331428D01*
X139342857Y-93331428D02*
X138961905Y-93331428D01*
X140009524Y-93807619D02*
X140200000Y-93807619D01*
X140200000Y-93807619D02*
X140295238Y-93760000D01*
X140295238Y-93760000D02*
X140342857Y-93712380D01*
X140342857Y-93712380D02*
X140438095Y-93569523D01*
X140438095Y-93569523D02*
X140485714Y-93379047D01*
X140485714Y-93379047D02*
X140485714Y-92998095D01*
X140485714Y-92998095D02*
X140438095Y-92902857D01*
X140438095Y-92902857D02*
X140390476Y-92855238D01*
X140390476Y-92855238D02*
X140295238Y-92807619D01*
X140295238Y-92807619D02*
X140104762Y-92807619D01*
X140104762Y-92807619D02*
X140009524Y-92855238D01*
X140009524Y-92855238D02*
X139961905Y-92902857D01*
X139961905Y-92902857D02*
X139914286Y-92998095D01*
X139914286Y-92998095D02*
X139914286Y-93236190D01*
X139914286Y-93236190D02*
X139961905Y-93331428D01*
X139961905Y-93331428D02*
X140009524Y-93379047D01*
X140009524Y-93379047D02*
X140104762Y-93426666D01*
X140104762Y-93426666D02*
X140295238Y-93426666D01*
X140295238Y-93426666D02*
X140390476Y-93379047D01*
X140390476Y-93379047D02*
X140438095Y-93331428D01*
X140438095Y-93331428D02*
X140485714Y-93236190D01*
X128732619Y-92241666D02*
X128256428Y-92574999D01*
X128732619Y-92813094D02*
X127732619Y-92813094D01*
X127732619Y-92813094D02*
X127732619Y-92432142D01*
X127732619Y-92432142D02*
X127780238Y-92336904D01*
X127780238Y-92336904D02*
X127827857Y-92289285D01*
X127827857Y-92289285D02*
X127923095Y-92241666D01*
X127923095Y-92241666D02*
X128065952Y-92241666D01*
X128065952Y-92241666D02*
X128161190Y-92289285D01*
X128161190Y-92289285D02*
X128208809Y-92336904D01*
X128208809Y-92336904D02*
X128256428Y-92432142D01*
X128256428Y-92432142D02*
X128256428Y-92813094D01*
X128732619Y-91289285D02*
X128732619Y-91860713D01*
X128732619Y-91574999D02*
X127732619Y-91574999D01*
X127732619Y-91574999D02*
X127875476Y-91670237D01*
X127875476Y-91670237D02*
X127970714Y-91765475D01*
X127970714Y-91765475D02*
X128018333Y-91860713D01*
X131127619Y-71871904D02*
X131937142Y-71871904D01*
X131937142Y-71871904D02*
X132032380Y-71824285D01*
X132032380Y-71824285D02*
X132080000Y-71776666D01*
X132080000Y-71776666D02*
X132127619Y-71681428D01*
X132127619Y-71681428D02*
X132127619Y-71490952D01*
X132127619Y-71490952D02*
X132080000Y-71395714D01*
X132080000Y-71395714D02*
X132032380Y-71348095D01*
X132032380Y-71348095D02*
X131937142Y-71300476D01*
X131937142Y-71300476D02*
X131127619Y-71300476D01*
X131222857Y-70871904D02*
X131175238Y-70824285D01*
X131175238Y-70824285D02*
X131127619Y-70729047D01*
X131127619Y-70729047D02*
X131127619Y-70490952D01*
X131127619Y-70490952D02*
X131175238Y-70395714D01*
X131175238Y-70395714D02*
X131222857Y-70348095D01*
X131222857Y-70348095D02*
X131318095Y-70300476D01*
X131318095Y-70300476D02*
X131413333Y-70300476D01*
X131413333Y-70300476D02*
X131556190Y-70348095D01*
X131556190Y-70348095D02*
X132127619Y-70919523D01*
X132127619Y-70919523D02*
X132127619Y-70300476D01*
X149052619Y-90971666D02*
X148576428Y-91304999D01*
X149052619Y-91543094D02*
X148052619Y-91543094D01*
X148052619Y-91543094D02*
X148052619Y-91162142D01*
X148052619Y-91162142D02*
X148100238Y-91066904D01*
X148100238Y-91066904D02*
X148147857Y-91019285D01*
X148147857Y-91019285D02*
X148243095Y-90971666D01*
X148243095Y-90971666D02*
X148385952Y-90971666D01*
X148385952Y-90971666D02*
X148481190Y-91019285D01*
X148481190Y-91019285D02*
X148528809Y-91066904D01*
X148528809Y-91066904D02*
X148576428Y-91162142D01*
X148576428Y-91162142D02*
X148576428Y-91543094D01*
X148052619Y-90066904D02*
X148052619Y-90543094D01*
X148052619Y-90543094D02*
X148528809Y-90590713D01*
X148528809Y-90590713D02*
X148481190Y-90543094D01*
X148481190Y-90543094D02*
X148433571Y-90447856D01*
X148433571Y-90447856D02*
X148433571Y-90209761D01*
X148433571Y-90209761D02*
X148481190Y-90114523D01*
X148481190Y-90114523D02*
X148528809Y-90066904D01*
X148528809Y-90066904D02*
X148624047Y-90019285D01*
X148624047Y-90019285D02*
X148862142Y-90019285D01*
X148862142Y-90019285D02*
X148957380Y-90066904D01*
X148957380Y-90066904D02*
X149005000Y-90114523D01*
X149005000Y-90114523D02*
X149052619Y-90209761D01*
X149052619Y-90209761D02*
X149052619Y-90447856D01*
X149052619Y-90447856D02*
X149005000Y-90543094D01*
X149005000Y-90543094D02*
X148957380Y-90590713D01*
X116032619Y-92717857D02*
X115556428Y-93051190D01*
X116032619Y-93289285D02*
X115032619Y-93289285D01*
X115032619Y-93289285D02*
X115032619Y-92908333D01*
X115032619Y-92908333D02*
X115080238Y-92813095D01*
X115080238Y-92813095D02*
X115127857Y-92765476D01*
X115127857Y-92765476D02*
X115223095Y-92717857D01*
X115223095Y-92717857D02*
X115365952Y-92717857D01*
X115365952Y-92717857D02*
X115461190Y-92765476D01*
X115461190Y-92765476D02*
X115508809Y-92813095D01*
X115508809Y-92813095D02*
X115556428Y-92908333D01*
X115556428Y-92908333D02*
X115556428Y-93289285D01*
X116032619Y-91765476D02*
X116032619Y-92336904D01*
X116032619Y-92051190D02*
X115032619Y-92051190D01*
X115032619Y-92051190D02*
X115175476Y-92146428D01*
X115175476Y-92146428D02*
X115270714Y-92241666D01*
X115270714Y-92241666D02*
X115318333Y-92336904D01*
X115127857Y-91384523D02*
X115080238Y-91336904D01*
X115080238Y-91336904D02*
X115032619Y-91241666D01*
X115032619Y-91241666D02*
X115032619Y-91003571D01*
X115032619Y-91003571D02*
X115080238Y-90908333D01*
X115080238Y-90908333D02*
X115127857Y-90860714D01*
X115127857Y-90860714D02*
X115223095Y-90813095D01*
X115223095Y-90813095D02*
X115318333Y-90813095D01*
X115318333Y-90813095D02*
X115461190Y-90860714D01*
X115461190Y-90860714D02*
X116032619Y-91432142D01*
X116032619Y-91432142D02*
X116032619Y-90813095D01*
X107777619Y-92717857D02*
X107301428Y-93051190D01*
X107777619Y-93289285D02*
X106777619Y-93289285D01*
X106777619Y-93289285D02*
X106777619Y-92908333D01*
X106777619Y-92908333D02*
X106825238Y-92813095D01*
X106825238Y-92813095D02*
X106872857Y-92765476D01*
X106872857Y-92765476D02*
X106968095Y-92717857D01*
X106968095Y-92717857D02*
X107110952Y-92717857D01*
X107110952Y-92717857D02*
X107206190Y-92765476D01*
X107206190Y-92765476D02*
X107253809Y-92813095D01*
X107253809Y-92813095D02*
X107301428Y-92908333D01*
X107301428Y-92908333D02*
X107301428Y-93289285D01*
X107777619Y-91765476D02*
X107777619Y-92336904D01*
X107777619Y-92051190D02*
X106777619Y-92051190D01*
X106777619Y-92051190D02*
X106920476Y-92146428D01*
X106920476Y-92146428D02*
X107015714Y-92241666D01*
X107015714Y-92241666D02*
X107063333Y-92336904D01*
X107777619Y-91289285D02*
X107777619Y-91098809D01*
X107777619Y-91098809D02*
X107730000Y-91003571D01*
X107730000Y-91003571D02*
X107682380Y-90955952D01*
X107682380Y-90955952D02*
X107539523Y-90860714D01*
X107539523Y-90860714D02*
X107349047Y-90813095D01*
X107349047Y-90813095D02*
X106968095Y-90813095D01*
X106968095Y-90813095D02*
X106872857Y-90860714D01*
X106872857Y-90860714D02*
X106825238Y-90908333D01*
X106825238Y-90908333D02*
X106777619Y-91003571D01*
X106777619Y-91003571D02*
X106777619Y-91194047D01*
X106777619Y-91194047D02*
X106825238Y-91289285D01*
X106825238Y-91289285D02*
X106872857Y-91336904D01*
X106872857Y-91336904D02*
X106968095Y-91384523D01*
X106968095Y-91384523D02*
X107206190Y-91384523D01*
X107206190Y-91384523D02*
X107301428Y-91336904D01*
X107301428Y-91336904D02*
X107349047Y-91289285D01*
X107349047Y-91289285D02*
X107396666Y-91194047D01*
X107396666Y-91194047D02*
X107396666Y-91003571D01*
X107396666Y-91003571D02*
X107349047Y-90908333D01*
X107349047Y-90908333D02*
X107301428Y-90860714D01*
X107301428Y-90860714D02*
X107206190Y-90813095D01*
X119207619Y-92717857D02*
X118731428Y-93051190D01*
X119207619Y-93289285D02*
X118207619Y-93289285D01*
X118207619Y-93289285D02*
X118207619Y-92908333D01*
X118207619Y-92908333D02*
X118255238Y-92813095D01*
X118255238Y-92813095D02*
X118302857Y-92765476D01*
X118302857Y-92765476D02*
X118398095Y-92717857D01*
X118398095Y-92717857D02*
X118540952Y-92717857D01*
X118540952Y-92717857D02*
X118636190Y-92765476D01*
X118636190Y-92765476D02*
X118683809Y-92813095D01*
X118683809Y-92813095D02*
X118731428Y-92908333D01*
X118731428Y-92908333D02*
X118731428Y-93289285D01*
X119207619Y-91765476D02*
X119207619Y-92336904D01*
X119207619Y-92051190D02*
X118207619Y-92051190D01*
X118207619Y-92051190D02*
X118350476Y-92146428D01*
X118350476Y-92146428D02*
X118445714Y-92241666D01*
X118445714Y-92241666D02*
X118493333Y-92336904D01*
X118207619Y-91432142D02*
X118207619Y-90813095D01*
X118207619Y-90813095D02*
X118588571Y-91146428D01*
X118588571Y-91146428D02*
X118588571Y-91003571D01*
X118588571Y-91003571D02*
X118636190Y-90908333D01*
X118636190Y-90908333D02*
X118683809Y-90860714D01*
X118683809Y-90860714D02*
X118779047Y-90813095D01*
X118779047Y-90813095D02*
X119017142Y-90813095D01*
X119017142Y-90813095D02*
X119112380Y-90860714D01*
X119112380Y-90860714D02*
X119160000Y-90908333D01*
X119160000Y-90908333D02*
X119207619Y-91003571D01*
X119207619Y-91003571D02*
X119207619Y-91289285D01*
X119207619Y-91289285D02*
X119160000Y-91384523D01*
X119160000Y-91384523D02*
X119112380Y-91432142D01*
X139533333Y-90632619D02*
X139200000Y-90156428D01*
X138961905Y-90632619D02*
X138961905Y-89632619D01*
X138961905Y-89632619D02*
X139342857Y-89632619D01*
X139342857Y-89632619D02*
X139438095Y-89680238D01*
X139438095Y-89680238D02*
X139485714Y-89727857D01*
X139485714Y-89727857D02*
X139533333Y-89823095D01*
X139533333Y-89823095D02*
X139533333Y-89965952D01*
X139533333Y-89965952D02*
X139485714Y-90061190D01*
X139485714Y-90061190D02*
X139438095Y-90108809D01*
X139438095Y-90108809D02*
X139342857Y-90156428D01*
X139342857Y-90156428D02*
X138961905Y-90156428D01*
X140104762Y-90061190D02*
X140009524Y-90013571D01*
X140009524Y-90013571D02*
X139961905Y-89965952D01*
X139961905Y-89965952D02*
X139914286Y-89870714D01*
X139914286Y-89870714D02*
X139914286Y-89823095D01*
X139914286Y-89823095D02*
X139961905Y-89727857D01*
X139961905Y-89727857D02*
X140009524Y-89680238D01*
X140009524Y-89680238D02*
X140104762Y-89632619D01*
X140104762Y-89632619D02*
X140295238Y-89632619D01*
X140295238Y-89632619D02*
X140390476Y-89680238D01*
X140390476Y-89680238D02*
X140438095Y-89727857D01*
X140438095Y-89727857D02*
X140485714Y-89823095D01*
X140485714Y-89823095D02*
X140485714Y-89870714D01*
X140485714Y-89870714D02*
X140438095Y-89965952D01*
X140438095Y-89965952D02*
X140390476Y-90013571D01*
X140390476Y-90013571D02*
X140295238Y-90061190D01*
X140295238Y-90061190D02*
X140104762Y-90061190D01*
X140104762Y-90061190D02*
X140009524Y-90108809D01*
X140009524Y-90108809D02*
X139961905Y-90156428D01*
X139961905Y-90156428D02*
X139914286Y-90251666D01*
X139914286Y-90251666D02*
X139914286Y-90442142D01*
X139914286Y-90442142D02*
X139961905Y-90537380D01*
X139961905Y-90537380D02*
X140009524Y-90585000D01*
X140009524Y-90585000D02*
X140104762Y-90632619D01*
X140104762Y-90632619D02*
X140295238Y-90632619D01*
X140295238Y-90632619D02*
X140390476Y-90585000D01*
X140390476Y-90585000D02*
X140438095Y-90537380D01*
X140438095Y-90537380D02*
X140485714Y-90442142D01*
X140485714Y-90442142D02*
X140485714Y-90251666D01*
X140485714Y-90251666D02*
X140438095Y-90156428D01*
X140438095Y-90156428D02*
X140390476Y-90108809D01*
X140390476Y-90108809D02*
X140295238Y-90061190D01*
X151598333Y-98887619D02*
X151265000Y-98411428D01*
X151026905Y-98887619D02*
X151026905Y-97887619D01*
X151026905Y-97887619D02*
X151407857Y-97887619D01*
X151407857Y-97887619D02*
X151503095Y-97935238D01*
X151503095Y-97935238D02*
X151550714Y-97982857D01*
X151550714Y-97982857D02*
X151598333Y-98078095D01*
X151598333Y-98078095D02*
X151598333Y-98220952D01*
X151598333Y-98220952D02*
X151550714Y-98316190D01*
X151550714Y-98316190D02*
X151503095Y-98363809D01*
X151503095Y-98363809D02*
X151407857Y-98411428D01*
X151407857Y-98411428D02*
X151026905Y-98411428D01*
X152455476Y-98220952D02*
X152455476Y-98887619D01*
X152217381Y-97840000D02*
X151979286Y-98554285D01*
X151979286Y-98554285D02*
X152598333Y-98554285D01*
X155402619Y-90971666D02*
X154926428Y-91304999D01*
X155402619Y-91543094D02*
X154402619Y-91543094D01*
X154402619Y-91543094D02*
X154402619Y-91162142D01*
X154402619Y-91162142D02*
X154450238Y-91066904D01*
X154450238Y-91066904D02*
X154497857Y-91019285D01*
X154497857Y-91019285D02*
X154593095Y-90971666D01*
X154593095Y-90971666D02*
X154735952Y-90971666D01*
X154735952Y-90971666D02*
X154831190Y-91019285D01*
X154831190Y-91019285D02*
X154878809Y-91066904D01*
X154878809Y-91066904D02*
X154926428Y-91162142D01*
X154926428Y-91162142D02*
X154926428Y-91543094D01*
X154402619Y-90114523D02*
X154402619Y-90304999D01*
X154402619Y-90304999D02*
X154450238Y-90400237D01*
X154450238Y-90400237D02*
X154497857Y-90447856D01*
X154497857Y-90447856D02*
X154640714Y-90543094D01*
X154640714Y-90543094D02*
X154831190Y-90590713D01*
X154831190Y-90590713D02*
X155212142Y-90590713D01*
X155212142Y-90590713D02*
X155307380Y-90543094D01*
X155307380Y-90543094D02*
X155355000Y-90495475D01*
X155355000Y-90495475D02*
X155402619Y-90400237D01*
X155402619Y-90400237D02*
X155402619Y-90209761D01*
X155402619Y-90209761D02*
X155355000Y-90114523D01*
X155355000Y-90114523D02*
X155307380Y-90066904D01*
X155307380Y-90066904D02*
X155212142Y-90019285D01*
X155212142Y-90019285D02*
X154974047Y-90019285D01*
X154974047Y-90019285D02*
X154878809Y-90066904D01*
X154878809Y-90066904D02*
X154831190Y-90114523D01*
X154831190Y-90114523D02*
X154783571Y-90209761D01*
X154783571Y-90209761D02*
X154783571Y-90400237D01*
X154783571Y-90400237D02*
X154831190Y-90495475D01*
X154831190Y-90495475D02*
X154878809Y-90543094D01*
X154878809Y-90543094D02*
X154974047Y-90590713D01*
X131907619Y-92241666D02*
X131431428Y-92574999D01*
X131907619Y-92813094D02*
X130907619Y-92813094D01*
X130907619Y-92813094D02*
X130907619Y-92432142D01*
X130907619Y-92432142D02*
X130955238Y-92336904D01*
X130955238Y-92336904D02*
X131002857Y-92289285D01*
X131002857Y-92289285D02*
X131098095Y-92241666D01*
X131098095Y-92241666D02*
X131240952Y-92241666D01*
X131240952Y-92241666D02*
X131336190Y-92289285D01*
X131336190Y-92289285D02*
X131383809Y-92336904D01*
X131383809Y-92336904D02*
X131431428Y-92432142D01*
X131431428Y-92432142D02*
X131431428Y-92813094D01*
X131002857Y-91860713D02*
X130955238Y-91813094D01*
X130955238Y-91813094D02*
X130907619Y-91717856D01*
X130907619Y-91717856D02*
X130907619Y-91479761D01*
X130907619Y-91479761D02*
X130955238Y-91384523D01*
X130955238Y-91384523D02*
X131002857Y-91336904D01*
X131002857Y-91336904D02*
X131098095Y-91289285D01*
X131098095Y-91289285D02*
X131193333Y-91289285D01*
X131193333Y-91289285D02*
X131336190Y-91336904D01*
X131336190Y-91336904D02*
X131907619Y-91908332D01*
X131907619Y-91908332D02*
X131907619Y-91289285D01*
X104602619Y-92717857D02*
X104126428Y-93051190D01*
X104602619Y-93289285D02*
X103602619Y-93289285D01*
X103602619Y-93289285D02*
X103602619Y-92908333D01*
X103602619Y-92908333D02*
X103650238Y-92813095D01*
X103650238Y-92813095D02*
X103697857Y-92765476D01*
X103697857Y-92765476D02*
X103793095Y-92717857D01*
X103793095Y-92717857D02*
X103935952Y-92717857D01*
X103935952Y-92717857D02*
X104031190Y-92765476D01*
X104031190Y-92765476D02*
X104078809Y-92813095D01*
X104078809Y-92813095D02*
X104126428Y-92908333D01*
X104126428Y-92908333D02*
X104126428Y-93289285D01*
X103697857Y-92336904D02*
X103650238Y-92289285D01*
X103650238Y-92289285D02*
X103602619Y-92194047D01*
X103602619Y-92194047D02*
X103602619Y-91955952D01*
X103602619Y-91955952D02*
X103650238Y-91860714D01*
X103650238Y-91860714D02*
X103697857Y-91813095D01*
X103697857Y-91813095D02*
X103793095Y-91765476D01*
X103793095Y-91765476D02*
X103888333Y-91765476D01*
X103888333Y-91765476D02*
X104031190Y-91813095D01*
X104031190Y-91813095D02*
X104602619Y-92384523D01*
X104602619Y-92384523D02*
X104602619Y-91765476D01*
X103602619Y-91146428D02*
X103602619Y-91051190D01*
X103602619Y-91051190D02*
X103650238Y-90955952D01*
X103650238Y-90955952D02*
X103697857Y-90908333D01*
X103697857Y-90908333D02*
X103793095Y-90860714D01*
X103793095Y-90860714D02*
X103983571Y-90813095D01*
X103983571Y-90813095D02*
X104221666Y-90813095D01*
X104221666Y-90813095D02*
X104412142Y-90860714D01*
X104412142Y-90860714D02*
X104507380Y-90908333D01*
X104507380Y-90908333D02*
X104555000Y-90955952D01*
X104555000Y-90955952D02*
X104602619Y-91051190D01*
X104602619Y-91051190D02*
X104602619Y-91146428D01*
X104602619Y-91146428D02*
X104555000Y-91241666D01*
X104555000Y-91241666D02*
X104507380Y-91289285D01*
X104507380Y-91289285D02*
X104412142Y-91336904D01*
X104412142Y-91336904D02*
X104221666Y-91384523D01*
X104221666Y-91384523D02*
X103983571Y-91384523D01*
X103983571Y-91384523D02*
X103793095Y-91336904D01*
X103793095Y-91336904D02*
X103697857Y-91289285D01*
X103697857Y-91289285D02*
X103650238Y-91241666D01*
X103650238Y-91241666D02*
X103602619Y-91146428D01*
X107870714Y-57326904D02*
X108346904Y-57326904D01*
X107775476Y-57612619D02*
X108108809Y-56612619D01*
X108108809Y-56612619D02*
X108442142Y-57612619D01*
X109299285Y-57612619D02*
X108727857Y-57612619D01*
X109013571Y-57612619D02*
X109013571Y-56612619D01*
X109013571Y-56612619D02*
X108918333Y-56755476D01*
X108918333Y-56755476D02*
X108823095Y-56850714D01*
X108823095Y-56850714D02*
X108727857Y-56898333D01*
X139533333Y-84282619D02*
X139200000Y-83806428D01*
X138961905Y-84282619D02*
X138961905Y-83282619D01*
X138961905Y-83282619D02*
X139342857Y-83282619D01*
X139342857Y-83282619D02*
X139438095Y-83330238D01*
X139438095Y-83330238D02*
X139485714Y-83377857D01*
X139485714Y-83377857D02*
X139533333Y-83473095D01*
X139533333Y-83473095D02*
X139533333Y-83615952D01*
X139533333Y-83615952D02*
X139485714Y-83711190D01*
X139485714Y-83711190D02*
X139438095Y-83758809D01*
X139438095Y-83758809D02*
X139342857Y-83806428D01*
X139342857Y-83806428D02*
X138961905Y-83806428D01*
X139866667Y-83282619D02*
X140485714Y-83282619D01*
X140485714Y-83282619D02*
X140152381Y-83663571D01*
X140152381Y-83663571D02*
X140295238Y-83663571D01*
X140295238Y-83663571D02*
X140390476Y-83711190D01*
X140390476Y-83711190D02*
X140438095Y-83758809D01*
X140438095Y-83758809D02*
X140485714Y-83854047D01*
X140485714Y-83854047D02*
X140485714Y-84092142D01*
X140485714Y-84092142D02*
X140438095Y-84187380D01*
X140438095Y-84187380D02*
X140390476Y-84235000D01*
X140390476Y-84235000D02*
X140295238Y-84282619D01*
X140295238Y-84282619D02*
X140009524Y-84282619D01*
X140009524Y-84282619D02*
X139914286Y-84235000D01*
X139914286Y-84235000D02*
X139866667Y-84187380D01*
X159686666Y-67177619D02*
X159686666Y-67891904D01*
X159686666Y-67891904D02*
X159639047Y-68034761D01*
X159639047Y-68034761D02*
X159543809Y-68130000D01*
X159543809Y-68130000D02*
X159400952Y-68177619D01*
X159400952Y-68177619D02*
X159305714Y-68177619D01*
X160686666Y-68177619D02*
X160115238Y-68177619D01*
X160400952Y-68177619D02*
X160400952Y-67177619D01*
X160400952Y-67177619D02*
X160305714Y-67320476D01*
X160305714Y-67320476D02*
X160210476Y-67415714D01*
X160210476Y-67415714D02*
X160115238Y-67463333D01*
D12*
X141528095Y-46997619D02*
X141528095Y-47807142D01*
X141528095Y-47807142D02*
X141575714Y-47902380D01*
X141575714Y-47902380D02*
X141623333Y-47950000D01*
X141623333Y-47950000D02*
X141718571Y-47997619D01*
X141718571Y-47997619D02*
X141909047Y-47997619D01*
X141909047Y-47997619D02*
X142004285Y-47950000D01*
X142004285Y-47950000D02*
X142051904Y-47902380D01*
X142051904Y-47902380D02*
X142099523Y-47807142D01*
X142099523Y-47807142D02*
X142099523Y-46997619D01*
X143099523Y-47997619D02*
X142528095Y-47997619D01*
X142813809Y-47997619D02*
X142813809Y-46997619D01*
X142813809Y-46997619D02*
X142718571Y-47140476D01*
X142718571Y-47140476D02*
X142623333Y-47235714D01*
X142623333Y-47235714D02*
X142528095Y-47283333D01*
D11*
X155704285Y-57437619D02*
X155228095Y-57437619D01*
X155228095Y-57437619D02*
X155228095Y-56437619D01*
X156228095Y-56437619D02*
X156418571Y-56437619D01*
X156418571Y-56437619D02*
X156513809Y-56485238D01*
X156513809Y-56485238D02*
X156609047Y-56580476D01*
X156609047Y-56580476D02*
X156656666Y-56770952D01*
X156656666Y-56770952D02*
X156656666Y-57104285D01*
X156656666Y-57104285D02*
X156609047Y-57294761D01*
X156609047Y-57294761D02*
X156513809Y-57390000D01*
X156513809Y-57390000D02*
X156418571Y-57437619D01*
X156418571Y-57437619D02*
X156228095Y-57437619D01*
X156228095Y-57437619D02*
X156132857Y-57390000D01*
X156132857Y-57390000D02*
X156037619Y-57294761D01*
X156037619Y-57294761D02*
X155990000Y-57104285D01*
X155990000Y-57104285D02*
X155990000Y-56770952D01*
X155990000Y-56770952D02*
X156037619Y-56580476D01*
X156037619Y-56580476D02*
X156132857Y-56485238D01*
X156132857Y-56485238D02*
X156228095Y-56437619D01*
X157037619Y-57151904D02*
X157513809Y-57151904D01*
X156942381Y-57437619D02*
X157275714Y-56437619D01*
X157275714Y-56437619D02*
X157609047Y-57437619D01*
X157942381Y-57437619D02*
X157942381Y-56437619D01*
X157942381Y-56437619D02*
X158180476Y-56437619D01*
X158180476Y-56437619D02*
X158323333Y-56485238D01*
X158323333Y-56485238D02*
X158418571Y-56580476D01*
X158418571Y-56580476D02*
X158466190Y-56675714D01*
X158466190Y-56675714D02*
X158513809Y-56866190D01*
X158513809Y-56866190D02*
X158513809Y-57009047D01*
X158513809Y-57009047D02*
X158466190Y-57199523D01*
X158466190Y-57199523D02*
X158418571Y-57294761D01*
X158418571Y-57294761D02*
X158323333Y-57390000D01*
X158323333Y-57390000D02*
X158180476Y-57437619D01*
X158180476Y-57437619D02*
X157942381Y-57437619D01*
X126351428Y-56913809D02*
X126494285Y-56961428D01*
X126494285Y-56961428D02*
X126541904Y-57009047D01*
X126541904Y-57009047D02*
X126589523Y-57104285D01*
X126589523Y-57104285D02*
X126589523Y-57247142D01*
X126589523Y-57247142D02*
X126541904Y-57342380D01*
X126541904Y-57342380D02*
X126494285Y-57390000D01*
X126494285Y-57390000D02*
X126399047Y-57437619D01*
X126399047Y-57437619D02*
X126018095Y-57437619D01*
X126018095Y-57437619D02*
X126018095Y-56437619D01*
X126018095Y-56437619D02*
X126351428Y-56437619D01*
X126351428Y-56437619D02*
X126446666Y-56485238D01*
X126446666Y-56485238D02*
X126494285Y-56532857D01*
X126494285Y-56532857D02*
X126541904Y-56628095D01*
X126541904Y-56628095D02*
X126541904Y-56723333D01*
X126541904Y-56723333D02*
X126494285Y-56818571D01*
X126494285Y-56818571D02*
X126446666Y-56866190D01*
X126446666Y-56866190D02*
X126351428Y-56913809D01*
X126351428Y-56913809D02*
X126018095Y-56913809D01*
X126970476Y-57151904D02*
X127446666Y-57151904D01*
X126875238Y-57437619D02*
X127208571Y-56437619D01*
X127208571Y-56437619D02*
X127541904Y-57437619D01*
X127732381Y-56437619D02*
X128303809Y-56437619D01*
X128018095Y-57437619D02*
X128018095Y-56437619D01*
X128494286Y-56437619D02*
X129065714Y-56437619D01*
X128780000Y-57437619D02*
X128780000Y-56437619D01*
X156386904Y-53945238D02*
X156291666Y-53897619D01*
X156291666Y-53897619D02*
X156148809Y-53897619D01*
X156148809Y-53897619D02*
X156005952Y-53945238D01*
X156005952Y-53945238D02*
X155910714Y-54040476D01*
X155910714Y-54040476D02*
X155863095Y-54135714D01*
X155863095Y-54135714D02*
X155815476Y-54326190D01*
X155815476Y-54326190D02*
X155815476Y-54469047D01*
X155815476Y-54469047D02*
X155863095Y-54659523D01*
X155863095Y-54659523D02*
X155910714Y-54754761D01*
X155910714Y-54754761D02*
X156005952Y-54850000D01*
X156005952Y-54850000D02*
X156148809Y-54897619D01*
X156148809Y-54897619D02*
X156244047Y-54897619D01*
X156244047Y-54897619D02*
X156386904Y-54850000D01*
X156386904Y-54850000D02*
X156434523Y-54802380D01*
X156434523Y-54802380D02*
X156434523Y-54469047D01*
X156434523Y-54469047D02*
X156244047Y-54469047D01*
X156863095Y-54897619D02*
X156863095Y-53897619D01*
X156863095Y-53897619D02*
X157434523Y-54897619D01*
X157434523Y-54897619D02*
X157434523Y-53897619D01*
X157910714Y-54897619D02*
X157910714Y-53897619D01*
X157910714Y-53897619D02*
X158148809Y-53897619D01*
X158148809Y-53897619D02*
X158291666Y-53945238D01*
X158291666Y-53945238D02*
X158386904Y-54040476D01*
X158386904Y-54040476D02*
X158434523Y-54135714D01*
X158434523Y-54135714D02*
X158482142Y-54326190D01*
X158482142Y-54326190D02*
X158482142Y-54469047D01*
X158482142Y-54469047D02*
X158434523Y-54659523D01*
X158434523Y-54659523D02*
X158386904Y-54754761D01*
X158386904Y-54754761D02*
X158291666Y-54850000D01*
X158291666Y-54850000D02*
X158148809Y-54897619D01*
X158148809Y-54897619D02*
X157910714Y-54897619D01*
X126541904Y-53945238D02*
X126446666Y-53897619D01*
X126446666Y-53897619D02*
X126303809Y-53897619D01*
X126303809Y-53897619D02*
X126160952Y-53945238D01*
X126160952Y-53945238D02*
X126065714Y-54040476D01*
X126065714Y-54040476D02*
X126018095Y-54135714D01*
X126018095Y-54135714D02*
X125970476Y-54326190D01*
X125970476Y-54326190D02*
X125970476Y-54469047D01*
X125970476Y-54469047D02*
X126018095Y-54659523D01*
X126018095Y-54659523D02*
X126065714Y-54754761D01*
X126065714Y-54754761D02*
X126160952Y-54850000D01*
X126160952Y-54850000D02*
X126303809Y-54897619D01*
X126303809Y-54897619D02*
X126399047Y-54897619D01*
X126399047Y-54897619D02*
X126541904Y-54850000D01*
X126541904Y-54850000D02*
X126589523Y-54802380D01*
X126589523Y-54802380D02*
X126589523Y-54469047D01*
X126589523Y-54469047D02*
X126399047Y-54469047D01*
X127018095Y-54897619D02*
X127018095Y-53897619D01*
X127018095Y-53897619D02*
X127589523Y-54897619D01*
X127589523Y-54897619D02*
X127589523Y-53897619D01*
X128065714Y-54897619D02*
X128065714Y-53897619D01*
X128065714Y-53897619D02*
X128303809Y-53897619D01*
X128303809Y-53897619D02*
X128446666Y-53945238D01*
X128446666Y-53945238D02*
X128541904Y-54040476D01*
X128541904Y-54040476D02*
X128589523Y-54135714D01*
X128589523Y-54135714D02*
X128637142Y-54326190D01*
X128637142Y-54326190D02*
X128637142Y-54469047D01*
X128637142Y-54469047D02*
X128589523Y-54659523D01*
X128589523Y-54659523D02*
X128541904Y-54754761D01*
X128541904Y-54754761D02*
X128446666Y-54850000D01*
X128446666Y-54850000D02*
X128303809Y-54897619D01*
X128303809Y-54897619D02*
X128065714Y-54897619D01*
X152227619Y-90908094D02*
X151227619Y-90908094D01*
X151227619Y-90908094D02*
X151227619Y-90669999D01*
X151227619Y-90669999D02*
X151275238Y-90527142D01*
X151275238Y-90527142D02*
X151370476Y-90431904D01*
X151370476Y-90431904D02*
X151465714Y-90384285D01*
X151465714Y-90384285D02*
X151656190Y-90336666D01*
X151656190Y-90336666D02*
X151799047Y-90336666D01*
X151799047Y-90336666D02*
X151989523Y-90384285D01*
X151989523Y-90384285D02*
X152084761Y-90431904D01*
X152084761Y-90431904D02*
X152180000Y-90527142D01*
X152180000Y-90527142D02*
X152227619Y-90669999D01*
X152227619Y-90669999D02*
X152227619Y-90908094D01*
X152227619Y-89384285D02*
X152227619Y-89955713D01*
X152227619Y-89669999D02*
X151227619Y-89669999D01*
X151227619Y-89669999D02*
X151370476Y-89765237D01*
X151370476Y-89765237D02*
X151465714Y-89860475D01*
X151465714Y-89860475D02*
X151513333Y-89955713D01*
X135576666Y-97512619D02*
X135576666Y-98226904D01*
X135576666Y-98226904D02*
X135529047Y-98369761D01*
X135529047Y-98369761D02*
X135433809Y-98465000D01*
X135433809Y-98465000D02*
X135290952Y-98512619D01*
X135290952Y-98512619D02*
X135195714Y-98512619D01*
X136481428Y-97845952D02*
X136481428Y-98512619D01*
X136243333Y-97465000D02*
X136005238Y-98179285D01*
X136005238Y-98179285D02*
X136624285Y-98179285D01*
X150983333Y-66507380D02*
X150935714Y-66555000D01*
X150935714Y-66555000D02*
X150792857Y-66602619D01*
X150792857Y-66602619D02*
X150697619Y-66602619D01*
X150697619Y-66602619D02*
X150554762Y-66555000D01*
X150554762Y-66555000D02*
X150459524Y-66459761D01*
X150459524Y-66459761D02*
X150411905Y-66364523D01*
X150411905Y-66364523D02*
X150364286Y-66174047D01*
X150364286Y-66174047D02*
X150364286Y-66031190D01*
X150364286Y-66031190D02*
X150411905Y-65840714D01*
X150411905Y-65840714D02*
X150459524Y-65745476D01*
X150459524Y-65745476D02*
X150554762Y-65650238D01*
X150554762Y-65650238D02*
X150697619Y-65602619D01*
X150697619Y-65602619D02*
X150792857Y-65602619D01*
X150792857Y-65602619D02*
X150935714Y-65650238D01*
X150935714Y-65650238D02*
X150983333Y-65697857D01*
X151935714Y-66602619D02*
X151364286Y-66602619D01*
X151650000Y-66602619D02*
X151650000Y-65602619D01*
X151650000Y-65602619D02*
X151554762Y-65745476D01*
X151554762Y-65745476D02*
X151459524Y-65840714D01*
X151459524Y-65840714D02*
X151364286Y-65888333D01*
X139533333Y-87457619D02*
X139200000Y-86981428D01*
X138961905Y-87457619D02*
X138961905Y-86457619D01*
X138961905Y-86457619D02*
X139342857Y-86457619D01*
X139342857Y-86457619D02*
X139438095Y-86505238D01*
X139438095Y-86505238D02*
X139485714Y-86552857D01*
X139485714Y-86552857D02*
X139533333Y-86648095D01*
X139533333Y-86648095D02*
X139533333Y-86790952D01*
X139533333Y-86790952D02*
X139485714Y-86886190D01*
X139485714Y-86886190D02*
X139438095Y-86933809D01*
X139438095Y-86933809D02*
X139342857Y-86981428D01*
X139342857Y-86981428D02*
X138961905Y-86981428D01*
X139866667Y-86457619D02*
X140533333Y-86457619D01*
X140533333Y-86457619D02*
X140104762Y-87457619D01*
X112857619Y-92717857D02*
X112381428Y-93051190D01*
X112857619Y-93289285D02*
X111857619Y-93289285D01*
X111857619Y-93289285D02*
X111857619Y-92908333D01*
X111857619Y-92908333D02*
X111905238Y-92813095D01*
X111905238Y-92813095D02*
X111952857Y-92765476D01*
X111952857Y-92765476D02*
X112048095Y-92717857D01*
X112048095Y-92717857D02*
X112190952Y-92717857D01*
X112190952Y-92717857D02*
X112286190Y-92765476D01*
X112286190Y-92765476D02*
X112333809Y-92813095D01*
X112333809Y-92813095D02*
X112381428Y-92908333D01*
X112381428Y-92908333D02*
X112381428Y-93289285D01*
X112857619Y-91765476D02*
X112857619Y-92336904D01*
X112857619Y-92051190D02*
X111857619Y-92051190D01*
X111857619Y-92051190D02*
X112000476Y-92146428D01*
X112000476Y-92146428D02*
X112095714Y-92241666D01*
X112095714Y-92241666D02*
X112143333Y-92336904D01*
X112857619Y-90813095D02*
X112857619Y-91384523D01*
X112857619Y-91098809D02*
X111857619Y-91098809D01*
X111857619Y-91098809D02*
X112000476Y-91194047D01*
X112000476Y-91194047D02*
X112095714Y-91289285D01*
X112095714Y-91289285D02*
X112143333Y-91384523D01*
X125557619Y-92717857D02*
X125081428Y-93051190D01*
X125557619Y-93289285D02*
X124557619Y-93289285D01*
X124557619Y-93289285D02*
X124557619Y-92908333D01*
X124557619Y-92908333D02*
X124605238Y-92813095D01*
X124605238Y-92813095D02*
X124652857Y-92765476D01*
X124652857Y-92765476D02*
X124748095Y-92717857D01*
X124748095Y-92717857D02*
X124890952Y-92717857D01*
X124890952Y-92717857D02*
X124986190Y-92765476D01*
X124986190Y-92765476D02*
X125033809Y-92813095D01*
X125033809Y-92813095D02*
X125081428Y-92908333D01*
X125081428Y-92908333D02*
X125081428Y-93289285D01*
X125557619Y-91765476D02*
X125557619Y-92336904D01*
X125557619Y-92051190D02*
X124557619Y-92051190D01*
X124557619Y-92051190D02*
X124700476Y-92146428D01*
X124700476Y-92146428D02*
X124795714Y-92241666D01*
X124795714Y-92241666D02*
X124843333Y-92336904D01*
X124557619Y-90860714D02*
X124557619Y-91336904D01*
X124557619Y-91336904D02*
X125033809Y-91384523D01*
X125033809Y-91384523D02*
X124986190Y-91336904D01*
X124986190Y-91336904D02*
X124938571Y-91241666D01*
X124938571Y-91241666D02*
X124938571Y-91003571D01*
X124938571Y-91003571D02*
X124986190Y-90908333D01*
X124986190Y-90908333D02*
X125033809Y-90860714D01*
X125033809Y-90860714D02*
X125129047Y-90813095D01*
X125129047Y-90813095D02*
X125367142Y-90813095D01*
X125367142Y-90813095D02*
X125462380Y-90860714D01*
X125462380Y-90860714D02*
X125510000Y-90908333D01*
X125510000Y-90908333D02*
X125557619Y-91003571D01*
X125557619Y-91003571D02*
X125557619Y-91241666D01*
X125557619Y-91241666D02*
X125510000Y-91336904D01*
X125510000Y-91336904D02*
X125462380Y-91384523D01*
X150399761Y-85397857D02*
X150304523Y-85350238D01*
X150304523Y-85350238D02*
X150209285Y-85255000D01*
X150209285Y-85255000D02*
X150066428Y-85112142D01*
X150066428Y-85112142D02*
X149971190Y-85064523D01*
X149971190Y-85064523D02*
X149875952Y-85064523D01*
X149923571Y-85302619D02*
X149828333Y-85255000D01*
X149828333Y-85255000D02*
X149733095Y-85159761D01*
X149733095Y-85159761D02*
X149685476Y-84969285D01*
X149685476Y-84969285D02*
X149685476Y-84635952D01*
X149685476Y-84635952D02*
X149733095Y-84445476D01*
X149733095Y-84445476D02*
X149828333Y-84350238D01*
X149828333Y-84350238D02*
X149923571Y-84302619D01*
X149923571Y-84302619D02*
X150114047Y-84302619D01*
X150114047Y-84302619D02*
X150209285Y-84350238D01*
X150209285Y-84350238D02*
X150304523Y-84445476D01*
X150304523Y-84445476D02*
X150352142Y-84635952D01*
X150352142Y-84635952D02*
X150352142Y-84969285D01*
X150352142Y-84969285D02*
X150304523Y-85159761D01*
X150304523Y-85159761D02*
X150209285Y-85255000D01*
X150209285Y-85255000D02*
X150114047Y-85302619D01*
X150114047Y-85302619D02*
X149923571Y-85302619D01*
X151304523Y-85302619D02*
X150733095Y-85302619D01*
X151018809Y-85302619D02*
X151018809Y-84302619D01*
X151018809Y-84302619D02*
X150923571Y-84445476D01*
X150923571Y-84445476D02*
X150828333Y-84540714D01*
X150828333Y-84540714D02*
X150733095Y-84588333D01*
X103926666Y-97512619D02*
X103926666Y-98226904D01*
X103926666Y-98226904D02*
X103879047Y-98369761D01*
X103879047Y-98369761D02*
X103783809Y-98465000D01*
X103783809Y-98465000D02*
X103640952Y-98512619D01*
X103640952Y-98512619D02*
X103545714Y-98512619D01*
X104307619Y-97512619D02*
X104926666Y-97512619D01*
X104926666Y-97512619D02*
X104593333Y-97893571D01*
X104593333Y-97893571D02*
X104736190Y-97893571D01*
X104736190Y-97893571D02*
X104831428Y-97941190D01*
X104831428Y-97941190D02*
X104879047Y-97988809D01*
X104879047Y-97988809D02*
X104926666Y-98084047D01*
X104926666Y-98084047D02*
X104926666Y-98322142D01*
X104926666Y-98322142D02*
X104879047Y-98417380D01*
X104879047Y-98417380D02*
X104831428Y-98465000D01*
X104831428Y-98465000D02*
X104736190Y-98512619D01*
X104736190Y-98512619D02*
X104450476Y-98512619D01*
X104450476Y-98512619D02*
X104355238Y-98465000D01*
X104355238Y-98465000D02*
X104307619Y-98417380D01*
X119761666Y-97512619D02*
X119761666Y-98226904D01*
X119761666Y-98226904D02*
X119714047Y-98369761D01*
X119714047Y-98369761D02*
X119618809Y-98465000D01*
X119618809Y-98465000D02*
X119475952Y-98512619D01*
X119475952Y-98512619D02*
X119380714Y-98512619D01*
X120190238Y-97607857D02*
X120237857Y-97560238D01*
X120237857Y-97560238D02*
X120333095Y-97512619D01*
X120333095Y-97512619D02*
X120571190Y-97512619D01*
X120571190Y-97512619D02*
X120666428Y-97560238D01*
X120666428Y-97560238D02*
X120714047Y-97607857D01*
X120714047Y-97607857D02*
X120761666Y-97703095D01*
X120761666Y-97703095D02*
X120761666Y-97798333D01*
X120761666Y-97798333D02*
X120714047Y-97941190D01*
X120714047Y-97941190D02*
X120142619Y-98512619D01*
X120142619Y-98512619D02*
X120761666Y-98512619D01*
X139057142Y-81107619D02*
X138723809Y-80631428D01*
X138485714Y-81107619D02*
X138485714Y-80107619D01*
X138485714Y-80107619D02*
X138866666Y-80107619D01*
X138866666Y-80107619D02*
X138961904Y-80155238D01*
X138961904Y-80155238D02*
X139009523Y-80202857D01*
X139009523Y-80202857D02*
X139057142Y-80298095D01*
X139057142Y-80298095D02*
X139057142Y-80440952D01*
X139057142Y-80440952D02*
X139009523Y-80536190D01*
X139009523Y-80536190D02*
X138961904Y-80583809D01*
X138961904Y-80583809D02*
X138866666Y-80631428D01*
X138866666Y-80631428D02*
X138485714Y-80631428D01*
X140009523Y-81107619D02*
X139438095Y-81107619D01*
X139723809Y-81107619D02*
X139723809Y-80107619D01*
X139723809Y-80107619D02*
X139628571Y-80250476D01*
X139628571Y-80250476D02*
X139533333Y-80345714D01*
X139533333Y-80345714D02*
X139438095Y-80393333D01*
X140628571Y-80107619D02*
X140723809Y-80107619D01*
X140723809Y-80107619D02*
X140819047Y-80155238D01*
X140819047Y-80155238D02*
X140866666Y-80202857D01*
X140866666Y-80202857D02*
X140914285Y-80298095D01*
X140914285Y-80298095D02*
X140961904Y-80488571D01*
X140961904Y-80488571D02*
X140961904Y-80726666D01*
X140961904Y-80726666D02*
X140914285Y-80917142D01*
X140914285Y-80917142D02*
X140866666Y-81012380D01*
X140866666Y-81012380D02*
X140819047Y-81060000D01*
X140819047Y-81060000D02*
X140723809Y-81107619D01*
X140723809Y-81107619D02*
X140628571Y-81107619D01*
X140628571Y-81107619D02*
X140533333Y-81060000D01*
X140533333Y-81060000D02*
X140485714Y-81012380D01*
X140485714Y-81012380D02*
X140438095Y-80917142D01*
X140438095Y-80917142D02*
X140390476Y-80726666D01*
X140390476Y-80726666D02*
X140390476Y-80488571D01*
X140390476Y-80488571D02*
X140438095Y-80298095D01*
X140438095Y-80298095D02*
X140485714Y-80202857D01*
X140485714Y-80202857D02*
X140533333Y-80155238D01*
X140533333Y-80155238D02*
X140628571Y-80107619D01*
X101427619Y-92717857D02*
X100951428Y-93051190D01*
X101427619Y-93289285D02*
X100427619Y-93289285D01*
X100427619Y-93289285D02*
X100427619Y-92908333D01*
X100427619Y-92908333D02*
X100475238Y-92813095D01*
X100475238Y-92813095D02*
X100522857Y-92765476D01*
X100522857Y-92765476D02*
X100618095Y-92717857D01*
X100618095Y-92717857D02*
X100760952Y-92717857D01*
X100760952Y-92717857D02*
X100856190Y-92765476D01*
X100856190Y-92765476D02*
X100903809Y-92813095D01*
X100903809Y-92813095D02*
X100951428Y-92908333D01*
X100951428Y-92908333D02*
X100951428Y-93289285D01*
X100522857Y-92336904D02*
X100475238Y-92289285D01*
X100475238Y-92289285D02*
X100427619Y-92194047D01*
X100427619Y-92194047D02*
X100427619Y-91955952D01*
X100427619Y-91955952D02*
X100475238Y-91860714D01*
X100475238Y-91860714D02*
X100522857Y-91813095D01*
X100522857Y-91813095D02*
X100618095Y-91765476D01*
X100618095Y-91765476D02*
X100713333Y-91765476D01*
X100713333Y-91765476D02*
X100856190Y-91813095D01*
X100856190Y-91813095D02*
X101427619Y-92384523D01*
X101427619Y-92384523D02*
X101427619Y-91765476D01*
X101427619Y-90813095D02*
X101427619Y-91384523D01*
X101427619Y-91098809D02*
X100427619Y-91098809D01*
X100427619Y-91098809D02*
X100570476Y-91194047D01*
X100570476Y-91194047D02*
X100665714Y-91289285D01*
X100665714Y-91289285D02*
X100713333Y-91384523D01*
D13*
X120550000Y-95345000D02*
X120550000Y-88805000D01*
X120880000Y-95345000D02*
X120550000Y-95345000D01*
X122960000Y-95345000D02*
X123290000Y-95345000D01*
X123290000Y-95345000D02*
X123290000Y-88805000D01*
X120550000Y-88805000D02*
X120880000Y-88805000D01*
X123290000Y-88805000D02*
X122960000Y-88805000D01*
X136430000Y-91975000D02*
X142970000Y-91975000D01*
X136430000Y-92305000D02*
X136430000Y-91975000D01*
X136430000Y-94385000D02*
X136430000Y-94715000D01*
X136430000Y-94715000D02*
X142970000Y-94715000D01*
X142970000Y-91975000D02*
X142970000Y-92305000D01*
X142970000Y-94715000D02*
X142970000Y-94385000D01*
X126900000Y-95345000D02*
X126900000Y-88805000D01*
X127230000Y-95345000D02*
X126900000Y-95345000D01*
X129310000Y-95345000D02*
X129640000Y-95345000D01*
X129640000Y-95345000D02*
X129640000Y-88805000D01*
X126900000Y-88805000D02*
X127230000Y-88805000D01*
X129640000Y-88805000D02*
X129310000Y-88805000D01*
X132665000Y-73760000D02*
X142945000Y-73760000D01*
X142945000Y-73760000D02*
X142945000Y-68460000D01*
X132665000Y-72110000D02*
X132665000Y-73760000D01*
X132665000Y-68460000D02*
X132665000Y-70110000D01*
X142945000Y-68460000D02*
X132665000Y-68460000D01*
X132665000Y-72110000D02*
G75*
G03*
X132665000Y-70110000I0J1000000D01*
G01*
X147220000Y-94075000D02*
X147220000Y-87535000D01*
X147550000Y-94075000D02*
X147220000Y-94075000D01*
X149630000Y-94075000D02*
X149960000Y-94075000D01*
X149960000Y-94075000D02*
X149960000Y-87535000D01*
X147220000Y-87535000D02*
X147550000Y-87535000D01*
X149960000Y-87535000D02*
X149630000Y-87535000D01*
X114200000Y-95345000D02*
X114200000Y-88805000D01*
X114530000Y-95345000D02*
X114200000Y-95345000D01*
X116610000Y-95345000D02*
X116940000Y-95345000D01*
X116940000Y-95345000D02*
X116940000Y-88805000D01*
X114200000Y-88805000D02*
X114530000Y-88805000D01*
X116940000Y-88805000D02*
X116610000Y-88805000D01*
X105945000Y-95345000D02*
X105945000Y-88805000D01*
X106275000Y-95345000D02*
X105945000Y-95345000D01*
X108355000Y-95345000D02*
X108685000Y-95345000D01*
X108685000Y-95345000D02*
X108685000Y-88805000D01*
X105945000Y-88805000D02*
X106275000Y-88805000D01*
X108685000Y-88805000D02*
X108355000Y-88805000D01*
X117375000Y-95345000D02*
X117375000Y-88805000D01*
X117705000Y-95345000D02*
X117375000Y-95345000D01*
X119785000Y-95345000D02*
X120115000Y-95345000D01*
X120115000Y-95345000D02*
X120115000Y-88805000D01*
X117375000Y-88805000D02*
X117705000Y-88805000D01*
X120115000Y-88805000D02*
X119785000Y-88805000D01*
X142970000Y-91540000D02*
X136430000Y-91540000D01*
X142970000Y-91210000D02*
X142970000Y-91540000D01*
X142970000Y-89130000D02*
X142970000Y-88800000D01*
X142970000Y-88800000D02*
X136430000Y-88800000D01*
X136430000Y-91540000D02*
X136430000Y-91210000D01*
X136430000Y-88800000D02*
X136430000Y-89130000D01*
X148495000Y-97055000D02*
X155035000Y-97055000D01*
X148495000Y-97385000D02*
X148495000Y-97055000D01*
X148495000Y-99465000D02*
X148495000Y-99795000D01*
X148495000Y-99795000D02*
X155035000Y-99795000D01*
X155035000Y-97055000D02*
X155035000Y-97385000D01*
X155035000Y-99795000D02*
X155035000Y-99465000D01*
X153570000Y-94075000D02*
X153570000Y-87535000D01*
X153900000Y-94075000D02*
X153570000Y-94075000D01*
X155980000Y-94075000D02*
X156310000Y-94075000D01*
X156310000Y-94075000D02*
X156310000Y-87535000D01*
X153570000Y-87535000D02*
X153900000Y-87535000D01*
X156310000Y-87535000D02*
X155980000Y-87535000D01*
X132815000Y-88805000D02*
X132815000Y-95345000D01*
X132485000Y-88805000D02*
X132815000Y-88805000D01*
X130405000Y-88805000D02*
X130075000Y-88805000D01*
X130075000Y-88805000D02*
X130075000Y-95345000D01*
X132815000Y-95345000D02*
X132485000Y-95345000D01*
X130075000Y-95345000D02*
X130405000Y-95345000D01*
X102770000Y-95345000D02*
X102770000Y-88805000D01*
X103100000Y-95345000D02*
X102770000Y-95345000D01*
X105180000Y-95345000D02*
X105510000Y-95345000D01*
X105510000Y-95345000D02*
X105510000Y-88805000D01*
X102770000Y-88805000D02*
X103100000Y-88805000D01*
X105510000Y-88805000D02*
X105180000Y-88805000D01*
X97360000Y-39100000D02*
X97360000Y-37100000D01*
X142970000Y-85190000D02*
X136430000Y-85190000D01*
X142970000Y-84860000D02*
X142970000Y-85190000D01*
X142970000Y-82780000D02*
X142970000Y-82450000D01*
X142970000Y-82450000D02*
X136430000Y-82450000D01*
X136430000Y-85190000D02*
X136430000Y-84860000D01*
X136430000Y-82450000D02*
X136430000Y-82780000D01*
X158690000Y-71755000D02*
X158690000Y-76895000D01*
X158690000Y-71755000D02*
X161350000Y-71755000D01*
X158690000Y-76895000D02*
X161350000Y-76895000D01*
X160020000Y-69155000D02*
X161350000Y-69155000D01*
X161350000Y-69155000D02*
X161350000Y-70485000D01*
X161350000Y-71755000D02*
X161350000Y-76895000D01*
X151765000Y-93575000D02*
X151765000Y-92925000D01*
X150645000Y-92925000D02*
X152885000Y-92925000D01*
X152885000Y-92925000D02*
X152885000Y-88685000D01*
X150645000Y-92325000D02*
X152885000Y-92325000D01*
X150645000Y-92205000D02*
X152885000Y-92205000D01*
X150645000Y-92085000D02*
X152885000Y-92085000D01*
X150645000Y-88685000D02*
X150645000Y-92925000D01*
X152885000Y-88685000D02*
X150645000Y-88685000D01*
X151765000Y-88035000D02*
X151765000Y-88685000D01*
X131810000Y-98850000D02*
X131810000Y-100100000D01*
X132100000Y-99140000D02*
X132100000Y-105110000D01*
X132100000Y-105110000D02*
X139720000Y-105110000D01*
X132110000Y-99150000D02*
X132110000Y-99900000D01*
X132110000Y-99900000D02*
X133910000Y-99900000D01*
X132110000Y-101400000D02*
X132860000Y-101400000D01*
X132860000Y-101400000D02*
X132860000Y-104350000D01*
X132860000Y-104350000D02*
X135910000Y-104350000D01*
X133060000Y-98850000D02*
X131810000Y-98850000D01*
X133910000Y-99150000D02*
X132110000Y-99150000D01*
X133910000Y-99900000D02*
X133910000Y-99150000D01*
X135410000Y-99150000D02*
X135410000Y-99900000D01*
X135410000Y-99900000D02*
X136410000Y-99900000D01*
X136410000Y-99150000D02*
X135410000Y-99150000D01*
X136410000Y-99900000D02*
X136410000Y-99150000D01*
X137910000Y-99150000D02*
X137910000Y-99900000D01*
X137910000Y-99900000D02*
X139710000Y-99900000D01*
X138960000Y-101400000D02*
X138960000Y-104350000D01*
X138960000Y-104350000D02*
X135910000Y-104350000D01*
X139710000Y-99150000D02*
X137910000Y-99150000D01*
X139710000Y-99900000D02*
X139710000Y-99150000D01*
X139710000Y-101400000D02*
X138960000Y-101400000D01*
X139720000Y-99140000D02*
X132100000Y-99140000D01*
X139720000Y-105110000D02*
X139720000Y-99140000D01*
X145670354Y-69515000D02*
X146670354Y-69515000D01*
X146170354Y-69015000D02*
X146170354Y-70015000D01*
X151150000Y-67310000D02*
X151150000Y-77470000D01*
X151190000Y-67310000D02*
X151190000Y-77470000D01*
X151230000Y-67310000D02*
X151230000Y-77470000D01*
X151270000Y-67311000D02*
X151270000Y-77469000D01*
X151310000Y-67312000D02*
X151310000Y-77468000D01*
X151350000Y-67313000D02*
X151350000Y-77467000D01*
X151390000Y-67315000D02*
X151390000Y-71350000D01*
X151390000Y-73430000D02*
X151390000Y-77465000D01*
X151430000Y-67317000D02*
X151430000Y-71350000D01*
X151430000Y-73430000D02*
X151430000Y-77463000D01*
X151470000Y-67320000D02*
X151470000Y-71350000D01*
X151470000Y-73430000D02*
X151470000Y-77460000D01*
X151510000Y-67322000D02*
X151510000Y-71350000D01*
X151510000Y-73430000D02*
X151510000Y-77458000D01*
X151550000Y-67325000D02*
X151550000Y-71350000D01*
X151550000Y-73430000D02*
X151550000Y-77455000D01*
X151590000Y-67328000D02*
X151590000Y-71350000D01*
X151590000Y-73430000D02*
X151590000Y-77452000D01*
X151630000Y-67332000D02*
X151630000Y-71350000D01*
X151630000Y-73430000D02*
X151630000Y-77448000D01*
X151670000Y-67336000D02*
X151670000Y-71350000D01*
X151670000Y-73430000D02*
X151670000Y-77444000D01*
X151710000Y-67340000D02*
X151710000Y-71350000D01*
X151710000Y-73430000D02*
X151710000Y-77440000D01*
X151750000Y-67345000D02*
X151750000Y-71350000D01*
X151750000Y-73430000D02*
X151750000Y-77435000D01*
X151790000Y-67350000D02*
X151790000Y-71350000D01*
X151790000Y-73430000D02*
X151790000Y-77430000D01*
X151830000Y-67355000D02*
X151830000Y-71350000D01*
X151830000Y-73430000D02*
X151830000Y-77425000D01*
X151871000Y-67360000D02*
X151871000Y-71350000D01*
X151871000Y-73430000D02*
X151871000Y-77420000D01*
X151911000Y-67366000D02*
X151911000Y-71350000D01*
X151911000Y-73430000D02*
X151911000Y-77414000D01*
X151951000Y-67372000D02*
X151951000Y-71350000D01*
X151951000Y-73430000D02*
X151951000Y-77408000D01*
X151991000Y-67379000D02*
X151991000Y-71350000D01*
X151991000Y-73430000D02*
X151991000Y-77401000D01*
X152031000Y-67386000D02*
X152031000Y-71350000D01*
X152031000Y-73430000D02*
X152031000Y-77394000D01*
X152071000Y-67393000D02*
X152071000Y-71350000D01*
X152071000Y-73430000D02*
X152071000Y-77387000D01*
X152111000Y-67400000D02*
X152111000Y-71350000D01*
X152111000Y-73430000D02*
X152111000Y-77380000D01*
X152151000Y-67408000D02*
X152151000Y-71350000D01*
X152151000Y-73430000D02*
X152151000Y-77372000D01*
X152191000Y-67416000D02*
X152191000Y-71350000D01*
X152191000Y-73430000D02*
X152191000Y-77364000D01*
X152231000Y-67425000D02*
X152231000Y-71350000D01*
X152231000Y-73430000D02*
X152231000Y-77355000D01*
X152271000Y-67434000D02*
X152271000Y-71350000D01*
X152271000Y-73430000D02*
X152271000Y-77346000D01*
X152311000Y-67443000D02*
X152311000Y-71350000D01*
X152311000Y-73430000D02*
X152311000Y-77337000D01*
X152351000Y-67452000D02*
X152351000Y-71350000D01*
X152351000Y-73430000D02*
X152351000Y-77328000D01*
X152391000Y-67462000D02*
X152391000Y-71350000D01*
X152391000Y-73430000D02*
X152391000Y-77318000D01*
X152431000Y-67472000D02*
X152431000Y-71350000D01*
X152431000Y-73430000D02*
X152431000Y-77308000D01*
X152471000Y-67483000D02*
X152471000Y-71350000D01*
X152471000Y-73430000D02*
X152471000Y-77297000D01*
X152511000Y-67493000D02*
X152511000Y-71350000D01*
X152511000Y-73430000D02*
X152511000Y-77287000D01*
X152551000Y-67505000D02*
X152551000Y-71350000D01*
X152551000Y-73430000D02*
X152551000Y-77275000D01*
X152591000Y-67516000D02*
X152591000Y-71350000D01*
X152591000Y-73430000D02*
X152591000Y-77264000D01*
X152631000Y-67528000D02*
X152631000Y-71350000D01*
X152631000Y-73430000D02*
X152631000Y-77252000D01*
X152671000Y-67540000D02*
X152671000Y-71350000D01*
X152671000Y-73430000D02*
X152671000Y-77240000D01*
X152711000Y-67553000D02*
X152711000Y-71350000D01*
X152711000Y-73430000D02*
X152711000Y-77227000D01*
X152751000Y-67566000D02*
X152751000Y-71350000D01*
X152751000Y-73430000D02*
X152751000Y-77214000D01*
X152791000Y-67579000D02*
X152791000Y-71350000D01*
X152791000Y-73430000D02*
X152791000Y-77201000D01*
X152831000Y-67593000D02*
X152831000Y-71350000D01*
X152831000Y-73430000D02*
X152831000Y-77187000D01*
X152871000Y-67607000D02*
X152871000Y-71350000D01*
X152871000Y-73430000D02*
X152871000Y-77173000D01*
X152911000Y-67622000D02*
X152911000Y-71350000D01*
X152911000Y-73430000D02*
X152911000Y-77158000D01*
X152951000Y-67636000D02*
X152951000Y-71350000D01*
X152951000Y-73430000D02*
X152951000Y-77144000D01*
X152991000Y-67652000D02*
X152991000Y-71350000D01*
X152991000Y-73430000D02*
X152991000Y-77128000D01*
X153031000Y-67667000D02*
X153031000Y-71350000D01*
X153031000Y-73430000D02*
X153031000Y-77113000D01*
X153071000Y-67683000D02*
X153071000Y-71350000D01*
X153071000Y-73430000D02*
X153071000Y-77097000D01*
X153111000Y-67700000D02*
X153111000Y-71350000D01*
X153111000Y-73430000D02*
X153111000Y-77080000D01*
X153151000Y-67716000D02*
X153151000Y-71350000D01*
X153151000Y-73430000D02*
X153151000Y-77064000D01*
X153191000Y-67733000D02*
X153191000Y-71350000D01*
X153191000Y-73430000D02*
X153191000Y-77047000D01*
X153231000Y-67751000D02*
X153231000Y-71350000D01*
X153231000Y-73430000D02*
X153231000Y-77029000D01*
X153271000Y-67769000D02*
X153271000Y-71350000D01*
X153271000Y-73430000D02*
X153271000Y-77011000D01*
X153311000Y-67787000D02*
X153311000Y-71350000D01*
X153311000Y-73430000D02*
X153311000Y-76993000D01*
X153351000Y-67806000D02*
X153351000Y-71350000D01*
X153351000Y-73430000D02*
X153351000Y-76974000D01*
X153391000Y-67826000D02*
X153391000Y-71350000D01*
X153391000Y-73430000D02*
X153391000Y-76954000D01*
X153431000Y-67845000D02*
X153431000Y-71350000D01*
X153431000Y-73430000D02*
X153431000Y-76935000D01*
X153471000Y-67865000D02*
X153471000Y-76915000D01*
X153511000Y-67886000D02*
X153511000Y-76894000D01*
X153551000Y-67907000D02*
X153551000Y-76873000D01*
X153591000Y-67928000D02*
X153591000Y-76852000D01*
X153631000Y-67950000D02*
X153631000Y-76830000D01*
X153671000Y-67973000D02*
X153671000Y-76807000D01*
X153711000Y-67995000D02*
X153711000Y-76785000D01*
X153751000Y-68019000D02*
X153751000Y-76761000D01*
X153791000Y-68043000D02*
X153791000Y-76737000D01*
X153831000Y-68067000D02*
X153831000Y-76713000D01*
X153871000Y-68092000D02*
X153871000Y-76688000D01*
X153911000Y-68117000D02*
X153911000Y-76663000D01*
X153951000Y-68143000D02*
X153951000Y-76637000D01*
X153991000Y-68169000D02*
X153991000Y-76611000D01*
X154031000Y-68196000D02*
X154031000Y-76584000D01*
X154071000Y-68224000D02*
X154071000Y-76556000D01*
X154111000Y-68252000D02*
X154111000Y-76528000D01*
X154151000Y-68280000D02*
X154151000Y-76500000D01*
X154191000Y-68310000D02*
X154191000Y-76470000D01*
X154231000Y-68340000D02*
X154231000Y-76440000D01*
X154271000Y-68370000D02*
X154271000Y-76410000D01*
X154311000Y-68401000D02*
X154311000Y-76379000D01*
X154351000Y-68433000D02*
X154351000Y-76347000D01*
X154391000Y-68465000D02*
X154391000Y-76315000D01*
X154431000Y-68498000D02*
X154431000Y-76282000D01*
X154471000Y-68532000D02*
X154471000Y-76248000D01*
X154511000Y-68566000D02*
X154511000Y-76214000D01*
X154551000Y-68601000D02*
X154551000Y-76179000D01*
X154591000Y-68637000D02*
X154591000Y-76143000D01*
X154631000Y-68674000D02*
X154631000Y-76106000D01*
X154671000Y-68711000D02*
X154671000Y-76069000D01*
X154711000Y-68750000D02*
X154711000Y-76030000D01*
X154751000Y-68789000D02*
X154751000Y-75991000D01*
X154791000Y-68829000D02*
X154791000Y-75951000D01*
X154831000Y-68870000D02*
X154831000Y-75910000D01*
X154871000Y-68912000D02*
X154871000Y-75868000D01*
X154911000Y-68954000D02*
X154911000Y-75826000D01*
X154951000Y-68998000D02*
X154951000Y-75782000D01*
X154991000Y-69043000D02*
X154991000Y-75737000D01*
X155031000Y-69089000D02*
X155031000Y-75691000D01*
X155071000Y-69136000D02*
X155071000Y-75644000D01*
X155111000Y-69184000D02*
X155111000Y-75596000D01*
X155151000Y-69234000D02*
X155151000Y-75546000D01*
X155191000Y-69284000D02*
X155191000Y-75496000D01*
X155231000Y-69336000D02*
X155231000Y-75444000D01*
X155271000Y-69390000D02*
X155271000Y-75390000D01*
X155311000Y-69445000D02*
X155311000Y-75335000D01*
X155351000Y-69501000D02*
X155351000Y-75279000D01*
X155391000Y-69560000D02*
X155391000Y-75220000D01*
X155431000Y-69620000D02*
X155431000Y-75160000D01*
X155471000Y-69681000D02*
X155471000Y-75099000D01*
X155511000Y-69745000D02*
X155511000Y-75035000D01*
X155551000Y-69811000D02*
X155551000Y-74969000D01*
X155591000Y-69880000D02*
X155591000Y-74900000D01*
X155631000Y-69951000D02*
X155631000Y-74829000D01*
X155671000Y-70025000D02*
X155671000Y-74755000D01*
X155711000Y-70101000D02*
X155711000Y-74679000D01*
X155751000Y-70181000D02*
X155751000Y-74599000D01*
X155791000Y-70265000D02*
X155791000Y-74515000D01*
X155831000Y-70353000D02*
X155831000Y-74427000D01*
X155871000Y-70446000D02*
X155871000Y-74334000D01*
X155911000Y-70544000D02*
X155911000Y-74236000D01*
X155951000Y-70648000D02*
X155951000Y-74132000D01*
X155991000Y-70760000D02*
X155991000Y-74020000D01*
X156031000Y-70880000D02*
X156031000Y-73900000D01*
X156071000Y-71012000D02*
X156071000Y-73768000D01*
X156111000Y-71160000D02*
X156111000Y-73620000D01*
X156151000Y-71328000D02*
X156151000Y-73452000D01*
X156191000Y-71528000D02*
X156191000Y-73252000D01*
X156231000Y-71791000D02*
X156231000Y-72989000D01*
X156270000Y-72390000D02*
G75*
G03*
X156270000Y-72390000I-5120000J0D01*
G01*
X136430000Y-85625000D02*
X142970000Y-85625000D01*
X136430000Y-85955000D02*
X136430000Y-85625000D01*
X136430000Y-88035000D02*
X136430000Y-88365000D01*
X136430000Y-88365000D02*
X142970000Y-88365000D01*
X142970000Y-85625000D02*
X142970000Y-85955000D01*
X142970000Y-88365000D02*
X142970000Y-88035000D01*
X111025000Y-95345000D02*
X111025000Y-88805000D01*
X111355000Y-95345000D02*
X111025000Y-95345000D01*
X113435000Y-95345000D02*
X113765000Y-95345000D01*
X113765000Y-95345000D02*
X113765000Y-88805000D01*
X111025000Y-88805000D02*
X111355000Y-88805000D01*
X113765000Y-88805000D02*
X113435000Y-88805000D01*
X123725000Y-95345000D02*
X123725000Y-88805000D01*
X124055000Y-95345000D02*
X123725000Y-95345000D01*
X126135000Y-95345000D02*
X126465000Y-95345000D01*
X126465000Y-95345000D02*
X126465000Y-88805000D01*
X123725000Y-88805000D02*
X124055000Y-88805000D01*
X126465000Y-88805000D02*
X126135000Y-88805000D01*
X152295000Y-79430000D02*
X148695000Y-79430000D01*
X150495000Y-83879999D02*
G75*
G03*
X152851399Y-82378807I0J2599999D01*
G01*
X152819183Y-80157205D02*
G75*
G03*
X152294999Y-79430001I-2324183J-1122795D01*
G01*
X148138600Y-82378807D02*
G75*
G03*
X150495000Y-83880000I2356400J1098807D01*
G01*
X148695001Y-79430001D02*
G75*
G03*
X148170817Y-80157205I1799999J-1849999D01*
G01*
X98910000Y-98850000D02*
X98910000Y-100100000D01*
X99200000Y-99140000D02*
X99200000Y-105110000D01*
X99200000Y-105110000D02*
X109320000Y-105110000D01*
X99210000Y-99150000D02*
X99210000Y-99900000D01*
X99210000Y-99900000D02*
X101010000Y-99900000D01*
X99210000Y-101400000D02*
X99960000Y-101400000D01*
X99960000Y-101400000D02*
X99960000Y-104350000D01*
X99960000Y-104350000D02*
X104260000Y-104350000D01*
X100160000Y-98850000D02*
X98910000Y-98850000D01*
X101010000Y-99150000D02*
X99210000Y-99150000D01*
X101010000Y-99900000D02*
X101010000Y-99150000D01*
X102510000Y-99150000D02*
X102510000Y-99900000D01*
X102510000Y-99900000D02*
X106010000Y-99900000D01*
X106010000Y-99150000D02*
X102510000Y-99150000D01*
X106010000Y-99900000D02*
X106010000Y-99150000D01*
X107510000Y-99150000D02*
X107510000Y-99900000D01*
X107510000Y-99900000D02*
X109310000Y-99900000D01*
X108560000Y-101400000D02*
X108560000Y-104350000D01*
X108560000Y-104350000D02*
X104260000Y-104350000D01*
X109310000Y-99150000D02*
X107510000Y-99150000D01*
X109310000Y-99900000D02*
X109310000Y-99150000D01*
X109310000Y-101400000D02*
X108560000Y-101400000D01*
X109320000Y-99140000D02*
X99200000Y-99140000D01*
X109320000Y-105110000D02*
X109320000Y-99140000D01*
X112245000Y-98850000D02*
X112245000Y-100100000D01*
X112535000Y-99140000D02*
X112535000Y-105110000D01*
X112535000Y-105110000D02*
X127655000Y-105110000D01*
X112545000Y-99150000D02*
X112545000Y-99900000D01*
X112545000Y-99900000D02*
X114345000Y-99900000D01*
X112545000Y-101400000D02*
X113295000Y-101400000D01*
X113295000Y-101400000D02*
X113295000Y-104350000D01*
X113295000Y-104350000D02*
X120095000Y-104350000D01*
X113495000Y-98850000D02*
X112245000Y-98850000D01*
X114345000Y-99150000D02*
X112545000Y-99150000D01*
X114345000Y-99900000D02*
X114345000Y-99150000D01*
X115845000Y-99150000D02*
X115845000Y-99900000D01*
X115845000Y-99900000D02*
X124345000Y-99900000D01*
X124345000Y-99150000D02*
X115845000Y-99150000D01*
X124345000Y-99900000D02*
X124345000Y-99150000D01*
X125845000Y-99150000D02*
X125845000Y-99900000D01*
X125845000Y-99900000D02*
X127645000Y-99900000D01*
X126895000Y-101400000D02*
X126895000Y-104350000D01*
X126895000Y-104350000D02*
X120095000Y-104350000D01*
X127645000Y-99150000D02*
X125845000Y-99150000D01*
X127645000Y-99900000D02*
X127645000Y-99150000D01*
X127645000Y-101400000D02*
X126895000Y-101400000D01*
X127655000Y-99140000D02*
X112535000Y-99140000D01*
X127655000Y-105110000D02*
X127655000Y-99140000D01*
X136430000Y-79275000D02*
X142970000Y-79275000D01*
X136430000Y-79605000D02*
X136430000Y-79275000D01*
X136430000Y-81685000D02*
X136430000Y-82015000D01*
X136430000Y-82015000D02*
X142970000Y-82015000D01*
X142970000Y-79275000D02*
X142970000Y-79605000D01*
X142970000Y-82015000D02*
X142970000Y-81685000D01*
X99595000Y-95345000D02*
X99595000Y-88805000D01*
X99925000Y-95345000D02*
X99595000Y-95345000D01*
X102005000Y-95345000D02*
X102335000Y-95345000D01*
X102335000Y-95345000D02*
X102335000Y-88805000D01*
X99595000Y-88805000D02*
X99925000Y-88805000D01*
X102335000Y-88805000D02*
X102005000Y-88805000D01*
%LPC*%
D14*
X121920000Y-95885000D03*
D15*
X121920000Y-88265000D03*
D14*
X135890000Y-93345000D03*
D15*
X143510000Y-93345000D03*
D14*
X128270000Y-95885000D03*
D15*
X128270000Y-88265000D03*
D16*
X133995000Y-74920000D03*
D15*
X136535000Y-74920000D03*
X139075000Y-74920000D03*
X141615000Y-74920000D03*
X141615000Y-67300000D03*
X139075000Y-67300000D03*
X136535000Y-67300000D03*
X133995000Y-67300000D03*
D14*
X148590000Y-94615000D03*
D15*
X148590000Y-86995000D03*
D14*
X115570000Y-95885000D03*
D15*
X115570000Y-88265000D03*
D14*
X107315000Y-95885000D03*
D15*
X107315000Y-88265000D03*
D14*
X118745000Y-95885000D03*
D15*
X118745000Y-88265000D03*
D17*
X158750000Y-35560000D03*
D14*
X143510000Y-90170000D03*
D15*
X135890000Y-90170000D03*
D17*
X101600000Y-82550000D03*
D14*
X147955000Y-98425000D03*
D15*
X155575000Y-98425000D03*
D14*
X154940000Y-94615000D03*
D15*
X154940000Y-86995000D03*
D17*
X158750000Y-102870000D03*
D14*
X131445000Y-88265000D03*
D15*
X131445000Y-95885000D03*
D14*
X104140000Y-95885000D03*
D15*
X104140000Y-88265000D03*
D16*
X99060000Y-38100000D03*
D14*
X99060000Y-40640000D03*
X99060000Y-43180000D03*
X99060000Y-45720000D03*
X99060000Y-48260000D03*
X99060000Y-50800000D03*
X99060000Y-53340000D03*
X99060000Y-55880000D03*
X99060000Y-58420000D03*
X99060000Y-60960000D03*
X99060000Y-63500000D03*
X99060000Y-66040000D03*
X99060000Y-68580000D03*
X99060000Y-71120000D03*
X99060000Y-73660000D03*
X99060000Y-76200000D03*
X119380000Y-76200000D03*
X119380000Y-73660000D03*
X119380000Y-71120000D03*
X119380000Y-68580000D03*
X119380000Y-66040000D03*
X119380000Y-63500000D03*
X119380000Y-60960000D03*
X119380000Y-58420000D03*
X119380000Y-55880000D03*
X119380000Y-53340000D03*
X119380000Y-50800000D03*
X119380000Y-48260000D03*
X143510000Y-83820000D03*
D15*
X135890000Y-83820000D03*
D18*
X160020000Y-70485000D03*
D19*
X160020000Y-73025000D03*
X160020000Y-75565000D03*
D17*
X104140000Y-35560000D03*
D20*
X124510000Y-56925000D03*
X124510000Y-54385000D03*
X160070000Y-56925000D03*
X160070000Y-54385000D03*
D16*
X151765000Y-94615000D03*
D15*
X151765000Y-86995000D03*
D21*
X134660000Y-101600000D03*
D22*
X137160000Y-101600000D03*
D16*
X149900000Y-72390000D03*
D14*
X152400000Y-72390000D03*
X135890000Y-86995000D03*
D15*
X143510000Y-86995000D03*
D14*
X112395000Y-95885000D03*
D15*
X112395000Y-88265000D03*
D14*
X125095000Y-95885000D03*
D15*
X125095000Y-88265000D03*
D23*
X153035000Y-81280000D03*
D24*
X150495000Y-81280000D03*
X147955000Y-81280000D03*
D25*
X101760000Y-101600000D03*
D26*
X104260000Y-101600000D03*
X106760000Y-101600000D03*
D25*
X115095000Y-101600000D03*
D26*
X117595000Y-101600000D03*
X120095000Y-101600000D03*
X122595000Y-101600000D03*
X125095000Y-101600000D03*
D14*
X135890000Y-80645000D03*
D15*
X143510000Y-80645000D03*
D14*
X100965000Y-95885000D03*
D15*
X100965000Y-88265000D03*
M02*
