%TF.GenerationSoftware,KiCad,Pcbnew,7.0.1-3b83917a11~172~ubuntu20.04.1*%
%TF.CreationDate,2023-04-19T14:41:03+02:00*%
%TF.ProjectId,nowcast,6e6f7763-6173-4742-9e6b-696361645f70,rev?*%
%TF.SameCoordinates,Original*%
%TF.FileFunction,Drillmap*%
%TF.FilePolarity,Positive*%
%FSLAX45Y45*%
G04 Gerber Fmt 4.5, Leading zero omitted, Abs format (unit mm)*
G04 Created by KiCad (PCBNEW 7.0.1-3b83917a11~172~ubuntu20.04.1) date 2023-04-19 14:41:03*
%MOMM*%
%LPD*%
G01*
G04 APERTURE LIST*
%ADD10C,0.130000*%
%ADD11C,0.200000*%
G04 APERTURE END LIST*
D10*
X89905285Y-30609350D02*
X89905285Y-34623514D01*
X89905285Y-78441111D02*
X89905285Y-82455275D01*
X89905285Y-34623514D02*
G75*
G03*
X89905285Y-78441110I1999991J-21908798D01*
G01*
X89905285Y-30609350D02*
G75*
G03*
X89905285Y-82455275I2000000J-25922963D01*
G01*
D11*
X66146404Y-82774299D02*
X66146404Y-82574299D01*
X66146404Y-82574299D02*
X66194023Y-82574299D01*
X66194023Y-82574299D02*
X66222594Y-82583823D01*
X66222594Y-82583823D02*
X66241642Y-82602870D01*
X66241642Y-82602870D02*
X66251166Y-82621918D01*
X66251166Y-82621918D02*
X66260689Y-82660013D01*
X66260689Y-82660013D02*
X66260689Y-82688585D01*
X66260689Y-82688585D02*
X66251166Y-82726680D01*
X66251166Y-82726680D02*
X66241642Y-82745728D01*
X66241642Y-82745728D02*
X66222594Y-82764775D01*
X66222594Y-82764775D02*
X66194023Y-82774299D01*
X66194023Y-82774299D02*
X66146404Y-82774299D01*
X66346404Y-82774299D02*
X66346404Y-82640966D01*
X66346404Y-82679061D02*
X66355927Y-82660013D01*
X66355927Y-82660013D02*
X66365451Y-82650489D01*
X66365451Y-82650489D02*
X66384499Y-82640966D01*
X66384499Y-82640966D02*
X66403547Y-82640966D01*
X66470213Y-82774299D02*
X66470213Y-82640966D01*
X66470213Y-82574299D02*
X66460689Y-82583823D01*
X66460689Y-82583823D02*
X66470213Y-82593347D01*
X66470213Y-82593347D02*
X66479737Y-82583823D01*
X66479737Y-82583823D02*
X66470213Y-82574299D01*
X66470213Y-82574299D02*
X66470213Y-82593347D01*
X66594023Y-82774299D02*
X66574975Y-82764775D01*
X66574975Y-82764775D02*
X66565451Y-82745728D01*
X66565451Y-82745728D02*
X66565451Y-82574299D01*
X66698785Y-82774299D02*
X66679737Y-82764775D01*
X66679737Y-82764775D02*
X66670213Y-82745728D01*
X66670213Y-82745728D02*
X66670213Y-82574299D01*
X66927356Y-82774299D02*
X66927356Y-82574299D01*
X66927356Y-82574299D02*
X66994023Y-82717156D01*
X66994023Y-82717156D02*
X67060689Y-82574299D01*
X67060689Y-82574299D02*
X67060689Y-82774299D01*
X67241642Y-82774299D02*
X67241642Y-82669537D01*
X67241642Y-82669537D02*
X67232118Y-82650489D01*
X67232118Y-82650489D02*
X67213070Y-82640966D01*
X67213070Y-82640966D02*
X67174975Y-82640966D01*
X67174975Y-82640966D02*
X67155928Y-82650489D01*
X67241642Y-82764775D02*
X67222594Y-82774299D01*
X67222594Y-82774299D02*
X67174975Y-82774299D01*
X67174975Y-82774299D02*
X67155928Y-82764775D01*
X67155928Y-82764775D02*
X67146404Y-82745728D01*
X67146404Y-82745728D02*
X67146404Y-82726680D01*
X67146404Y-82726680D02*
X67155928Y-82707632D01*
X67155928Y-82707632D02*
X67174975Y-82698109D01*
X67174975Y-82698109D02*
X67222594Y-82698109D01*
X67222594Y-82698109D02*
X67241642Y-82688585D01*
X67336880Y-82640966D02*
X67336880Y-82840966D01*
X67336880Y-82650489D02*
X67355928Y-82640966D01*
X67355928Y-82640966D02*
X67394023Y-82640966D01*
X67394023Y-82640966D02*
X67413070Y-82650489D01*
X67413070Y-82650489D02*
X67422594Y-82660013D01*
X67422594Y-82660013D02*
X67432118Y-82679061D01*
X67432118Y-82679061D02*
X67432118Y-82736204D01*
X67432118Y-82736204D02*
X67422594Y-82755251D01*
X67422594Y-82755251D02*
X67413070Y-82764775D01*
X67413070Y-82764775D02*
X67394023Y-82774299D01*
X67394023Y-82774299D02*
X67355928Y-82774299D01*
X67355928Y-82774299D02*
X67336880Y-82764775D01*
X67517832Y-82755251D02*
X67527356Y-82764775D01*
X67527356Y-82764775D02*
X67517832Y-82774299D01*
X67517832Y-82774299D02*
X67508309Y-82764775D01*
X67508309Y-82764775D02*
X67517832Y-82755251D01*
X67517832Y-82755251D02*
X67517832Y-82774299D01*
X67517832Y-82650489D02*
X67527356Y-82660013D01*
X67527356Y-82660013D02*
X67517832Y-82669537D01*
X67517832Y-82669537D02*
X67508309Y-82660013D01*
X67508309Y-82660013D02*
X67517832Y-82650489D01*
X67517832Y-82650489D02*
X67517832Y-82669537D01*
M02*
