%TF.GenerationSoftware,KiCad,Pcbnew,7.0.1-3b83917a11~172~ubuntu20.04.1*%
%TF.CreationDate,2023-04-20T10:59:01+02:00*%
%TF.ProjectId,nowcast,6e6f7763-6173-4742-9e6b-696361645f70,rev?*%
%TF.SameCoordinates,Original*%
%TF.FileFunction,Drillmap*%
%TF.FilePolarity,Positive*%
%FSLAX45Y45*%
G04 Gerber Fmt 4.5, Leading zero omitted, Abs format (unit mm)*
G04 Created by KiCad (PCBNEW 7.0.1-3b83917a11~172~ubuntu20.04.1) date 2023-04-20 10:59:01*
%MOMM*%
%LPD*%
G01*
G04 APERTURE LIST*
%ADD10C,0.130000*%
%ADD11C,0.200000*%
%ADD12C,0.320000*%
G04 APERTURE END LIST*
D10*
X89905285Y-30609350D02*
X89905285Y-34623514D01*
X89905285Y-78441111D02*
X89905285Y-82455275D01*
X89905285Y-34623514D02*
G75*
G03*
X89905285Y-78441110I1999991J-21908798D01*
G01*
X89905285Y-30609350D02*
G75*
G03*
X89905285Y-82455275I2000000J-25922963D01*
G01*
D11*
D12*
X66388000Y-58768000D02*
X66708000Y-59088000D01*
X66708000Y-58768000D02*
X66388000Y-59088000D01*
X67785000Y-47465000D02*
X68105000Y-47785000D01*
X68105000Y-47465000D02*
X67785000Y-47785000D01*
X69436000Y-53307000D02*
X69756000Y-53627000D01*
X69756000Y-53307000D02*
X69436000Y-53627000D01*
X69944000Y-69563000D02*
X70264000Y-69883000D01*
X70264000Y-69563000D02*
X69944000Y-69883000D01*
X70452000Y-63340000D02*
X70772000Y-63660000D01*
X70772000Y-63340000D02*
X70452000Y-63660000D01*
X72992000Y-44036000D02*
X73312000Y-44356000D01*
X73312000Y-44036000D02*
X72992000Y-44356000D01*
X74135000Y-37940000D02*
X74455000Y-38260000D01*
X74455000Y-37940000D02*
X74135000Y-38260000D01*
X75405000Y-71849000D02*
X75725000Y-72169000D01*
X75725000Y-71849000D02*
X75405000Y-72169000D01*
X77691000Y-77564000D02*
X78011000Y-77884000D01*
X78011000Y-77564000D02*
X77691000Y-77884000D01*
X78580000Y-34511000D02*
X78900000Y-34831000D01*
X78900000Y-34511000D02*
X78580000Y-34831000D01*
X83787000Y-77437000D02*
X84107000Y-77757000D01*
X84107000Y-77437000D02*
X83787000Y-77757000D01*
X84803000Y-35019000D02*
X85123000Y-35339000D01*
X85123000Y-35019000D02*
X84803000Y-35339000D01*
X88359000Y-31082000D02*
X88679000Y-31402000D01*
X88679000Y-31082000D02*
X88359000Y-31402000D01*
X88359000Y-81628000D02*
X88679000Y-81948000D01*
X88679000Y-81628000D02*
X88359000Y-81948000D01*
X88740000Y-34130000D02*
X89060000Y-34450000D01*
X89060000Y-34130000D02*
X88740000Y-34450000D01*
X88740000Y-78707000D02*
X89060000Y-79027000D01*
X89060000Y-78707000D02*
X88740000Y-79027000D01*
D11*
X66146404Y-82774299D02*
X66146404Y-82574299D01*
X66146404Y-82574299D02*
X66194023Y-82574299D01*
X66194023Y-82574299D02*
X66222594Y-82583823D01*
X66222594Y-82583823D02*
X66241642Y-82602870D01*
X66241642Y-82602870D02*
X66251166Y-82621918D01*
X66251166Y-82621918D02*
X66260689Y-82660013D01*
X66260689Y-82660013D02*
X66260689Y-82688585D01*
X66260689Y-82688585D02*
X66251166Y-82726680D01*
X66251166Y-82726680D02*
X66241642Y-82745728D01*
X66241642Y-82745728D02*
X66222594Y-82764775D01*
X66222594Y-82764775D02*
X66194023Y-82774299D01*
X66194023Y-82774299D02*
X66146404Y-82774299D01*
X66346404Y-82774299D02*
X66346404Y-82640966D01*
X66346404Y-82679061D02*
X66355927Y-82660013D01*
X66355927Y-82660013D02*
X66365451Y-82650489D01*
X66365451Y-82650489D02*
X66384499Y-82640966D01*
X66384499Y-82640966D02*
X66403547Y-82640966D01*
X66470213Y-82774299D02*
X66470213Y-82640966D01*
X66470213Y-82574299D02*
X66460689Y-82583823D01*
X66460689Y-82583823D02*
X66470213Y-82593347D01*
X66470213Y-82593347D02*
X66479737Y-82583823D01*
X66479737Y-82583823D02*
X66470213Y-82574299D01*
X66470213Y-82574299D02*
X66470213Y-82593347D01*
X66594023Y-82774299D02*
X66574975Y-82764775D01*
X66574975Y-82764775D02*
X66565451Y-82745728D01*
X66565451Y-82745728D02*
X66565451Y-82574299D01*
X66698785Y-82774299D02*
X66679737Y-82764775D01*
X66679737Y-82764775D02*
X66670213Y-82745728D01*
X66670213Y-82745728D02*
X66670213Y-82574299D01*
X66927356Y-82774299D02*
X66927356Y-82574299D01*
X66927356Y-82574299D02*
X66994023Y-82717156D01*
X66994023Y-82717156D02*
X67060689Y-82574299D01*
X67060689Y-82574299D02*
X67060689Y-82774299D01*
X67241642Y-82774299D02*
X67241642Y-82669537D01*
X67241642Y-82669537D02*
X67232118Y-82650489D01*
X67232118Y-82650489D02*
X67213070Y-82640966D01*
X67213070Y-82640966D02*
X67174975Y-82640966D01*
X67174975Y-82640966D02*
X67155928Y-82650489D01*
X67241642Y-82764775D02*
X67222594Y-82774299D01*
X67222594Y-82774299D02*
X67174975Y-82774299D01*
X67174975Y-82774299D02*
X67155928Y-82764775D01*
X67155928Y-82764775D02*
X67146404Y-82745728D01*
X67146404Y-82745728D02*
X67146404Y-82726680D01*
X67146404Y-82726680D02*
X67155928Y-82707632D01*
X67155928Y-82707632D02*
X67174975Y-82698109D01*
X67174975Y-82698109D02*
X67222594Y-82698109D01*
X67222594Y-82698109D02*
X67241642Y-82688585D01*
X67336880Y-82640966D02*
X67336880Y-82840966D01*
X67336880Y-82650489D02*
X67355928Y-82640966D01*
X67355928Y-82640966D02*
X67394023Y-82640966D01*
X67394023Y-82640966D02*
X67413070Y-82650489D01*
X67413070Y-82650489D02*
X67422594Y-82660013D01*
X67422594Y-82660013D02*
X67432118Y-82679061D01*
X67432118Y-82679061D02*
X67432118Y-82736204D01*
X67432118Y-82736204D02*
X67422594Y-82755251D01*
X67422594Y-82755251D02*
X67413070Y-82764775D01*
X67413070Y-82764775D02*
X67394023Y-82774299D01*
X67394023Y-82774299D02*
X67355928Y-82774299D01*
X67355928Y-82774299D02*
X67336880Y-82764775D01*
X67517832Y-82755251D02*
X67527356Y-82764775D01*
X67527356Y-82764775D02*
X67517832Y-82774299D01*
X67517832Y-82774299D02*
X67508309Y-82764775D01*
X67508309Y-82764775D02*
X67517832Y-82755251D01*
X67517832Y-82755251D02*
X67517832Y-82774299D01*
X67517832Y-82650489D02*
X67527356Y-82660013D01*
X67527356Y-82660013D02*
X67517832Y-82669537D01*
X67517832Y-82669537D02*
X67508309Y-82660013D01*
X67508309Y-82660013D02*
X67517832Y-82650489D01*
X67517832Y-82650489D02*
X67517832Y-82669537D01*
X65698785Y-83001775D02*
X65898785Y-83201775D01*
X65898785Y-83001775D02*
X65698785Y-83201775D01*
X66127356Y-82994299D02*
X66251166Y-82994299D01*
X66251166Y-82994299D02*
X66184499Y-83070489D01*
X66184499Y-83070489D02*
X66213070Y-83070489D01*
X66213070Y-83070489D02*
X66232118Y-83080013D01*
X66232118Y-83080013D02*
X66241642Y-83089537D01*
X66241642Y-83089537D02*
X66251166Y-83108585D01*
X66251166Y-83108585D02*
X66251166Y-83156204D01*
X66251166Y-83156204D02*
X66241642Y-83175251D01*
X66241642Y-83175251D02*
X66232118Y-83184775D01*
X66232118Y-83184775D02*
X66213070Y-83194299D01*
X66213070Y-83194299D02*
X66155927Y-83194299D01*
X66155927Y-83194299D02*
X66136880Y-83184775D01*
X66136880Y-83184775D02*
X66127356Y-83175251D01*
X66336880Y-83175251D02*
X66346404Y-83184775D01*
X66346404Y-83184775D02*
X66336880Y-83194299D01*
X66336880Y-83194299D02*
X66327356Y-83184775D01*
X66327356Y-83184775D02*
X66336880Y-83175251D01*
X66336880Y-83175251D02*
X66336880Y-83194299D01*
X66422594Y-83013347D02*
X66432118Y-83003823D01*
X66432118Y-83003823D02*
X66451166Y-82994299D01*
X66451166Y-82994299D02*
X66498785Y-82994299D01*
X66498785Y-82994299D02*
X66517832Y-83003823D01*
X66517832Y-83003823D02*
X66527356Y-83013347D01*
X66527356Y-83013347D02*
X66536880Y-83032394D01*
X66536880Y-83032394D02*
X66536880Y-83051442D01*
X66536880Y-83051442D02*
X66527356Y-83080013D01*
X66527356Y-83080013D02*
X66413070Y-83194299D01*
X66413070Y-83194299D02*
X66536880Y-83194299D01*
X66660689Y-82994299D02*
X66679737Y-82994299D01*
X66679737Y-82994299D02*
X66698785Y-83003823D01*
X66698785Y-83003823D02*
X66708308Y-83013347D01*
X66708308Y-83013347D02*
X66717832Y-83032394D01*
X66717832Y-83032394D02*
X66727356Y-83070489D01*
X66727356Y-83070489D02*
X66727356Y-83118109D01*
X66727356Y-83118109D02*
X66717832Y-83156204D01*
X66717832Y-83156204D02*
X66708308Y-83175251D01*
X66708308Y-83175251D02*
X66698785Y-83184775D01*
X66698785Y-83184775D02*
X66679737Y-83194299D01*
X66679737Y-83194299D02*
X66660689Y-83194299D01*
X66660689Y-83194299D02*
X66641642Y-83184775D01*
X66641642Y-83184775D02*
X66632118Y-83175251D01*
X66632118Y-83175251D02*
X66622594Y-83156204D01*
X66622594Y-83156204D02*
X66613070Y-83118109D01*
X66613070Y-83118109D02*
X66613070Y-83070489D01*
X66613070Y-83070489D02*
X66622594Y-83032394D01*
X66622594Y-83032394D02*
X66632118Y-83013347D01*
X66632118Y-83013347D02*
X66641642Y-83003823D01*
X66641642Y-83003823D02*
X66660689Y-82994299D01*
X66851166Y-82994299D02*
X66870213Y-82994299D01*
X66870213Y-82994299D02*
X66889261Y-83003823D01*
X66889261Y-83003823D02*
X66898785Y-83013347D01*
X66898785Y-83013347D02*
X66908308Y-83032394D01*
X66908308Y-83032394D02*
X66917832Y-83070489D01*
X66917832Y-83070489D02*
X66917832Y-83118109D01*
X66917832Y-83118109D02*
X66908308Y-83156204D01*
X66908308Y-83156204D02*
X66898785Y-83175251D01*
X66898785Y-83175251D02*
X66889261Y-83184775D01*
X66889261Y-83184775D02*
X66870213Y-83194299D01*
X66870213Y-83194299D02*
X66851166Y-83194299D01*
X66851166Y-83194299D02*
X66832118Y-83184775D01*
X66832118Y-83184775D02*
X66822594Y-83175251D01*
X66822594Y-83175251D02*
X66813070Y-83156204D01*
X66813070Y-83156204D02*
X66803547Y-83118109D01*
X66803547Y-83118109D02*
X66803547Y-83070489D01*
X66803547Y-83070489D02*
X66813070Y-83032394D01*
X66813070Y-83032394D02*
X66822594Y-83013347D01*
X66822594Y-83013347D02*
X66832118Y-83003823D01*
X66832118Y-83003823D02*
X66851166Y-82994299D01*
X67003547Y-83194299D02*
X67003547Y-83060966D01*
X67003547Y-83080013D02*
X67013070Y-83070489D01*
X67013070Y-83070489D02*
X67032118Y-83060966D01*
X67032118Y-83060966D02*
X67060689Y-83060966D01*
X67060689Y-83060966D02*
X67079737Y-83070489D01*
X67079737Y-83070489D02*
X67089261Y-83089537D01*
X67089261Y-83089537D02*
X67089261Y-83194299D01*
X67089261Y-83089537D02*
X67098785Y-83070489D01*
X67098785Y-83070489D02*
X67117832Y-83060966D01*
X67117832Y-83060966D02*
X67146404Y-83060966D01*
X67146404Y-83060966D02*
X67165451Y-83070489D01*
X67165451Y-83070489D02*
X67174975Y-83089537D01*
X67174975Y-83089537D02*
X67174975Y-83194299D01*
X67270213Y-83194299D02*
X67270213Y-83060966D01*
X67270213Y-83080013D02*
X67279737Y-83070489D01*
X67279737Y-83070489D02*
X67298785Y-83060966D01*
X67298785Y-83060966D02*
X67327356Y-83060966D01*
X67327356Y-83060966D02*
X67346404Y-83070489D01*
X67346404Y-83070489D02*
X67355928Y-83089537D01*
X67355928Y-83089537D02*
X67355928Y-83194299D01*
X67355928Y-83089537D02*
X67365451Y-83070489D01*
X67365451Y-83070489D02*
X67384499Y-83060966D01*
X67384499Y-83060966D02*
X67413070Y-83060966D01*
X67413070Y-83060966D02*
X67432118Y-83070489D01*
X67432118Y-83070489D02*
X67441642Y-83089537D01*
X67441642Y-83089537D02*
X67441642Y-83194299D01*
X67832118Y-82984775D02*
X67660690Y-83241918D01*
X68089261Y-82994299D02*
X68108309Y-82994299D01*
X68108309Y-82994299D02*
X68127356Y-83003823D01*
X68127356Y-83003823D02*
X68136880Y-83013347D01*
X68136880Y-83013347D02*
X68146404Y-83032394D01*
X68146404Y-83032394D02*
X68155928Y-83070489D01*
X68155928Y-83070489D02*
X68155928Y-83118109D01*
X68155928Y-83118109D02*
X68146404Y-83156204D01*
X68146404Y-83156204D02*
X68136880Y-83175251D01*
X68136880Y-83175251D02*
X68127356Y-83184775D01*
X68127356Y-83184775D02*
X68108309Y-83194299D01*
X68108309Y-83194299D02*
X68089261Y-83194299D01*
X68089261Y-83194299D02*
X68070213Y-83184775D01*
X68070213Y-83184775D02*
X68060690Y-83175251D01*
X68060690Y-83175251D02*
X68051166Y-83156204D01*
X68051166Y-83156204D02*
X68041642Y-83118109D01*
X68041642Y-83118109D02*
X68041642Y-83070489D01*
X68041642Y-83070489D02*
X68051166Y-83032394D01*
X68051166Y-83032394D02*
X68060690Y-83013347D01*
X68060690Y-83013347D02*
X68070213Y-83003823D01*
X68070213Y-83003823D02*
X68089261Y-82994299D01*
X68241642Y-83175251D02*
X68251166Y-83184775D01*
X68251166Y-83184775D02*
X68241642Y-83194299D01*
X68241642Y-83194299D02*
X68232118Y-83184775D01*
X68232118Y-83184775D02*
X68241642Y-83175251D01*
X68241642Y-83175251D02*
X68241642Y-83194299D01*
X68441642Y-83194299D02*
X68327356Y-83194299D01*
X68384499Y-83194299D02*
X68384499Y-82994299D01*
X68384499Y-82994299D02*
X68365452Y-83022870D01*
X68365452Y-83022870D02*
X68346404Y-83041918D01*
X68346404Y-83041918D02*
X68327356Y-83051442D01*
X68517833Y-83013347D02*
X68527356Y-83003823D01*
X68527356Y-83003823D02*
X68546404Y-82994299D01*
X68546404Y-82994299D02*
X68594023Y-82994299D01*
X68594023Y-82994299D02*
X68613071Y-83003823D01*
X68613071Y-83003823D02*
X68622594Y-83013347D01*
X68622594Y-83013347D02*
X68632118Y-83032394D01*
X68632118Y-83032394D02*
X68632118Y-83051442D01*
X68632118Y-83051442D02*
X68622594Y-83080013D01*
X68622594Y-83080013D02*
X68508309Y-83194299D01*
X68508309Y-83194299D02*
X68632118Y-83194299D01*
X68803547Y-82994299D02*
X68765452Y-82994299D01*
X68765452Y-82994299D02*
X68746404Y-83003823D01*
X68746404Y-83003823D02*
X68736880Y-83013347D01*
X68736880Y-83013347D02*
X68717833Y-83041918D01*
X68717833Y-83041918D02*
X68708309Y-83080013D01*
X68708309Y-83080013D02*
X68708309Y-83156204D01*
X68708309Y-83156204D02*
X68717833Y-83175251D01*
X68717833Y-83175251D02*
X68727356Y-83184775D01*
X68727356Y-83184775D02*
X68746404Y-83194299D01*
X68746404Y-83194299D02*
X68784499Y-83194299D01*
X68784499Y-83194299D02*
X68803547Y-83184775D01*
X68803547Y-83184775D02*
X68813071Y-83175251D01*
X68813071Y-83175251D02*
X68822594Y-83156204D01*
X68822594Y-83156204D02*
X68822594Y-83108585D01*
X68822594Y-83108585D02*
X68813071Y-83089537D01*
X68813071Y-83089537D02*
X68803547Y-83080013D01*
X68803547Y-83080013D02*
X68784499Y-83070489D01*
X68784499Y-83070489D02*
X68746404Y-83070489D01*
X68746404Y-83070489D02*
X68727356Y-83080013D01*
X68727356Y-83080013D02*
X68717833Y-83089537D01*
X68717833Y-83089537D02*
X68708309Y-83108585D01*
X68946404Y-82994299D02*
X68965452Y-82994299D01*
X68965452Y-82994299D02*
X68984499Y-83003823D01*
X68984499Y-83003823D02*
X68994023Y-83013347D01*
X68994023Y-83013347D02*
X69003547Y-83032394D01*
X69003547Y-83032394D02*
X69013071Y-83070489D01*
X69013071Y-83070489D02*
X69013071Y-83118109D01*
X69013071Y-83118109D02*
X69003547Y-83156204D01*
X69003547Y-83156204D02*
X68994023Y-83175251D01*
X68994023Y-83175251D02*
X68984499Y-83184775D01*
X68984499Y-83184775D02*
X68965452Y-83194299D01*
X68965452Y-83194299D02*
X68946404Y-83194299D01*
X68946404Y-83194299D02*
X68927356Y-83184775D01*
X68927356Y-83184775D02*
X68917833Y-83175251D01*
X68917833Y-83175251D02*
X68908309Y-83156204D01*
X68908309Y-83156204D02*
X68898785Y-83118109D01*
X68898785Y-83118109D02*
X68898785Y-83070489D01*
X68898785Y-83070489D02*
X68908309Y-83032394D01*
X68908309Y-83032394D02*
X68917833Y-83013347D01*
X68917833Y-83013347D02*
X68927356Y-83003823D01*
X68927356Y-83003823D02*
X68946404Y-82994299D01*
X69089261Y-82994299D02*
X69089261Y-83032394D01*
X69165452Y-82994299D02*
X69165452Y-83032394D01*
X69460690Y-83270489D02*
X69451166Y-83260966D01*
X69451166Y-83260966D02*
X69432118Y-83232394D01*
X69432118Y-83232394D02*
X69422595Y-83213347D01*
X69422595Y-83213347D02*
X69413071Y-83184775D01*
X69413071Y-83184775D02*
X69403547Y-83137156D01*
X69403547Y-83137156D02*
X69403547Y-83099061D01*
X69403547Y-83099061D02*
X69413071Y-83051442D01*
X69413071Y-83051442D02*
X69422595Y-83022870D01*
X69422595Y-83022870D02*
X69432118Y-83003823D01*
X69432118Y-83003823D02*
X69451166Y-82975251D01*
X69451166Y-82975251D02*
X69460690Y-82965728D01*
X69641642Y-83194299D02*
X69527356Y-83194299D01*
X69584499Y-83194299D02*
X69584499Y-82994299D01*
X69584499Y-82994299D02*
X69565452Y-83022870D01*
X69565452Y-83022870D02*
X69546404Y-83041918D01*
X69546404Y-83041918D02*
X69527356Y-83051442D01*
X69813071Y-82994299D02*
X69774975Y-82994299D01*
X69774975Y-82994299D02*
X69755928Y-83003823D01*
X69755928Y-83003823D02*
X69746404Y-83013347D01*
X69746404Y-83013347D02*
X69727356Y-83041918D01*
X69727356Y-83041918D02*
X69717833Y-83080013D01*
X69717833Y-83080013D02*
X69717833Y-83156204D01*
X69717833Y-83156204D02*
X69727356Y-83175251D01*
X69727356Y-83175251D02*
X69736880Y-83184775D01*
X69736880Y-83184775D02*
X69755928Y-83194299D01*
X69755928Y-83194299D02*
X69794023Y-83194299D01*
X69794023Y-83194299D02*
X69813071Y-83184775D01*
X69813071Y-83184775D02*
X69822595Y-83175251D01*
X69822595Y-83175251D02*
X69832118Y-83156204D01*
X69832118Y-83156204D02*
X69832118Y-83108585D01*
X69832118Y-83108585D02*
X69822595Y-83089537D01*
X69822595Y-83089537D02*
X69813071Y-83080013D01*
X69813071Y-83080013D02*
X69794023Y-83070489D01*
X69794023Y-83070489D02*
X69755928Y-83070489D01*
X69755928Y-83070489D02*
X69736880Y-83080013D01*
X69736880Y-83080013D02*
X69727356Y-83089537D01*
X69727356Y-83089537D02*
X69717833Y-83108585D01*
X70070214Y-83194299D02*
X70070214Y-82994299D01*
X70155928Y-83194299D02*
X70155928Y-83089537D01*
X70155928Y-83089537D02*
X70146404Y-83070489D01*
X70146404Y-83070489D02*
X70127357Y-83060966D01*
X70127357Y-83060966D02*
X70098785Y-83060966D01*
X70098785Y-83060966D02*
X70079737Y-83070489D01*
X70079737Y-83070489D02*
X70070214Y-83080013D01*
X70279737Y-83194299D02*
X70260690Y-83184775D01*
X70260690Y-83184775D02*
X70251166Y-83175251D01*
X70251166Y-83175251D02*
X70241642Y-83156204D01*
X70241642Y-83156204D02*
X70241642Y-83099061D01*
X70241642Y-83099061D02*
X70251166Y-83080013D01*
X70251166Y-83080013D02*
X70260690Y-83070489D01*
X70260690Y-83070489D02*
X70279737Y-83060966D01*
X70279737Y-83060966D02*
X70308309Y-83060966D01*
X70308309Y-83060966D02*
X70327357Y-83070489D01*
X70327357Y-83070489D02*
X70336880Y-83080013D01*
X70336880Y-83080013D02*
X70346404Y-83099061D01*
X70346404Y-83099061D02*
X70346404Y-83156204D01*
X70346404Y-83156204D02*
X70336880Y-83175251D01*
X70336880Y-83175251D02*
X70327357Y-83184775D01*
X70327357Y-83184775D02*
X70308309Y-83194299D01*
X70308309Y-83194299D02*
X70279737Y-83194299D01*
X70460690Y-83194299D02*
X70441642Y-83184775D01*
X70441642Y-83184775D02*
X70432118Y-83165728D01*
X70432118Y-83165728D02*
X70432118Y-82994299D01*
X70613071Y-83184775D02*
X70594023Y-83194299D01*
X70594023Y-83194299D02*
X70555928Y-83194299D01*
X70555928Y-83194299D02*
X70536880Y-83184775D01*
X70536880Y-83184775D02*
X70527357Y-83165728D01*
X70527357Y-83165728D02*
X70527357Y-83089537D01*
X70527357Y-83089537D02*
X70536880Y-83070489D01*
X70536880Y-83070489D02*
X70555928Y-83060966D01*
X70555928Y-83060966D02*
X70594023Y-83060966D01*
X70594023Y-83060966D02*
X70613071Y-83070489D01*
X70613071Y-83070489D02*
X70622595Y-83089537D01*
X70622595Y-83089537D02*
X70622595Y-83108585D01*
X70622595Y-83108585D02*
X70527357Y-83127632D01*
X70698785Y-83184775D02*
X70717833Y-83194299D01*
X70717833Y-83194299D02*
X70755928Y-83194299D01*
X70755928Y-83194299D02*
X70774976Y-83184775D01*
X70774976Y-83184775D02*
X70784499Y-83165728D01*
X70784499Y-83165728D02*
X70784499Y-83156204D01*
X70784499Y-83156204D02*
X70774976Y-83137156D01*
X70774976Y-83137156D02*
X70755928Y-83127632D01*
X70755928Y-83127632D02*
X70727357Y-83127632D01*
X70727357Y-83127632D02*
X70708309Y-83118109D01*
X70708309Y-83118109D02*
X70698785Y-83099061D01*
X70698785Y-83099061D02*
X70698785Y-83089537D01*
X70698785Y-83089537D02*
X70708309Y-83070489D01*
X70708309Y-83070489D02*
X70727357Y-83060966D01*
X70727357Y-83060966D02*
X70755928Y-83060966D01*
X70755928Y-83060966D02*
X70774976Y-83070489D01*
X70851166Y-83270489D02*
X70860690Y-83260966D01*
X70860690Y-83260966D02*
X70879738Y-83232394D01*
X70879738Y-83232394D02*
X70889261Y-83213347D01*
X70889261Y-83213347D02*
X70898785Y-83184775D01*
X70898785Y-83184775D02*
X70908309Y-83137156D01*
X70908309Y-83137156D02*
X70908309Y-83099061D01*
X70908309Y-83099061D02*
X70898785Y-83051442D01*
X70898785Y-83051442D02*
X70889261Y-83022870D01*
X70889261Y-83022870D02*
X70879738Y-83003823D01*
X70879738Y-83003823D02*
X70860690Y-82975251D01*
X70860690Y-82975251D02*
X70851166Y-82965728D01*
X71213071Y-83270489D02*
X71203547Y-83260966D01*
X71203547Y-83260966D02*
X71184499Y-83232394D01*
X71184499Y-83232394D02*
X71174976Y-83213347D01*
X71174976Y-83213347D02*
X71165452Y-83184775D01*
X71165452Y-83184775D02*
X71155928Y-83137156D01*
X71155928Y-83137156D02*
X71155928Y-83099061D01*
X71155928Y-83099061D02*
X71165452Y-83051442D01*
X71165452Y-83051442D02*
X71174976Y-83022870D01*
X71174976Y-83022870D02*
X71184499Y-83003823D01*
X71184499Y-83003823D02*
X71203547Y-82975251D01*
X71203547Y-82975251D02*
X71213071Y-82965728D01*
X71289261Y-83060966D02*
X71289261Y-83194299D01*
X71289261Y-83080013D02*
X71298785Y-83070489D01*
X71298785Y-83070489D02*
X71317833Y-83060966D01*
X71317833Y-83060966D02*
X71346404Y-83060966D01*
X71346404Y-83060966D02*
X71365452Y-83070489D01*
X71365452Y-83070489D02*
X71374976Y-83089537D01*
X71374976Y-83089537D02*
X71374976Y-83194299D01*
X71498785Y-83194299D02*
X71479738Y-83184775D01*
X71479738Y-83184775D02*
X71470214Y-83175251D01*
X71470214Y-83175251D02*
X71460690Y-83156204D01*
X71460690Y-83156204D02*
X71460690Y-83099061D01*
X71460690Y-83099061D02*
X71470214Y-83080013D01*
X71470214Y-83080013D02*
X71479738Y-83070489D01*
X71479738Y-83070489D02*
X71498785Y-83060966D01*
X71498785Y-83060966D02*
X71527357Y-83060966D01*
X71527357Y-83060966D02*
X71546404Y-83070489D01*
X71546404Y-83070489D02*
X71555928Y-83080013D01*
X71555928Y-83080013D02*
X71565452Y-83099061D01*
X71565452Y-83099061D02*
X71565452Y-83156204D01*
X71565452Y-83156204D02*
X71555928Y-83175251D01*
X71555928Y-83175251D02*
X71546404Y-83184775D01*
X71546404Y-83184775D02*
X71527357Y-83194299D01*
X71527357Y-83194299D02*
X71498785Y-83194299D01*
X71622595Y-83060966D02*
X71698785Y-83060966D01*
X71651166Y-82994299D02*
X71651166Y-83165728D01*
X71651166Y-83165728D02*
X71660690Y-83184775D01*
X71660690Y-83184775D02*
X71679738Y-83194299D01*
X71679738Y-83194299D02*
X71698785Y-83194299D01*
X71917833Y-83060966D02*
X71917833Y-83260966D01*
X71917833Y-83070489D02*
X71936880Y-83060966D01*
X71936880Y-83060966D02*
X71974976Y-83060966D01*
X71974976Y-83060966D02*
X71994023Y-83070489D01*
X71994023Y-83070489D02*
X72003547Y-83080013D01*
X72003547Y-83080013D02*
X72013071Y-83099061D01*
X72013071Y-83099061D02*
X72013071Y-83156204D01*
X72013071Y-83156204D02*
X72003547Y-83175251D01*
X72003547Y-83175251D02*
X71994023Y-83184775D01*
X71994023Y-83184775D02*
X71974976Y-83194299D01*
X71974976Y-83194299D02*
X71936880Y-83194299D01*
X71936880Y-83194299D02*
X71917833Y-83184775D01*
X72127357Y-83194299D02*
X72108309Y-83184775D01*
X72108309Y-83184775D02*
X72098785Y-83165728D01*
X72098785Y-83165728D02*
X72098785Y-82994299D01*
X72289261Y-83194299D02*
X72289261Y-83089537D01*
X72289261Y-83089537D02*
X72279738Y-83070489D01*
X72279738Y-83070489D02*
X72260690Y-83060966D01*
X72260690Y-83060966D02*
X72222595Y-83060966D01*
X72222595Y-83060966D02*
X72203547Y-83070489D01*
X72289261Y-83184775D02*
X72270214Y-83194299D01*
X72270214Y-83194299D02*
X72222595Y-83194299D01*
X72222595Y-83194299D02*
X72203547Y-83184775D01*
X72203547Y-83184775D02*
X72194023Y-83165728D01*
X72194023Y-83165728D02*
X72194023Y-83146680D01*
X72194023Y-83146680D02*
X72203547Y-83127632D01*
X72203547Y-83127632D02*
X72222595Y-83118109D01*
X72222595Y-83118109D02*
X72270214Y-83118109D01*
X72270214Y-83118109D02*
X72289261Y-83108585D01*
X72355928Y-83060966D02*
X72432119Y-83060966D01*
X72384500Y-82994299D02*
X72384500Y-83165728D01*
X72384500Y-83165728D02*
X72394023Y-83184775D01*
X72394023Y-83184775D02*
X72413071Y-83194299D01*
X72413071Y-83194299D02*
X72432119Y-83194299D01*
X72574976Y-83184775D02*
X72555928Y-83194299D01*
X72555928Y-83194299D02*
X72517833Y-83194299D01*
X72517833Y-83194299D02*
X72498785Y-83184775D01*
X72498785Y-83184775D02*
X72489261Y-83165728D01*
X72489261Y-83165728D02*
X72489261Y-83089537D01*
X72489261Y-83089537D02*
X72498785Y-83070489D01*
X72498785Y-83070489D02*
X72517833Y-83060966D01*
X72517833Y-83060966D02*
X72555928Y-83060966D01*
X72555928Y-83060966D02*
X72574976Y-83070489D01*
X72574976Y-83070489D02*
X72584500Y-83089537D01*
X72584500Y-83089537D02*
X72584500Y-83108585D01*
X72584500Y-83108585D02*
X72489261Y-83127632D01*
X72755928Y-83194299D02*
X72755928Y-82994299D01*
X72755928Y-83184775D02*
X72736881Y-83194299D01*
X72736881Y-83194299D02*
X72698785Y-83194299D01*
X72698785Y-83194299D02*
X72679738Y-83184775D01*
X72679738Y-83184775D02*
X72670214Y-83175251D01*
X72670214Y-83175251D02*
X72660690Y-83156204D01*
X72660690Y-83156204D02*
X72660690Y-83099061D01*
X72660690Y-83099061D02*
X72670214Y-83080013D01*
X72670214Y-83080013D02*
X72679738Y-83070489D01*
X72679738Y-83070489D02*
X72698785Y-83060966D01*
X72698785Y-83060966D02*
X72736881Y-83060966D01*
X72736881Y-83060966D02*
X72755928Y-83070489D01*
X72832119Y-83270489D02*
X72841642Y-83260966D01*
X72841642Y-83260966D02*
X72860690Y-83232394D01*
X72860690Y-83232394D02*
X72870214Y-83213347D01*
X72870214Y-83213347D02*
X72879738Y-83184775D01*
X72879738Y-83184775D02*
X72889261Y-83137156D01*
X72889261Y-83137156D02*
X72889261Y-83099061D01*
X72889261Y-83099061D02*
X72879738Y-83051442D01*
X72879738Y-83051442D02*
X72870214Y-83022870D01*
X72870214Y-83022870D02*
X72860690Y-83003823D01*
X72860690Y-83003823D02*
X72841642Y-82975251D01*
X72841642Y-82975251D02*
X72832119Y-82965728D01*
M02*
