G04 #@! TF.GenerationSoftware,KiCad,Pcbnew,7.0.1-3b83917a11~172~ubuntu20.04.1*
G04 #@! TF.CreationDate,2023-04-20T10:58:55+02:00*
G04 #@! TF.ProjectId,nowcast,6e6f7763-6173-4742-9e6b-696361645f70,rev?*
G04 #@! TF.SameCoordinates,Original*
G04 #@! TF.FileFunction,Legend,Top*
G04 #@! TF.FilePolarity,Positive*
%FSLAX46Y46*%
G04 Gerber Fmt 4.6, Leading zero omitted, Abs format (unit mm)*
G04 Created by KiCad (PCBNEW 7.0.1-3b83917a11~172~ubuntu20.04.1) date 2023-04-20 10:58:55*
%MOMM*%
%LPD*%
G01*
G04 APERTURE LIST*
G04 Aperture macros list*
%AMRoundRect*
0 Rectangle with rounded corners*
0 $1 Rounding radius*
0 $2 $3 $4 $5 $6 $7 $8 $9 X,Y pos of 4 corners*
0 Add a 4 corners polygon primitive as box body*
4,1,4,$2,$3,$4,$5,$6,$7,$8,$9,$2,$3,0*
0 Add four circle primitives for the rounded corners*
1,1,$1+$1,$2,$3*
1,1,$1+$1,$4,$5*
1,1,$1+$1,$6,$7*
1,1,$1+$1,$8,$9*
0 Add four rect primitives between the rounded corners*
20,1,$1+$1,$2,$3,$4,$5,0*
20,1,$1+$1,$4,$5,$6,$7,0*
20,1,$1+$1,$6,$7,$8,$9,0*
20,1,$1+$1,$8,$9,$2,$3,0*%
G04 Aperture macros list end*
%ADD10C,0.130000*%
%ADD11C,0.200000*%
%ADD12C,0.150000*%
%ADD13C,0.120000*%
%ADD14R,1.800000X1.800000*%
%ADD15C,1.800000*%
%ADD16C,3.200000*%
%ADD17RoundRect,0.250000X-0.725000X0.600000X-0.725000X-0.600000X0.725000X-0.600000X0.725000X0.600000X0*%
%ADD18O,1.950000X1.700000*%
G04 APERTURE END LIST*
D10*
X899062847Y-784400733D02*
X899062847Y-824542380D01*
D11*
X698914524Y-426984463D02*
X732784314Y-448266252D01*
X711409407Y-492651704D02*
X673653169Y-479440231D01*
D10*
X699728793Y-663169410D02*
X705931794Y-675720218D01*
X872465950Y-329702740D02*
X858849521Y-332957409D01*
D11*
X889951972Y-306947590D02*
X894430684Y-346697106D01*
X732784314Y-682359252D02*
X698914524Y-703641041D01*
D10*
X773789667Y-383146066D02*
X765060807Y-372200428D01*
X899062847Y-306083124D02*
G75*
G03*
X899062847Y-824542380I20000000J-259229628D01*
G01*
X867215379Y-792470933D02*
X864100081Y-806119923D01*
D11*
X700447106Y-589944820D02*
X660697671Y-594423505D01*
X763500000Y-409750000D02*
X735215028Y-381465045D01*
D10*
X727003097Y-709522345D02*
X735843392Y-720378182D01*
X683452809Y-611909540D02*
X686707471Y-625525971D01*
X686567943Y-505067687D02*
X683592347Y-518747812D01*
D11*
X780734427Y-345164511D02*
X802016252Y-379034314D01*
X846401704Y-772966097D02*
X833190191Y-810722383D01*
D10*
X736896066Y-710585837D02*
X725950422Y-719314690D01*
X691904635Y-617160110D02*
X678255644Y-620275401D01*
X821206078Y-345978759D02*
X808655274Y-352181766D01*
X763908075Y-748644018D02*
X774942376Y-757260526D01*
X774853153Y-373253096D02*
X763997322Y-382093398D01*
X678991286Y-558313117D02*
X679134407Y-572312386D01*
X867215385Y-338154569D02*
X864100086Y-324505580D01*
X817967864Y-355387044D02*
X811893488Y-342773481D01*
X858817668Y-797807627D02*
X872497792Y-800783229D01*
X773789656Y-747479453D02*
X765060795Y-758425090D01*
D11*
X700447106Y-540680684D02*
X660697671Y-536201999D01*
D10*
X691904641Y-513465395D02*
X678255650Y-510350103D01*
X899062847Y-306083124D02*
X899062847Y-346224771D01*
X735731507Y-410158097D02*
X727115006Y-421192403D01*
X899062847Y-346224768D02*
G75*
G03*
X899062847Y-784400733I19999903J-219087982D01*
G01*
X709137086Y-464217879D02*
X696523521Y-458143509D01*
D11*
X846401704Y-357659407D02*
X833190191Y-319903121D01*
X802016252Y-751591190D02*
X780734427Y-785460993D01*
D10*
X736896078Y-420039677D02*
X725950435Y-411310822D01*
D11*
X894430684Y-783928398D02*
X889951972Y-823677914D01*
X711409407Y-637973800D02*
X673653169Y-651185273D01*
D10*
X817967851Y-775238478D02*
X811893473Y-787852039D01*
X705802856Y-454843192D02*
X699857751Y-467518196D01*
X808593162Y-778572703D02*
X821268162Y-784517814D01*
X709137076Y-666407629D02*
X696523511Y-672481999D01*
D11*
X763500000Y-720875504D02*
X735215028Y-749160459D01*
X660697671Y-536201999D02*
X660232282Y-540680684D01*
D10*
X686062846Y-565312752D02*
X672062846Y-565312751D01*
D12*
X702091905Y-457702619D02*
X702091905Y-456702619D01*
X702091905Y-456702619D02*
X702330000Y-456702619D01*
X702330000Y-456702619D02*
X702472857Y-456750238D01*
X702472857Y-456750238D02*
X702568095Y-456845476D01*
X702568095Y-456845476D02*
X702615714Y-456940714D01*
X702615714Y-456940714D02*
X702663333Y-457131190D01*
X702663333Y-457131190D02*
X702663333Y-457274047D01*
X702663333Y-457274047D02*
X702615714Y-457464523D01*
X702615714Y-457464523D02*
X702568095Y-457559761D01*
X702568095Y-457559761D02*
X702472857Y-457655000D01*
X702472857Y-457655000D02*
X702330000Y-457702619D01*
X702330000Y-457702619D02*
X702091905Y-457702619D01*
X703139524Y-457702619D02*
X703330000Y-457702619D01*
X703330000Y-457702619D02*
X703425238Y-457655000D01*
X703425238Y-457655000D02*
X703472857Y-457607380D01*
X703472857Y-457607380D02*
X703568095Y-457464523D01*
X703568095Y-457464523D02*
X703615714Y-457274047D01*
X703615714Y-457274047D02*
X703615714Y-456893095D01*
X703615714Y-456893095D02*
X703568095Y-456797857D01*
X703568095Y-456797857D02*
X703520476Y-456750238D01*
X703520476Y-456750238D02*
X703425238Y-456702619D01*
X703425238Y-456702619D02*
X703234762Y-456702619D01*
X703234762Y-456702619D02*
X703139524Y-456750238D01*
X703139524Y-456750238D02*
X703091905Y-456797857D01*
X703091905Y-456797857D02*
X703044286Y-456893095D01*
X703044286Y-456893095D02*
X703044286Y-457131190D01*
X703044286Y-457131190D02*
X703091905Y-457226428D01*
X703091905Y-457226428D02*
X703139524Y-457274047D01*
X703139524Y-457274047D02*
X703234762Y-457321666D01*
X703234762Y-457321666D02*
X703425238Y-457321666D01*
X703425238Y-457321666D02*
X703520476Y-457274047D01*
X703520476Y-457274047D02*
X703568095Y-457226428D01*
X703568095Y-457226428D02*
X703615714Y-457131190D01*
X684356905Y-508377619D02*
X684356905Y-507377619D01*
X684356905Y-507377619D02*
X684595000Y-507377619D01*
X684595000Y-507377619D02*
X684737857Y-507425238D01*
X684737857Y-507425238D02*
X684833095Y-507520476D01*
X684833095Y-507520476D02*
X684880714Y-507615714D01*
X684880714Y-507615714D02*
X684928333Y-507806190D01*
X684928333Y-507806190D02*
X684928333Y-507949047D01*
X684928333Y-507949047D02*
X684880714Y-508139523D01*
X684880714Y-508139523D02*
X684833095Y-508234761D01*
X684833095Y-508234761D02*
X684737857Y-508330000D01*
X684737857Y-508330000D02*
X684595000Y-508377619D01*
X684595000Y-508377619D02*
X684356905Y-508377619D01*
X685499762Y-507806190D02*
X685404524Y-507758571D01*
X685404524Y-507758571D02*
X685356905Y-507710952D01*
X685356905Y-507710952D02*
X685309286Y-507615714D01*
X685309286Y-507615714D02*
X685309286Y-507568095D01*
X685309286Y-507568095D02*
X685356905Y-507472857D01*
X685356905Y-507472857D02*
X685404524Y-507425238D01*
X685404524Y-507425238D02*
X685499762Y-507377619D01*
X685499762Y-507377619D02*
X685690238Y-507377619D01*
X685690238Y-507377619D02*
X685785476Y-507425238D01*
X685785476Y-507425238D02*
X685833095Y-507472857D01*
X685833095Y-507472857D02*
X685880714Y-507568095D01*
X685880714Y-507568095D02*
X685880714Y-507615714D01*
X685880714Y-507615714D02*
X685833095Y-507710952D01*
X685833095Y-507710952D02*
X685785476Y-507758571D01*
X685785476Y-507758571D02*
X685690238Y-507806190D01*
X685690238Y-507806190D02*
X685499762Y-507806190D01*
X685499762Y-507806190D02*
X685404524Y-507853809D01*
X685404524Y-507853809D02*
X685356905Y-507901428D01*
X685356905Y-507901428D02*
X685309286Y-507996666D01*
X685309286Y-507996666D02*
X685309286Y-508187142D01*
X685309286Y-508187142D02*
X685356905Y-508282380D01*
X685356905Y-508282380D02*
X685404524Y-508330000D01*
X685404524Y-508330000D02*
X685499762Y-508377619D01*
X685499762Y-508377619D02*
X685690238Y-508377619D01*
X685690238Y-508377619D02*
X685785476Y-508330000D01*
X685785476Y-508330000D02*
X685833095Y-508282380D01*
X685833095Y-508282380D02*
X685880714Y-508187142D01*
X685880714Y-508187142D02*
X685880714Y-507996666D01*
X685880714Y-507996666D02*
X685833095Y-507901428D01*
X685833095Y-507901428D02*
X685785476Y-507853809D01*
X685785476Y-507853809D02*
X685690238Y-507806190D01*
X864415714Y-327927619D02*
X864415714Y-326927619D01*
X864415714Y-326927619D02*
X864653809Y-326927619D01*
X864653809Y-326927619D02*
X864796666Y-326975238D01*
X864796666Y-326975238D02*
X864891904Y-327070476D01*
X864891904Y-327070476D02*
X864939523Y-327165714D01*
X864939523Y-327165714D02*
X864987142Y-327356190D01*
X864987142Y-327356190D02*
X864987142Y-327499047D01*
X864987142Y-327499047D02*
X864939523Y-327689523D01*
X864939523Y-327689523D02*
X864891904Y-327784761D01*
X864891904Y-327784761D02*
X864796666Y-327880000D01*
X864796666Y-327880000D02*
X864653809Y-327927619D01*
X864653809Y-327927619D02*
X864415714Y-327927619D01*
X865939523Y-327927619D02*
X865368095Y-327927619D01*
X865653809Y-327927619D02*
X865653809Y-326927619D01*
X865653809Y-326927619D02*
X865558571Y-327070476D01*
X865558571Y-327070476D02*
X865463333Y-327165714D01*
X865463333Y-327165714D02*
X865368095Y-327213333D01*
X866272857Y-326927619D02*
X866891904Y-326927619D01*
X866891904Y-326927619D02*
X866558571Y-327308571D01*
X866558571Y-327308571D02*
X866701428Y-327308571D01*
X866701428Y-327308571D02*
X866796666Y-327356190D01*
X866796666Y-327356190D02*
X866844285Y-327403809D01*
X866844285Y-327403809D02*
X866891904Y-327499047D01*
X866891904Y-327499047D02*
X866891904Y-327737142D01*
X866891904Y-327737142D02*
X866844285Y-327832380D01*
X866844285Y-327832380D02*
X866796666Y-327880000D01*
X866796666Y-327880000D02*
X866701428Y-327927619D01*
X866701428Y-327927619D02*
X866415714Y-327927619D01*
X866415714Y-327927619D02*
X866320476Y-327880000D01*
X866320476Y-327880000D02*
X866272857Y-327832380D01*
X730681905Y-711577619D02*
X730681905Y-710577619D01*
X730681905Y-710577619D02*
X730920000Y-710577619D01*
X730920000Y-710577619D02*
X731062857Y-710625238D01*
X731062857Y-710625238D02*
X731158095Y-710720476D01*
X731158095Y-710720476D02*
X731205714Y-710815714D01*
X731205714Y-710815714D02*
X731253333Y-711006190D01*
X731253333Y-711006190D02*
X731253333Y-711149047D01*
X731253333Y-711149047D02*
X731205714Y-711339523D01*
X731205714Y-711339523D02*
X731158095Y-711434761D01*
X731158095Y-711434761D02*
X731062857Y-711530000D01*
X731062857Y-711530000D02*
X730920000Y-711577619D01*
X730920000Y-711577619D02*
X730681905Y-711577619D01*
X732110476Y-710910952D02*
X732110476Y-711577619D01*
X731872381Y-710530000D02*
X731634286Y-711244285D01*
X731634286Y-711244285D02*
X732253333Y-711244285D01*
X678306905Y-561877619D02*
X678306905Y-560877619D01*
X678306905Y-560877619D02*
X678545000Y-560877619D01*
X678545000Y-560877619D02*
X678687857Y-560925238D01*
X678687857Y-560925238D02*
X678783095Y-561020476D01*
X678783095Y-561020476D02*
X678830714Y-561115714D01*
X678830714Y-561115714D02*
X678878333Y-561306190D01*
X678878333Y-561306190D02*
X678878333Y-561449047D01*
X678878333Y-561449047D02*
X678830714Y-561639523D01*
X678830714Y-561639523D02*
X678783095Y-561734761D01*
X678783095Y-561734761D02*
X678687857Y-561830000D01*
X678687857Y-561830000D02*
X678545000Y-561877619D01*
X678545000Y-561877619D02*
X678306905Y-561877619D01*
X679211667Y-560877619D02*
X679878333Y-560877619D01*
X679878333Y-560877619D02*
X679449762Y-561877619D01*
X864891905Y-795877619D02*
X864891905Y-794877619D01*
X864891905Y-794877619D02*
X865130000Y-794877619D01*
X865130000Y-794877619D02*
X865272857Y-794925238D01*
X865272857Y-794925238D02*
X865368095Y-795020476D01*
X865368095Y-795020476D02*
X865415714Y-795115714D01*
X865415714Y-795115714D02*
X865463333Y-795306190D01*
X865463333Y-795306190D02*
X865463333Y-795449047D01*
X865463333Y-795449047D02*
X865415714Y-795639523D01*
X865415714Y-795639523D02*
X865368095Y-795734761D01*
X865368095Y-795734761D02*
X865272857Y-795830000D01*
X865272857Y-795830000D02*
X865130000Y-795877619D01*
X865130000Y-795877619D02*
X864891905Y-795877619D01*
X866415714Y-795877619D02*
X865844286Y-795877619D01*
X866130000Y-795877619D02*
X866130000Y-794877619D01*
X866130000Y-794877619D02*
X866034762Y-795020476D01*
X866034762Y-795020476D02*
X865939524Y-795115714D01*
X865939524Y-795115714D02*
X865844286Y-795163333D01*
X768130714Y-374277619D02*
X768130714Y-373277619D01*
X768130714Y-373277619D02*
X768368809Y-373277619D01*
X768368809Y-373277619D02*
X768511666Y-373325238D01*
X768511666Y-373325238D02*
X768606904Y-373420476D01*
X768606904Y-373420476D02*
X768654523Y-373515714D01*
X768654523Y-373515714D02*
X768702142Y-373706190D01*
X768702142Y-373706190D02*
X768702142Y-373849047D01*
X768702142Y-373849047D02*
X768654523Y-374039523D01*
X768654523Y-374039523D02*
X768606904Y-374134761D01*
X768606904Y-374134761D02*
X768511666Y-374230000D01*
X768511666Y-374230000D02*
X768368809Y-374277619D01*
X768368809Y-374277619D02*
X768130714Y-374277619D01*
X769654523Y-374277619D02*
X769083095Y-374277619D01*
X769368809Y-374277619D02*
X769368809Y-373277619D01*
X769368809Y-373277619D02*
X769273571Y-373420476D01*
X769273571Y-373420476D02*
X769178333Y-373515714D01*
X769178333Y-373515714D02*
X769083095Y-373563333D01*
X770606904Y-374277619D02*
X770035476Y-374277619D01*
X770321190Y-374277619D02*
X770321190Y-373277619D01*
X770321190Y-373277619D02*
X770225952Y-373420476D01*
X770225952Y-373420476D02*
X770130714Y-373515714D01*
X770130714Y-373515714D02*
X770035476Y-373563333D01*
X702166905Y-666127619D02*
X702166905Y-665127619D01*
X702166905Y-665127619D02*
X702405000Y-665127619D01*
X702405000Y-665127619D02*
X702547857Y-665175238D01*
X702547857Y-665175238D02*
X702643095Y-665270476D01*
X702643095Y-665270476D02*
X702690714Y-665365714D01*
X702690714Y-665365714D02*
X702738333Y-665556190D01*
X702738333Y-665556190D02*
X702738333Y-665699047D01*
X702738333Y-665699047D02*
X702690714Y-665889523D01*
X702690714Y-665889523D02*
X702643095Y-665984761D01*
X702643095Y-665984761D02*
X702547857Y-666080000D01*
X702547857Y-666080000D02*
X702405000Y-666127619D01*
X702405000Y-666127619D02*
X702166905Y-666127619D01*
X703643095Y-665127619D02*
X703166905Y-665127619D01*
X703166905Y-665127619D02*
X703119286Y-665603809D01*
X703119286Y-665603809D02*
X703166905Y-665556190D01*
X703166905Y-665556190D02*
X703262143Y-665508571D01*
X703262143Y-665508571D02*
X703500238Y-665508571D01*
X703500238Y-665508571D02*
X703595476Y-665556190D01*
X703595476Y-665556190D02*
X703643095Y-665603809D01*
X703643095Y-665603809D02*
X703690714Y-665699047D01*
X703690714Y-665699047D02*
X703690714Y-665937142D01*
X703690714Y-665937142D02*
X703643095Y-666032380D01*
X703643095Y-666032380D02*
X703595476Y-666080000D01*
X703595476Y-666080000D02*
X703500238Y-666127619D01*
X703500238Y-666127619D02*
X703262143Y-666127619D01*
X703262143Y-666127619D02*
X703166905Y-666080000D01*
X703166905Y-666080000D02*
X703119286Y-666032380D01*
X768631905Y-749477619D02*
X768631905Y-748477619D01*
X768631905Y-748477619D02*
X768870000Y-748477619D01*
X768870000Y-748477619D02*
X769012857Y-748525238D01*
X769012857Y-748525238D02*
X769108095Y-748620476D01*
X769108095Y-748620476D02*
X769155714Y-748715714D01*
X769155714Y-748715714D02*
X769203333Y-748906190D01*
X769203333Y-748906190D02*
X769203333Y-749049047D01*
X769203333Y-749049047D02*
X769155714Y-749239523D01*
X769155714Y-749239523D02*
X769108095Y-749334761D01*
X769108095Y-749334761D02*
X769012857Y-749430000D01*
X769012857Y-749430000D02*
X768870000Y-749477619D01*
X768870000Y-749477619D02*
X768631905Y-749477619D01*
X769536667Y-748477619D02*
X770155714Y-748477619D01*
X770155714Y-748477619D02*
X769822381Y-748858571D01*
X769822381Y-748858571D02*
X769965238Y-748858571D01*
X769965238Y-748858571D02*
X770060476Y-748906190D01*
X770060476Y-748906190D02*
X770108095Y-748953809D01*
X770108095Y-748953809D02*
X770155714Y-749049047D01*
X770155714Y-749049047D02*
X770155714Y-749287142D01*
X770155714Y-749287142D02*
X770108095Y-749382380D01*
X770108095Y-749382380D02*
X770060476Y-749430000D01*
X770060476Y-749430000D02*
X769965238Y-749477619D01*
X769965238Y-749477619D02*
X769679524Y-749477619D01*
X769679524Y-749477619D02*
X769584286Y-749430000D01*
X769584286Y-749430000D02*
X769536667Y-749382380D01*
X684431905Y-615327619D02*
X684431905Y-614327619D01*
X684431905Y-614327619D02*
X684670000Y-614327619D01*
X684670000Y-614327619D02*
X684812857Y-614375238D01*
X684812857Y-614375238D02*
X684908095Y-614470476D01*
X684908095Y-614470476D02*
X684955714Y-614565714D01*
X684955714Y-614565714D02*
X685003333Y-614756190D01*
X685003333Y-614756190D02*
X685003333Y-614899047D01*
X685003333Y-614899047D02*
X684955714Y-615089523D01*
X684955714Y-615089523D02*
X684908095Y-615184761D01*
X684908095Y-615184761D02*
X684812857Y-615280000D01*
X684812857Y-615280000D02*
X684670000Y-615327619D01*
X684670000Y-615327619D02*
X684431905Y-615327619D01*
X685860476Y-614327619D02*
X685670000Y-614327619D01*
X685670000Y-614327619D02*
X685574762Y-614375238D01*
X685574762Y-614375238D02*
X685527143Y-614422857D01*
X685527143Y-614422857D02*
X685431905Y-614565714D01*
X685431905Y-614565714D02*
X685384286Y-614756190D01*
X685384286Y-614756190D02*
X685384286Y-615137142D01*
X685384286Y-615137142D02*
X685431905Y-615232380D01*
X685431905Y-615232380D02*
X685479524Y-615280000D01*
X685479524Y-615280000D02*
X685574762Y-615327619D01*
X685574762Y-615327619D02*
X685765238Y-615327619D01*
X685765238Y-615327619D02*
X685860476Y-615280000D01*
X685860476Y-615280000D02*
X685908095Y-615232380D01*
X685908095Y-615232380D02*
X685955714Y-615137142D01*
X685955714Y-615137142D02*
X685955714Y-614899047D01*
X685955714Y-614899047D02*
X685908095Y-614803809D01*
X685908095Y-614803809D02*
X685860476Y-614756190D01*
X685860476Y-614756190D02*
X685765238Y-614708571D01*
X685765238Y-614708571D02*
X685574762Y-614708571D01*
X685574762Y-614708571D02*
X685479524Y-614756190D01*
X685479524Y-614756190D02*
X685431905Y-614803809D01*
X685431905Y-614803809D02*
X685384286Y-614899047D01*
X730180714Y-412177619D02*
X730180714Y-411177619D01*
X730180714Y-411177619D02*
X730418809Y-411177619D01*
X730418809Y-411177619D02*
X730561666Y-411225238D01*
X730561666Y-411225238D02*
X730656904Y-411320476D01*
X730656904Y-411320476D02*
X730704523Y-411415714D01*
X730704523Y-411415714D02*
X730752142Y-411606190D01*
X730752142Y-411606190D02*
X730752142Y-411749047D01*
X730752142Y-411749047D02*
X730704523Y-411939523D01*
X730704523Y-411939523D02*
X730656904Y-412034761D01*
X730656904Y-412034761D02*
X730561666Y-412130000D01*
X730561666Y-412130000D02*
X730418809Y-412177619D01*
X730418809Y-412177619D02*
X730180714Y-412177619D01*
X731704523Y-412177619D02*
X731133095Y-412177619D01*
X731418809Y-412177619D02*
X731418809Y-411177619D01*
X731418809Y-411177619D02*
X731323571Y-411320476D01*
X731323571Y-411320476D02*
X731228333Y-411415714D01*
X731228333Y-411415714D02*
X731133095Y-411463333D01*
X732323571Y-411177619D02*
X732418809Y-411177619D01*
X732418809Y-411177619D02*
X732514047Y-411225238D01*
X732514047Y-411225238D02*
X732561666Y-411272857D01*
X732561666Y-411272857D02*
X732609285Y-411368095D01*
X732609285Y-411368095D02*
X732656904Y-411558571D01*
X732656904Y-411558571D02*
X732656904Y-411796666D01*
X732656904Y-411796666D02*
X732609285Y-411987142D01*
X732609285Y-411987142D02*
X732561666Y-412082380D01*
X732561666Y-412082380D02*
X732514047Y-412130000D01*
X732514047Y-412130000D02*
X732418809Y-412177619D01*
X732418809Y-412177619D02*
X732323571Y-412177619D01*
X732323571Y-412177619D02*
X732228333Y-412130000D01*
X732228333Y-412130000D02*
X732180714Y-412082380D01*
X732180714Y-412082380D02*
X732133095Y-411987142D01*
X732133095Y-411987142D02*
X732085476Y-411796666D01*
X732085476Y-411796666D02*
X732085476Y-411558571D01*
X732085476Y-411558571D02*
X732133095Y-411368095D01*
X732133095Y-411368095D02*
X732180714Y-411272857D01*
X732180714Y-411272857D02*
X732228333Y-411225238D01*
X732228333Y-411225238D02*
X732323571Y-411177619D01*
X893542619Y-802973333D02*
X894256904Y-802973333D01*
X894256904Y-802973333D02*
X894399761Y-803020952D01*
X894399761Y-803020952D02*
X894495000Y-803116190D01*
X894495000Y-803116190D02*
X894542619Y-803259047D01*
X894542619Y-803259047D02*
X894542619Y-803354285D01*
X894542619Y-801973333D02*
X894542619Y-802544761D01*
X894542619Y-802259047D02*
X893542619Y-802259047D01*
X893542619Y-802259047D02*
X893685476Y-802354285D01*
X893685476Y-802354285D02*
X893780714Y-802449523D01*
X893780714Y-802449523D02*
X893828333Y-802544761D01*
X813780714Y-345577619D02*
X813780714Y-344577619D01*
X813780714Y-344577619D02*
X814018809Y-344577619D01*
X814018809Y-344577619D02*
X814161666Y-344625238D01*
X814161666Y-344625238D02*
X814256904Y-344720476D01*
X814256904Y-344720476D02*
X814304523Y-344815714D01*
X814304523Y-344815714D02*
X814352142Y-345006190D01*
X814352142Y-345006190D02*
X814352142Y-345149047D01*
X814352142Y-345149047D02*
X814304523Y-345339523D01*
X814304523Y-345339523D02*
X814256904Y-345434761D01*
X814256904Y-345434761D02*
X814161666Y-345530000D01*
X814161666Y-345530000D02*
X814018809Y-345577619D01*
X814018809Y-345577619D02*
X813780714Y-345577619D01*
X815304523Y-345577619D02*
X814733095Y-345577619D01*
X815018809Y-345577619D02*
X815018809Y-344577619D01*
X815018809Y-344577619D02*
X814923571Y-344720476D01*
X814923571Y-344720476D02*
X814828333Y-344815714D01*
X814828333Y-344815714D02*
X814733095Y-344863333D01*
X815685476Y-344672857D02*
X815733095Y-344625238D01*
X815733095Y-344625238D02*
X815828333Y-344577619D01*
X815828333Y-344577619D02*
X816066428Y-344577619D01*
X816066428Y-344577619D02*
X816161666Y-344625238D01*
X816161666Y-344625238D02*
X816209285Y-344672857D01*
X816209285Y-344672857D02*
X816256904Y-344768095D01*
X816256904Y-344768095D02*
X816256904Y-344863333D01*
X816256904Y-344863333D02*
X816209285Y-345006190D01*
X816209285Y-345006190D02*
X815637857Y-345577619D01*
X815637857Y-345577619D02*
X816256904Y-345577619D01*
X814231905Y-778252619D02*
X814231905Y-777252619D01*
X814231905Y-777252619D02*
X814470000Y-777252619D01*
X814470000Y-777252619D02*
X814612857Y-777300238D01*
X814612857Y-777300238D02*
X814708095Y-777395476D01*
X814708095Y-777395476D02*
X814755714Y-777490714D01*
X814755714Y-777490714D02*
X814803333Y-777681190D01*
X814803333Y-777681190D02*
X814803333Y-777824047D01*
X814803333Y-777824047D02*
X814755714Y-778014523D01*
X814755714Y-778014523D02*
X814708095Y-778109761D01*
X814708095Y-778109761D02*
X814612857Y-778205000D01*
X814612857Y-778205000D02*
X814470000Y-778252619D01*
X814470000Y-778252619D02*
X814231905Y-778252619D01*
X815184286Y-777347857D02*
X815231905Y-777300238D01*
X815231905Y-777300238D02*
X815327143Y-777252619D01*
X815327143Y-777252619D02*
X815565238Y-777252619D01*
X815565238Y-777252619D02*
X815660476Y-777300238D01*
X815660476Y-777300238D02*
X815708095Y-777347857D01*
X815708095Y-777347857D02*
X815755714Y-777443095D01*
X815755714Y-777443095D02*
X815755714Y-777538333D01*
X815755714Y-777538333D02*
X815708095Y-777681190D01*
X815708095Y-777681190D02*
X815136667Y-778252619D01*
X815136667Y-778252619D02*
X815755714Y-778252619D01*
D13*
X700270000Y-459655000D02*
X700270000Y-462745000D01*
X705819999Y-461200462D02*
G75*
G03*
X700270001Y-459655170I-2989999J462D01*
G01*
X700270000Y-462744830D02*
G75*
G03*
X705820000Y-461199538I2560000J1544830D01*
G01*
X705330000Y-461200000D02*
G75*
G03*
X705330000Y-461200000I-2500000J0D01*
G01*
X682535000Y-510330000D02*
X682535000Y-513420000D01*
X688084999Y-511875462D02*
G75*
G03*
X682535001Y-510330170I-2989999J462D01*
G01*
X682535000Y-513419830D02*
G75*
G03*
X688085000Y-511874538I2560000J1544830D01*
G01*
X687595000Y-511875000D02*
G75*
G03*
X687595000Y-511875000I-2500000J0D01*
G01*
X863070000Y-329880000D02*
X863070000Y-332970000D01*
X868619999Y-331425462D02*
G75*
G03*
X863070001Y-329880170I-2989999J462D01*
G01*
X863070000Y-332969830D02*
G75*
G03*
X868620000Y-331424538I2560000J1544830D01*
G01*
X868130000Y-331425000D02*
G75*
G03*
X868130000Y-331425000I-2500000J0D01*
G01*
X728860000Y-713530000D02*
X728860000Y-716620000D01*
X734409999Y-715075462D02*
G75*
G03*
X728860001Y-713530170I-2989999J462D01*
G01*
X728860000Y-716619830D02*
G75*
G03*
X734410000Y-715074538I2560000J1544830D01*
G01*
X733920000Y-715075000D02*
G75*
G03*
X733920000Y-715075000I-2500000J0D01*
G01*
X676485000Y-563830000D02*
X676485000Y-566920000D01*
X682034999Y-565375462D02*
G75*
G03*
X676485001Y-563830170I-2989999J462D01*
G01*
X676485000Y-566919830D02*
G75*
G03*
X682035000Y-565374538I2560000J1544830D01*
G01*
X681545000Y-565375000D02*
G75*
G03*
X681545000Y-565375000I-2500000J0D01*
G01*
X863070000Y-797830000D02*
X863070000Y-800920000D01*
X868619999Y-799375462D02*
G75*
G03*
X863070001Y-797830170I-2989999J462D01*
G01*
X863070000Y-800919830D02*
G75*
G03*
X868620000Y-799374538I2560000J1544830D01*
G01*
X868130000Y-799375000D02*
G75*
G03*
X868130000Y-799375000I-2500000J0D01*
G01*
X766785000Y-376230000D02*
X766785000Y-379320000D01*
X772334999Y-377775462D02*
G75*
G03*
X766785001Y-376230170I-2989999J462D01*
G01*
X766785000Y-379319830D02*
G75*
G03*
X772335000Y-377774538I2560000J1544830D01*
G01*
X771845000Y-377775000D02*
G75*
G03*
X771845000Y-377775000I-2500000J0D01*
G01*
X700345000Y-668080000D02*
X700345000Y-671170000D01*
X705894999Y-669625462D02*
G75*
G03*
X700345001Y-668080170I-2989999J462D01*
G01*
X700345000Y-671169830D02*
G75*
G03*
X705895000Y-669624538I2560000J1544830D01*
G01*
X705405000Y-669625000D02*
G75*
G03*
X705405000Y-669625000I-2500000J0D01*
G01*
X766810000Y-751430000D02*
X766810000Y-754520000D01*
X772359999Y-752975462D02*
G75*
G03*
X766810001Y-751430170I-2989999J462D01*
G01*
X766810000Y-754519830D02*
G75*
G03*
X772360000Y-752974538I2560000J1544830D01*
G01*
X771870000Y-752975000D02*
G75*
G03*
X771870000Y-752975000I-2500000J0D01*
G01*
X682610000Y-617280000D02*
X682610000Y-620370000D01*
X688159999Y-618825462D02*
G75*
G03*
X682610001Y-617280170I-2989999J462D01*
G01*
X682610000Y-620369830D02*
G75*
G03*
X688160000Y-618824538I2560000J1544830D01*
G01*
X687670000Y-618825000D02*
G75*
G03*
X687670000Y-618825000I-2500000J0D01*
G01*
X728835000Y-414130000D02*
X728835000Y-417220000D01*
X734384999Y-415675462D02*
G75*
G03*
X728835001Y-414130170I-2989999J462D01*
G01*
X728835000Y-417219830D02*
G75*
G03*
X734385000Y-415674538I2560000J1544830D01*
G01*
X733895000Y-415675000D02*
G75*
G03*
X733895000Y-415675000I-2500000J0D01*
G01*
X898925000Y-803950000D02*
X897675000Y-803950000D01*
X898635000Y-804240000D02*
X892665000Y-804240000D01*
X892665000Y-804240000D02*
X892665000Y-819360000D01*
X898625000Y-804250000D02*
X897875000Y-804250000D01*
X897875000Y-804250000D02*
X897875000Y-806050000D01*
X896375000Y-804250000D02*
X896375000Y-805000000D01*
X896375000Y-805000000D02*
X893425000Y-805000000D01*
X893425000Y-805000000D02*
X893425000Y-811800000D01*
X898925000Y-805200000D02*
X898925000Y-803950000D01*
X898625000Y-806050000D02*
X898625000Y-804250000D01*
X897875000Y-806050000D02*
X898625000Y-806050000D01*
X898625000Y-807550000D02*
X897875000Y-807550000D01*
X897875000Y-807550000D02*
X897875000Y-816050000D01*
X898625000Y-816050000D02*
X898625000Y-807550000D01*
X897875000Y-816050000D02*
X898625000Y-816050000D01*
X898625000Y-817550000D02*
X897875000Y-817550000D01*
X897875000Y-817550000D02*
X897875000Y-819350000D01*
X896375000Y-818600000D02*
X893425000Y-818600000D01*
X893425000Y-818600000D02*
X893425000Y-811800000D01*
X898625000Y-819350000D02*
X898625000Y-817550000D01*
X897875000Y-819350000D02*
X898625000Y-819350000D01*
X896375000Y-819350000D02*
X896375000Y-818600000D01*
X898635000Y-819360000D02*
X898635000Y-804240000D01*
X892665000Y-819360000D02*
X898635000Y-819360000D01*
X812435000Y-347530000D02*
X812435000Y-350620000D01*
X817984999Y-349075462D02*
G75*
G03*
X812435001Y-347530170I-2989999J462D01*
G01*
X812435000Y-350619830D02*
G75*
G03*
X817985000Y-349074538I2560000J1544830D01*
G01*
X817495000Y-349075000D02*
G75*
G03*
X817495000Y-349075000I-2500000J0D01*
G01*
X812410000Y-780205000D02*
X812410000Y-783295000D01*
X817959999Y-781750462D02*
G75*
G03*
X812410001Y-780205170I-2989999J462D01*
G01*
X812410000Y-783294830D02*
G75*
G03*
X817960000Y-781749538I2560000J1544830D01*
G01*
X817470000Y-781750000D02*
G75*
G03*
X817470000Y-781750000I-2500000J0D01*
G01*
%LPC*%
D14*
X701560000Y-461200000D03*
D15*
X704100000Y-461200000D03*
D14*
X683825000Y-511875000D03*
D15*
X686365000Y-511875000D03*
D14*
X864360000Y-331425000D03*
D15*
X866900000Y-331425000D03*
D14*
X730150000Y-715075000D03*
D15*
X732690000Y-715075000D03*
D16*
X889000000Y-342900000D03*
D14*
X677775000Y-565375000D03*
D15*
X680315000Y-565375000D03*
D14*
X864360000Y-799375000D03*
D15*
X866900000Y-799375000D03*
D16*
X778510000Y-777240000D03*
D14*
X768075000Y-377775000D03*
D15*
X770615000Y-377775000D03*
D14*
X701635000Y-669625000D03*
D15*
X704175000Y-669625000D03*
D16*
X695960000Y-534670000D03*
X665480000Y-589280000D03*
D14*
X768100000Y-752975000D03*
D15*
X770640000Y-752975000D03*
D16*
X755650000Y-720090000D03*
X706120000Y-635000000D03*
X701040000Y-697230000D03*
X742950000Y-381000000D03*
D14*
X683900000Y-618825000D03*
D15*
X686440000Y-618825000D03*
D14*
X730125000Y-415675000D03*
D15*
X732665000Y-415675000D03*
D16*
X787400000Y-346710000D03*
X839470000Y-775970000D03*
X731520000Y-441960000D03*
X885190000Y-312420000D03*
D17*
X896175000Y-806800000D03*
D18*
X896175000Y-809300000D03*
X896175000Y-811800000D03*
X896175000Y-814300000D03*
X896175000Y-816800000D03*
D16*
X679450000Y-476250000D03*
D14*
X813725000Y-349075000D03*
D15*
X816265000Y-349075000D03*
D14*
X813700000Y-781750000D03*
D15*
X816240000Y-781750000D03*
D16*
X885190000Y-817880000D03*
X889000000Y-788670000D03*
X849630000Y-351790000D03*
M02*
