M48
; DRILL file {KiCad 7.0.1-3b83917a11~172~ubuntu20.04.1} date do 20 apr 2023 10:59:00 CEST
; FORMAT={-:-/ absolute / metric / decimal}
; #@! TF.CreationDate,2023-04-20T10:59:00+02:00
; #@! TF.GenerationSoftware,Kicad,Pcbnew,7.0.1-3b83917a11~172~ubuntu20.04.1
; #@! TF.FileFunction,Plated,1,2,PTH
FMAT,2
METRIC
; #@! TA.AperFunction,Plated,PTH,ComponentDrill
T1C0.900
; #@! TA.AperFunction,Plated,PTH,ComponentDrill
T2C0.950
%
G90
G05
T1
X677.775Y-565.375
X680.315Y-565.375
X683.825Y-511.875
X683.9Y-618.825
X686.365Y-511.875
X686.44Y-618.825
X701.56Y-461.2
X701.635Y-669.625
X704.1Y-461.2
X704.175Y-669.625
X730.125Y-415.675
X730.15Y-715.075
X732.665Y-415.675
X732.69Y-715.075
X768.075Y-377.775
X768.1Y-752.975
X770.615Y-377.775
X770.64Y-752.975
X813.7Y-781.75
X813.725Y-349.075
X816.24Y-781.75
X816.265Y-349.075
X864.36Y-331.425
X864.36Y-799.375
X866.9Y-331.425
X866.9Y-799.375
T2
X896.175Y-806.8
X896.175Y-809.3
X896.175Y-811.8
X896.175Y-814.3
X896.175Y-816.8
T0
M30
