G04 #@! TF.GenerationSoftware,KiCad,Pcbnew,7.0.1-3b83917a11~172~ubuntu20.04.1*
G04 #@! TF.CreationDate,2023-04-20T10:58:55+02:00*
G04 #@! TF.ProjectId,nowcast,6e6f7763-6173-4742-9e6b-696361645f70,rev?*
G04 #@! TF.SameCoordinates,Original*
G04 #@! TF.FileFunction,Copper,L2,Bot*
G04 #@! TF.FilePolarity,Positive*
%FSLAX46Y46*%
G04 Gerber Fmt 4.6, Leading zero omitted, Abs format (unit mm)*
G04 Created by KiCad (PCBNEW 7.0.1-3b83917a11~172~ubuntu20.04.1) date 2023-04-20 10:58:55*
%MOMM*%
%LPD*%
G01*
G04 APERTURE LIST*
G04 Aperture macros list*
%AMRoundRect*
0 Rectangle with rounded corners*
0 $1 Rounding radius*
0 $2 $3 $4 $5 $6 $7 $8 $9 X,Y pos of 4 corners*
0 Add a 4 corners polygon primitive as box body*
4,1,4,$2,$3,$4,$5,$6,$7,$8,$9,$2,$3,0*
0 Add four circle primitives for the rounded corners*
1,1,$1+$1,$2,$3*
1,1,$1+$1,$4,$5*
1,1,$1+$1,$6,$7*
1,1,$1+$1,$8,$9*
0 Add four rect primitives between the rounded corners*
20,1,$1+$1,$2,$3,$4,$5,0*
20,1,$1+$1,$4,$5,$6,$7,0*
20,1,$1+$1,$6,$7,$8,$9,0*
20,1,$1+$1,$8,$9,$2,$3,0*%
G04 Aperture macros list end*
G04 #@! TA.AperFunction,ComponentPad*
%ADD10R,1.800000X1.800000*%
G04 #@! TD*
G04 #@! TA.AperFunction,ComponentPad*
%ADD11C,1.800000*%
G04 #@! TD*
G04 #@! TA.AperFunction,ComponentPad*
%ADD12RoundRect,0.250000X-0.725000X0.600000X-0.725000X-0.600000X0.725000X-0.600000X0.725000X0.600000X0*%
G04 #@! TD*
G04 #@! TA.AperFunction,ComponentPad*
%ADD13O,1.950000X1.700000*%
G04 #@! TD*
G04 #@! TA.AperFunction,Conductor*
%ADD14C,0.250000*%
G04 #@! TD*
G04 APERTURE END LIST*
D10*
X701560000Y-461200000D03*
D11*
X704100000Y-461200000D03*
D10*
X683825000Y-511875000D03*
D11*
X686365000Y-511875000D03*
D10*
X864360000Y-331425000D03*
D11*
X866900000Y-331425000D03*
D10*
X730150000Y-715075000D03*
D11*
X732690000Y-715075000D03*
D10*
X677775000Y-565375000D03*
D11*
X680315000Y-565375000D03*
D10*
X864360000Y-799375000D03*
D11*
X866900000Y-799375000D03*
D10*
X768075000Y-377775000D03*
D11*
X770615000Y-377775000D03*
D10*
X701635000Y-669625000D03*
D11*
X704175000Y-669625000D03*
D10*
X768100000Y-752975000D03*
D11*
X770640000Y-752975000D03*
D10*
X683900000Y-618825000D03*
D11*
X686440000Y-618825000D03*
D10*
X730125000Y-415675000D03*
D11*
X732665000Y-415675000D03*
D12*
X896175000Y-806800000D03*
D13*
X896175000Y-809300000D03*
X896175000Y-811800000D03*
X896175000Y-814300000D03*
X896175000Y-816800000D03*
D10*
X813725000Y-349075000D03*
D11*
X816265000Y-349075000D03*
D10*
X813700000Y-781750000D03*
D11*
X816240000Y-781750000D03*
D14*
X896175000Y-809300000D02*
X886250000Y-799375000D01*
X866900000Y-799375000D02*
X848050000Y-780525000D01*
X707275000Y-460500000D02*
X707275000Y-495150000D01*
X690300000Y-621973072D02*
X707175000Y-638848072D01*
X707275000Y-495150000D02*
X690300000Y-512125000D01*
X707175000Y-672050000D02*
X732690000Y-697565000D01*
X707175000Y-638848072D02*
X707175000Y-672050000D01*
X848050000Y-780525000D02*
X814925000Y-780525000D01*
X732690000Y-697565000D02*
X732690000Y-715075000D01*
X814925000Y-780525000D02*
X813700000Y-781750000D01*
X886250000Y-799375000D02*
X866900000Y-799375000D01*
X836350000Y-331425000D02*
X707275000Y-460500000D01*
X864360000Y-331425000D02*
X836350000Y-331425000D01*
X690300000Y-512125000D02*
X690300000Y-621973072D01*
X824225000Y-799425000D02*
X825634188Y-800834188D01*
X817200000Y-799425000D02*
X824225000Y-799425000D01*
X730125000Y-435175000D02*
X704100000Y-461200000D01*
X825634188Y-800834188D02*
X885209188Y-800834188D01*
X800640000Y-782975000D02*
X800750000Y-782975000D01*
X701635000Y-634020000D02*
X686440000Y-618825000D01*
X885209188Y-800834188D02*
X896175000Y-811800000D01*
X770640000Y-752975000D02*
X745215000Y-727550000D01*
X686440000Y-514135000D02*
X686440000Y-618825000D01*
X745215000Y-727550000D02*
X742625000Y-727550000D01*
X768075000Y-377775000D02*
X730175000Y-415675000D01*
X795550000Y-350300000D02*
X768075000Y-377775000D01*
X704100000Y-496475000D02*
X686440000Y-514135000D01*
X730125000Y-415675000D02*
X730125000Y-435175000D01*
X704100000Y-461200000D02*
X704100000Y-496475000D01*
X701635000Y-669625000D02*
X701635000Y-634020000D01*
X730150000Y-698140000D02*
X701635000Y-669625000D01*
X815040000Y-350300000D02*
X795550000Y-350300000D01*
X800750000Y-782975000D02*
X817200000Y-799425000D01*
X816265000Y-349075000D02*
X815040000Y-350300000D01*
X730175000Y-415675000D02*
X730125000Y-415675000D01*
X770640000Y-752975000D02*
X800640000Y-782975000D01*
X730150000Y-715075000D02*
X730150000Y-698140000D01*
X742625000Y-727550000D02*
X730150000Y-715075000D01*
X680315000Y-515385000D02*
X683825000Y-511875000D01*
X680315000Y-565375000D02*
X680315000Y-515385000D01*
G04 #@! TA.AperFunction,NonConductor*
G36*
X898984300Y-306118149D02*
G01*
X899033974Y-306163854D01*
X899052347Y-306228807D01*
X899052347Y-346121491D01*
X899037566Y-346180204D01*
X898996746Y-346224920D01*
X898939620Y-346244978D01*
X897579134Y-346369171D01*
X894635741Y-346677842D01*
X893390576Y-346825381D01*
X891696728Y-347026084D01*
X891257761Y-347084094D01*
X888762723Y-347413821D01*
X885834100Y-347841008D01*
X884311827Y-348084012D01*
X882911551Y-348307541D01*
X880476987Y-348729835D01*
X879995476Y-348813357D01*
X877086590Y-349358332D01*
X874185241Y-349942399D01*
X871292013Y-350565443D01*
X868407395Y-351227357D01*
X865531959Y-351928009D01*
X862666259Y-352667268D01*
X861529505Y-352976881D01*
X859810692Y-353445027D01*
X859180965Y-353625677D01*
X856965850Y-354261127D01*
X854132311Y-355115403D01*
X851310431Y-356007745D01*
X848500877Y-356937945D01*
X845704091Y-357905855D01*
X845704074Y-357905861D01*
X842920540Y-358911313D01*
X842082627Y-359226783D01*
X840150754Y-359954127D01*
X837395314Y-361034082D01*
X834654584Y-362151032D01*
X831929217Y-363304711D01*
X831929193Y-363304721D01*
X831929173Y-363304730D01*
X831153001Y-363645676D01*
X829219498Y-364494998D01*
X826526092Y-365721603D01*
X823849437Y-366984326D01*
X821190009Y-368282942D01*
X818548260Y-369617230D01*
X815924758Y-370986902D01*
X813319917Y-372391744D01*
X813319901Y-372391752D01*
X813319873Y-372391768D01*
X810734133Y-373831541D01*
X810734110Y-373831553D01*
X810734096Y-373831562D01*
X808168011Y-375305955D01*
X805929225Y-376632669D01*
X805621922Y-376814778D01*
X804907801Y-377251054D01*
X803096313Y-378357741D01*
X800591836Y-379934447D01*
X798108675Y-381544778D01*
X795647487Y-383188310D01*
X793208494Y-384864894D01*
X790792461Y-386574004D01*
X788399470Y-388315583D01*
X786030216Y-390089123D01*
X783684977Y-391894420D01*
X781364292Y-393731055D01*
X779068523Y-395598743D01*
X776798041Y-397497180D01*
X774553354Y-399425946D01*
X772334729Y-401384807D01*
X770142702Y-403373296D01*
X767977694Y-405391022D01*
X765839914Y-407437798D01*
X763729972Y-409513035D01*
X761647991Y-411616614D01*
X759594602Y-413747899D01*
X757570070Y-415906613D01*
X755574691Y-418092443D01*
X753608998Y-420304801D01*
X751673137Y-422543524D01*
X749767641Y-424807997D01*
X747892766Y-427097914D01*
X746048804Y-429412918D01*
X744236217Y-431752435D01*
X742455257Y-434116133D01*
X740706253Y-436503574D01*
X738989489Y-438914377D01*
X737305344Y-441348007D01*
X735654056Y-443804121D01*
X734036034Y-446282106D01*
X734036012Y-446282140D01*
X734036002Y-446282156D01*
X733628302Y-446925279D01*
X732451415Y-448781754D01*
X730900554Y-451302510D01*
X729383795Y-453843813D01*
X727901358Y-456405290D01*
X726453462Y-458986566D01*
X725040487Y-461586962D01*
X723662589Y-464206192D01*
X722320004Y-466843808D01*
X721013109Y-469499067D01*
X719741980Y-472171817D01*
X718506948Y-474861362D01*
X717308192Y-477567311D01*
X716145983Y-480289052D01*
X715020456Y-483026269D01*
X713931862Y-485778355D01*
X712880385Y-488544836D01*
X711866221Y-491325210D01*
X710889548Y-494118974D01*
X709950562Y-496925578D01*
X709049386Y-499744650D01*
X708186235Y-502575521D01*
X707361228Y-505417795D01*
X706574548Y-508270840D01*
X705826284Y-511134349D01*
X705128602Y-513959104D01*
X705116648Y-514007503D01*
X704800629Y-515365194D01*
X704445706Y-516890021D01*
X703813601Y-519781301D01*
X703220450Y-522680807D01*
X702666367Y-525587971D01*
X702151418Y-528502455D01*
X701675737Y-531423520D01*
X701239391Y-534350720D01*
X700842451Y-537283607D01*
X700485020Y-540221403D01*
X700370285Y-541283411D01*
X700167124Y-543163893D01*
X700042701Y-544481292D01*
X699888840Y-546110386D01*
X699650227Y-549060217D01*
X699451309Y-552013128D01*
X699292131Y-554968448D01*
X699172725Y-557925567D01*
X699093110Y-560884026D01*
X699053298Y-563843360D01*
X699053298Y-566802888D01*
X699093110Y-569762221D01*
X699172725Y-572720680D01*
X699292131Y-575677799D01*
X699451309Y-578633119D01*
X699650227Y-581586030D01*
X699888840Y-584535861D01*
X699888844Y-584535907D01*
X700167124Y-587482355D01*
X700296612Y-588680912D01*
X700485020Y-590424844D01*
X700842451Y-593362640D01*
X701239391Y-596295527D01*
X701675737Y-599222727D01*
X702151418Y-602143792D01*
X702666367Y-605058276D01*
X703220450Y-607965440D01*
X703813601Y-610864946D01*
X703813606Y-610864969D01*
X704445709Y-613756239D01*
X705116648Y-616638745D01*
X705116663Y-616638806D01*
X705116664Y-616638810D01*
X705826284Y-619511898D01*
X705826296Y-619511946D01*
X705826301Y-619511964D01*
X705925215Y-619890493D01*
X706574548Y-622375407D01*
X706967813Y-623801656D01*
X707361232Y-625228466D01*
X708186231Y-628070714D01*
X708186235Y-628070726D01*
X709049386Y-630901597D01*
X709950562Y-633720669D01*
X710889548Y-636527273D01*
X711866221Y-639321037D01*
X712880385Y-642101411D01*
X713931862Y-644867892D01*
X715020456Y-647619978D01*
X716145983Y-650357195D01*
X717308192Y-653078936D01*
X718506948Y-655784885D01*
X719741980Y-658474430D01*
X721013109Y-661147180D01*
X722320004Y-663802439D01*
X722320030Y-663802490D01*
X723662572Y-666440023D01*
X723662589Y-666440055D01*
X725040487Y-669059285D01*
X726453462Y-671659681D01*
X727901358Y-674240957D01*
X729383795Y-676802434D01*
X730432139Y-678558916D01*
X730900580Y-679343780D01*
X732451407Y-681864480D01*
X734036002Y-684364092D01*
X735654079Y-686842161D01*
X736382830Y-687926100D01*
X737305344Y-689298240D01*
X738989489Y-691731870D01*
X740706253Y-694142673D01*
X742455257Y-696530114D01*
X744236217Y-698893812D01*
X745934158Y-701085355D01*
X746048830Y-701233362D01*
X747892745Y-703548308D01*
X749767633Y-705838241D01*
X751673155Y-708102745D01*
X753608968Y-710341412D01*
X753608990Y-710341437D01*
X753608998Y-710341446D01*
X754250130Y-711063031D01*
X755574719Y-712553836D01*
X756956514Y-714067517D01*
X757570070Y-714739634D01*
X759594602Y-716898348D01*
X761647991Y-719029633D01*
X761648026Y-719029669D01*
X763729924Y-721133165D01*
X763978669Y-721377818D01*
X765839914Y-723208449D01*
X767977694Y-725255225D01*
X769924754Y-727069830D01*
X770142734Y-727272981D01*
X771142770Y-728180159D01*
X772334729Y-729261440D01*
X772626804Y-729519318D01*
X774553322Y-731220274D01*
X775328642Y-731886474D01*
X776798041Y-733149067D01*
X777279895Y-733551964D01*
X779068502Y-735047487D01*
X779068523Y-735047504D01*
X781364292Y-736915192D01*
X783233966Y-738394888D01*
X783685005Y-738751849D01*
X784233050Y-739173718D01*
X786030216Y-740557124D01*
X787213781Y-741443099D01*
X788399491Y-742330680D01*
X790555553Y-743899825D01*
X790792461Y-744072243D01*
X793208494Y-745781353D01*
X793208533Y-745781379D01*
X793208546Y-745781389D01*
X795647452Y-747457914D01*
X798003031Y-749030922D01*
X798108675Y-749101469D01*
X800591836Y-750711800D01*
X803096313Y-752288506D01*
X803096348Y-752288527D01*
X803096376Y-752288545D01*
X805621922Y-753831470D01*
X808167994Y-755340282D01*
X810734133Y-756814707D01*
X813319873Y-758254480D01*
X815924747Y-759659339D01*
X818548284Y-761029030D01*
X821190008Y-762363305D01*
X823849442Y-763661924D01*
X826526104Y-764924650D01*
X829219510Y-766151255D01*
X831929173Y-767341518D01*
X834654602Y-768495223D01*
X837395304Y-769612161D01*
X840150782Y-770692131D01*
X842920540Y-771734935D01*
X845704074Y-772740387D01*
X848500882Y-773708304D01*
X851310457Y-774638511D01*
X854132292Y-775530839D01*
X856220439Y-776160388D01*
X856965850Y-776385120D01*
X856965866Y-776385124D01*
X856965874Y-776385127D01*
X859810692Y-777201221D01*
X862666230Y-777978972D01*
X863927990Y-778304465D01*
X865531959Y-778718238D01*
X866577570Y-778973020D01*
X868407401Y-779418892D01*
X871291994Y-780080800D01*
X871527569Y-780131530D01*
X874185241Y-780703848D01*
X876325293Y-781134659D01*
X877086584Y-781287914D01*
X879995534Y-781832901D01*
X882911551Y-782338707D01*
X885834109Y-782805241D01*
X888762678Y-783232420D01*
X888762719Y-783232425D01*
X888762723Y-783232426D01*
X888888545Y-783249053D01*
X891696728Y-783620164D01*
X894635729Y-783968404D01*
X897579149Y-784277078D01*
X898436650Y-784355355D01*
X898939620Y-784401270D01*
X898996746Y-784421328D01*
X899037566Y-784466044D01*
X899052347Y-784524757D01*
X899052347Y-824417441D01*
X899033974Y-824482394D01*
X898984300Y-824528099D01*
X898918046Y-824541012D01*
X895855007Y-824285664D01*
X895853482Y-824285528D01*
X892659755Y-823979541D01*
X892658232Y-823979385D01*
X889468686Y-823634012D01*
X889467165Y-823633838D01*
X886282046Y-823249105D01*
X886280527Y-823248912D01*
X883100469Y-822824898D01*
X883098953Y-822824687D01*
X879924213Y-822361423D01*
X879922700Y-822361192D01*
X876934526Y-821887408D01*
X876749002Y-821857929D01*
X876747532Y-821857686D01*
X873944205Y-821377659D01*
X873944204Y-821377658D01*
X873578920Y-821314964D01*
X873577460Y-821314704D01*
X870918345Y-820825508D01*
X870508171Y-820749864D01*
X870415727Y-820732816D01*
X870414334Y-820732550D01*
X869832519Y-820618070D01*
X867869519Y-820231825D01*
X867260124Y-820111610D01*
X867258683Y-820111317D01*
X864808832Y-819597786D01*
X864112239Y-819451375D01*
X864110808Y-819451065D01*
X861739111Y-818923269D01*
X860972950Y-818752293D01*
X860971529Y-818751967D01*
X858667220Y-818209227D01*
X857842437Y-818014406D01*
X857841026Y-818014064D01*
X857574334Y-817947764D01*
X883335787Y-817947764D01*
X883365413Y-818217016D01*
X883433928Y-818479087D01*
X883539871Y-818728392D01*
X883680982Y-818959611D01*
X883770253Y-819066881D01*
X883854255Y-819167820D01*
X884055998Y-819348582D01*
X884281910Y-819498044D01*
X884388211Y-819547875D01*
X884527177Y-819613021D01*
X884786562Y-819691058D01*
X884786569Y-819691060D01*
X885054561Y-819730500D01*
X885257631Y-819730500D01*
X885257634Y-819730500D01*
X885460156Y-819715677D01*
X885460156Y-819715676D01*
X885724553Y-819656780D01*
X885977558Y-819560014D01*
X886213777Y-819427441D01*
X886428177Y-819261888D01*
X886616186Y-819066881D01*
X886773799Y-818846579D01*
X886897656Y-818605675D01*
X886985118Y-818349305D01*
X887034319Y-818082933D01*
X887044212Y-817812235D01*
X887014586Y-817542982D01*
X886946072Y-817280912D01*
X886840130Y-817031610D01*
X886699018Y-816800390D01*
X886699017Y-816800388D01*
X886525746Y-816592181D01*
X886420758Y-816498112D01*
X886324002Y-816411418D01*
X886098090Y-816261956D01*
X886098086Y-816261954D01*
X885852822Y-816146978D01*
X885593437Y-816068941D01*
X885593431Y-816068940D01*
X885325439Y-816029500D01*
X885122369Y-816029500D01*
X885122366Y-816029500D01*
X884919843Y-816044322D01*
X884655449Y-816103219D01*
X884402441Y-816199986D01*
X884166223Y-816332559D01*
X883951825Y-816498109D01*
X883763813Y-816693120D01*
X883606201Y-816913420D01*
X883482342Y-817154329D01*
X883394881Y-817410695D01*
X883345680Y-817677066D01*
X883335787Y-817947764D01*
X857574334Y-817947764D01*
X855595704Y-817455873D01*
X854721335Y-817237860D01*
X854719935Y-817237503D01*
X852526333Y-816663325D01*
X852526193Y-816663288D01*
X852526121Y-816663270D01*
X852526121Y-816663269D01*
X851610011Y-816422749D01*
X851608621Y-816422376D01*
X849461005Y-815831811D01*
X849460910Y-815831785D01*
X848508969Y-815569201D01*
X848507591Y-815568812D01*
X846400752Y-814961387D01*
X846400651Y-814961358D01*
X845418899Y-814677409D01*
X845417531Y-814677005D01*
X843348043Y-814052577D01*
X843065475Y-813967041D01*
X842339892Y-813747400D01*
X842338591Y-813746998D01*
X840302948Y-813105258D01*
X840302303Y-813105054D01*
X840302302Y-813105054D01*
X839272939Y-812779473D01*
X839271594Y-812779039D01*
X837266295Y-812119541D01*
X837266291Y-812119538D01*
X836217967Y-811773608D01*
X836216633Y-811773160D01*
X834240909Y-811096248D01*
X834240865Y-811096233D01*
X834084347Y-811042424D01*
X833175728Y-810730050D01*
X833174406Y-810729587D01*
X831226549Y-810035238D01*
X831226421Y-810035192D01*
X830146583Y-809648923D01*
X830145272Y-809648446D01*
X828223274Y-808936450D01*
X828223140Y-808936400D01*
X827131097Y-808530426D01*
X827129799Y-808529935D01*
X825232235Y-807800227D01*
X825232112Y-807800134D01*
X825232097Y-807800174D01*
X824129659Y-807374708D01*
X824128373Y-807374203D01*
X822254174Y-806626793D01*
X822254029Y-806626735D01*
X821142778Y-806181962D01*
X821141504Y-806181444D01*
X819290283Y-805416577D01*
X818170831Y-804952341D01*
X818169585Y-804951817D01*
X816339799Y-804169222D01*
X816339663Y-804169112D01*
X816339645Y-804169156D01*
X815214280Y-803686031D01*
X815213032Y-803685486D01*
X813404222Y-802885307D01*
X813404082Y-802885192D01*
X813404063Y-802885237D01*
X812273715Y-802383289D01*
X812272478Y-802382731D01*
X810483675Y-801564849D01*
X810483511Y-801564774D01*
X809349544Y-801044296D01*
X809348320Y-801043726D01*
X807579162Y-800208269D01*
X807578993Y-800208189D01*
X806442053Y-799669184D01*
X806440842Y-799668602D01*
X804690734Y-798815561D01*
X804690560Y-798815476D01*
X803551925Y-798258276D01*
X803550727Y-798257682D01*
X801819356Y-797387160D01*
X801819177Y-797387070D01*
X800679307Y-796811643D01*
X800678123Y-796811037D01*
X798965383Y-795923226D01*
X798965225Y-795923081D01*
X798965200Y-795923131D01*
X797824873Y-795329623D01*
X797823702Y-795329005D01*
X796129061Y-794423861D01*
X796128901Y-794423710D01*
X796128874Y-794423761D01*
X794988961Y-793812392D01*
X794987816Y-793811769D01*
X793311151Y-792889443D01*
X793310989Y-792889287D01*
X793310961Y-792889338D01*
X792172019Y-792260187D01*
X792171045Y-792259642D01*
X790953962Y-791570423D01*
X790512000Y-791320145D01*
X790511804Y-791320034D01*
X789374684Y-790673364D01*
X789373553Y-790672713D01*
X787731882Y-789716098D01*
X787731682Y-789715981D01*
X786597046Y-789051975D01*
X786595928Y-789051313D01*
X784971767Y-788077848D01*
X784971563Y-788077725D01*
X783839698Y-787396365D01*
X783838594Y-787395693D01*
X782231501Y-786405287D01*
X782231293Y-786405158D01*
X781663123Y-786053463D01*
X781103030Y-785706768D01*
X781102057Y-785706159D01*
X779512070Y-784699002D01*
X779511858Y-784698867D01*
X778387484Y-783983454D01*
X778386408Y-783982762D01*
X776813841Y-782959220D01*
X776103581Y-782494830D01*
X775693447Y-782226671D01*
X775692385Y-782225969D01*
X774559373Y-781468447D01*
X774136639Y-781185810D01*
X773021336Y-780436691D01*
X773020401Y-780436057D01*
X771901691Y-779667944D01*
X771481397Y-779379367D01*
X771481175Y-779379214D01*
X770371655Y-778613851D01*
X770370621Y-778613130D01*
X769793893Y-778206579D01*
X768848434Y-777540099D01*
X768520402Y-777307764D01*
X776655787Y-777307764D01*
X776685413Y-777577016D01*
X776718355Y-777703020D01*
X776753928Y-777839088D01*
X776859870Y-778088390D01*
X776859871Y-778088392D01*
X777000982Y-778319611D01*
X777090253Y-778426881D01*
X777174255Y-778527820D01*
X777375998Y-778708582D01*
X777601910Y-778858044D01*
X777708211Y-778907875D01*
X777847177Y-778973021D01*
X778106562Y-779051058D01*
X778106569Y-779051060D01*
X778374561Y-779090500D01*
X778577631Y-779090500D01*
X778577634Y-779090500D01*
X778780156Y-779075677D01*
X778780155Y-779075677D01*
X779044553Y-779016780D01*
X779297558Y-778920014D01*
X779533777Y-778787441D01*
X779748177Y-778621888D01*
X779936186Y-778426881D01*
X780093799Y-778206579D01*
X780217656Y-777965675D01*
X780305118Y-777709305D01*
X780354319Y-777442933D01*
X780364212Y-777172235D01*
X780334586Y-776902982D01*
X780266072Y-776640912D01*
X780160130Y-776391610D01*
X780019018Y-776160390D01*
X780019017Y-776160388D01*
X779845746Y-775952181D01*
X779740758Y-775858112D01*
X779644002Y-775771418D01*
X779418090Y-775621956D01*
X779418086Y-775621954D01*
X779172822Y-775506978D01*
X778913437Y-775428941D01*
X778913431Y-775428940D01*
X778645439Y-775389500D01*
X778442369Y-775389500D01*
X778442366Y-775389500D01*
X778239843Y-775404322D01*
X777975449Y-775463219D01*
X777722441Y-775559986D01*
X777486223Y-775692559D01*
X777271825Y-775858109D01*
X777083813Y-776053120D01*
X776926201Y-776273420D01*
X776802342Y-776514329D01*
X776714881Y-776770695D01*
X776665680Y-777037066D01*
X776655787Y-777307764D01*
X768520402Y-777307764D01*
X767744701Y-776758359D01*
X767743681Y-776757629D01*
X766238719Y-775668682D01*
X766238490Y-775668516D01*
X765140790Y-774870434D01*
X765139785Y-774869695D01*
X764228768Y-774193219D01*
X763651580Y-773764628D01*
X763651426Y-773764513D01*
X762560651Y-772950606D01*
X762559659Y-772949859D01*
X761088439Y-771828965D01*
X761088204Y-771828785D01*
X760004191Y-770998807D01*
X760003214Y-770998051D01*
X758549188Y-769861616D01*
X758548951Y-769861430D01*
X757472233Y-769015660D01*
X757471270Y-769014896D01*
X756034203Y-767862858D01*
X755387201Y-767341536D01*
X754964994Y-767001342D01*
X754964045Y-767000571D01*
X754653757Y-766745470D01*
X753543881Y-765832992D01*
X752482915Y-764956208D01*
X752481981Y-764955429D01*
X751078996Y-763772648D01*
X751078751Y-763772441D01*
X750026127Y-762880360D01*
X750025208Y-762879573D01*
X749039948Y-762027925D01*
X748639541Y-761681818D01*
X747595305Y-760774367D01*
X747594434Y-760773602D01*
X746225958Y-759560868D01*
X746225708Y-759560646D01*
X745190885Y-758638613D01*
X745189995Y-758637813D01*
X743838556Y-757410060D01*
X742812761Y-756473002D01*
X742811926Y-756472231D01*
X742387124Y-756076626D01*
X741477899Y-755229891D01*
X740461822Y-754278339D01*
X740461166Y-754277718D01*
X739338782Y-753206300D01*
X739144453Y-753020795D01*
X739144198Y-753020551D01*
X738138287Y-752054837D01*
X738137441Y-752054017D01*
X736838131Y-750782682D01*
X735842202Y-749802537D01*
X735841496Y-749801836D01*
X734559774Y-748516356D01*
X733574384Y-747522239D01*
X733573567Y-747521407D01*
X732309493Y-746221931D01*
X732309235Y-746221665D01*
X731334712Y-745213824D01*
X731334206Y-745213296D01*
X730655125Y-744497731D01*
X730087965Y-743900099D01*
X730087705Y-743899825D01*
X729123977Y-742878102D01*
X729123190Y-742877259D01*
X727894800Y-741550446D01*
X726942283Y-740515192D01*
X726941511Y-740514345D01*
X725730986Y-739174009D01*
X725730724Y-739173718D01*
X724789959Y-738125449D01*
X724789202Y-738124597D01*
X723596635Y-736770919D01*
X723596373Y-736770621D01*
X722667196Y-735709081D01*
X722666760Y-735708578D01*
X721492174Y-734341651D01*
X721491912Y-734341345D01*
X720574722Y-733266911D01*
X720573994Y-733266050D01*
X719887748Y-732447193D01*
X719417696Y-731886308D01*
X718512500Y-730798911D01*
X718511924Y-730798213D01*
X717373832Y-729405626D01*
X717373570Y-729405303D01*
X716481086Y-728305738D01*
X716480387Y-728304870D01*
X716368640Y-728164637D01*
X715519781Y-727099387D01*
X715360805Y-726899885D01*
X715360542Y-726899554D01*
X714480526Y-725787453D01*
X714479843Y-725786581D01*
X713378761Y-724369261D01*
X713378498Y-724368921D01*
X712511321Y-723244681D01*
X712510652Y-723243806D01*
X711427993Y-721814111D01*
X710573693Y-720677709D01*
X710573087Y-720676896D01*
X710388672Y-720427018D01*
X709509045Y-719235143D01*
X709508796Y-719234803D01*
X709344404Y-719010388D01*
X708668000Y-718087013D01*
X708667561Y-718086409D01*
X707622099Y-716632606D01*
X706794440Y-715472861D01*
X706793995Y-715472231D01*
X705767801Y-714007404D01*
X705767567Y-714007068D01*
X704953401Y-712835791D01*
X704952964Y-712835156D01*
X703945663Y-711358842D01*
X703945404Y-711358461D01*
X703257007Y-710341446D01*
X703145182Y-710176239D01*
X703144749Y-710175592D01*
X702156252Y-708687713D01*
X701370062Y-707494621D01*
X701369480Y-707493730D01*
X701358432Y-707476647D01*
X700400174Y-705994916D01*
X699628130Y-704791072D01*
X699627563Y-704790179D01*
X698677740Y-703280952D01*
X698677485Y-703280546D01*
X697919838Y-702066285D01*
X697919285Y-702065391D01*
X696988722Y-700545463D01*
X696988469Y-700545048D01*
X696245272Y-699320401D01*
X696244734Y-699319505D01*
X696093606Y-699065677D01*
X695333557Y-697789130D01*
X695043636Y-697297764D01*
X699185787Y-697297764D01*
X699215413Y-697567016D01*
X699243045Y-697672709D01*
X699283928Y-697829088D01*
X699389870Y-698078390D01*
X699389871Y-698078392D01*
X699530982Y-698309611D01*
X699620253Y-698416881D01*
X699704255Y-698517820D01*
X699905998Y-698698582D01*
X700131910Y-698848044D01*
X700229542Y-698893812D01*
X700377177Y-698963021D01*
X700636562Y-699041058D01*
X700636569Y-699041060D01*
X700904561Y-699080500D01*
X701107631Y-699080500D01*
X701107634Y-699080500D01*
X701310156Y-699065677D01*
X701310156Y-699065676D01*
X701574553Y-699006780D01*
X701827558Y-698910014D01*
X702063777Y-698777441D01*
X702278177Y-698611888D01*
X702466186Y-698416881D01*
X702623799Y-698196579D01*
X702747656Y-697955675D01*
X702835118Y-697699305D01*
X702884319Y-697432933D01*
X702894212Y-697162235D01*
X702864586Y-696892982D01*
X702796072Y-696630912D01*
X702690130Y-696381610D01*
X702549018Y-696150390D01*
X702549017Y-696150388D01*
X702375746Y-695942181D01*
X702270758Y-695848112D01*
X702174002Y-695761418D01*
X701948090Y-695611956D01*
X701948086Y-695611954D01*
X701702822Y-695496978D01*
X701443437Y-695418941D01*
X701443431Y-695418940D01*
X701175439Y-695379500D01*
X700972369Y-695379500D01*
X700972366Y-695379500D01*
X700769843Y-695394322D01*
X700505449Y-695453219D01*
X700252441Y-695549986D01*
X700016223Y-695682559D01*
X699801825Y-695848109D01*
X699613813Y-696043120D01*
X699456201Y-696263420D01*
X699332342Y-696504329D01*
X699244881Y-696760695D01*
X699195680Y-697027066D01*
X699185787Y-697297764D01*
X695043636Y-697297764D01*
X694604811Y-696554030D01*
X694604419Y-696553358D01*
X693712639Y-695012603D01*
X692998833Y-693767818D01*
X692998355Y-693766977D01*
X692444076Y-692781468D01*
X692126228Y-692216332D01*
X691427357Y-690961807D01*
X691426984Y-690961133D01*
X690574476Y-689400590D01*
X689890600Y-688136369D01*
X689890363Y-688135926D01*
X689057875Y-686566279D01*
X689057638Y-686565830D01*
X688389010Y-685292323D01*
X688388832Y-685291981D01*
X687576224Y-683713029D01*
X687575985Y-683712563D01*
X687348657Y-683266226D01*
X686922752Y-682429997D01*
X686922487Y-682429471D01*
X686129894Y-680841530D01*
X686129720Y-680841180D01*
X685491992Y-679549713D01*
X685491795Y-679549311D01*
X684719152Y-677952298D01*
X684718920Y-677951814D01*
X684387680Y-677259531D01*
X684097030Y-676652079D01*
X684096732Y-676651452D01*
X683344245Y-675045839D01*
X682738009Y-673737403D01*
X682737610Y-673736532D01*
X682005370Y-672122561D01*
X681414998Y-670805814D01*
X681414834Y-670805443D01*
X680702835Y-669183153D01*
X680128512Y-667858454D01*
X680128166Y-667857645D01*
X679436634Y-666227594D01*
X678878475Y-664895155D01*
X678878350Y-664894854D01*
X678207199Y-663256892D01*
X678207061Y-663256552D01*
X677665272Y-661916825D01*
X677665077Y-661916338D01*
X677014423Y-660270783D01*
X676489069Y-658923894D01*
X676488725Y-658923002D01*
X676112172Y-657935180D01*
X675858788Y-657270471D01*
X675349734Y-655916010D01*
X675349621Y-655915707D01*
X674740339Y-654256081D01*
X674247860Y-652894714D01*
X674247690Y-652894238D01*
X673659174Y-651227872D01*
X673183472Y-649860110D01*
X673183187Y-649859279D01*
X672849402Y-648875672D01*
X672615521Y-648186464D01*
X672156565Y-646812175D01*
X671609612Y-645132537D01*
X671167568Y-643752166D01*
X671167470Y-643751857D01*
X670641478Y-642066184D01*
X670216469Y-640680076D01*
X670216371Y-640679752D01*
X669711436Y-638988409D01*
X669711324Y-638988030D01*
X669303458Y-637596514D01*
X669303313Y-637596014D01*
X668819390Y-635898895D01*
X668428646Y-634501860D01*
X668428488Y-634501289D01*
X667965743Y-632799023D01*
X667592118Y-631396395D01*
X667592027Y-631396047D01*
X667150394Y-629688440D01*
X666794163Y-628281197D01*
X666794023Y-628280636D01*
X666373703Y-626568514D01*
X666373551Y-626567887D01*
X666335643Y-626409935D01*
X666034752Y-625156175D01*
X666034637Y-625155688D01*
X665635489Y-623438523D01*
X665314034Y-622021917D01*
X665313954Y-622021556D01*
X664936106Y-620299920D01*
X664632176Y-618879155D01*
X664632095Y-618878769D01*
X664275578Y-617152833D01*
X663989206Y-615728019D01*
X663654121Y-613998320D01*
X663653996Y-613997662D01*
X663601783Y-613720121D01*
X663385268Y-612569196D01*
X663385258Y-612569142D01*
X663071599Y-610835701D01*
X662820490Y-609403385D01*
X662820445Y-609403128D01*
X662528252Y-607666192D01*
X662294887Y-606230682D01*
X662294860Y-606230516D01*
X662024212Y-604490625D01*
X662024151Y-604490223D01*
X661808604Y-603051971D01*
X661808533Y-603051486D01*
X661559392Y-601308437D01*
X661361663Y-599867418D01*
X661361568Y-599866708D01*
X661277620Y-599222727D01*
X661133987Y-598120897D01*
X660954086Y-596677124D01*
X660748118Y-594929007D01*
X660748048Y-594928392D01*
X660586044Y-593482381D01*
X660586024Y-593482201D01*
X660401653Y-591731672D01*
X660257548Y-590283374D01*
X660170671Y-589347764D01*
X663625787Y-589347764D01*
X663655413Y-589617016D01*
X663723928Y-589879087D01*
X663829871Y-590128392D01*
X663970982Y-590359611D01*
X664060253Y-590466881D01*
X664144255Y-590567820D01*
X664345998Y-590748582D01*
X664571910Y-590898044D01*
X664678211Y-590947875D01*
X664817177Y-591013021D01*
X665076562Y-591091058D01*
X665076569Y-591091060D01*
X665344561Y-591130500D01*
X665547631Y-591130500D01*
X665547634Y-591130500D01*
X665750156Y-591115677D01*
X665750155Y-591115677D01*
X666014553Y-591056780D01*
X666267558Y-590960014D01*
X666503777Y-590827441D01*
X666718177Y-590661888D01*
X666906186Y-590466881D01*
X667063799Y-590246579D01*
X667187656Y-590005675D01*
X667275118Y-589749305D01*
X667324319Y-589482933D01*
X667334212Y-589212235D01*
X667304586Y-588942982D01*
X667236072Y-588680912D01*
X667130130Y-588431610D01*
X666989018Y-588200390D01*
X666989017Y-588200388D01*
X666815746Y-587992181D01*
X666710758Y-587898112D01*
X666614002Y-587811418D01*
X666388090Y-587661956D01*
X666388086Y-587661954D01*
X666142822Y-587546978D01*
X665883437Y-587468941D01*
X665883431Y-587468940D01*
X665615439Y-587429500D01*
X665412369Y-587429500D01*
X665412366Y-587429500D01*
X665209843Y-587444322D01*
X664945449Y-587503219D01*
X664692441Y-587599986D01*
X664456223Y-587732559D01*
X664241825Y-587898109D01*
X664053813Y-588093120D01*
X663896201Y-588313420D01*
X663772342Y-588554329D01*
X663684881Y-588810695D01*
X663635680Y-589077066D01*
X663625787Y-589347764D01*
X660170671Y-589347764D01*
X660094805Y-588530741D01*
X660094781Y-588530471D01*
X659968654Y-587080651D01*
X659968624Y-587080298D01*
X659827544Y-585325973D01*
X659719376Y-583874387D01*
X659599957Y-582118346D01*
X659509783Y-580665388D01*
X659509768Y-580665138D01*
X659412053Y-578908048D01*
X659339902Y-577454171D01*
X659339870Y-577453461D01*
X659263891Y-575696144D01*
X659263861Y-575695399D01*
X659209741Y-574240827D01*
X659209739Y-574240771D01*
X659155434Y-572481817D01*
X659119338Y-571026230D01*
X659086752Y-569266749D01*
X659068705Y-567811022D01*
X659068703Y-567810817D01*
X659059518Y-566322869D01*
X676374500Y-566322869D01*
X676380909Y-566382484D01*
X676387383Y-566399842D01*
X676431204Y-566517331D01*
X676517454Y-566632546D01*
X676632669Y-566718796D01*
X676767517Y-566769091D01*
X676827127Y-566775500D01*
X678722872Y-566775499D01*
X678782483Y-566769091D01*
X678917331Y-566718796D01*
X679032546Y-566632546D01*
X679118796Y-566517331D01*
X679147455Y-566440490D01*
X679183405Y-566389279D01*
X679239787Y-566362140D01*
X679302242Y-566365988D01*
X679354864Y-566399841D01*
X679363216Y-566408913D01*
X679546374Y-566551470D01*
X679750497Y-566661936D01*
X679860257Y-566699616D01*
X679970015Y-566737297D01*
X679970017Y-566737297D01*
X679970019Y-566737298D01*
X680198951Y-566775500D01*
X680431048Y-566775500D01*
X680431049Y-566775500D01*
X680659981Y-566737298D01*
X680879503Y-566661936D01*
X681083626Y-566551470D01*
X681266784Y-566408913D01*
X681423979Y-566238153D01*
X681550924Y-566043849D01*
X681644157Y-565831300D01*
X681701134Y-565606305D01*
X681720300Y-565375000D01*
X681701134Y-565143695D01*
X681644157Y-564918700D01*
X681550924Y-564706151D01*
X681423979Y-564511847D01*
X681266784Y-564341087D01*
X681083626Y-564198530D01*
X681065284Y-564188604D01*
X681005482Y-564156240D01*
X680957977Y-564110659D01*
X680940500Y-564047186D01*
X680940500Y-515695452D01*
X680949939Y-515647999D01*
X680976819Y-515607771D01*
X683272771Y-513311818D01*
X683312999Y-513284938D01*
X683360452Y-513275499D01*
X684772870Y-513275499D01*
X684772872Y-513275499D01*
X684832483Y-513269091D01*
X684967331Y-513218796D01*
X685082546Y-513132546D01*
X685168796Y-513017331D01*
X685197455Y-512940490D01*
X685233405Y-512889279D01*
X685289787Y-512862140D01*
X685352242Y-512865988D01*
X685404864Y-512899841D01*
X685413216Y-512908913D01*
X685596374Y-513051470D01*
X685800497Y-513161936D01*
X686020019Y-513237298D01*
X686153564Y-513259582D01*
X686214268Y-513288101D01*
X686251242Y-513344060D01*
X686253668Y-513411087D01*
X686220835Y-513469572D01*
X686056208Y-513634199D01*
X686040110Y-513647096D01*
X685992096Y-513698225D01*
X685989391Y-513701017D01*
X685969874Y-513720534D01*
X685967415Y-513723705D01*
X685959842Y-513732572D01*
X685929935Y-513764420D01*
X685920285Y-513781974D01*
X685909609Y-513798228D01*
X685897326Y-513814063D01*
X685879975Y-513854158D01*
X685874838Y-513864644D01*
X685853802Y-513902907D01*
X685848821Y-513922309D01*
X685842520Y-513940711D01*
X685834561Y-513959102D01*
X685827728Y-514002242D01*
X685825360Y-514013674D01*
X685814500Y-514055978D01*
X685814500Y-514076016D01*
X685812973Y-514095415D01*
X685809840Y-514115194D01*
X685813950Y-514158675D01*
X685814500Y-514170344D01*
X685814500Y-617497186D01*
X685797023Y-617560659D01*
X685749518Y-617606240D01*
X685671377Y-617648528D01*
X685671375Y-617648529D01*
X685671374Y-617648530D01*
X685627512Y-617682669D01*
X685488213Y-617791089D01*
X685479863Y-617800160D01*
X685427239Y-617834012D01*
X685364785Y-617837859D01*
X685308405Y-617810720D01*
X685272455Y-617759509D01*
X685243796Y-617682669D01*
X685157546Y-617567454D01*
X685042331Y-617481204D01*
X684907483Y-617430909D01*
X684847873Y-617424500D01*
X684847869Y-617424500D01*
X682952130Y-617424500D01*
X682892515Y-617430909D01*
X682757669Y-617481204D01*
X682642454Y-617567454D01*
X682556204Y-617682668D01*
X682505909Y-617817516D01*
X682499500Y-617877130D01*
X682499500Y-619772869D01*
X682505909Y-619832484D01*
X682512383Y-619849842D01*
X682556204Y-619967331D01*
X682642454Y-620082546D01*
X682757669Y-620168796D01*
X682892517Y-620219091D01*
X682952127Y-620225500D01*
X684847872Y-620225499D01*
X684907483Y-620219091D01*
X685042331Y-620168796D01*
X685157546Y-620082546D01*
X685243796Y-619967331D01*
X685272455Y-619890490D01*
X685308405Y-619839279D01*
X685364787Y-619812140D01*
X685427242Y-619815988D01*
X685479864Y-619849841D01*
X685488216Y-619858913D01*
X685671374Y-620001470D01*
X685875497Y-620111936D01*
X685985258Y-620149617D01*
X686095015Y-620187297D01*
X686095017Y-620187297D01*
X686095019Y-620187298D01*
X686323951Y-620225500D01*
X686556048Y-620225500D01*
X686556049Y-620225500D01*
X686784981Y-620187298D01*
X686810576Y-620178510D01*
X686878788Y-620174983D01*
X686938521Y-620208111D01*
X700973181Y-634242772D01*
X701000061Y-634283000D01*
X701009500Y-634330453D01*
X701009500Y-668100501D01*
X700992887Y-668162501D01*
X700947500Y-668207888D01*
X700885500Y-668224501D01*
X700687128Y-668224501D01*
X700657322Y-668227704D01*
X700627515Y-668230909D01*
X700492669Y-668281204D01*
X700377454Y-668367454D01*
X700291204Y-668482668D01*
X700240909Y-668617516D01*
X700234500Y-668677130D01*
X700234500Y-670572869D01*
X700240909Y-670632483D01*
X700291204Y-670767331D01*
X700377454Y-670882546D01*
X700492669Y-670968796D01*
X700627517Y-671019091D01*
X700687127Y-671025500D01*
X702099547Y-671025499D01*
X702147000Y-671034938D01*
X702187228Y-671061818D01*
X729488181Y-698362771D01*
X729515061Y-698402999D01*
X729524500Y-698450452D01*
X729524500Y-713550501D01*
X729507887Y-713612501D01*
X729462500Y-713657888D01*
X729400500Y-713674501D01*
X729202128Y-713674501D01*
X729172322Y-713677705D01*
X729142515Y-713680909D01*
X729007669Y-713731204D01*
X728892454Y-713817454D01*
X728806204Y-713932668D01*
X728755909Y-714067516D01*
X728749500Y-714127130D01*
X728749500Y-716022869D01*
X728755909Y-716082483D01*
X728806204Y-716217331D01*
X728892454Y-716332546D01*
X729007669Y-716418796D01*
X729142517Y-716469091D01*
X729202127Y-716475500D01*
X730614547Y-716475499D01*
X730662000Y-716484938D01*
X730702228Y-716511818D01*
X742124196Y-727933787D01*
X742137096Y-727949888D01*
X742188223Y-727997900D01*
X742191019Y-728000610D01*
X742210529Y-728020120D01*
X742213711Y-728022588D01*
X742222571Y-728030155D01*
X742254418Y-728060062D01*
X742271970Y-728069711D01*
X742288238Y-728080397D01*
X742304064Y-728092673D01*
X742344146Y-728110017D01*
X742354633Y-728115155D01*
X742392907Y-728136197D01*
X742401410Y-728138379D01*
X742412308Y-728141178D01*
X742430713Y-728147478D01*
X742449104Y-728155437D01*
X742492250Y-728162270D01*
X742503668Y-728164635D01*
X742545981Y-728175500D01*
X742566016Y-728175500D01*
X742585415Y-728177027D01*
X742605196Y-728180160D01*
X742648674Y-728176050D01*
X742660344Y-728175500D01*
X744904548Y-728175500D01*
X744952001Y-728184939D01*
X744992229Y-728211819D01*
X768143228Y-751362819D01*
X768173478Y-751412182D01*
X768178020Y-751469898D01*
X768155865Y-751523385D01*
X768111842Y-751560985D01*
X768055547Y-751574500D01*
X767152130Y-751574500D01*
X767092515Y-751580909D01*
X766957669Y-751631204D01*
X766842454Y-751717454D01*
X766756204Y-751832668D01*
X766705909Y-751967516D01*
X766699500Y-752027130D01*
X766699500Y-753922869D01*
X766705909Y-753982484D01*
X766712383Y-753999842D01*
X766756204Y-754117331D01*
X766842454Y-754232546D01*
X766957669Y-754318796D01*
X767092517Y-754369091D01*
X767152127Y-754375500D01*
X769047872Y-754375499D01*
X769107483Y-754369091D01*
X769242331Y-754318796D01*
X769357546Y-754232546D01*
X769443796Y-754117331D01*
X769472455Y-754040490D01*
X769508405Y-753989279D01*
X769564787Y-753962140D01*
X769627242Y-753965988D01*
X769679864Y-753999841D01*
X769688216Y-754008913D01*
X769871374Y-754151470D01*
X770075497Y-754261936D01*
X770185258Y-754299617D01*
X770295015Y-754337297D01*
X770295017Y-754337297D01*
X770295019Y-754337298D01*
X770523951Y-754375500D01*
X770756048Y-754375500D01*
X770756049Y-754375500D01*
X770984981Y-754337298D01*
X771010576Y-754328510D01*
X771078788Y-754324983D01*
X771138521Y-754358111D01*
X800139196Y-783358787D01*
X800152096Y-783374888D01*
X800203223Y-783422900D01*
X800206019Y-783425610D01*
X800225529Y-783445120D01*
X800228711Y-783447588D01*
X800237571Y-783455155D01*
X800269418Y-783485062D01*
X800286972Y-783494712D01*
X800303236Y-783505396D01*
X800314972Y-783514499D01*
X800319064Y-783517673D01*
X800343909Y-783528424D01*
X800359152Y-783535021D01*
X800369631Y-783540154D01*
X800407908Y-783561197D01*
X800427306Y-783566177D01*
X800445715Y-783572480D01*
X800454292Y-783576191D01*
X800492718Y-783602308D01*
X816699196Y-799808787D01*
X816712096Y-799824888D01*
X816763223Y-799872900D01*
X816766020Y-799875611D01*
X816785529Y-799895120D01*
X816788711Y-799897588D01*
X816797571Y-799905155D01*
X816829418Y-799935062D01*
X816846970Y-799944711D01*
X816863238Y-799955397D01*
X816879064Y-799967673D01*
X816919146Y-799985017D01*
X816929633Y-799990155D01*
X816967907Y-800011197D01*
X816976410Y-800013379D01*
X816987308Y-800016178D01*
X817005713Y-800022478D01*
X817024104Y-800030437D01*
X817067250Y-800037270D01*
X817078668Y-800039635D01*
X817120981Y-800050500D01*
X817141016Y-800050500D01*
X817160415Y-800052027D01*
X817180196Y-800055160D01*
X817223674Y-800051050D01*
X817235344Y-800050500D01*
X823914548Y-800050500D01*
X823962001Y-800059939D01*
X824002229Y-800086819D01*
X825133385Y-801217975D01*
X825146286Y-801234077D01*
X825148400Y-801236062D01*
X825148402Y-801236065D01*
X825195749Y-801280527D01*
X825197428Y-801282104D01*
X825200224Y-801284814D01*
X825219718Y-801304308D01*
X825222892Y-801306770D01*
X825231756Y-801314341D01*
X825263606Y-801344250D01*
X825280989Y-801353806D01*
X825281158Y-801353899D01*
X825297426Y-801364585D01*
X825313252Y-801376861D01*
X825353336Y-801394206D01*
X825363816Y-801399340D01*
X825402096Y-801420385D01*
X825406942Y-801421629D01*
X825421501Y-801425368D01*
X825439904Y-801431668D01*
X825458293Y-801439626D01*
X825501442Y-801446459D01*
X825512868Y-801448826D01*
X825528410Y-801452817D01*
X825555168Y-801459688D01*
X825555169Y-801459688D01*
X825575204Y-801459688D01*
X825594601Y-801461214D01*
X825614384Y-801464348D01*
X825657862Y-801460238D01*
X825669532Y-801459688D01*
X884898736Y-801459688D01*
X884946189Y-801469127D01*
X884986417Y-801496007D01*
X894736177Y-811245768D01*
X894768271Y-811301355D01*
X894768271Y-811365542D01*
X894714936Y-811564592D01*
X894694340Y-811800000D01*
X894714936Y-812035407D01*
X894776097Y-812263663D01*
X894875965Y-812477829D01*
X895011505Y-812671401D01*
X895178598Y-812838494D01*
X895335596Y-812948425D01*
X895374462Y-812992743D01*
X895388473Y-813050000D01*
X895374462Y-813107257D01*
X895335596Y-813151575D01*
X895178598Y-813261505D01*
X895011508Y-813428595D01*
X894875964Y-813622172D01*
X894776097Y-813836337D01*
X894714936Y-814064592D01*
X894694340Y-814299999D01*
X894714936Y-814535407D01*
X894776097Y-814763663D01*
X894875965Y-814977829D01*
X895011505Y-815171401D01*
X895178598Y-815338494D01*
X895335596Y-815448425D01*
X895374462Y-815492743D01*
X895388473Y-815550000D01*
X895374462Y-815607257D01*
X895335596Y-815651575D01*
X895178598Y-815761505D01*
X895011508Y-815928595D01*
X895011505Y-815928598D01*
X895011505Y-815928599D01*
X894913237Y-816068941D01*
X894875964Y-816122172D01*
X894776097Y-816336337D01*
X894714936Y-816564592D01*
X894694340Y-816800000D01*
X894714936Y-817035407D01*
X894769183Y-817237860D01*
X894776097Y-817263663D01*
X894875965Y-817477829D01*
X895011505Y-817671401D01*
X895178599Y-817838495D01*
X895372171Y-817974035D01*
X895586337Y-818073903D01*
X895814591Y-818135062D01*
X895814592Y-818135063D01*
X895991032Y-818150500D01*
X895991034Y-818150500D01*
X896358966Y-818150500D01*
X896358968Y-818150500D01*
X896476594Y-818140208D01*
X896535408Y-818135063D01*
X896763663Y-818073903D01*
X896977829Y-817974035D01*
X897171401Y-817838495D01*
X897338495Y-817671401D01*
X897474035Y-817477830D01*
X897573903Y-817263663D01*
X897635063Y-817035408D01*
X897655659Y-816800000D01*
X897635063Y-816564592D01*
X897573903Y-816336337D01*
X897474035Y-816122171D01*
X897338495Y-815928599D01*
X897171401Y-815761505D01*
X897014401Y-815651573D01*
X896975537Y-815607257D01*
X896961526Y-815550000D01*
X896975537Y-815492743D01*
X897014401Y-815448426D01*
X897171401Y-815338495D01*
X897338495Y-815171401D01*
X897474035Y-814977830D01*
X897573903Y-814763663D01*
X897635063Y-814535408D01*
X897655659Y-814300000D01*
X897635063Y-814064592D01*
X897573903Y-813836337D01*
X897474035Y-813622171D01*
X897338495Y-813428599D01*
X897171401Y-813261505D01*
X897014401Y-813151573D01*
X896975537Y-813107257D01*
X896961526Y-813050000D01*
X896975537Y-812992743D01*
X897014401Y-812948426D01*
X897171401Y-812838495D01*
X897338495Y-812671401D01*
X897474035Y-812477830D01*
X897573903Y-812263663D01*
X897635063Y-812035408D01*
X897655659Y-811800000D01*
X897635063Y-811564592D01*
X897573903Y-811336337D01*
X897474035Y-811122171D01*
X897338495Y-810928599D01*
X897171401Y-810761505D01*
X897014403Y-810651574D01*
X896975538Y-810607257D01*
X896961527Y-810550000D01*
X896975538Y-810492743D01*
X897014404Y-810448425D01*
X897171401Y-810338495D01*
X897338495Y-810171401D01*
X897474035Y-809977830D01*
X897573903Y-809763663D01*
X897635063Y-809535408D01*
X897655659Y-809300000D01*
X897635063Y-809064592D01*
X897573903Y-808836337D01*
X897474035Y-808622171D01*
X897338495Y-808428599D01*
X897191294Y-808281398D01*
X897161849Y-808234428D01*
X897155814Y-808179321D01*
X897174395Y-808127091D01*
X897213879Y-808088178D01*
X897219331Y-808084814D01*
X897219334Y-808084814D01*
X897368656Y-807992712D01*
X897492712Y-807868656D01*
X897584814Y-807719334D01*
X897639999Y-807552797D01*
X897650500Y-807450009D01*
X897650499Y-806149992D01*
X897639999Y-806047203D01*
X897584814Y-805880666D01*
X897492712Y-805731344D01*
X897492711Y-805731342D01*
X897368657Y-805607288D01*
X897219334Y-805515186D01*
X897052797Y-805460000D01*
X896950009Y-805449500D01*
X895399991Y-805449500D01*
X895297203Y-805460000D01*
X895130665Y-805515186D01*
X894981342Y-805607288D01*
X894857288Y-805731342D01*
X894765186Y-805880665D01*
X894710000Y-806047202D01*
X894699500Y-806149991D01*
X894699500Y-806640548D01*
X894685985Y-806696843D01*
X894648385Y-806740866D01*
X894594898Y-806763021D01*
X894537182Y-806758479D01*
X894487819Y-806728229D01*
X890644897Y-802885307D01*
X886750802Y-798991211D01*
X886737906Y-798975113D01*
X886686775Y-798927098D01*
X886683978Y-798924387D01*
X886664470Y-798904879D01*
X886661290Y-798902412D01*
X886652424Y-798894839D01*
X886620582Y-798864938D01*
X886603024Y-798855285D01*
X886586764Y-798844604D01*
X886570936Y-798832327D01*
X886530851Y-798814980D01*
X886520361Y-798809841D01*
X886482091Y-798788802D01*
X886462691Y-798783821D01*
X886444284Y-798777519D01*
X886425897Y-798769562D01*
X886382758Y-798762729D01*
X886371324Y-798760361D01*
X886329019Y-798749500D01*
X886308984Y-798749500D01*
X886289586Y-798747973D01*
X886282162Y-798746797D01*
X886269805Y-798744840D01*
X886269804Y-798744840D01*
X886236751Y-798747964D01*
X886226325Y-798748950D01*
X886214656Y-798749500D01*
X868231350Y-798749500D01*
X868172332Y-798734555D01*
X868127542Y-798693322D01*
X868008979Y-798511847D01*
X867851784Y-798341087D01*
X867668626Y-798198530D01*
X867464503Y-798088064D01*
X867464499Y-798088062D01*
X867464498Y-798088062D01*
X867244984Y-798012702D01*
X867054456Y-797980909D01*
X867016049Y-797974500D01*
X866783951Y-797974500D01*
X866745795Y-797980866D01*
X866555014Y-798012702D01*
X866529419Y-798021489D01*
X866461208Y-798025016D01*
X866401478Y-797991888D01*
X857147355Y-788737764D01*
X887145787Y-788737764D01*
X887175413Y-789007016D01*
X887243928Y-789269087D01*
X887349871Y-789518392D01*
X887490982Y-789749611D01*
X887580253Y-789856881D01*
X887664255Y-789957820D01*
X887865998Y-790138582D01*
X888091910Y-790288044D01*
X888198211Y-790337875D01*
X888337177Y-790403021D01*
X888596562Y-790481058D01*
X888596569Y-790481060D01*
X888864561Y-790520500D01*
X889067631Y-790520500D01*
X889067634Y-790520500D01*
X889270156Y-790505677D01*
X889270156Y-790505676D01*
X889534553Y-790446780D01*
X889787558Y-790350014D01*
X890023777Y-790217441D01*
X890238177Y-790051888D01*
X890426186Y-789856881D01*
X890583799Y-789636579D01*
X890707656Y-789395675D01*
X890795118Y-789139305D01*
X890844319Y-788872933D01*
X890854212Y-788602235D01*
X890824586Y-788332982D01*
X890756072Y-788070912D01*
X890650130Y-787821610D01*
X890509018Y-787590390D01*
X890509017Y-787590388D01*
X890335746Y-787382181D01*
X890230758Y-787288112D01*
X890134002Y-787201418D01*
X889908090Y-787051956D01*
X889908086Y-787051954D01*
X889662822Y-786936978D01*
X889403437Y-786858941D01*
X889403431Y-786858940D01*
X889135439Y-786819500D01*
X888932369Y-786819500D01*
X888932366Y-786819500D01*
X888729843Y-786834322D01*
X888465449Y-786893219D01*
X888212441Y-786989986D01*
X887976223Y-787122559D01*
X887761825Y-787288109D01*
X887573813Y-787483120D01*
X887416201Y-787703420D01*
X887292342Y-787944329D01*
X887204881Y-788200695D01*
X887155680Y-788467066D01*
X887145787Y-788737764D01*
X857147355Y-788737764D01*
X848550802Y-780141211D01*
X848537906Y-780125113D01*
X848486775Y-780077098D01*
X848483978Y-780074387D01*
X848464470Y-780054879D01*
X848461290Y-780052412D01*
X848452424Y-780044839D01*
X848420582Y-780014938D01*
X848403024Y-780005285D01*
X848386764Y-779994604D01*
X848370936Y-779982327D01*
X848330851Y-779964980D01*
X848320361Y-779959841D01*
X848282091Y-779938802D01*
X848262691Y-779933821D01*
X848244284Y-779927519D01*
X848225897Y-779919562D01*
X848182758Y-779912729D01*
X848171324Y-779910361D01*
X848129019Y-779899500D01*
X848108984Y-779899500D01*
X848089586Y-779897973D01*
X848082162Y-779896797D01*
X848069805Y-779894840D01*
X848069804Y-779894840D01*
X848044468Y-779897235D01*
X848026325Y-779898950D01*
X848014656Y-779899500D01*
X815007744Y-779899500D01*
X814987236Y-779897235D01*
X814917113Y-779899439D01*
X814913219Y-779899500D01*
X814885650Y-779899500D01*
X814881671Y-779900002D01*
X814870041Y-779900917D01*
X814826372Y-779902289D01*
X814807128Y-779907880D01*
X814788084Y-779911824D01*
X814768208Y-779914335D01*
X814727600Y-779930413D01*
X814716554Y-779934194D01*
X814674610Y-779946382D01*
X814674607Y-779946383D01*
X814657365Y-779956579D01*
X814639904Y-779965133D01*
X814621267Y-779972512D01*
X814585931Y-779998185D01*
X814576174Y-780004595D01*
X814538580Y-780026829D01*
X814524413Y-780040996D01*
X814509624Y-780053626D01*
X814493413Y-780065404D01*
X814465572Y-780099058D01*
X814457711Y-780107697D01*
X814252227Y-780313181D01*
X814211999Y-780340061D01*
X814164546Y-780349500D01*
X812752130Y-780349500D01*
X812692515Y-780355909D01*
X812557669Y-780406204D01*
X812442454Y-780492454D01*
X812356204Y-780607668D01*
X812305909Y-780742516D01*
X812299500Y-780802130D01*
X812299500Y-782697869D01*
X812305909Y-782757484D01*
X812327545Y-782815493D01*
X812356204Y-782892331D01*
X812442454Y-783007546D01*
X812557669Y-783093796D01*
X812692517Y-783144091D01*
X812752127Y-783150500D01*
X814647872Y-783150499D01*
X814707483Y-783144091D01*
X814842331Y-783093796D01*
X814957546Y-783007546D01*
X815043796Y-782892331D01*
X815072455Y-782815490D01*
X815108405Y-782764279D01*
X815164787Y-782737140D01*
X815227242Y-782740988D01*
X815279864Y-782774841D01*
X815288216Y-782783913D01*
X815471374Y-782926470D01*
X815675497Y-783036936D01*
X815785257Y-783074616D01*
X815895015Y-783112297D01*
X815895017Y-783112297D01*
X815895019Y-783112298D01*
X816123951Y-783150500D01*
X816356048Y-783150500D01*
X816356049Y-783150500D01*
X816584981Y-783112298D01*
X816804503Y-783036936D01*
X817008626Y-782926470D01*
X817191784Y-782783913D01*
X817348979Y-782613153D01*
X817475924Y-782418849D01*
X817569157Y-782206300D01*
X817626134Y-781981305D01*
X817645300Y-781750000D01*
X817626134Y-781518695D01*
X817572002Y-781304938D01*
X817570848Y-781249054D01*
X817594355Y-781198338D01*
X817637749Y-781163100D01*
X817692209Y-781150500D01*
X847739548Y-781150500D01*
X847787001Y-781159939D01*
X847827229Y-781186819D01*
X864403229Y-797762819D01*
X864433479Y-797812182D01*
X864438021Y-797869898D01*
X864415866Y-797923385D01*
X864371843Y-797960985D01*
X864315548Y-797974500D01*
X863412130Y-797974500D01*
X863352515Y-797980909D01*
X863217669Y-798031204D01*
X863102454Y-798117454D01*
X863016204Y-798232668D01*
X862965909Y-798367516D01*
X862959500Y-798427130D01*
X862959501Y-800084688D01*
X862942888Y-800146688D01*
X862897501Y-800192075D01*
X862835501Y-800208688D01*
X825944640Y-800208688D01*
X825897187Y-800199249D01*
X825856959Y-800172369D01*
X824725802Y-799041211D01*
X824712906Y-799025113D01*
X824661775Y-798977098D01*
X824658978Y-798974387D01*
X824639470Y-798954879D01*
X824636290Y-798952412D01*
X824627424Y-798944839D01*
X824595582Y-798914938D01*
X824578024Y-798905285D01*
X824561764Y-798894604D01*
X824545936Y-798882327D01*
X824505851Y-798864980D01*
X824495361Y-798859841D01*
X824457091Y-798838802D01*
X824437691Y-798833821D01*
X824419284Y-798827519D01*
X824400897Y-798819562D01*
X824357758Y-798812729D01*
X824346324Y-798810361D01*
X824304019Y-798799500D01*
X824283984Y-798799500D01*
X824264586Y-798797973D01*
X824257162Y-798796797D01*
X824244805Y-798794840D01*
X824244804Y-798794840D01*
X824211751Y-798797964D01*
X824201325Y-798798950D01*
X824189656Y-798799500D01*
X817510452Y-798799500D01*
X817462999Y-798790061D01*
X817422771Y-798763181D01*
X801250802Y-782591211D01*
X801237906Y-782575113D01*
X801186775Y-782527098D01*
X801183978Y-782524387D01*
X801164470Y-782504879D01*
X801161290Y-782502412D01*
X801152424Y-782494839D01*
X801120582Y-782464938D01*
X801103024Y-782455285D01*
X801086764Y-782444604D01*
X801070936Y-782432327D01*
X801030851Y-782414980D01*
X801020361Y-782409841D01*
X800982091Y-782388802D01*
X800962691Y-782383821D01*
X800944279Y-782377517D01*
X800935711Y-782373809D01*
X800897280Y-782347690D01*
X794587354Y-776037764D01*
X837615787Y-776037764D01*
X837645413Y-776307016D01*
X837665834Y-776385127D01*
X837713928Y-776569088D01*
X837794360Y-776758359D01*
X837819871Y-776818392D01*
X837960982Y-777049611D01*
X838087153Y-777201221D01*
X838134255Y-777257820D01*
X838335998Y-777438582D01*
X838561910Y-777588044D01*
X838668211Y-777637876D01*
X838807177Y-777703021D01*
X839066562Y-777781058D01*
X839066569Y-777781060D01*
X839334561Y-777820500D01*
X839537631Y-777820500D01*
X839537634Y-777820500D01*
X839740156Y-777805677D01*
X839740156Y-777805676D01*
X840004553Y-777746780D01*
X840257558Y-777650014D01*
X840493777Y-777517441D01*
X840708177Y-777351888D01*
X840896186Y-777156881D01*
X841053799Y-776936579D01*
X841177656Y-776695675D01*
X841265118Y-776439305D01*
X841314319Y-776172933D01*
X841324212Y-775902235D01*
X841294586Y-775632982D01*
X841226072Y-775370912D01*
X841120130Y-775121610D01*
X840979018Y-774890390D01*
X840979017Y-774890388D01*
X840805746Y-774682181D01*
X840700758Y-774588112D01*
X840604002Y-774501418D01*
X840378090Y-774351956D01*
X840378086Y-774351954D01*
X840132822Y-774236978D01*
X839873437Y-774158941D01*
X839873431Y-774158940D01*
X839605439Y-774119500D01*
X839402369Y-774119500D01*
X839402366Y-774119500D01*
X839199843Y-774134322D01*
X838935449Y-774193219D01*
X838682441Y-774289986D01*
X838446223Y-774422559D01*
X838231825Y-774588109D01*
X838043813Y-774783120D01*
X837886201Y-775003420D01*
X837762342Y-775244329D01*
X837674881Y-775500695D01*
X837625680Y-775767066D01*
X837615787Y-776037764D01*
X794587354Y-776037764D01*
X772021349Y-753471758D01*
X771989479Y-753416995D01*
X771988824Y-753353637D01*
X772026134Y-753206305D01*
X772045300Y-752975000D01*
X772026134Y-752743695D01*
X771969157Y-752518700D01*
X771875924Y-752306151D01*
X771748979Y-752111847D01*
X771591784Y-751941087D01*
X771408626Y-751798530D01*
X771204503Y-751688064D01*
X771204499Y-751688062D01*
X771204498Y-751688062D01*
X770984984Y-751612702D01*
X770794456Y-751580909D01*
X770756049Y-751574500D01*
X770523951Y-751574500D01*
X770485795Y-751580866D01*
X770295014Y-751612702D01*
X770269419Y-751621489D01*
X770201208Y-751625016D01*
X770141478Y-751591888D01*
X745715802Y-727166211D01*
X745702906Y-727150113D01*
X745651775Y-727102098D01*
X745648978Y-727099387D01*
X745629470Y-727079879D01*
X745626290Y-727077412D01*
X745617424Y-727069839D01*
X745585582Y-727039938D01*
X745568024Y-727030285D01*
X745551764Y-727019604D01*
X745535936Y-727007327D01*
X745495851Y-726989980D01*
X745485361Y-726984841D01*
X745447091Y-726963802D01*
X745427691Y-726958821D01*
X745409284Y-726952519D01*
X745390897Y-726944562D01*
X745347758Y-726937729D01*
X745336324Y-726935361D01*
X745294019Y-726924500D01*
X745273984Y-726924500D01*
X745254586Y-726922973D01*
X745247162Y-726921797D01*
X745234805Y-726919840D01*
X745234804Y-726919840D01*
X745201751Y-726922964D01*
X745191325Y-726923950D01*
X745179656Y-726924500D01*
X742935453Y-726924500D01*
X742888000Y-726915061D01*
X742847772Y-726888181D01*
X736117355Y-720157764D01*
X753795787Y-720157764D01*
X753825413Y-720427016D01*
X753893928Y-720689087D01*
X753999871Y-720938392D01*
X754140982Y-721169611D01*
X754230253Y-721276881D01*
X754314255Y-721377820D01*
X754515998Y-721558582D01*
X754741910Y-721708044D01*
X754848211Y-721757876D01*
X754987177Y-721823021D01*
X755246562Y-721901058D01*
X755246569Y-721901060D01*
X755514561Y-721940500D01*
X755717631Y-721940500D01*
X755717634Y-721940500D01*
X755920156Y-721925677D01*
X755920156Y-721925676D01*
X756184553Y-721866780D01*
X756437558Y-721770014D01*
X756673777Y-721637441D01*
X756888177Y-721471888D01*
X757076186Y-721276881D01*
X757233799Y-721056579D01*
X757357656Y-720815675D01*
X757445118Y-720559305D01*
X757494319Y-720292933D01*
X757504212Y-720022235D01*
X757474586Y-719752982D01*
X757406072Y-719490912D01*
X757300130Y-719241610D01*
X757159018Y-719010390D01*
X757159017Y-719010388D01*
X756985746Y-718802181D01*
X756880758Y-718708112D01*
X756784002Y-718621418D01*
X756558090Y-718471956D01*
X756558086Y-718471954D01*
X756312822Y-718356978D01*
X756053437Y-718278941D01*
X756053431Y-718278940D01*
X755785439Y-718239500D01*
X755582369Y-718239500D01*
X755582366Y-718239500D01*
X755379843Y-718254322D01*
X755115449Y-718313219D01*
X754862441Y-718409986D01*
X754626223Y-718542559D01*
X754411825Y-718708109D01*
X754223813Y-718903120D01*
X754066201Y-719123420D01*
X753942342Y-719364329D01*
X753854881Y-719620695D01*
X753805680Y-719887066D01*
X753795787Y-720157764D01*
X736117355Y-720157764D01*
X732646772Y-716687181D01*
X732616522Y-716637818D01*
X732611980Y-716580102D01*
X732634135Y-716526615D01*
X732678158Y-716489015D01*
X732734453Y-716475500D01*
X732806048Y-716475500D01*
X732806049Y-716475500D01*
X733034981Y-716437298D01*
X733254503Y-716361936D01*
X733458626Y-716251470D01*
X733641784Y-716108913D01*
X733798979Y-715938153D01*
X733925924Y-715743849D01*
X734019157Y-715531300D01*
X734076134Y-715306305D01*
X734095300Y-715075000D01*
X734076134Y-714843695D01*
X734019157Y-714618700D01*
X733925924Y-714406151D01*
X733798979Y-714211847D01*
X733641784Y-714041087D01*
X733458626Y-713898530D01*
X733440284Y-713888604D01*
X733380482Y-713856240D01*
X733332977Y-713810659D01*
X733315500Y-713747186D01*
X733315500Y-697647741D01*
X733317763Y-697627237D01*
X733315561Y-697557145D01*
X733315500Y-697553251D01*
X733315500Y-697525657D01*
X733315500Y-697525650D01*
X733314995Y-697521653D01*
X733314080Y-697510023D01*
X733312709Y-697466373D01*
X733307120Y-697447140D01*
X733303174Y-697428082D01*
X733300664Y-697408206D01*
X733284588Y-697367604D01*
X733280804Y-697356553D01*
X733274881Y-697336168D01*
X733268618Y-697314610D01*
X733258414Y-697297355D01*
X733249861Y-697279895D01*
X733242486Y-697261269D01*
X733242486Y-697261268D01*
X733216808Y-697225925D01*
X733210401Y-697216171D01*
X733188169Y-697178579D01*
X733174006Y-697164416D01*
X733161367Y-697149617D01*
X733149595Y-697133413D01*
X733115941Y-697105573D01*
X733107299Y-697097709D01*
X707836819Y-671827228D01*
X707809939Y-671787000D01*
X707800500Y-671739547D01*
X707800500Y-638930816D01*
X707802764Y-638910309D01*
X707800561Y-638840199D01*
X707800500Y-638836304D01*
X707800500Y-638808725D01*
X707799997Y-638804744D01*
X707799080Y-638793091D01*
X707797709Y-638749445D01*
X707792120Y-638730212D01*
X707788174Y-638711154D01*
X707785664Y-638691278D01*
X707769588Y-638650676D01*
X707765804Y-638639625D01*
X707759881Y-638619240D01*
X707753618Y-638597682D01*
X707743414Y-638580427D01*
X707734861Y-638562967D01*
X707727486Y-638544341D01*
X707727486Y-638544340D01*
X707701808Y-638508997D01*
X707695401Y-638499243D01*
X707673169Y-638461651D01*
X707659006Y-638447488D01*
X707646367Y-638432689D01*
X707634595Y-638416485D01*
X707600941Y-638388645D01*
X707592299Y-638380781D01*
X706262158Y-637050640D01*
X706228684Y-636989367D01*
X706233622Y-636919721D01*
X706275406Y-636863784D01*
X706340788Y-636839290D01*
X706390156Y-636835677D01*
X706654553Y-636776780D01*
X706907558Y-636680014D01*
X707143777Y-636547441D01*
X707358177Y-636381888D01*
X707546186Y-636186881D01*
X707703799Y-635966579D01*
X707827656Y-635725675D01*
X707915118Y-635469305D01*
X707964319Y-635202933D01*
X707974212Y-634932235D01*
X707944586Y-634662982D01*
X707876072Y-634400912D01*
X707770130Y-634151610D01*
X707629018Y-633920390D01*
X707629017Y-633920388D01*
X707455746Y-633712181D01*
X707350758Y-633618112D01*
X707254002Y-633531418D01*
X707028090Y-633381956D01*
X707028086Y-633381954D01*
X706782822Y-633266978D01*
X706523437Y-633188941D01*
X706523431Y-633188940D01*
X706255439Y-633149500D01*
X706052369Y-633149500D01*
X706052366Y-633149500D01*
X705849843Y-633164322D01*
X705585449Y-633223219D01*
X705332441Y-633319986D01*
X705096223Y-633452559D01*
X704881825Y-633618109D01*
X704693813Y-633813120D01*
X704536201Y-634033420D01*
X704412342Y-634274329D01*
X704324881Y-634530695D01*
X704276877Y-634790583D01*
X704247668Y-634850385D01*
X704191747Y-634886471D01*
X704125222Y-634888446D01*
X704067259Y-634855741D01*
X690961819Y-621750300D01*
X690934939Y-621710072D01*
X690925500Y-621662619D01*
X690925500Y-534737764D01*
X694105787Y-534737764D01*
X694135413Y-535007016D01*
X694203928Y-535269087D01*
X694309871Y-535518392D01*
X694450982Y-535749611D01*
X694540253Y-535856881D01*
X694624255Y-535957820D01*
X694825998Y-536138582D01*
X695051910Y-536288044D01*
X695158211Y-536337875D01*
X695297177Y-536403021D01*
X695556562Y-536481058D01*
X695556569Y-536481060D01*
X695824561Y-536520500D01*
X696027631Y-536520500D01*
X696027634Y-536520500D01*
X696230156Y-536505677D01*
X696230155Y-536505677D01*
X696494553Y-536446780D01*
X696747558Y-536350014D01*
X696983777Y-536217441D01*
X697198177Y-536051888D01*
X697386186Y-535856881D01*
X697543799Y-535636579D01*
X697667656Y-535395675D01*
X697755118Y-535139305D01*
X697804319Y-534872933D01*
X697814212Y-534602235D01*
X697784586Y-534332982D01*
X697716072Y-534070912D01*
X697610130Y-533821610D01*
X697469018Y-533590390D01*
X697469017Y-533590388D01*
X697295746Y-533382181D01*
X697190758Y-533288112D01*
X697094002Y-533201418D01*
X696868090Y-533051956D01*
X696868086Y-533051954D01*
X696622822Y-532936978D01*
X696363437Y-532858941D01*
X696363431Y-532858940D01*
X696095439Y-532819500D01*
X695892369Y-532819500D01*
X695892366Y-532819500D01*
X695689843Y-532834322D01*
X695425449Y-532893219D01*
X695172441Y-532989986D01*
X694936223Y-533122559D01*
X694721825Y-533288109D01*
X694533813Y-533483120D01*
X694376201Y-533703420D01*
X694252342Y-533944329D01*
X694164881Y-534200695D01*
X694115680Y-534467066D01*
X694105787Y-534737764D01*
X690925500Y-534737764D01*
X690925500Y-512435452D01*
X690934939Y-512387999D01*
X690961819Y-512347771D01*
X699231858Y-504077732D01*
X707658789Y-495650800D01*
X707674885Y-495637906D01*
X707676873Y-495635787D01*
X707676877Y-495635786D01*
X707722948Y-495586723D01*
X707725566Y-495584023D01*
X707745120Y-495564471D01*
X707747581Y-495561298D01*
X707755156Y-495552427D01*
X707785062Y-495520582D01*
X707794717Y-495503018D01*
X707805394Y-495486764D01*
X707817673Y-495470936D01*
X707835018Y-495430852D01*
X707840160Y-495420356D01*
X707861197Y-495382092D01*
X707866179Y-495362684D01*
X707872481Y-495344280D01*
X707880437Y-495325896D01*
X707887269Y-495282752D01*
X707889633Y-495271338D01*
X707900500Y-495229019D01*
X707900500Y-495208984D01*
X707902027Y-495189585D01*
X707902068Y-495189321D01*
X707905160Y-495169804D01*
X707901050Y-495126325D01*
X707900500Y-495114656D01*
X707900500Y-460810452D01*
X707909939Y-460762999D01*
X707936819Y-460722771D01*
X726631826Y-442027764D01*
X729665787Y-442027764D01*
X729695413Y-442297016D01*
X729763928Y-442559087D01*
X729869871Y-442808392D01*
X730010982Y-443039611D01*
X730100253Y-443146881D01*
X730184255Y-443247820D01*
X730385998Y-443428582D01*
X730611910Y-443578044D01*
X730718211Y-443627876D01*
X730857177Y-443693021D01*
X731116562Y-443771058D01*
X731116569Y-443771060D01*
X731384561Y-443810500D01*
X731587631Y-443810500D01*
X731587634Y-443810500D01*
X731790156Y-443795677D01*
X731790156Y-443795676D01*
X732054553Y-443736780D01*
X732307558Y-443640014D01*
X732543777Y-443507441D01*
X732758177Y-443341888D01*
X732946186Y-443146881D01*
X733103799Y-442926579D01*
X733227656Y-442685675D01*
X733315118Y-442429305D01*
X733364319Y-442162933D01*
X733374212Y-441892235D01*
X733344586Y-441622982D01*
X733276072Y-441360912D01*
X733170130Y-441111610D01*
X733029018Y-440880390D01*
X733029017Y-440880388D01*
X732855746Y-440672181D01*
X732855721Y-440672159D01*
X732654002Y-440491418D01*
X732428090Y-440341956D01*
X732428086Y-440341954D01*
X732182822Y-440226978D01*
X731923437Y-440148941D01*
X731923431Y-440148940D01*
X731655439Y-440109500D01*
X731452369Y-440109500D01*
X731452366Y-440109500D01*
X731249843Y-440124322D01*
X730985449Y-440183219D01*
X730732441Y-440279986D01*
X730496223Y-440412559D01*
X730281825Y-440578109D01*
X730093813Y-440773120D01*
X729936201Y-440993420D01*
X729812342Y-441234329D01*
X729724881Y-441490695D01*
X729675680Y-441757066D01*
X729665787Y-442027764D01*
X726631826Y-442027764D01*
X816801826Y-351857764D01*
X847775787Y-351857764D01*
X847805413Y-352127016D01*
X847873928Y-352389087D01*
X847979871Y-352638392D01*
X848120982Y-352869611D01*
X848210253Y-352976881D01*
X848294255Y-353077820D01*
X848495998Y-353258582D01*
X848721910Y-353408044D01*
X848800789Y-353445021D01*
X848967177Y-353523021D01*
X849226562Y-353601058D01*
X849226569Y-353601060D01*
X849494561Y-353640500D01*
X849697631Y-353640500D01*
X849697634Y-353640500D01*
X849900156Y-353625677D01*
X849900155Y-353625677D01*
X850164553Y-353566780D01*
X850417558Y-353470014D01*
X850653777Y-353337441D01*
X850868177Y-353171888D01*
X851056186Y-352976881D01*
X851213799Y-352756579D01*
X851337656Y-352515675D01*
X851425118Y-352259305D01*
X851474319Y-351992933D01*
X851484212Y-351722235D01*
X851454586Y-351452982D01*
X851386072Y-351190912D01*
X851280130Y-350941610D01*
X851139018Y-350710390D01*
X851139017Y-350710388D01*
X850965746Y-350502181D01*
X850934163Y-350473883D01*
X850764002Y-350321418D01*
X850538090Y-350171956D01*
X850538086Y-350171954D01*
X850292822Y-350056978D01*
X850033437Y-349978941D01*
X850033431Y-349978940D01*
X849765439Y-349939500D01*
X849562369Y-349939500D01*
X849562366Y-349939500D01*
X849359843Y-349954322D01*
X849095449Y-350013219D01*
X848842441Y-350109986D01*
X848606223Y-350242559D01*
X848391825Y-350408109D01*
X848203813Y-350603120D01*
X848046201Y-350823420D01*
X847922342Y-351064329D01*
X847834881Y-351320695D01*
X847785680Y-351587066D01*
X847775787Y-351857764D01*
X816801826Y-351857764D01*
X825691826Y-342967764D01*
X887145787Y-342967764D01*
X887175413Y-343237016D01*
X887243928Y-343499087D01*
X887349871Y-343748392D01*
X887490982Y-343979611D01*
X887580253Y-344086881D01*
X887664255Y-344187820D01*
X887865998Y-344368582D01*
X888091910Y-344518044D01*
X888198211Y-344567875D01*
X888337177Y-344633021D01*
X888596562Y-344711058D01*
X888596569Y-344711060D01*
X888864561Y-344750500D01*
X889067631Y-344750500D01*
X889067634Y-344750500D01*
X889270156Y-344735677D01*
X889270156Y-344735676D01*
X889534553Y-344676780D01*
X889787558Y-344580014D01*
X890023777Y-344447441D01*
X890238177Y-344281888D01*
X890426186Y-344086881D01*
X890583799Y-343866579D01*
X890707656Y-343625675D01*
X890795118Y-343369305D01*
X890844319Y-343102933D01*
X890854212Y-342832235D01*
X890824586Y-342562982D01*
X890756072Y-342300912D01*
X890650130Y-342051610D01*
X890509018Y-341820390D01*
X890509017Y-341820388D01*
X890335746Y-341612181D01*
X890230758Y-341518112D01*
X890134002Y-341431418D01*
X889908090Y-341281956D01*
X889908086Y-341281954D01*
X889662822Y-341166978D01*
X889403437Y-341088941D01*
X889403431Y-341088940D01*
X889135439Y-341049500D01*
X888932369Y-341049500D01*
X888932366Y-341049500D01*
X888729843Y-341064322D01*
X888465449Y-341123219D01*
X888212441Y-341219986D01*
X887976223Y-341352559D01*
X887761825Y-341518109D01*
X887573813Y-341713120D01*
X887416201Y-341933420D01*
X887292342Y-342174329D01*
X887204881Y-342430695D01*
X887155680Y-342697066D01*
X887145787Y-342967764D01*
X825691826Y-342967764D01*
X836572771Y-332086819D01*
X836612999Y-332059939D01*
X836660452Y-332050500D01*
X862835501Y-332050500D01*
X862897501Y-332067113D01*
X862942888Y-332112500D01*
X862959501Y-332174500D01*
X862959501Y-332372870D01*
X862965909Y-332432484D01*
X862972383Y-332449842D01*
X863016204Y-332567331D01*
X863102454Y-332682546D01*
X863217669Y-332768796D01*
X863352517Y-332819091D01*
X863412127Y-332825500D01*
X865307872Y-332825499D01*
X865367483Y-332819091D01*
X865502331Y-332768796D01*
X865617546Y-332682546D01*
X865703796Y-332567331D01*
X865732455Y-332490490D01*
X865768405Y-332439279D01*
X865824787Y-332412140D01*
X865887242Y-332415988D01*
X865939864Y-332449841D01*
X865948216Y-332458913D01*
X866131374Y-332601470D01*
X866335497Y-332711936D01*
X866445257Y-332749616D01*
X866555015Y-332787297D01*
X866555017Y-332787297D01*
X866555019Y-332787298D01*
X866783951Y-332825500D01*
X867016048Y-332825500D01*
X867016049Y-332825500D01*
X867244981Y-332787298D01*
X867464503Y-332711936D01*
X867668626Y-332601470D01*
X867851784Y-332458913D01*
X868008979Y-332288153D01*
X868135924Y-332093849D01*
X868229157Y-331881300D01*
X868286134Y-331656305D01*
X868305300Y-331425000D01*
X868286134Y-331193695D01*
X868229157Y-330968700D01*
X868135924Y-330756151D01*
X868008979Y-330561847D01*
X867851784Y-330391087D01*
X867668626Y-330248530D01*
X867464503Y-330138064D01*
X867464499Y-330138062D01*
X867464498Y-330138062D01*
X867244984Y-330062702D01*
X867054456Y-330030909D01*
X867016049Y-330024500D01*
X866783951Y-330024500D01*
X866745544Y-330030909D01*
X866555015Y-330062702D01*
X866335501Y-330138062D01*
X866131372Y-330248531D01*
X865948213Y-330391089D01*
X865939863Y-330400160D01*
X865887239Y-330434012D01*
X865824785Y-330437859D01*
X865768405Y-330410720D01*
X865732455Y-330359509D01*
X865703796Y-330282669D01*
X865617546Y-330167454D01*
X865502331Y-330081204D01*
X865367483Y-330030909D01*
X865307873Y-330024500D01*
X865307869Y-330024500D01*
X863412130Y-330024500D01*
X863352515Y-330030909D01*
X863217669Y-330081204D01*
X863102454Y-330167454D01*
X863016204Y-330282668D01*
X862965909Y-330417516D01*
X862959500Y-330477131D01*
X862959500Y-330675500D01*
X862942887Y-330737500D01*
X862897500Y-330782887D01*
X862835500Y-330799500D01*
X836432744Y-330799500D01*
X836412236Y-330797235D01*
X836342113Y-330799439D01*
X836338219Y-330799500D01*
X836310650Y-330799500D01*
X836306671Y-330800002D01*
X836295041Y-330800917D01*
X836251372Y-330802289D01*
X836232128Y-330807880D01*
X836213084Y-330811824D01*
X836193208Y-330814335D01*
X836152600Y-330830413D01*
X836141554Y-330834194D01*
X836099610Y-330846382D01*
X836099607Y-330846383D01*
X836082365Y-330856579D01*
X836064904Y-330865133D01*
X836046267Y-330872512D01*
X836010931Y-330898185D01*
X836001174Y-330904595D01*
X835963580Y-330926829D01*
X835949413Y-330940996D01*
X835934624Y-330953626D01*
X835918413Y-330965404D01*
X835890572Y-330999058D01*
X835882711Y-331007697D01*
X817870570Y-349019838D01*
X817809588Y-349053248D01*
X817740211Y-349048581D01*
X817684254Y-349007304D01*
X817659313Y-348942397D01*
X817651134Y-348843700D01*
X817651134Y-348843695D01*
X817594157Y-348618700D01*
X817500924Y-348406151D01*
X817373979Y-348211847D01*
X817216784Y-348041087D01*
X817033626Y-347898530D01*
X816829503Y-347788064D01*
X816829499Y-347788062D01*
X816829498Y-347788062D01*
X816609984Y-347712702D01*
X816419456Y-347680909D01*
X816381049Y-347674500D01*
X816148951Y-347674500D01*
X816110544Y-347680909D01*
X815920015Y-347712702D01*
X815700501Y-347788062D01*
X815700497Y-347788063D01*
X815700497Y-347788064D01*
X815646189Y-347817454D01*
X815496372Y-347898531D01*
X815313213Y-348041089D01*
X815304863Y-348050160D01*
X815252239Y-348084012D01*
X815189785Y-348087859D01*
X815133405Y-348060720D01*
X815097455Y-348009509D01*
X815068796Y-347932669D01*
X814982546Y-347817454D01*
X814867331Y-347731204D01*
X814732483Y-347680909D01*
X814672873Y-347674500D01*
X814672869Y-347674500D01*
X812777130Y-347674500D01*
X812717515Y-347680909D01*
X812582669Y-347731204D01*
X812467454Y-347817454D01*
X812381204Y-347932668D01*
X812337382Y-348050160D01*
X812330909Y-348067517D01*
X812324500Y-348127127D01*
X812324500Y-348843700D01*
X812324501Y-349550500D01*
X812307888Y-349612500D01*
X812262501Y-349657887D01*
X812200501Y-349674500D01*
X795632744Y-349674500D01*
X795612236Y-349672235D01*
X795542113Y-349674439D01*
X795538219Y-349674500D01*
X795510650Y-349674500D01*
X795506671Y-349675002D01*
X795495041Y-349675917D01*
X795451372Y-349677289D01*
X795432128Y-349682880D01*
X795413084Y-349686824D01*
X795393208Y-349689335D01*
X795352600Y-349705413D01*
X795341554Y-349709194D01*
X795299610Y-349721382D01*
X795299607Y-349721383D01*
X795282365Y-349731579D01*
X795264904Y-349740133D01*
X795246267Y-349747512D01*
X795210931Y-349773185D01*
X795201174Y-349779595D01*
X795163580Y-349801829D01*
X795149413Y-349815996D01*
X795134624Y-349828626D01*
X795118413Y-349840404D01*
X795090572Y-349874058D01*
X795082711Y-349882697D01*
X768627226Y-376338181D01*
X768586998Y-376365061D01*
X768539545Y-376374500D01*
X767127130Y-376374500D01*
X767067515Y-376380909D01*
X766932669Y-376431204D01*
X766817454Y-376517454D01*
X766731204Y-376632668D01*
X766690766Y-376741087D01*
X766680909Y-376767517D01*
X766675830Y-376814763D01*
X766674500Y-376827131D01*
X766674500Y-378239547D01*
X766665061Y-378287000D01*
X766638181Y-378327228D01*
X730727226Y-414238181D01*
X730686998Y-414265061D01*
X730639545Y-414274500D01*
X729177130Y-414274500D01*
X729117515Y-414280909D01*
X728982669Y-414331204D01*
X728867454Y-414417454D01*
X728781204Y-414532668D01*
X728730909Y-414667516D01*
X728724500Y-414727130D01*
X728724500Y-416622869D01*
X728730909Y-416682484D01*
X728737383Y-416699842D01*
X728781204Y-416817331D01*
X728867454Y-416932546D01*
X728982669Y-417018796D01*
X729117517Y-417069091D01*
X729177127Y-417075500D01*
X729375500Y-417075500D01*
X729437500Y-417092113D01*
X729482887Y-417137500D01*
X729499500Y-417199500D01*
X729499500Y-434864548D01*
X729490061Y-434912001D01*
X729463181Y-434952229D01*
X704598519Y-459816888D01*
X704538787Y-459850016D01*
X704470574Y-459846488D01*
X704444981Y-459837701D01*
X704248787Y-459804963D01*
X704216049Y-459799500D01*
X703983951Y-459799500D01*
X703945544Y-459805909D01*
X703755015Y-459837702D01*
X703535501Y-459913062D01*
X703331372Y-460023531D01*
X703148213Y-460166089D01*
X703139863Y-460175160D01*
X703087239Y-460209012D01*
X703024785Y-460212859D01*
X702968405Y-460185720D01*
X702932455Y-460134509D01*
X702903796Y-460057669D01*
X702817546Y-459942454D01*
X702702331Y-459856204D01*
X702567483Y-459805909D01*
X702507873Y-459799500D01*
X702507869Y-459799500D01*
X700612130Y-459799500D01*
X700552515Y-459805909D01*
X700417669Y-459856204D01*
X700302454Y-459942454D01*
X700216204Y-460057668D01*
X700165909Y-460192516D01*
X700159500Y-460252130D01*
X700159500Y-462147869D01*
X700165909Y-462207484D01*
X700172383Y-462224842D01*
X700216204Y-462342331D01*
X700302454Y-462457546D01*
X700417669Y-462543796D01*
X700552517Y-462594091D01*
X700612127Y-462600500D01*
X702507872Y-462600499D01*
X702567483Y-462594091D01*
X702702331Y-462543796D01*
X702817546Y-462457546D01*
X702903796Y-462342331D01*
X702932455Y-462265490D01*
X702968405Y-462214279D01*
X703024787Y-462187140D01*
X703087242Y-462190988D01*
X703139864Y-462224841D01*
X703148216Y-462233913D01*
X703331374Y-462376470D01*
X703373355Y-462399189D01*
X703409518Y-462418760D01*
X703457023Y-462464341D01*
X703474500Y-462527814D01*
X703474500Y-496164547D01*
X703465061Y-496212000D01*
X703438181Y-496252228D01*
X687962917Y-511727490D01*
X687901934Y-511760901D01*
X687832554Y-511756232D01*
X687776597Y-511714952D01*
X687751660Y-511650043D01*
X687751134Y-511643695D01*
X687694157Y-511418700D01*
X687600924Y-511206151D01*
X687473979Y-511011847D01*
X687316784Y-510841087D01*
X687133626Y-510698530D01*
X686929503Y-510588064D01*
X686929499Y-510588062D01*
X686929498Y-510588062D01*
X686709984Y-510512702D01*
X686519456Y-510480909D01*
X686481049Y-510474500D01*
X686248951Y-510474500D01*
X686210544Y-510480909D01*
X686020015Y-510512702D01*
X685800501Y-510588062D01*
X685596372Y-510698531D01*
X685413213Y-510841089D01*
X685404863Y-510850160D01*
X685352239Y-510884012D01*
X685289785Y-510887859D01*
X685233405Y-510860720D01*
X685197455Y-510809509D01*
X685168796Y-510732669D01*
X685082546Y-510617454D01*
X684967331Y-510531204D01*
X684832483Y-510480909D01*
X684772873Y-510474500D01*
X684772869Y-510474500D01*
X682877130Y-510474500D01*
X682817515Y-510480909D01*
X682682669Y-510531204D01*
X682567454Y-510617454D01*
X682481204Y-510732668D01*
X682430909Y-510867516D01*
X682424500Y-510927131D01*
X682424500Y-512339546D01*
X682415061Y-512386999D01*
X682388181Y-512427227D01*
X679931208Y-514884199D01*
X679915110Y-514897096D01*
X679867096Y-514948225D01*
X679864391Y-514951017D01*
X679844874Y-514970534D01*
X679842415Y-514973705D01*
X679834842Y-514982572D01*
X679804935Y-515014420D01*
X679795285Y-515031974D01*
X679784609Y-515048228D01*
X679772326Y-515064063D01*
X679754975Y-515104158D01*
X679749838Y-515114644D01*
X679728802Y-515152907D01*
X679723821Y-515172309D01*
X679717520Y-515190711D01*
X679709561Y-515209102D01*
X679702728Y-515252242D01*
X679700360Y-515263674D01*
X679689500Y-515305978D01*
X679689500Y-515326016D01*
X679687973Y-515345415D01*
X679684840Y-515365194D01*
X679688950Y-515408675D01*
X679689500Y-515420344D01*
X679689500Y-564047186D01*
X679672023Y-564110659D01*
X679624518Y-564156240D01*
X679546377Y-564198528D01*
X679546375Y-564198529D01*
X679546374Y-564198530D01*
X679502512Y-564232669D01*
X679363213Y-564341089D01*
X679354863Y-564350160D01*
X679302239Y-564384012D01*
X679239785Y-564387859D01*
X679183405Y-564360720D01*
X679147455Y-564309509D01*
X679118796Y-564232669D01*
X679032546Y-564117454D01*
X678917331Y-564031204D01*
X678782483Y-563980909D01*
X678722873Y-563974500D01*
X678722869Y-563974500D01*
X676827130Y-563974500D01*
X676767515Y-563980909D01*
X676632669Y-564031204D01*
X676517454Y-564117454D01*
X676431204Y-564232668D01*
X676380909Y-564367516D01*
X676374500Y-564427130D01*
X676374500Y-566322869D01*
X659059518Y-566322869D01*
X659057843Y-566051480D01*
X659057841Y-566050715D01*
X659057841Y-564595533D01*
X659057843Y-564594768D01*
X659063254Y-563718194D01*
X659068702Y-562835441D01*
X659068705Y-562835236D01*
X659086754Y-561379369D01*
X659119340Y-559619886D01*
X659155438Y-558164296D01*
X659209740Y-556405428D01*
X659263867Y-554950689D01*
X659263891Y-554950102D01*
X659339870Y-553192785D01*
X659339906Y-553191995D01*
X659412056Y-551738146D01*
X659509781Y-549980871D01*
X659599952Y-548527972D01*
X659719378Y-546771830D01*
X659827552Y-545320181D01*
X659968648Y-543565658D01*
X660094788Y-542115693D01*
X660257543Y-540362929D01*
X660401645Y-538914655D01*
X660586043Y-537163870D01*
X660748066Y-535717696D01*
X660748129Y-535717150D01*
X660954091Y-533969082D01*
X661133982Y-532525389D01*
X661361599Y-530779298D01*
X661361651Y-530778914D01*
X661559381Y-529337885D01*
X661808577Y-527594447D01*
X662024160Y-526155960D01*
X662024168Y-526155902D01*
X662294878Y-524415619D01*
X662528269Y-522979954D01*
X662820485Y-521242885D01*
X663071570Y-519810709D01*
X663385280Y-518076983D01*
X663654003Y-516648544D01*
X663654121Y-516647926D01*
X663989204Y-514918235D01*
X664275581Y-513493398D01*
X664632157Y-511767184D01*
X664936082Y-510346435D01*
X665314011Y-508624433D01*
X665635465Y-507207824D01*
X666034674Y-505490397D01*
X666034718Y-505490215D01*
X666373591Y-504078193D01*
X666373703Y-504077732D01*
X666393538Y-503996937D01*
X666794129Y-502365184D01*
X667150439Y-500957635D01*
X667592096Y-499249932D01*
X667965738Y-497847242D01*
X668428519Y-496144845D01*
X668428600Y-496144554D01*
X668819393Y-494747342D01*
X669303415Y-493049879D01*
X669711349Y-491658128D01*
X670216427Y-489966306D01*
X670641519Y-488579930D01*
X671167534Y-486894185D01*
X671609544Y-485513918D01*
X672156590Y-483833996D01*
X672615571Y-482459634D01*
X673183285Y-480786678D01*
X673183421Y-480786284D01*
X673659135Y-479418483D01*
X674247806Y-477751682D01*
X674740295Y-476390284D01*
X674766919Y-476317764D01*
X677595787Y-476317764D01*
X677625413Y-476587016D01*
X677693928Y-476849087D01*
X677799871Y-477098392D01*
X677940982Y-477329611D01*
X678030253Y-477436881D01*
X678114255Y-477537820D01*
X678315998Y-477718582D01*
X678541910Y-477868044D01*
X678648211Y-477917876D01*
X678787177Y-477983021D01*
X679046562Y-478061058D01*
X679046569Y-478061060D01*
X679314561Y-478100500D01*
X679517631Y-478100500D01*
X679517634Y-478100500D01*
X679720156Y-478085677D01*
X679720156Y-478085676D01*
X679984553Y-478026780D01*
X680237558Y-477930014D01*
X680473777Y-477797441D01*
X680688177Y-477631888D01*
X680876186Y-477436881D01*
X681033799Y-477216579D01*
X681157656Y-476975675D01*
X681245118Y-476719305D01*
X681294319Y-476452933D01*
X681304212Y-476182235D01*
X681274586Y-475912982D01*
X681206072Y-475650912D01*
X681100130Y-475401610D01*
X680959018Y-475170390D01*
X680959017Y-475170388D01*
X680785746Y-474962181D01*
X680680758Y-474868112D01*
X680584002Y-474781418D01*
X680358090Y-474631956D01*
X680358086Y-474631954D01*
X680112822Y-474516978D01*
X679853437Y-474438941D01*
X679853431Y-474438940D01*
X679585439Y-474399500D01*
X679382369Y-474399500D01*
X679382366Y-474399500D01*
X679179843Y-474414322D01*
X678915449Y-474473219D01*
X678662441Y-474569986D01*
X678426223Y-474702559D01*
X678211825Y-474868109D01*
X678023813Y-475063120D01*
X677866201Y-475283420D01*
X677742342Y-475524329D01*
X677654881Y-475780695D01*
X677605680Y-476047066D01*
X677595787Y-476317764D01*
X674766919Y-476317764D01*
X675349699Y-474730328D01*
X675858802Y-473375741D01*
X676488765Y-471723138D01*
X676489069Y-471722352D01*
X677014396Y-470375531D01*
X677665202Y-468729595D01*
X678207104Y-467389587D01*
X678878452Y-465751144D01*
X679436564Y-464418817D01*
X680128327Y-462788223D01*
X680128438Y-462787965D01*
X680702769Y-461463245D01*
X681414942Y-459840557D01*
X682005424Y-458523567D01*
X682737742Y-456909423D01*
X682737915Y-456909047D01*
X683344197Y-455600511D01*
X684096821Y-453994606D01*
X684096919Y-453994400D01*
X684719082Y-452694093D01*
X685491911Y-451096696D01*
X686129837Y-449804831D01*
X686922667Y-448216418D01*
X687575957Y-446933735D01*
X688388988Y-445353963D01*
X689057774Y-444080159D01*
X689890509Y-442510046D01*
X690574456Y-441245695D01*
X691427121Y-439684864D01*
X691427227Y-439684673D01*
X692126122Y-438430103D01*
X692998540Y-436878941D01*
X692998699Y-436878662D01*
X693712656Y-435633615D01*
X694604693Y-434092417D01*
X695333502Y-432857208D01*
X696244904Y-431326457D01*
X696245141Y-431326063D01*
X696988424Y-430101270D01*
X697919351Y-428580748D01*
X697919767Y-428580075D01*
X698677602Y-427365513D01*
X699627747Y-425855775D01*
X699628004Y-425855371D01*
X700400175Y-424651330D01*
X701369648Y-423152256D01*
X701369914Y-423151850D01*
X702156221Y-421958581D01*
X703145041Y-420470216D01*
X703945403Y-419287786D01*
X704953156Y-417810809D01*
X704953249Y-417810675D01*
X705767529Y-416639232D01*
X706794164Y-415173775D01*
X706794289Y-415173599D01*
X707622046Y-414013715D01*
X708667825Y-412559472D01*
X709508892Y-411411312D01*
X710573325Y-409969030D01*
X710573523Y-409968764D01*
X711427953Y-408832188D01*
X712510882Y-407402137D01*
X712511128Y-407401816D01*
X713378525Y-406277290D01*
X714479973Y-404859498D01*
X714480442Y-404858899D01*
X715360515Y-403746725D01*
X716480607Y-402341101D01*
X716480857Y-402340791D01*
X717373649Y-401240845D01*
X718512150Y-399847758D01*
X718512304Y-399847572D01*
X719417683Y-398759955D01*
X720574095Y-397380076D01*
X720574644Y-397379426D01*
X721491841Y-396304984D01*
X722667023Y-394937362D01*
X723596429Y-393875562D01*
X724789249Y-392521596D01*
X724789959Y-392520797D01*
X725730711Y-391472541D01*
X726941709Y-390131682D01*
X726942111Y-390131242D01*
X727894611Y-389096005D01*
X729123488Y-387768666D01*
X729123759Y-387768377D01*
X730087563Y-386746570D01*
X731334533Y-385432607D01*
X732309316Y-384424497D01*
X733573857Y-383124542D01*
X733574154Y-383124240D01*
X734559759Y-382129905D01*
X735618796Y-381067764D01*
X741095787Y-381067764D01*
X741125413Y-381337016D01*
X741193928Y-381599087D01*
X741299871Y-381848392D01*
X741440982Y-382079611D01*
X741530253Y-382186881D01*
X741614255Y-382287820D01*
X741815998Y-382468582D01*
X742041910Y-382618044D01*
X742148211Y-382667875D01*
X742287177Y-382733021D01*
X742546562Y-382811058D01*
X742546569Y-382811060D01*
X742814561Y-382850500D01*
X743017631Y-382850500D01*
X743017634Y-382850500D01*
X743220156Y-382835677D01*
X743220156Y-382835676D01*
X743484553Y-382776780D01*
X743737558Y-382680014D01*
X743973777Y-382547441D01*
X744188177Y-382381888D01*
X744376186Y-382186881D01*
X744533799Y-381966579D01*
X744657656Y-381725675D01*
X744745118Y-381469305D01*
X744794319Y-381202933D01*
X744804212Y-380932235D01*
X744774586Y-380662982D01*
X744706072Y-380400912D01*
X744600130Y-380151610D01*
X744459018Y-379920390D01*
X744459017Y-379920388D01*
X744285746Y-379712181D01*
X744180758Y-379618112D01*
X744084002Y-379531418D01*
X743858090Y-379381956D01*
X743858086Y-379381954D01*
X743612822Y-379266978D01*
X743353437Y-379188941D01*
X743353431Y-379188940D01*
X743085439Y-379149500D01*
X742882369Y-379149500D01*
X742882366Y-379149500D01*
X742679843Y-379164322D01*
X742415449Y-379223219D01*
X742162441Y-379319986D01*
X741926223Y-379452559D01*
X741711825Y-379618109D01*
X741523813Y-379813120D01*
X741366201Y-380033420D01*
X741242342Y-380274329D01*
X741154881Y-380530695D01*
X741105680Y-380797066D01*
X741095787Y-381067764D01*
X735618796Y-381067764D01*
X735841852Y-380844054D01*
X735841962Y-380843946D01*
X736838020Y-379863674D01*
X738137713Y-378591964D01*
X738138045Y-378591643D01*
X739144164Y-377625728D01*
X740461496Y-376368214D01*
X740461598Y-376368118D01*
X741477703Y-375416538D01*
X742812271Y-374173695D01*
X742812560Y-374173429D01*
X743838415Y-373236315D01*
X745190244Y-372008208D01*
X745190652Y-372007841D01*
X746225700Y-371085608D01*
X747594784Y-369872335D01*
X747595090Y-369872067D01*
X748639066Y-368964841D01*
X748639431Y-368964524D01*
X748639490Y-368964592D01*
X748639669Y-368964319D01*
X750025382Y-367766523D01*
X750025985Y-367766007D01*
X751078630Y-366873908D01*
X752482184Y-365690647D01*
X752482695Y-365690221D01*
X753543647Y-364813448D01*
X754964196Y-363645552D01*
X754964863Y-363645009D01*
X756034035Y-362783524D01*
X757471354Y-361631282D01*
X757472155Y-361630647D01*
X758548860Y-360784887D01*
X760003371Y-359648072D01*
X760004057Y-359647542D01*
X761088108Y-358817534D01*
X762559868Y-357696229D01*
X762560420Y-357695813D01*
X763651493Y-356881684D01*
X765140156Y-355776277D01*
X765140552Y-355775986D01*
X766238364Y-354977822D01*
X767743951Y-353888423D01*
X767744458Y-353888060D01*
X768848279Y-353106258D01*
X770370855Y-352032952D01*
X770371428Y-352032553D01*
X771481139Y-351267057D01*
X773020689Y-350209992D01*
X773021053Y-350209746D01*
X774136409Y-349460591D01*
X775692564Y-348420157D01*
X775693278Y-348419686D01*
X776813471Y-347687268D01*
X778210831Y-346777764D01*
X785545787Y-346777764D01*
X785575413Y-347047016D01*
X785575414Y-347047018D01*
X785643928Y-347309088D01*
X785688435Y-347413821D01*
X785749871Y-347558392D01*
X785890982Y-347789611D01*
X785981626Y-347898531D01*
X786064255Y-347997820D01*
X786265998Y-348178582D01*
X786491910Y-348328044D01*
X786598211Y-348377876D01*
X786737177Y-348443021D01*
X786996562Y-348521058D01*
X786996569Y-348521060D01*
X787264561Y-348560500D01*
X787467631Y-348560500D01*
X787467634Y-348560500D01*
X787670156Y-348545677D01*
X787670156Y-348545676D01*
X787934553Y-348486780D01*
X788187558Y-348390014D01*
X788423777Y-348257441D01*
X788638177Y-348091888D01*
X788826186Y-347896881D01*
X788983799Y-347676579D01*
X789107656Y-347435675D01*
X789195118Y-347179305D01*
X789244319Y-346912933D01*
X789254212Y-346642235D01*
X789224586Y-346372982D01*
X789156072Y-346110912D01*
X789050130Y-345861610D01*
X788909018Y-345630390D01*
X788909017Y-345630388D01*
X788735746Y-345422181D01*
X788630758Y-345328112D01*
X788534002Y-345241418D01*
X788308090Y-345091956D01*
X788308086Y-345091954D01*
X788062822Y-344976978D01*
X787803437Y-344898941D01*
X787803431Y-344898940D01*
X787535439Y-344859500D01*
X787332369Y-344859500D01*
X787332366Y-344859500D01*
X787129843Y-344874322D01*
X786865449Y-344933219D01*
X786612441Y-345029986D01*
X786376223Y-345162559D01*
X786161825Y-345328109D01*
X785973813Y-345523120D01*
X785816201Y-345743420D01*
X785692342Y-345984329D01*
X785604881Y-346240695D01*
X785555680Y-346507066D01*
X785545787Y-346777764D01*
X778210831Y-346777764D01*
X778386493Y-346663430D01*
X778387289Y-346662917D01*
X779511811Y-345947409D01*
X781102403Y-344939869D01*
X781102731Y-344939664D01*
X782231205Y-344241143D01*
X783838786Y-343250435D01*
X783839489Y-343250008D01*
X784971585Y-342568509D01*
X786596161Y-341594794D01*
X786596848Y-341594387D01*
X787731556Y-340930338D01*
X789373925Y-339973317D01*
X789374383Y-339973054D01*
X790512004Y-339326100D01*
X792171390Y-338386410D01*
X792171750Y-338386209D01*
X793310793Y-337757001D01*
X793310961Y-337756909D01*
X793310985Y-337756952D01*
X793311141Y-337756810D01*
X794988241Y-336834245D01*
X794988702Y-336833994D01*
X796128367Y-336222757D01*
X796128874Y-336222486D01*
X796128897Y-336222529D01*
X796129050Y-336222392D01*
X797823953Y-335317108D01*
X797824673Y-335316728D01*
X798964854Y-334723295D01*
X798965200Y-334723116D01*
X798965222Y-334723158D01*
X798965373Y-334723026D01*
X800678319Y-333835108D01*
X800679158Y-333834678D01*
X801818773Y-333259380D01*
X801819177Y-333259177D01*
X801819198Y-333259218D01*
X801819345Y-333259093D01*
X803550857Y-332388499D01*
X803551804Y-332388029D01*
X804690162Y-331830965D01*
X806441048Y-330977544D01*
X806441864Y-330977152D01*
X807578801Y-330438148D01*
X809348567Y-329602404D01*
X809349340Y-329602044D01*
X810483082Y-329081668D01*
X812272725Y-328263403D01*
X812273527Y-328263041D01*
X813403628Y-327761202D01*
X813404063Y-327761010D01*
X813404080Y-327761048D01*
X813404214Y-327760943D01*
X815213154Y-326960706D01*
X815214194Y-326960252D01*
X816339106Y-326477322D01*
X816339645Y-326477091D01*
X816339661Y-326477128D01*
X816339791Y-326477029D01*
X818169919Y-325694287D01*
X818170501Y-325694043D01*
X819289416Y-325230028D01*
X819289923Y-325229819D01*
X819290071Y-325229790D01*
X819290060Y-325229762D01*
X821141672Y-324464733D01*
X821142608Y-324464353D01*
X822253990Y-324019527D01*
X824128628Y-323271942D01*
X824129437Y-323271625D01*
X825232097Y-322846073D01*
X825232110Y-322846107D01*
X825232228Y-322846022D01*
X827129958Y-322116250D01*
X827130958Y-322115872D01*
X828222685Y-321710015D01*
X830145618Y-320997673D01*
X830146267Y-320997437D01*
X831225767Y-320611288D01*
X831226427Y-320611052D01*
X831226562Y-320611045D01*
X831226550Y-320611009D01*
X833174574Y-319916599D01*
X833175583Y-319916246D01*
X834240702Y-319550071D01*
X834240786Y-319550042D01*
X834240796Y-319550071D01*
X834240896Y-319550004D01*
X836216968Y-318872973D01*
X836217675Y-318872735D01*
X837265906Y-318526833D01*
X839271782Y-317867146D01*
X839272753Y-317866833D01*
X840302023Y-317541281D01*
X842338817Y-316899178D01*
X842339702Y-316898904D01*
X843347381Y-316593870D01*
X845417749Y-315969176D01*
X845418675Y-315968903D01*
X846400418Y-315684956D01*
X848507799Y-315077375D01*
X848508787Y-315077096D01*
X849460171Y-314814665D01*
X851608952Y-314223780D01*
X851609728Y-314223572D01*
X852524907Y-313983295D01*
X854720106Y-313408699D01*
X854721155Y-313408431D01*
X855595396Y-313190451D01*
X857841309Y-312632113D01*
X857842186Y-312631900D01*
X858452390Y-312487764D01*
X883335787Y-312487764D01*
X883365413Y-312757016D01*
X883365414Y-312757018D01*
X883433928Y-313019088D01*
X883539870Y-313268390D01*
X883539871Y-313268392D01*
X883680982Y-313499611D01*
X883770253Y-313606881D01*
X883854255Y-313707820D01*
X884055998Y-313888582D01*
X884281910Y-314038044D01*
X884388211Y-314087875D01*
X884527177Y-314153021D01*
X884786562Y-314231058D01*
X884786569Y-314231060D01*
X885054561Y-314270500D01*
X885257631Y-314270500D01*
X885257634Y-314270500D01*
X885460156Y-314255677D01*
X885460155Y-314255677D01*
X885724553Y-314196780D01*
X885977558Y-314100014D01*
X886213777Y-313967441D01*
X886428177Y-313801888D01*
X886616186Y-313606881D01*
X886773799Y-313386579D01*
X886897656Y-313145675D01*
X886985118Y-312889305D01*
X887034319Y-312622933D01*
X887044212Y-312352235D01*
X887014586Y-312082982D01*
X886946072Y-311820912D01*
X886840130Y-311571610D01*
X886699018Y-311340390D01*
X886699017Y-311340388D01*
X886525746Y-311132181D01*
X886420758Y-311038112D01*
X886324002Y-310951418D01*
X886098090Y-310801956D01*
X886098086Y-310801954D01*
X885852822Y-310686978D01*
X885593437Y-310608941D01*
X885593431Y-310608940D01*
X885325439Y-310569500D01*
X885122369Y-310569500D01*
X885122366Y-310569500D01*
X884919843Y-310584322D01*
X884655449Y-310643219D01*
X884402441Y-310739986D01*
X884166223Y-310872559D01*
X883951825Y-311038109D01*
X883763813Y-311233120D01*
X883606201Y-311453420D01*
X883482342Y-311694329D01*
X883394881Y-311950695D01*
X883345680Y-312217066D01*
X883335787Y-312487764D01*
X858452390Y-312487764D01*
X858666115Y-312437280D01*
X860971679Y-311894244D01*
X860972820Y-311893982D01*
X861737785Y-311723273D01*
X864110865Y-311195168D01*
X864112190Y-311194881D01*
X864807117Y-311048821D01*
X867258781Y-310534908D01*
X867259901Y-310534680D01*
X867868865Y-310414551D01*
X870414709Y-309913623D01*
X870415441Y-309913484D01*
X870917273Y-309820936D01*
X873577648Y-309331508D01*
X873578792Y-309331304D01*
X873943667Y-309268681D01*
X876747886Y-308788501D01*
X876748745Y-308788359D01*
X876931871Y-308759260D01*
X879922772Y-308285043D01*
X879924151Y-308284833D01*
X883099082Y-307821541D01*
X883100321Y-307821369D01*
X886280559Y-307397330D01*
X886282014Y-307397146D01*
X889467300Y-307012393D01*
X889468544Y-307012251D01*
X892658334Y-306666851D01*
X892659665Y-306666715D01*
X895853529Y-306360714D01*
X895854953Y-306360587D01*
X898214888Y-306163854D01*
X898918046Y-306105236D01*
X898984300Y-306118149D01*
G37*
G04 #@! TD.AperFunction*
G04 #@! TA.AperFunction,NonConductor*
G36*
X815894423Y-350428510D02*
G01*
X815920019Y-350437298D01*
X816139262Y-350473883D01*
X816199967Y-350502403D01*
X816236941Y-350558362D01*
X816239367Y-350625388D01*
X816206534Y-350683873D01*
X706891208Y-459999199D01*
X706875110Y-460012096D01*
X706827096Y-460063225D01*
X706824391Y-460066017D01*
X706804874Y-460085534D01*
X706802415Y-460088705D01*
X706794842Y-460097572D01*
X706764935Y-460129420D01*
X706755285Y-460146974D01*
X706744609Y-460163228D01*
X706732326Y-460179063D01*
X706714975Y-460219158D01*
X706709838Y-460229644D01*
X706688802Y-460267907D01*
X706683821Y-460287309D01*
X706677520Y-460305711D01*
X706669561Y-460324102D01*
X706662728Y-460367242D01*
X706660360Y-460378674D01*
X706649500Y-460420978D01*
X706649500Y-460441016D01*
X706647973Y-460460415D01*
X706644840Y-460480194D01*
X706648950Y-460523675D01*
X706649500Y-460535344D01*
X706649500Y-494839547D01*
X706640061Y-494887000D01*
X706613181Y-494927228D01*
X704940650Y-496599758D01*
X704887562Y-496631154D01*
X704825916Y-496633090D01*
X704770962Y-496605087D01*
X704736297Y-496554073D01*
X704732166Y-496510348D01*
X704731634Y-496510399D01*
X704726050Y-496451325D01*
X704725500Y-496439656D01*
X704725500Y-462527814D01*
X704742977Y-462464341D01*
X704790482Y-462418760D01*
X704815144Y-462405412D01*
X704868626Y-462376470D01*
X705051784Y-462233913D01*
X705208979Y-462063153D01*
X705335924Y-461868849D01*
X705429157Y-461656300D01*
X705486134Y-461431305D01*
X705505300Y-461200000D01*
X705486134Y-460968695D01*
X705448823Y-460821360D01*
X705449477Y-460758005D01*
X705481345Y-460703243D01*
X730508789Y-435675800D01*
X730524885Y-435662906D01*
X730526873Y-435660787D01*
X730526877Y-435660786D01*
X730572948Y-435611723D01*
X730575566Y-435609023D01*
X730595120Y-435589471D01*
X730597581Y-435586298D01*
X730605156Y-435577427D01*
X730635062Y-435545582D01*
X730644712Y-435528027D01*
X730655400Y-435511757D01*
X730667671Y-435495938D01*
X730667673Y-435495936D01*
X730685026Y-435455832D01*
X730690157Y-435445362D01*
X730711197Y-435407092D01*
X730716175Y-435387699D01*
X730722481Y-435369282D01*
X730724018Y-435365728D01*
X730730438Y-435350896D01*
X730737272Y-435307745D01*
X730739635Y-435296331D01*
X730750500Y-435254019D01*
X730750500Y-435233984D01*
X730752027Y-435214585D01*
X730755160Y-435194804D01*
X730751050Y-435151325D01*
X730750500Y-435139656D01*
X730750500Y-417199499D01*
X730767113Y-417137499D01*
X730812500Y-417092112D01*
X730874500Y-417075499D01*
X731072870Y-417075499D01*
X731072872Y-417075499D01*
X731132483Y-417069091D01*
X731267331Y-417018796D01*
X731382546Y-416932546D01*
X731468796Y-416817331D01*
X731497455Y-416740490D01*
X731533405Y-416689279D01*
X731589787Y-416662140D01*
X731652242Y-416665988D01*
X731704864Y-416699841D01*
X731713216Y-416708913D01*
X731896374Y-416851470D01*
X732100497Y-416961936D01*
X732210258Y-416999617D01*
X732320015Y-417037297D01*
X732320017Y-417037297D01*
X732320019Y-417037298D01*
X732548951Y-417075500D01*
X732781048Y-417075500D01*
X732781049Y-417075500D01*
X733009981Y-417037298D01*
X733229503Y-416961936D01*
X733433626Y-416851470D01*
X733616784Y-416708913D01*
X733773979Y-416538153D01*
X733900924Y-416343849D01*
X733994157Y-416131300D01*
X734051134Y-415906305D01*
X734070300Y-415675000D01*
X734051134Y-415443695D01*
X733994157Y-415218700D01*
X733900924Y-415006151D01*
X733773979Y-414811847D01*
X733616784Y-414641087D01*
X733433626Y-414498530D01*
X733229503Y-414388064D01*
X733229499Y-414388062D01*
X733229498Y-414388062D01*
X733009984Y-414312702D01*
X732819456Y-414280909D01*
X732781049Y-414274500D01*
X732759451Y-414274500D01*
X732703156Y-414260985D01*
X732659133Y-414223385D01*
X732636978Y-414169898D01*
X732641520Y-414112182D01*
X732671770Y-414062819D01*
X767522772Y-379211818D01*
X767563000Y-379184938D01*
X767610453Y-379175499D01*
X769022870Y-379175499D01*
X769022872Y-379175499D01*
X769082483Y-379169091D01*
X769217331Y-379118796D01*
X769332546Y-379032546D01*
X769418796Y-378917331D01*
X769447455Y-378840490D01*
X769483405Y-378789279D01*
X769539787Y-378762140D01*
X769602242Y-378765988D01*
X769654864Y-378799841D01*
X769663216Y-378808913D01*
X769846374Y-378951470D01*
X770050497Y-379061936D01*
X770160257Y-379099616D01*
X770270015Y-379137297D01*
X770270017Y-379137297D01*
X770270019Y-379137298D01*
X770498951Y-379175500D01*
X770731048Y-379175500D01*
X770731049Y-379175500D01*
X770959981Y-379137298D01*
X771179503Y-379061936D01*
X771383626Y-378951470D01*
X771566784Y-378808913D01*
X771723979Y-378638153D01*
X771850924Y-378443849D01*
X771944157Y-378231300D01*
X772001134Y-378006305D01*
X772020300Y-377775000D01*
X772001134Y-377543695D01*
X771944157Y-377318700D01*
X771850924Y-377106151D01*
X771723979Y-376911847D01*
X771566784Y-376741087D01*
X771383626Y-376598530D01*
X771179503Y-376488064D01*
X771179499Y-376488062D01*
X771179498Y-376488062D01*
X770959984Y-376412702D01*
X770769456Y-376380909D01*
X770731049Y-376374500D01*
X770659451Y-376374500D01*
X770603156Y-376360985D01*
X770559133Y-376323385D01*
X770536978Y-376269898D01*
X770541520Y-376212182D01*
X770571770Y-376162819D01*
X783088914Y-363645676D01*
X795772770Y-350961819D01*
X795812999Y-350934939D01*
X795860452Y-350925500D01*
X814957256Y-350925500D01*
X814977762Y-350927764D01*
X814980665Y-350927672D01*
X814980667Y-350927673D01*
X815047872Y-350925561D01*
X815051768Y-350925500D01*
X815079349Y-350925500D01*
X815079350Y-350925500D01*
X815083319Y-350924998D01*
X815094965Y-350924080D01*
X815138627Y-350922709D01*
X815157859Y-350917120D01*
X815176918Y-350913174D01*
X815183196Y-350912381D01*
X815196792Y-350910664D01*
X815237407Y-350894582D01*
X815248444Y-350890803D01*
X815290390Y-350878618D01*
X815307629Y-350868422D01*
X815325102Y-350859862D01*
X815343732Y-350852486D01*
X815379064Y-350826814D01*
X815388830Y-350820400D01*
X815426418Y-350798171D01*
X815426417Y-350798171D01*
X815426420Y-350798170D01*
X815440585Y-350784004D01*
X815455373Y-350771373D01*
X815471587Y-350759594D01*
X815499438Y-350725926D01*
X815507279Y-350717309D01*
X815766480Y-350458108D01*
X815826212Y-350424981D01*
X815894423Y-350428510D01*
G37*
G04 #@! TD.AperFunction*
G04 #@! TA.AperFunction,NonConductor*
G36*
X689629032Y-511994906D02*
G01*
X689663699Y-512045916D01*
X689667833Y-512089651D01*
X689668366Y-512089601D01*
X689673950Y-512148675D01*
X689674500Y-512160344D01*
X689674500Y-620875547D01*
X689660985Y-620931842D01*
X689623385Y-620975865D01*
X689569898Y-620998020D01*
X689512182Y-620993478D01*
X689462819Y-620963228D01*
X687821349Y-619321758D01*
X687789479Y-619266995D01*
X687788824Y-619203637D01*
X687826134Y-619056305D01*
X687845300Y-618825000D01*
X687826134Y-618593695D01*
X687769157Y-618368700D01*
X687675924Y-618156151D01*
X687548979Y-617961847D01*
X687391784Y-617791087D01*
X687208626Y-617648530D01*
X687190284Y-617638604D01*
X687130482Y-617606240D01*
X687082977Y-617560659D01*
X687065500Y-617497186D01*
X687065500Y-514445452D01*
X687074939Y-514397999D01*
X687101819Y-514357771D01*
X688240795Y-513218795D01*
X689459351Y-512000238D01*
X689512435Y-511968845D01*
X689574079Y-511966907D01*
X689629032Y-511994906D01*
G37*
G04 #@! TD.AperFunction*
G04 #@! TA.AperFunction,NonConductor*
G36*
X702422818Y-634999594D02*
G01*
X702472181Y-635029844D01*
X706513181Y-639070844D01*
X706540061Y-639111072D01*
X706549500Y-639158525D01*
X706549500Y-671967256D01*
X706547235Y-671987762D01*
X706549439Y-672057873D01*
X706549500Y-672061768D01*
X706549500Y-672089349D01*
X706550003Y-672093334D01*
X706550918Y-672104967D01*
X706552290Y-672148626D01*
X706557879Y-672167860D01*
X706561825Y-672186916D01*
X706564335Y-672206792D01*
X706580414Y-672247404D01*
X706584197Y-672258451D01*
X706596382Y-672300391D01*
X706606580Y-672317635D01*
X706615136Y-672335100D01*
X706622514Y-672353732D01*
X706622515Y-672353733D01*
X706648180Y-672389059D01*
X706654593Y-672398822D01*
X706676826Y-672436416D01*
X706676829Y-672436419D01*
X706676830Y-672436420D01*
X706690995Y-672450585D01*
X706703627Y-672465375D01*
X706715406Y-672481587D01*
X706749058Y-672509426D01*
X706757699Y-672517289D01*
X732028181Y-697787772D01*
X732055061Y-697828000D01*
X732064500Y-697875453D01*
X732064500Y-713747186D01*
X732047023Y-713810659D01*
X731999518Y-713856240D01*
X731921377Y-713898528D01*
X731921375Y-713898529D01*
X731921374Y-713898530D01*
X731877512Y-713932669D01*
X731738213Y-714041089D01*
X731729863Y-714050160D01*
X731677239Y-714084012D01*
X731614785Y-714087859D01*
X731558405Y-714060720D01*
X731522455Y-714009509D01*
X731493796Y-713932669D01*
X731407546Y-713817454D01*
X731292331Y-713731204D01*
X731157483Y-713680909D01*
X731097873Y-713674500D01*
X731097869Y-713674500D01*
X730899500Y-713674500D01*
X730837500Y-713657887D01*
X730792113Y-713612500D01*
X730775500Y-713550500D01*
X730775500Y-698222744D01*
X730777764Y-698202236D01*
X730775561Y-698132113D01*
X730775500Y-698128219D01*
X730775500Y-698100654D01*
X730775500Y-698100650D01*
X730774997Y-698096670D01*
X730774081Y-698085028D01*
X730772710Y-698041373D01*
X730767118Y-698022126D01*
X730763174Y-698003085D01*
X730760664Y-697983208D01*
X730744579Y-697942583D01*
X730740808Y-697931568D01*
X730728618Y-697889610D01*
X730718414Y-697872355D01*
X730709861Y-697854895D01*
X730702486Y-697836269D01*
X730702486Y-697836268D01*
X730676808Y-697800925D01*
X730670401Y-697791171D01*
X730648169Y-697753579D01*
X730634006Y-697739416D01*
X730621367Y-697724617D01*
X730609595Y-697708413D01*
X730575941Y-697680573D01*
X730567299Y-697672709D01*
X704131772Y-671237181D01*
X704101522Y-671187818D01*
X704096980Y-671130102D01*
X704119135Y-671076615D01*
X704163158Y-671039015D01*
X704219453Y-671025500D01*
X704291048Y-671025500D01*
X704291049Y-671025500D01*
X704519981Y-670987298D01*
X704739503Y-670911936D01*
X704943626Y-670801470D01*
X705126784Y-670658913D01*
X705283979Y-670488153D01*
X705410924Y-670293849D01*
X705504157Y-670081300D01*
X705561134Y-669856305D01*
X705580300Y-669625000D01*
X705561134Y-669393695D01*
X705504157Y-669168700D01*
X705410924Y-668956151D01*
X705283979Y-668761847D01*
X705126784Y-668591087D01*
X704943626Y-668448530D01*
X704739503Y-668338064D01*
X704739499Y-668338062D01*
X704739498Y-668338062D01*
X704519984Y-668262702D01*
X704329456Y-668230909D01*
X704291049Y-668224500D01*
X704058951Y-668224500D01*
X704020544Y-668230909D01*
X703830015Y-668262702D01*
X703610501Y-668338062D01*
X703406372Y-668448531D01*
X703223213Y-668591089D01*
X703214863Y-668600160D01*
X703162239Y-668634012D01*
X703099785Y-668637859D01*
X703043405Y-668610720D01*
X703007455Y-668559509D01*
X702978796Y-668482669D01*
X702892546Y-668367454D01*
X702777331Y-668281204D01*
X702642483Y-668230909D01*
X702582873Y-668224500D01*
X702582869Y-668224500D01*
X702384500Y-668224500D01*
X702322500Y-668207887D01*
X702277113Y-668162500D01*
X702260500Y-668100500D01*
X702260500Y-635117525D01*
X702274015Y-635061230D01*
X702311615Y-635017207D01*
X702365102Y-634995052D01*
X702422818Y-634999594D01*
G37*
G04 #@! TD.AperFunction*
G04 #@! TA.AperFunction,NonConductor*
G36*
X885987001Y-800009939D02*
G01*
X886027229Y-800036819D01*
X894736177Y-808745767D01*
X894768271Y-808801354D01*
X894768271Y-808865541D01*
X894714936Y-809064592D01*
X894706676Y-809159004D01*
X894681524Y-809223683D01*
X894625558Y-809264718D01*
X894556309Y-809269257D01*
X894495467Y-809235877D01*
X885709990Y-800450399D01*
X885697094Y-800434301D01*
X885645963Y-800386286D01*
X885643166Y-800383575D01*
X885623658Y-800364067D01*
X885620478Y-800361600D01*
X885611612Y-800354027D01*
X885579770Y-800324126D01*
X885562212Y-800314473D01*
X885545952Y-800303792D01*
X885530124Y-800291515D01*
X885490039Y-800274168D01*
X885479549Y-800269029D01*
X885441282Y-800247991D01*
X885433781Y-800246065D01*
X885428089Y-800244604D01*
X885375956Y-800216651D01*
X885342704Y-800167724D01*
X885335905Y-800108959D01*
X885357104Y-800053732D01*
X885401478Y-800014611D01*
X885458927Y-800000500D01*
X885939548Y-800000500D01*
X885987001Y-800009939D01*
G37*
G04 #@! TD.AperFunction*
M02*
